M48
; DRILL file {KiCad (5.1.10)-1} date 12/22/21 13:08:47
; FORMAT={-:-/ absolute / metric / decimal}
; #@! TF.CreationDate,2021-12-22T13:08:47+01:00
; #@! TF.GenerationSoftware,Kicad,Pcbnew,(5.1.10)-1
; #@! TF.FileFunction,Plated,1,2,PTH
FMAT,2
METRIC
T1C0.400
T2C0.733
T3C0.800
T4C0.900
T5C0.940
T6C1.000
T7C1.290
T8C1.380
T9C1.600
T10C2.700
%
G90
G05
T1
X76.19Y-76.126
X76.19Y-101.526
X76.19Y-121.846
X81.27Y-126.926
X88.89Y-58.346
X91.356Y-66.04
X91.43Y-48.186
X91.43Y-76.126
X94.478Y-88.826
X101.59Y-104.066
X101.59Y-126.926
X106.67Y-63.426
X106.67Y-65.966
X106.67Y-86.286
X119.37Y-50.726
X121.91Y-83.746
X124.45Y-104.066
X129.53Y-71.046
X132.07Y-55.806
X134.61Y-104.066
X147.31Y-126.926
X149.85Y-48.186
X152.39Y-104.066
X152.39Y-121.846
X154.93Y-76.126
T2
X91.44Y-70.802
X91.44Y-78.74
X93.98Y-70.802
X93.98Y-78.74
X96.52Y-70.802
X96.52Y-78.74
X99.06Y-70.802
X99.06Y-78.74
X101.6Y-70.802
X101.6Y-78.74
X104.14Y-70.802
X104.14Y-78.74
X106.68Y-70.802
X106.68Y-78.74
X109.22Y-70.802
X109.22Y-78.74
X111.76Y-70.802
X111.76Y-78.74
X114.3Y-70.802
X114.3Y-78.74
X116.84Y-70.802
X116.84Y-78.74
X119.38Y-70.802
X119.38Y-78.74
X121.92Y-70.802
X121.92Y-78.74
X124.46Y-70.802
X124.46Y-78.74
T3
X85.09Y-93.98
X85.09Y-104.14
X87.874Y-70.866
X87.874Y-78.486
X88.89Y-82.476
X88.89Y-90.096
X91.44Y-52.832
X91.44Y-57.832
X92.71Y-93.98
X92.71Y-104.14
X107.95Y-93.98
X107.95Y-104.14
X111.75Y-82.476
X111.75Y-90.096
X114.3Y-52.864
X114.3Y-54.864
X115.57Y-93.98
X115.57Y-104.14
X122.682Y-52.832
X122.682Y-60.452
T4
X111.84Y-63.5
X114.34Y-58.5
X116.84Y-63.5
T5
X86.3Y-99.06
X88.9Y-99.06
X91.5Y-99.06
X109.22Y-99.06
X111.82Y-99.06
X114.42Y-99.06
T6
X95.758Y-63.5
X95.758Y-66.04
X98.298Y-63.5
X98.298Y-66.04
X100.838Y-63.5
X100.838Y-66.04
T7
X99.06Y-52.832
X101.6Y-52.832
X104.14Y-52.832
T8
X97.79Y-91.44
X97.79Y-93.98
X97.79Y-96.52
X120.65Y-91.44
X120.65Y-93.98
X120.65Y-96.52
T9
X78.74Y-55.626
X78.74Y-60.706
X82.55Y-55.626
X82.55Y-60.706
X85.09Y-116.84
X85.09Y-121.92
X88.9Y-116.84
X88.9Y-121.92
X107.95Y-116.84
X107.95Y-121.92
X111.76Y-116.84
X111.76Y-121.92
X119.38Y-116.84
X119.38Y-121.92
X123.19Y-116.84
X123.19Y-121.92
X127.0Y-116.84
X127.0Y-121.92
X130.81Y-116.84
X130.81Y-121.92
X137.16Y-116.84
X137.16Y-121.92
X140.97Y-116.84
X140.97Y-121.92
X142.494Y-53.34
X142.494Y-57.15
X142.494Y-60.96
X142.494Y-64.77
X142.494Y-68.58
X142.494Y-72.39
X142.494Y-78.74
X142.494Y-82.55
X142.494Y-86.36
X142.494Y-90.17
X142.494Y-93.98
X142.494Y-97.79
X144.78Y-116.84
X144.78Y-121.92
X147.574Y-53.34
X147.574Y-57.15
X147.574Y-60.96
X147.574Y-64.77
X147.574Y-68.58
X147.574Y-72.39
X147.574Y-78.74
X147.574Y-82.55
X147.574Y-86.36
X147.574Y-90.17
X147.574Y-93.98
X147.574Y-97.79
X148.59Y-116.84
X148.59Y-121.92
T10
X71.11Y-45.646
X71.11Y-132.006
X157.47Y-45.646
X157.47Y-132.006
T0
M30
