%TF.GenerationSoftware,KiCad,Pcbnew,(5.1.10)-1*%
%TF.CreationDate,2021-12-22T13:08:42+01:00*%
%TF.ProjectId,Scheinwerfer_Dirk,53636865-696e-4776-9572-6665725f4469,V2.0*%
%TF.SameCoordinates,Original*%
%TF.FileFunction,Copper,L2,Bot*%
%TF.FilePolarity,Positive*%
%FSLAX46Y46*%
G04 Gerber Fmt 4.6, Leading zero omitted, Abs format (unit mm)*
G04 Created by KiCad (PCBNEW (5.1.10)-1) date 2021-12-22 13:08:42*
%MOMM*%
%LPD*%
G01*
G04 APERTURE LIST*
%TA.AperFunction,ComponentPad*%
%ADD10C,3.100000*%
%TD*%
%TA.AperFunction,ComponentPad*%
%ADD11C,1.133000*%
%TD*%
%TA.AperFunction,ComponentPad*%
%ADD12R,1.133000X1.133000*%
%TD*%
%TA.AperFunction,ComponentPad*%
%ADD13O,1.700000X1.700000*%
%TD*%
%TA.AperFunction,ComponentPad*%
%ADD14R,1.700000X1.700000*%
%TD*%
%TA.AperFunction,ComponentPad*%
%ADD15C,1.440000*%
%TD*%
%TA.AperFunction,ComponentPad*%
%ADD16C,2.070000*%
%TD*%
%TA.AperFunction,ComponentPad*%
%ADD17R,2.070000X2.070000*%
%TD*%
%TA.AperFunction,ComponentPad*%
%ADD18O,1.600000X1.600000*%
%TD*%
%TA.AperFunction,ComponentPad*%
%ADD19C,1.600000*%
%TD*%
%TA.AperFunction,ComponentPad*%
%ADD20C,1.620000*%
%TD*%
%TA.AperFunction,WasherPad*%
%ADD21C,1.524000*%
%TD*%
%TA.AperFunction,ComponentPad*%
%ADD22C,1.935000*%
%TD*%
%TA.AperFunction,ComponentPad*%
%ADD23R,1.935000X1.935000*%
%TD*%
%TA.AperFunction,ComponentPad*%
%ADD24C,2.400000*%
%TD*%
%TA.AperFunction,ComponentPad*%
%ADD25R,2.400000X2.400000*%
%TD*%
%TA.AperFunction,ViaPad*%
%ADD26C,0.800000*%
%TD*%
%TA.AperFunction,Conductor*%
%ADD27C,2.540000*%
%TD*%
%TA.AperFunction,Conductor*%
%ADD28C,0.508000*%
%TD*%
%TA.AperFunction,Conductor*%
%ADD29C,0.254000*%
%TD*%
%TA.AperFunction,Conductor*%
%ADD30C,1.270000*%
%TD*%
%TA.AperFunction,Conductor*%
%ADD31C,0.381000*%
%TD*%
%TA.AperFunction,Conductor*%
%ADD32C,0.100000*%
%TD*%
G04 APERTURE END LIST*
D10*
%TO.P,REF\u002A\u002A,1*%
%TO.N,N/C*%
X157470000Y-45646000D03*
%TD*%
%TO.P,REF\u002A\u002A,1*%
%TO.N,N/C*%
X157470000Y-132006000D03*
%TD*%
%TO.P,REF\u002A\u002A,1*%
%TO.N,N/C*%
X71110000Y-132006000D03*
%TD*%
%TO.P,REF\u002A\u002A,1*%
%TO.N,N/C*%
X71110000Y-45646000D03*
%TD*%
D11*
%TO.P,IC2,28*%
%TO.N,Net-(IC2-Pad28)*%
X91440000Y-70802000D03*
%TO.P,IC2,27*%
%TO.N,Net-(IC2-Pad27)*%
X93980000Y-70802000D03*
%TO.P,IC2,26*%
%TO.N,/Pot_Sys*%
X96520000Y-70802000D03*
%TO.P,IC2,25*%
%TO.N,/Pot_B*%
X99060000Y-70802000D03*
%TO.P,IC2,24*%
%TO.N,/Pot_G*%
X101600000Y-70802000D03*
%TO.P,IC2,23*%
%TO.N,/Pot_R*%
X104140000Y-70802000D03*
%TO.P,IC2,22*%
%TO.N,GND*%
X106680000Y-70802000D03*
%TO.P,IC2,21*%
%TO.N,+5V*%
X109220000Y-70802000D03*
%TO.P,IC2,20*%
X111760000Y-70802000D03*
%TO.P,IC2,19*%
%TO.N,/uC_SCK*%
X114300000Y-70802000D03*
%TO.P,IC2,18*%
%TO.N,/uC_MISO*%
X116840000Y-70802000D03*
%TO.P,IC2,17*%
%TO.N,/uC_MOSI*%
X119380000Y-70802000D03*
%TO.P,IC2,16*%
%TO.N,/PWM_G*%
X121920000Y-70802000D03*
%TO.P,IC2,15*%
%TO.N,/PWM_R*%
X124460000Y-70802000D03*
%TO.P,IC2,14*%
%TO.N,Net-(IC2-Pad14)*%
X124460000Y-78740000D03*
%TO.P,IC2,13*%
%TO.N,Net-(IC2-Pad13)*%
X121920000Y-78740000D03*
%TO.P,IC2,12*%
%TO.N,/PWM_1*%
X119380000Y-78740000D03*
%TO.P,IC2,11*%
%TO.N,/PWM_2*%
X116840000Y-78740000D03*
%TO.P,IC2,10*%
%TO.N,Net-(IC2-Pad10)*%
X114300000Y-78740000D03*
%TO.P,IC2,9*%
%TO.N,Net-(IC2-Pad9)*%
X111760000Y-78740000D03*
%TO.P,IC2,8*%
%TO.N,GND*%
X109220000Y-78740000D03*
%TO.P,IC2,7*%
%TO.N,+5V*%
X106680000Y-78740000D03*
%TO.P,IC2,6*%
%TO.N,Net-(IC2-Pad6)*%
X104140000Y-78740000D03*
%TO.P,IC2,5*%
%TO.N,/PWM_B*%
X101600000Y-78740000D03*
%TO.P,IC2,4*%
%TO.N,/SW_Mode*%
X99060000Y-78740000D03*
%TO.P,IC2,3*%
%TO.N,/LED_2*%
X96520000Y-78740000D03*
%TO.P,IC2,2*%
%TO.N,/LED_1*%
X93980000Y-78740000D03*
D12*
%TO.P,IC2,1*%
%TO.N,/uC_RESET*%
X91440000Y-78740000D03*
%TD*%
D13*
%TO.P,CON8,6*%
%TO.N,GND*%
X95758000Y-66040000D03*
%TO.P,CON8,5*%
%TO.N,/uC_MOSI*%
X98298000Y-66040000D03*
%TO.P,CON8,4*%
%TO.N,+5V*%
X100838000Y-66040000D03*
%TO.P,CON8,3*%
%TO.N,/uC_MISO*%
X100838000Y-63500000D03*
%TO.P,CON8,2*%
%TO.N,/uC_SCK*%
X98298000Y-63500000D03*
D14*
%TO.P,CON8,1*%
%TO.N,/uC_RESET*%
X95758000Y-63500000D03*
%TD*%
D15*
%TO.P,T4,3*%
%TO.N,GND*%
X109220000Y-99060000D03*
%TO.P,T4,2*%
%TO.N,Net-(R5-Pad2)*%
X111820000Y-99060000D03*
%TO.P,T4,1*%
%TO.N,Net-(D2-Pad1)*%
X114420000Y-99060000D03*
%TD*%
D16*
%TO.P,T3,3*%
%TO.N,GND*%
X120650000Y-96520000D03*
%TO.P,T3,2*%
%TO.N,Net-(CON7_2-Pad1)*%
X120650000Y-93980000D03*
D17*
%TO.P,T3,1*%
%TO.N,Net-(D2-Pad1)*%
X120650000Y-91440000D03*
%TD*%
D15*
%TO.P,T2,3*%
%TO.N,GND*%
X86300000Y-99060000D03*
%TO.P,T2,2*%
%TO.N,Net-(R3-Pad2)*%
X88900000Y-99060000D03*
%TO.P,T2,1*%
%TO.N,Net-(D1-Pad1)*%
X91500000Y-99060000D03*
%TD*%
D16*
%TO.P,T1,3*%
%TO.N,GND*%
X97790000Y-96520000D03*
%TO.P,T1,2*%
%TO.N,Net-(CON6_2-Pad1)*%
X97790000Y-93980000D03*
D17*
%TO.P,T1,1*%
%TO.N,Net-(D1-Pad1)*%
X97790000Y-91440000D03*
%TD*%
D18*
%TO.P,R7,2*%
%TO.N,+5V*%
X87874000Y-70866000D03*
D19*
%TO.P,R7,1*%
%TO.N,/uC_RESET*%
X87874000Y-78486000D03*
%TD*%
D18*
%TO.P,R6,2*%
%TO.N,+24V*%
X107950000Y-104140000D03*
D19*
%TO.P,R6,1*%
%TO.N,Net-(D2-Pad1)*%
X115570000Y-104140000D03*
%TD*%
D18*
%TO.P,R5,2*%
%TO.N,Net-(R5-Pad2)*%
X111750000Y-90096000D03*
D19*
%TO.P,R5,1*%
%TO.N,/PWM_2*%
X111750000Y-82476000D03*
%TD*%
D18*
%TO.P,R4,2*%
%TO.N,+24V*%
X85090000Y-104140000D03*
D19*
%TO.P,R4,1*%
%TO.N,Net-(D1-Pad1)*%
X92710000Y-104140000D03*
%TD*%
D18*
%TO.P,R3,2*%
%TO.N,Net-(R3-Pad2)*%
X88890000Y-90096000D03*
D19*
%TO.P,R3,1*%
%TO.N,/PWM_1*%
X88890000Y-82476000D03*
%TD*%
D20*
%TO.P,R2,1*%
%TO.N,Net-(R2-Pad1)*%
X116840000Y-63500000D03*
%TO.P,R2,2*%
%TO.N,Net-(IC1-Pad1)*%
X114340000Y-58500000D03*
%TO.P,R2,3*%
%TO.N,GND*%
X111840000Y-63500000D03*
%TD*%
D18*
%TO.P,R1,2*%
%TO.N,+5V*%
X122682000Y-52832000D03*
D19*
%TO.P,R1,1*%
%TO.N,Net-(IC1-Pad1)*%
X122682000Y-60452000D03*
%TD*%
D21*
%TO.P,KK3,*%
%TO.N,*%
X101600000Y-56134000D03*
%TD*%
%TO.P,KK2,*%
%TO.N,*%
X123952000Y-93980000D03*
%TD*%
%TO.P,KK1,*%
%TO.N,*%
X101092000Y-93980000D03*
%TD*%
D22*
%TO.P,IC1,3*%
%TO.N,+24V*%
X99060000Y-52832000D03*
%TO.P,IC1,2*%
%TO.N,+5V*%
X101600000Y-52832000D03*
D23*
%TO.P,IC1,1*%
%TO.N,Net-(IC1-Pad1)*%
X104140000Y-52832000D03*
%TD*%
D18*
%TO.P,D2,2*%
%TO.N,GND*%
X107950000Y-93980000D03*
D19*
%TO.P,D2,1*%
%TO.N,Net-(D2-Pad1)*%
X115570000Y-93980000D03*
%TD*%
D18*
%TO.P,D1,2*%
%TO.N,GND*%
X85090000Y-93980000D03*
D19*
%TO.P,D1,1*%
%TO.N,Net-(D1-Pad1)*%
X92710000Y-93980000D03*
%TD*%
D24*
%TO.P,CON7_2,2*%
%TO.N,Net-(CON7_2-Pad1)*%
X111760000Y-116840000D03*
D25*
%TO.P,CON7_2,1*%
X111760000Y-121920000D03*
%TD*%
D24*
%TO.P,CON7_1,2*%
%TO.N,+24V*%
X107950000Y-116840000D03*
D25*
%TO.P,CON7_1,1*%
X107950000Y-121920000D03*
%TD*%
D24*
%TO.P,CON6_2,2*%
%TO.N,Net-(CON6_2-Pad1)*%
X88900000Y-116840000D03*
D25*
%TO.P,CON6_2,1*%
X88900000Y-121920000D03*
%TD*%
D24*
%TO.P,CON6_1,2*%
%TO.N,+24V*%
X85090000Y-116840000D03*
D25*
%TO.P,CON6_1,1*%
X85090000Y-121920000D03*
%TD*%
D24*
%TO.P,CON5_4,2*%
%TO.N,/PWM_B*%
X148590000Y-116840000D03*
D25*
%TO.P,CON5_4,1*%
X148590000Y-121920000D03*
%TD*%
D24*
%TO.P,CON5_3,2*%
%TO.N,/PWM_G*%
X144780000Y-116840000D03*
D25*
%TO.P,CON5_3,1*%
X144780000Y-121920000D03*
%TD*%
D24*
%TO.P,CON5_2,2*%
%TO.N,/PWM_R*%
X140970000Y-116840000D03*
D25*
%TO.P,CON5_2,1*%
X140970000Y-121920000D03*
%TD*%
D24*
%TO.P,CON5_1,2*%
%TO.N,+5V*%
X137160000Y-116840000D03*
D25*
%TO.P,CON5_1,1*%
X137160000Y-121920000D03*
%TD*%
D24*
%TO.P,CON4_4,2*%
%TO.N,/PWM_B*%
X130810000Y-116840000D03*
D25*
%TO.P,CON4_4,1*%
X130810000Y-121920000D03*
%TD*%
D24*
%TO.P,CON4_3,2*%
%TO.N,/PWM_G*%
X127000000Y-116840000D03*
D25*
%TO.P,CON4_3,1*%
X127000000Y-121920000D03*
%TD*%
D24*
%TO.P,CON4_2,2*%
%TO.N,/PWM_R*%
X123190000Y-116840000D03*
D25*
%TO.P,CON4_2,1*%
X123190000Y-121920000D03*
%TD*%
D24*
%TO.P,CON4_1,2*%
%TO.N,+5V*%
X119380000Y-116840000D03*
D25*
%TO.P,CON4_1,1*%
X119380000Y-121920000D03*
%TD*%
D24*
%TO.P,CON3_6,2*%
%TO.N,GND*%
X142494000Y-53340000D03*
D25*
%TO.P,CON3_6,1*%
X147574000Y-53340000D03*
%TD*%
D24*
%TO.P,CON3_5,2*%
%TO.N,/Pot_Sys*%
X142494000Y-57150000D03*
D25*
%TO.P,CON3_5,1*%
X147574000Y-57150000D03*
%TD*%
D24*
%TO.P,CON3_4,2*%
%TO.N,/Pot_B*%
X142494000Y-60960000D03*
D25*
%TO.P,CON3_4,1*%
X147574000Y-60960000D03*
%TD*%
D24*
%TO.P,CON3_3,2*%
%TO.N,/Pot_G*%
X142494000Y-64770000D03*
D25*
%TO.P,CON3_3,1*%
X147574000Y-64770000D03*
%TD*%
D24*
%TO.P,CON3_2,2*%
%TO.N,/Pot_R*%
X142494000Y-68580000D03*
D25*
%TO.P,CON3_2,1*%
X147574000Y-68580000D03*
%TD*%
D24*
%TO.P,CON3_1,2*%
%TO.N,+5V*%
X142494000Y-72390000D03*
D25*
%TO.P,CON3_1,1*%
X147574000Y-72390000D03*
%TD*%
D24*
%TO.P,CON2_6,2*%
%TO.N,GND*%
X142494000Y-78740000D03*
D25*
%TO.P,CON2_6,1*%
X147574000Y-78740000D03*
%TD*%
D24*
%TO.P,CON2_5,2*%
%TO.N,/LED_2*%
X142494000Y-82550000D03*
D25*
%TO.P,CON2_5,1*%
X147574000Y-82550000D03*
%TD*%
D24*
%TO.P,CON2_4,2*%
%TO.N,/LED_1*%
X142494000Y-86360000D03*
D25*
%TO.P,CON2_4,1*%
X147574000Y-86360000D03*
%TD*%
D24*
%TO.P,CON2_3,2*%
%TO.N,/uC_RESET*%
X142494000Y-90170000D03*
D25*
%TO.P,CON2_3,1*%
X147574000Y-90170000D03*
%TD*%
D24*
%TO.P,CON2_2,2*%
%TO.N,/SW_Mode*%
X142494000Y-93980000D03*
D25*
%TO.P,CON2_2,1*%
X147574000Y-93980000D03*
%TD*%
D24*
%TO.P,CON2_1,2*%
%TO.N,+5V*%
X142494000Y-97790000D03*
D25*
%TO.P,CON2_1,1*%
X147574000Y-97790000D03*
%TD*%
D24*
%TO.P,CON1_2,2*%
%TO.N,GND*%
X78740000Y-60706000D03*
D25*
%TO.P,CON1_2,1*%
X78740000Y-55626000D03*
%TD*%
D24*
%TO.P,CON1_1,2*%
%TO.N,+24V*%
X82550000Y-60706000D03*
D25*
%TO.P,CON1_1,1*%
X82550000Y-55626000D03*
%TD*%
D19*
%TO.P,C2,2*%
%TO.N,GND*%
X114300000Y-54864000D03*
%TO.P,C2,1*%
%TO.N,+5V*%
X114300000Y-52864000D03*
%TD*%
%TO.P,C1,2*%
%TO.N,GND*%
X91440000Y-57832000D03*
%TO.P,C1,1*%
%TO.N,+24V*%
X91440000Y-52832000D03*
%TD*%
D26*
%TO.N,GND*%
X76190000Y-101526000D03*
X76190000Y-121846000D03*
X81270000Y-126926000D03*
X76190000Y-76126000D03*
X101590000Y-126926000D03*
X101590000Y-104066000D03*
X124450000Y-104066000D03*
X91430000Y-76126000D03*
X91430000Y-48186000D03*
X119370000Y-50726000D03*
X132070000Y-55806000D03*
X149850000Y-48186000D03*
X129530000Y-71046000D03*
X134610000Y-104066000D03*
X152390000Y-104066000D03*
X152390000Y-121846000D03*
X147310000Y-126926000D03*
X121910000Y-83746000D03*
X106670000Y-63426000D03*
X91356000Y-66040000D03*
X106670000Y-65966000D03*
X88890000Y-58346000D03*
X154930000Y-76126000D03*
X94478000Y-88826000D03*
X106670000Y-86286000D03*
%TD*%
D27*
%TO.N,GND*%
X78740000Y-55626000D02*
X78740000Y-60706000D01*
X147574000Y-78740000D02*
X142494000Y-78740000D01*
X142494000Y-53340000D02*
X147574000Y-53340000D01*
X78740000Y-54389998D02*
X85197998Y-47932000D01*
X78740000Y-55626000D02*
X78740000Y-54389998D01*
X137086000Y-47932000D02*
X142494000Y-53340000D01*
X85197998Y-47932000D02*
X137086000Y-47932000D01*
X147574000Y-53340000D02*
X150284000Y-53340000D01*
X150284000Y-53340000D02*
X152390000Y-55446000D01*
X152390000Y-73924000D02*
X147574000Y-78740000D01*
X152390000Y-55446000D02*
X152390000Y-73924000D01*
D28*
X85090000Y-97850000D02*
X86300000Y-99060000D01*
X85090000Y-93980000D02*
X85090000Y-97850000D01*
X85090000Y-93980000D02*
X85090000Y-90848000D01*
X85090000Y-90848000D02*
X87620000Y-88318000D01*
X87620000Y-88318000D02*
X94478000Y-88318000D01*
X101590000Y-88318000D02*
X103114000Y-89842000D01*
X103114000Y-89842000D02*
X103114000Y-94922000D01*
X101516000Y-96520000D02*
X97790000Y-96520000D01*
X103114000Y-94922000D02*
X101516000Y-96520000D01*
X107950000Y-97790000D02*
X109220000Y-99060000D01*
X107950000Y-93980000D02*
X107950000Y-97790000D01*
X107950000Y-93980000D02*
X107950000Y-90848000D01*
X107950000Y-90848000D02*
X110480000Y-88318000D01*
X110480000Y-88318000D02*
X123942000Y-88318000D01*
X126736000Y-91112000D02*
X126736000Y-95176000D01*
X125392000Y-96520000D02*
X120650000Y-96520000D01*
X126736000Y-95176000D02*
X125392000Y-96520000D01*
X120650000Y-54864000D02*
X125222000Y-59436000D01*
X114300000Y-54864000D02*
X120650000Y-54864000D01*
X125222000Y-61214000D02*
X123698000Y-62738000D01*
X125222000Y-59626000D02*
X125222000Y-61214000D01*
D29*
X125222000Y-59436000D02*
X125222000Y-59626000D01*
D28*
X120820000Y-62738000D02*
X119042000Y-60960000D01*
X123698000Y-62738000D02*
X120820000Y-62738000D01*
X114380000Y-60960000D02*
X111840000Y-63500000D01*
X119042000Y-60960000D02*
X114380000Y-60960000D01*
X106172000Y-57832000D02*
X111840000Y-63500000D01*
X91440000Y-57832000D02*
X106172000Y-57832000D01*
X111840000Y-63500000D02*
X106670000Y-68670000D01*
X106670000Y-70792000D02*
X106680000Y-70802000D01*
X106670000Y-68670000D02*
X106670000Y-70792000D01*
X124069000Y-88445000D02*
X126736000Y-91112000D01*
X123942000Y-88318000D02*
X124069000Y-88445000D01*
X129022000Y-76634000D02*
X129022000Y-83492000D01*
X126990000Y-74602000D02*
X129022000Y-76634000D01*
X109220000Y-75862000D02*
X110480000Y-74602000D01*
X129022000Y-83492000D02*
X124069000Y-88445000D01*
X110480000Y-74602000D02*
X126990000Y-74602000D01*
X109220000Y-78740000D02*
X109220000Y-75862000D01*
X105400000Y-79682000D02*
X106162000Y-80444000D01*
X105400000Y-75364000D02*
X105400000Y-79682000D01*
X103622000Y-73586000D02*
X105400000Y-75364000D01*
X87986078Y-73586000D02*
X103622000Y-73586000D01*
X86296011Y-67543989D02*
X86296011Y-71895933D01*
X86296011Y-71895933D02*
X87986078Y-73586000D01*
X87800000Y-66040000D02*
X86296011Y-67543989D01*
X95758000Y-66040000D02*
X91356000Y-66040000D01*
X84572000Y-64700000D02*
X84572000Y-77142000D01*
X91440000Y-57832000D02*
X84572000Y-64700000D01*
X87874000Y-80444000D02*
X106162000Y-80444000D01*
X84572000Y-77142000D02*
X87874000Y-80444000D01*
X108653501Y-79306499D02*
X109220000Y-78740000D01*
X107516000Y-80444000D02*
X108653501Y-79306499D01*
X106162000Y-80444000D02*
X107516000Y-80444000D01*
D27*
X97790000Y-108120000D02*
X97790000Y-96755009D01*
X97790000Y-120820000D02*
X97790000Y-108120000D01*
X91684000Y-126926000D02*
X97790000Y-120820000D01*
X120650000Y-108628000D02*
X120650000Y-96720010D01*
X114798000Y-124386000D02*
X114798000Y-114480000D01*
X112258000Y-126926000D02*
X114798000Y-124386000D01*
X81270000Y-126926000D02*
X81270000Y-126926000D01*
X114798000Y-114480000D02*
X120650000Y-108628000D01*
X78740000Y-124396000D02*
X81270000Y-126926000D01*
X78740000Y-60706000D02*
X78740000Y-124396000D01*
X81270000Y-126926000D02*
X101590000Y-126926000D01*
X101590000Y-126926000D02*
X112258000Y-126926000D01*
D28*
X91356000Y-66040000D02*
X87800000Y-66040000D01*
X94478000Y-88318000D02*
X101590000Y-88318000D01*
D27*
%TO.N,+24V*%
X82550000Y-55626000D02*
X82550000Y-60706000D01*
X82550000Y-55626000D02*
X82550000Y-55372000D01*
X85090000Y-52832000D02*
X91440000Y-52832000D01*
X82550000Y-55372000D02*
X85090000Y-52832000D01*
X91440000Y-52832000D02*
X99060000Y-52832000D01*
X82550000Y-101600000D02*
X85090000Y-104140000D01*
X85090000Y-121920000D02*
X85090000Y-116840000D01*
X85090000Y-116840000D02*
X85090000Y-104140000D01*
X107950000Y-121920000D02*
X107950000Y-116840000D01*
X107950000Y-116840000D02*
X107950000Y-104140000D01*
X107950000Y-104140000D02*
X105410000Y-101600000D01*
X105410000Y-101600000D02*
X105410000Y-88900000D01*
X102870000Y-86360000D02*
X82550000Y-86360000D01*
X105410000Y-88900000D02*
X102870000Y-86360000D01*
X82550000Y-86360000D02*
X82550000Y-101600000D01*
X82550000Y-60706000D02*
X82550000Y-86360000D01*
%TO.N,+5V*%
X119380000Y-121920000D02*
X119380000Y-116840000D01*
X137160000Y-121920000D02*
X137160000Y-116840000D01*
X142494000Y-97790000D02*
X147574000Y-97790000D01*
X142494000Y-72390000D02*
X147574000Y-72390000D01*
D30*
X101600000Y-52832000D02*
X101600000Y-51562000D01*
X101600000Y-51562000D02*
X102362000Y-50800000D01*
X107610002Y-52864000D02*
X114300000Y-52864000D01*
X105546002Y-50800000D02*
X107610002Y-52864000D01*
X102362000Y-50800000D02*
X105546002Y-50800000D01*
X122650000Y-52864000D02*
X122682000Y-52832000D01*
X114300000Y-52864000D02*
X122650000Y-52864000D01*
X134874000Y-72390000D02*
X142494000Y-72390000D01*
X134874000Y-72390000D02*
X134874000Y-95758000D01*
X136906000Y-97790000D02*
X142494000Y-97790000D01*
X134874000Y-95758000D02*
X136906000Y-97790000D01*
X136906000Y-116586000D02*
X137160000Y-116840000D01*
X137160000Y-97790000D02*
X137160000Y-108966000D01*
X137160000Y-108966000D02*
X137160000Y-116586000D01*
D28*
X109220000Y-70802000D02*
X109220000Y-73576000D01*
X106680000Y-76116000D02*
X106680000Y-78740000D01*
X109220000Y-73576000D02*
X106680000Y-76116000D01*
X109220000Y-70802000D02*
X111760000Y-70802000D01*
D27*
X134883022Y-125890978D02*
X120874977Y-125890978D01*
X119380000Y-124396001D02*
X119380000Y-121920000D01*
X137160000Y-123614000D02*
X134883022Y-125890978D01*
X120874977Y-125890978D02*
X119380000Y-124396001D01*
X137160000Y-121920000D02*
X137160000Y-123614000D01*
D30*
X134864000Y-72380000D02*
X134874000Y-72390000D01*
X134864000Y-65014000D02*
X134864000Y-72380000D01*
X109220000Y-70802000D02*
X114056000Y-65966000D01*
X122926000Y-65966000D02*
X129371000Y-59521000D01*
X114056000Y-65966000D02*
X122926000Y-65966000D01*
X129371000Y-59521000D02*
X134864000Y-65014000D01*
X122682000Y-52832000D02*
X129371000Y-59521000D01*
D28*
X107706000Y-72316000D02*
X109220000Y-70802000D01*
X105400000Y-72316000D02*
X107706000Y-72316000D01*
X105400000Y-68252000D02*
X105400000Y-72316000D01*
X103188000Y-66040000D02*
X105400000Y-68252000D01*
X100838000Y-66040000D02*
X103188000Y-66040000D01*
X89324000Y-72316000D02*
X87874000Y-70866000D01*
X105400000Y-72316000D02*
X89324000Y-72316000D01*
D27*
%TO.N,/uC_RESET*%
X142494000Y-90170000D02*
X147574000Y-90170000D01*
D28*
X88562000Y-63500000D02*
X95758000Y-63500000D01*
X85588000Y-66474000D02*
X88562000Y-63500000D01*
X85588000Y-76200000D02*
X85588000Y-66474000D01*
X87874000Y-78486000D02*
X85588000Y-76200000D01*
X87874000Y-78486000D02*
X87948000Y-78486000D01*
X88202000Y-78740000D02*
X91440000Y-78740000D01*
X87948000Y-78486000D02*
X88202000Y-78740000D01*
D27*
%TO.N,/SW_Mode*%
X142494000Y-93980000D02*
X147574000Y-93980000D01*
%TO.N,/LED_1*%
X142494000Y-86360000D02*
X147574000Y-86360000D01*
%TO.N,/LED_2*%
X142494000Y-82550000D02*
X147574000Y-82550000D01*
%TO.N,/Pot_R*%
X147574000Y-68580000D02*
X142494000Y-68580000D01*
%TO.N,/Pot_G*%
X147574000Y-64770000D02*
X142494000Y-64770000D01*
%TO.N,/Pot_B*%
X142494000Y-60960000D02*
X147574000Y-60960000D01*
%TO.N,/Pot_Sys*%
X147574000Y-57150000D02*
X142494000Y-57150000D01*
%TO.N,/PWM_R*%
X123190000Y-116840000D02*
X123190000Y-121920000D01*
X140970000Y-121920000D02*
X140970000Y-116840000D01*
D29*
X142002497Y-122581503D02*
X142002497Y-122207570D01*
X116830000Y-115615933D02*
X118165943Y-114279990D01*
X119423990Y-128130056D02*
X116830000Y-125536066D01*
X119689943Y-128396011D02*
X119423990Y-128130056D01*
X136008091Y-128396011D02*
X119689943Y-128396011D01*
X140970000Y-123434102D02*
X136008091Y-128396011D01*
X116830000Y-125536066D02*
X116830000Y-115615933D01*
X140970000Y-121920000D02*
X140970000Y-123434102D01*
X118165943Y-114279990D02*
X122217990Y-114279990D01*
X123190000Y-115252000D02*
X123190000Y-116840000D01*
X122217990Y-114279990D02*
X123190000Y-115252000D01*
D27*
%TO.N,/PWM_G*%
X127000000Y-121920000D02*
X127000000Y-116840000D01*
X144780000Y-121920000D02*
X144780000Y-116840000D01*
D29*
X139372990Y-124389044D02*
X139372990Y-115813010D01*
X140070010Y-115115990D02*
X143055990Y-115115990D01*
X118354000Y-114734001D02*
X117284011Y-115803990D01*
X120386001Y-114734001D02*
X118354000Y-114734001D01*
X143580001Y-115640001D02*
X144780000Y-116840000D01*
X135820034Y-127942000D02*
X139372990Y-124389044D01*
X119878001Y-127942000D02*
X135820034Y-127942000D01*
X117284011Y-125348009D02*
X119878001Y-127942000D01*
X121431021Y-123401320D02*
X121431021Y-115779021D01*
X121634679Y-123604978D02*
X121431021Y-123401320D01*
X125315022Y-123604978D02*
X121634679Y-123604978D01*
X127000000Y-121920000D02*
X125315022Y-123604978D01*
X117284011Y-115803990D02*
X117284011Y-125348009D01*
X143055990Y-115115990D02*
X143580001Y-115640001D01*
X139372990Y-115813010D02*
X140070010Y-115115990D01*
X121431021Y-115779021D02*
X120386001Y-114734001D01*
D27*
%TO.N,/PWM_B*%
X130810000Y-121920000D02*
X130810000Y-116840000D01*
X148590000Y-121920000D02*
X148590000Y-116840000D01*
D29*
X138791980Y-121728020D02*
X138757010Y-121762990D01*
X139881953Y-114661980D02*
X144860493Y-114661980D01*
X138791980Y-115751953D02*
X139881953Y-114661980D01*
X138791980Y-121728020D02*
X138791980Y-115751953D01*
X144860493Y-114661980D02*
X147745980Y-114661980D01*
X148590000Y-115506000D02*
X148590000Y-116840000D01*
X147745980Y-114661980D02*
X148590000Y-115506000D01*
X120132990Y-115242990D02*
X120977010Y-116087010D01*
X138791980Y-121728020D02*
X138791980Y-124327986D01*
X138791980Y-124327986D02*
X135631977Y-127487989D01*
X135631977Y-127487989D02*
X120213475Y-127487989D01*
X120977010Y-123589377D02*
X121446622Y-124058989D01*
X117738022Y-116111978D02*
X118607010Y-115242990D01*
X118607010Y-115242990D02*
X120132990Y-115242990D01*
X117738022Y-125012534D02*
X117738022Y-116111978D01*
X120977010Y-116087010D02*
X120977010Y-123589377D01*
X121446622Y-124058989D02*
X128671011Y-124058989D01*
X120213475Y-127487989D02*
X117738022Y-125012534D01*
X128671011Y-124058989D02*
X130810000Y-121920000D01*
D27*
%TO.N,Net-(CON6_2-Pad1)*%
X88900000Y-121920000D02*
X88900000Y-116840000D01*
X88890000Y-116830000D02*
X88900000Y-116840000D01*
X88890000Y-113145040D02*
X88890000Y-116830000D01*
X95049989Y-106985051D02*
X88890000Y-113145040D01*
X95049989Y-95620060D02*
X95049989Y-106985051D01*
X96690049Y-93980000D02*
X95049989Y-95620060D01*
X97536000Y-93980000D02*
X96690049Y-93980000D01*
%TO.N,Net-(CON7_2-Pad1)*%
X111760000Y-121920000D02*
X111760000Y-116840000D01*
X111759999Y-112982922D02*
X111760000Y-116840000D01*
X117899989Y-106842932D02*
X111759999Y-112982922D01*
X117899989Y-95266300D02*
X117899989Y-106842932D01*
X119186289Y-93980000D02*
X117899989Y-95266300D01*
X120650000Y-93980000D02*
X119186289Y-93980000D01*
D28*
%TO.N,Net-(D1-Pad1)*%
X95250000Y-91440000D02*
X97790000Y-91440000D01*
X92710000Y-93980000D02*
X95250000Y-91440000D01*
X91500000Y-95190000D02*
X92710000Y-93980000D01*
X91500000Y-99060000D02*
X91500000Y-95190000D01*
X91500000Y-102930000D02*
X92710000Y-104140000D01*
X91500000Y-99060000D02*
X91500000Y-102930000D01*
%TO.N,Net-(D2-Pad1)*%
X114420000Y-95130000D02*
X115570000Y-93980000D01*
X114420000Y-99060000D02*
X114420000Y-95130000D01*
X114420000Y-102990000D02*
X115570000Y-104140000D01*
X114420000Y-99060000D02*
X114420000Y-102990000D01*
X118110000Y-91440000D02*
X120650000Y-91440000D01*
X115570000Y-93980000D02*
X118110000Y-91440000D01*
%TO.N,Net-(IC1-Pad1)*%
X104404000Y-52832000D02*
X110072000Y-58500000D01*
X104140000Y-52832000D02*
X104404000Y-52832000D01*
X110072000Y-58500000D02*
X114340000Y-58500000D01*
X120730000Y-58500000D02*
X122682000Y-60452000D01*
X114340000Y-58500000D02*
X120730000Y-58500000D01*
%TO.N,/PWM_1*%
X119380000Y-78740000D02*
X119380000Y-79164000D01*
X119380000Y-79164000D02*
X114290000Y-84254000D01*
X90668000Y-84254000D02*
X88890000Y-82476000D01*
X114290000Y-84254000D02*
X90668000Y-84254000D01*
%TO.N,/PWM_2*%
X111750000Y-82476000D02*
X114798000Y-82476000D01*
X116840000Y-80434000D02*
X116840000Y-78740000D01*
X114798000Y-82476000D02*
X116840000Y-80434000D01*
%TO.N,Net-(R3-Pad2)*%
X88900000Y-90106000D02*
X88890000Y-90096000D01*
X88900000Y-99060000D02*
X88900000Y-90106000D01*
%TO.N,Net-(R5-Pad2)*%
X111750000Y-98990000D02*
X111820000Y-99060000D01*
X111820000Y-90166000D02*
X111750000Y-90096000D01*
X111820000Y-99060000D02*
X111820000Y-90166000D01*
%TD*%
D31*
%TO.N,GND*%
X152199500Y-50726000D02*
X152203160Y-50763165D01*
X152214001Y-50798901D01*
X152231605Y-50831836D01*
X152255296Y-50860704D01*
X152284164Y-50884395D01*
X152317099Y-50901999D01*
X152352835Y-50912840D01*
X152390000Y-50916500D01*
X162359500Y-50916500D01*
X162359500Y-126735500D01*
X152390000Y-126735500D01*
X152352835Y-126739160D01*
X152317099Y-126750001D01*
X152284164Y-126767605D01*
X152255296Y-126791296D01*
X152231605Y-126820164D01*
X152214001Y-126853099D01*
X152203160Y-126888835D01*
X152199500Y-126926000D01*
X152199500Y-136895500D01*
X76380500Y-136895500D01*
X76380500Y-126926000D01*
X76376840Y-126888835D01*
X76365999Y-126853099D01*
X76348395Y-126820164D01*
X76324704Y-126791296D01*
X76295836Y-126767605D01*
X76262901Y-126750001D01*
X76227165Y-126739160D01*
X76190000Y-126735500D01*
X66220500Y-126735500D01*
X66220500Y-61975537D01*
X77560265Y-61975537D01*
X77670684Y-62285820D01*
X77999438Y-62464077D01*
X78356652Y-62574773D01*
X78728597Y-62613652D01*
X79100981Y-62579222D01*
X79459492Y-62472805D01*
X79790353Y-62298491D01*
X79809316Y-62285820D01*
X79919735Y-61975537D01*
X78740000Y-60795803D01*
X77560265Y-61975537D01*
X66220500Y-61975537D01*
X66220500Y-60694597D01*
X76832348Y-60694597D01*
X76866778Y-61066981D01*
X76973195Y-61425492D01*
X77147509Y-61756353D01*
X77160180Y-61775316D01*
X77470463Y-61885735D01*
X78650197Y-60706000D01*
X77470463Y-59526265D01*
X77160180Y-59636684D01*
X76981923Y-59965438D01*
X76871227Y-60322652D01*
X76832348Y-60694597D01*
X66220500Y-60694597D01*
X66220500Y-59436463D01*
X77560265Y-59436463D01*
X78740000Y-60616197D01*
X79919735Y-59436463D01*
X79809316Y-59126180D01*
X79480562Y-58947923D01*
X79123348Y-58837227D01*
X78751403Y-58798348D01*
X78379019Y-58832778D01*
X78020508Y-58939195D01*
X77689647Y-59113509D01*
X77670684Y-59126180D01*
X77560265Y-59436463D01*
X66220500Y-59436463D01*
X66220500Y-56826000D01*
X76838120Y-56826000D01*
X76851606Y-56962930D01*
X76891547Y-57094598D01*
X76956408Y-57215944D01*
X77043696Y-57322304D01*
X77150056Y-57409592D01*
X77271402Y-57474453D01*
X77403070Y-57514394D01*
X77540000Y-57527880D01*
X78501875Y-57524500D01*
X78676500Y-57349875D01*
X78676500Y-55689500D01*
X77016125Y-55689500D01*
X76841500Y-55864125D01*
X76838120Y-56826000D01*
X66220500Y-56826000D01*
X66220500Y-54426000D01*
X76838120Y-54426000D01*
X76841500Y-55387875D01*
X77016125Y-55562500D01*
X78676500Y-55562500D01*
X78676500Y-53902125D01*
X78803500Y-53902125D01*
X78803500Y-55562500D01*
X78823500Y-55562500D01*
X78823500Y-55689500D01*
X78803500Y-55689500D01*
X78803500Y-57349875D01*
X78978125Y-57524500D01*
X79940000Y-57527880D01*
X80076930Y-57514394D01*
X80208598Y-57474453D01*
X80329944Y-57409592D01*
X80436304Y-57322304D01*
X80523592Y-57215944D01*
X80581500Y-57107606D01*
X80581501Y-60238153D01*
X80506805Y-59986508D01*
X80332491Y-59655647D01*
X80319820Y-59636684D01*
X80009537Y-59526265D01*
X78829803Y-60706000D01*
X80009537Y-61885735D01*
X80319820Y-61775316D01*
X80498077Y-61446562D01*
X80581500Y-61177357D01*
X80581501Y-86263291D01*
X80571976Y-86360000D01*
X80581500Y-86456699D01*
X80581501Y-101503301D01*
X80571977Y-101600000D01*
X80609984Y-101985893D01*
X80722545Y-102356957D01*
X80905334Y-102698931D01*
X81089684Y-102923563D01*
X81089689Y-102923568D01*
X81151327Y-102998674D01*
X81226433Y-103060312D01*
X83121501Y-104955380D01*
X83121500Y-116936698D01*
X83121501Y-116936708D01*
X83121500Y-122016698D01*
X83149983Y-122305892D01*
X83188121Y-122431616D01*
X83188121Y-123120000D01*
X83201607Y-123256930D01*
X83241548Y-123388597D01*
X83306409Y-123509943D01*
X83393697Y-123616303D01*
X83500057Y-123703591D01*
X83621403Y-123768452D01*
X83753070Y-123808393D01*
X83890000Y-123821879D01*
X84578383Y-123821879D01*
X84704107Y-123860017D01*
X85090000Y-123898024D01*
X85475892Y-123860017D01*
X85601616Y-123821879D01*
X86290000Y-123821879D01*
X86426930Y-123808393D01*
X86558597Y-123768452D01*
X86679943Y-123703591D01*
X86786303Y-123616303D01*
X86873591Y-123509943D01*
X86938452Y-123388597D01*
X86978393Y-123256930D01*
X86991879Y-123120000D01*
X86991879Y-122431617D01*
X86995000Y-122421328D01*
X86998121Y-122431616D01*
X86998121Y-123120000D01*
X87011607Y-123256930D01*
X87051548Y-123388597D01*
X87116409Y-123509943D01*
X87203697Y-123616303D01*
X87310057Y-123703591D01*
X87431403Y-123768452D01*
X87563070Y-123808393D01*
X87700000Y-123821879D01*
X88388383Y-123821879D01*
X88514107Y-123860017D01*
X88900000Y-123898024D01*
X89285892Y-123860017D01*
X89411616Y-123821879D01*
X90100000Y-123821879D01*
X90236930Y-123808393D01*
X90368597Y-123768452D01*
X90489943Y-123703591D01*
X90596303Y-123616303D01*
X90683591Y-123509943D01*
X90748452Y-123388597D01*
X90788393Y-123256930D01*
X90801879Y-123120000D01*
X90801879Y-122431617D01*
X90840017Y-122305893D01*
X90868500Y-122016699D01*
X90868500Y-116936688D01*
X90878023Y-116839999D01*
X90868500Y-116743310D01*
X90868500Y-116743301D01*
X90858500Y-116641769D01*
X90858500Y-113960419D01*
X96373557Y-108445363D01*
X96448663Y-108383725D01*
X96510301Y-108308619D01*
X96510305Y-108308615D01*
X96694655Y-108083983D01*
X96729651Y-108018511D01*
X96877445Y-107742008D01*
X96990006Y-107370944D01*
X97018489Y-107081750D01*
X97018489Y-107081740D01*
X97028012Y-106985051D01*
X97018489Y-106888362D01*
X97018489Y-98073386D01*
X97118893Y-98127416D01*
X97445380Y-98227456D01*
X97785110Y-98261880D01*
X98125028Y-98229365D01*
X98452070Y-98131159D01*
X98753670Y-97971038D01*
X98761803Y-97965604D01*
X98852411Y-97672214D01*
X97790000Y-96609803D01*
X97775858Y-96623945D01*
X97686055Y-96534142D01*
X97700197Y-96520000D01*
X97879803Y-96520000D01*
X98942214Y-97582411D01*
X99235604Y-97491803D01*
X99397416Y-97191107D01*
X99497456Y-96864620D01*
X99531880Y-96524890D01*
X99499365Y-96184972D01*
X99401159Y-95857930D01*
X99241038Y-95556330D01*
X99235604Y-95548197D01*
X98942214Y-95457589D01*
X97879803Y-96520000D01*
X97700197Y-96520000D01*
X97686055Y-96505858D01*
X97775858Y-96416055D01*
X97790000Y-96430197D01*
X98550287Y-95669910D01*
X98634931Y-95624667D01*
X98934674Y-95378674D01*
X99180667Y-95078931D01*
X99363456Y-94736957D01*
X99392653Y-94640709D01*
X99456883Y-94485643D01*
X99523500Y-94150735D01*
X99523500Y-93836153D01*
X99631500Y-93836153D01*
X99631500Y-94123847D01*
X99687626Y-94406012D01*
X99797721Y-94671806D01*
X99957555Y-94911015D01*
X100160985Y-95114445D01*
X100400194Y-95274279D01*
X100665988Y-95384374D01*
X100948153Y-95440500D01*
X101235847Y-95440500D01*
X101518012Y-95384374D01*
X101783806Y-95274279D01*
X102023015Y-95114445D01*
X102226445Y-94911015D01*
X102386279Y-94671806D01*
X102496374Y-94406012D01*
X102552500Y-94123847D01*
X102552500Y-93836153D01*
X102496374Y-93553988D01*
X102386279Y-93288194D01*
X102226445Y-93048985D01*
X102023015Y-92845555D01*
X101783806Y-92685721D01*
X101518012Y-92575626D01*
X101235847Y-92519500D01*
X100948153Y-92519500D01*
X100665988Y-92575626D01*
X100400194Y-92685721D01*
X100160985Y-92845555D01*
X99957555Y-93048985D01*
X99797721Y-93288194D01*
X99687626Y-93553988D01*
X99631500Y-93836153D01*
X99523500Y-93836153D01*
X99523500Y-93809265D01*
X99456883Y-93474357D01*
X99392653Y-93319291D01*
X99363456Y-93223043D01*
X99257073Y-93024015D01*
X99321303Y-92971303D01*
X99408591Y-92864943D01*
X99473452Y-92743597D01*
X99513393Y-92611930D01*
X99526879Y-92475000D01*
X99526879Y-90405000D01*
X99513393Y-90268070D01*
X99473452Y-90136403D01*
X99408591Y-90015057D01*
X99321303Y-89908697D01*
X99214943Y-89821409D01*
X99093597Y-89756548D01*
X98961930Y-89716607D01*
X98825000Y-89703121D01*
X96755000Y-89703121D01*
X96618070Y-89716607D01*
X96486403Y-89756548D01*
X96365057Y-89821409D01*
X96258697Y-89908697D01*
X96171409Y-90015057D01*
X96106548Y-90136403D01*
X96066607Y-90268070D01*
X96053121Y-90405000D01*
X96053121Y-90487500D01*
X95296784Y-90487500D01*
X95249999Y-90482892D01*
X95063277Y-90501283D01*
X94883731Y-90555748D01*
X94718259Y-90644194D01*
X94573222Y-90763222D01*
X94543393Y-90799569D01*
X92860819Y-92482143D01*
X92857589Y-92481500D01*
X92562411Y-92481500D01*
X92272904Y-92539086D01*
X92000194Y-92652046D01*
X91754762Y-92816039D01*
X91546039Y-93024762D01*
X91382046Y-93270194D01*
X91269086Y-93542904D01*
X91211500Y-93832411D01*
X91211500Y-94127589D01*
X91212143Y-94130819D01*
X90859565Y-94483397D01*
X90823223Y-94513222D01*
X90793399Y-94549563D01*
X90704194Y-94658260D01*
X90615749Y-94823731D01*
X90561283Y-95003278D01*
X90542892Y-95190000D01*
X90547501Y-95236794D01*
X90547500Y-98006438D01*
X90398179Y-98155759D01*
X90242941Y-98388088D01*
X90200000Y-98491757D01*
X90157059Y-98388088D01*
X90001821Y-98155759D01*
X89852500Y-98006438D01*
X89852500Y-91252699D01*
X90053961Y-91051238D01*
X90217954Y-90805806D01*
X90330914Y-90533096D01*
X90388500Y-90243589D01*
X90388500Y-89948411D01*
X90330914Y-89658904D01*
X90217954Y-89386194D01*
X90053961Y-89140762D01*
X89845238Y-88932039D01*
X89599806Y-88768046D01*
X89327096Y-88655086D01*
X89037589Y-88597500D01*
X88742411Y-88597500D01*
X88452904Y-88655086D01*
X88180194Y-88768046D01*
X87934762Y-88932039D01*
X87726039Y-89140762D01*
X87562046Y-89386194D01*
X87449086Y-89658904D01*
X87391500Y-89948411D01*
X87391500Y-90243589D01*
X87449086Y-90533096D01*
X87562046Y-90805806D01*
X87726039Y-91051238D01*
X87934762Y-91259961D01*
X87947501Y-91268473D01*
X87947500Y-98006438D01*
X87798179Y-98155759D01*
X87642941Y-98388088D01*
X87602403Y-98485955D01*
X87489323Y-98274397D01*
X87228167Y-98221636D01*
X86389803Y-99060000D01*
X87228167Y-99898364D01*
X87489323Y-99845603D01*
X87601772Y-99632520D01*
X87642941Y-99731912D01*
X87798179Y-99964241D01*
X87995759Y-100161821D01*
X88228088Y-100317059D01*
X88486239Y-100423988D01*
X88760290Y-100478500D01*
X89039710Y-100478500D01*
X89313761Y-100423988D01*
X89571912Y-100317059D01*
X89804241Y-100161821D01*
X90001821Y-99964241D01*
X90157059Y-99731912D01*
X90200000Y-99628243D01*
X90242941Y-99731912D01*
X90398179Y-99964241D01*
X90547500Y-100113562D01*
X90547501Y-102883206D01*
X90542892Y-102930000D01*
X90561283Y-103116722D01*
X90615749Y-103296269D01*
X90704194Y-103461740D01*
X90753435Y-103521740D01*
X90823223Y-103606778D01*
X90859565Y-103636603D01*
X91212143Y-103989181D01*
X91211500Y-103992411D01*
X91211500Y-104287589D01*
X91269086Y-104577096D01*
X91382046Y-104849806D01*
X91546039Y-105095238D01*
X91754762Y-105303961D01*
X92000194Y-105467954D01*
X92272904Y-105580914D01*
X92562411Y-105638500D01*
X92857589Y-105638500D01*
X93081490Y-105593964D01*
X93081490Y-106169670D01*
X87566437Y-111684724D01*
X87491326Y-111746366D01*
X87245333Y-112046109D01*
X87062544Y-112388084D01*
X87058500Y-112401415D01*
X87058500Y-104236688D01*
X87068023Y-104139999D01*
X87058500Y-104043310D01*
X87058500Y-104043301D01*
X87030017Y-103754107D01*
X86917456Y-103383043D01*
X86734667Y-103041069D01*
X86488674Y-102741326D01*
X86413563Y-102679684D01*
X84518500Y-100784621D01*
X84518500Y-99988167D01*
X85461636Y-99988167D01*
X85514397Y-100249323D01*
X85761517Y-100379734D01*
X86029332Y-100459429D01*
X86307547Y-100485344D01*
X86585472Y-100456484D01*
X86852428Y-100373958D01*
X87085603Y-100249323D01*
X87138364Y-99988167D01*
X86300000Y-99149803D01*
X85461636Y-99988167D01*
X84518500Y-99988167D01*
X84518500Y-99067547D01*
X84874656Y-99067547D01*
X84903516Y-99345472D01*
X84986042Y-99612428D01*
X85110677Y-99845603D01*
X85371833Y-99898364D01*
X86210197Y-99060000D01*
X85371833Y-98221636D01*
X85110677Y-98274397D01*
X84980266Y-98521517D01*
X84900571Y-98789332D01*
X84874656Y-99067547D01*
X84518500Y-99067547D01*
X84518500Y-98131833D01*
X85461636Y-98131833D01*
X86300000Y-98970197D01*
X87138364Y-98131833D01*
X87085603Y-97870677D01*
X86838483Y-97740266D01*
X86570668Y-97660571D01*
X86292453Y-97634656D01*
X86014528Y-97663516D01*
X85747572Y-97746042D01*
X85514397Y-97870677D01*
X85461636Y-98131833D01*
X84518500Y-98131833D01*
X84518500Y-95364562D01*
X84793075Y-95448790D01*
X85026500Y-95302531D01*
X85026500Y-94043500D01*
X85153500Y-94043500D01*
X85153500Y-95302531D01*
X85386925Y-95448790D01*
X85667766Y-95362640D01*
X85926404Y-95223356D01*
X86152899Y-95036291D01*
X86338548Y-94808633D01*
X86476216Y-94549131D01*
X86558788Y-94276925D01*
X86412351Y-94043500D01*
X85153500Y-94043500D01*
X85026500Y-94043500D01*
X85006500Y-94043500D01*
X85006500Y-93916500D01*
X85026500Y-93916500D01*
X85026500Y-92657469D01*
X85153500Y-92657469D01*
X85153500Y-93916500D01*
X86412351Y-93916500D01*
X86558788Y-93683075D01*
X86476216Y-93410869D01*
X86338548Y-93151367D01*
X86152899Y-92923709D01*
X85926404Y-92736644D01*
X85667766Y-92597360D01*
X85386925Y-92511210D01*
X85153500Y-92657469D01*
X85026500Y-92657469D01*
X84793075Y-92511210D01*
X84518500Y-92595438D01*
X84518500Y-88328500D01*
X102054621Y-88328500D01*
X103441501Y-89715380D01*
X103441500Y-101503311D01*
X103431977Y-101600000D01*
X103441500Y-101696689D01*
X103441500Y-101696698D01*
X103469983Y-101985892D01*
X103582544Y-102356956D01*
X103765333Y-102698931D01*
X104011326Y-102998674D01*
X104086437Y-103060316D01*
X105981501Y-104955380D01*
X105981500Y-116936698D01*
X105981501Y-116936708D01*
X105981500Y-122016698D01*
X106009983Y-122305892D01*
X106048121Y-122431616D01*
X106048121Y-123120000D01*
X106061607Y-123256930D01*
X106101548Y-123388597D01*
X106166409Y-123509943D01*
X106253697Y-123616303D01*
X106360057Y-123703591D01*
X106481403Y-123768452D01*
X106613070Y-123808393D01*
X106750000Y-123821879D01*
X107438383Y-123821879D01*
X107564107Y-123860017D01*
X107950000Y-123898024D01*
X108335892Y-123860017D01*
X108461616Y-123821879D01*
X109150000Y-123821879D01*
X109286930Y-123808393D01*
X109418597Y-123768452D01*
X109539943Y-123703591D01*
X109646303Y-123616303D01*
X109733591Y-123509943D01*
X109798452Y-123388597D01*
X109838393Y-123256930D01*
X109851879Y-123120000D01*
X109851879Y-122431617D01*
X109855000Y-122421328D01*
X109858121Y-122431616D01*
X109858121Y-123120000D01*
X109871607Y-123256930D01*
X109911548Y-123388597D01*
X109976409Y-123509943D01*
X110063697Y-123616303D01*
X110170057Y-123703591D01*
X110291403Y-123768452D01*
X110423070Y-123808393D01*
X110560000Y-123821879D01*
X111248383Y-123821879D01*
X111374107Y-123860017D01*
X111760000Y-123898024D01*
X112145892Y-123860017D01*
X112271616Y-123821879D01*
X112960000Y-123821879D01*
X113096930Y-123808393D01*
X113228597Y-123768452D01*
X113349943Y-123703591D01*
X113456303Y-123616303D01*
X113543591Y-123509943D01*
X113608452Y-123388597D01*
X113648393Y-123256930D01*
X113661879Y-123120000D01*
X113661879Y-122431617D01*
X113700017Y-122305893D01*
X113728500Y-122016699D01*
X113728500Y-116743300D01*
X113728498Y-113798302D01*
X119223557Y-108303244D01*
X119298663Y-108241606D01*
X119360301Y-108166500D01*
X119360305Y-108166496D01*
X119544655Y-107941864D01*
X119544656Y-107941863D01*
X119727445Y-107599889D01*
X119840006Y-107228825D01*
X119868489Y-106939631D01*
X119868489Y-106939622D01*
X119878012Y-106842933D01*
X119868489Y-106746244D01*
X119868489Y-98068005D01*
X119978893Y-98127416D01*
X120305380Y-98227456D01*
X120645110Y-98261880D01*
X120985028Y-98229365D01*
X121312070Y-98131159D01*
X121613670Y-97971038D01*
X121621803Y-97965604D01*
X121712411Y-97672214D01*
X120650000Y-96609803D01*
X120635858Y-96623945D01*
X120546055Y-96534142D01*
X120560197Y-96520000D01*
X120546055Y-96505858D01*
X120635858Y-96416055D01*
X120650000Y-96430197D01*
X120664142Y-96416055D01*
X120753945Y-96505858D01*
X120739803Y-96520000D01*
X121802214Y-97582411D01*
X122095604Y-97491803D01*
X122257416Y-97191107D01*
X122357456Y-96864620D01*
X122391880Y-96524890D01*
X122359365Y-96184972D01*
X122261159Y-95857930D01*
X122101038Y-95556330D01*
X122095604Y-95548197D01*
X121911420Y-95491315D01*
X122048674Y-95378674D01*
X122294667Y-95078931D01*
X122477456Y-94736957D01*
X122565071Y-94448128D01*
X122657721Y-94671806D01*
X122817555Y-94911015D01*
X123020985Y-95114445D01*
X123260194Y-95274279D01*
X123525988Y-95384374D01*
X123808153Y-95440500D01*
X124095847Y-95440500D01*
X124378012Y-95384374D01*
X124643806Y-95274279D01*
X124883015Y-95114445D01*
X125086445Y-94911015D01*
X125246279Y-94671806D01*
X125356374Y-94406012D01*
X125412500Y-94123847D01*
X125412500Y-93836153D01*
X125356374Y-93553988D01*
X125246279Y-93288194D01*
X125086445Y-93048985D01*
X124883015Y-92845555D01*
X124643806Y-92685721D01*
X124378012Y-92575626D01*
X124095847Y-92519500D01*
X123808153Y-92519500D01*
X123525988Y-92575626D01*
X123260194Y-92685721D01*
X123020985Y-92845555D01*
X122817555Y-93048985D01*
X122657721Y-93288194D01*
X122565071Y-93511872D01*
X122477456Y-93223043D01*
X122294667Y-92881069D01*
X122273656Y-92855467D01*
X122333452Y-92743597D01*
X122373393Y-92611930D01*
X122386879Y-92475000D01*
X122386879Y-90405000D01*
X122373393Y-90268070D01*
X122333452Y-90136403D01*
X122268591Y-90015057D01*
X122181303Y-89908697D01*
X122074943Y-89821409D01*
X121953597Y-89756548D01*
X121821930Y-89716607D01*
X121685000Y-89703121D01*
X119615000Y-89703121D01*
X119478070Y-89716607D01*
X119346403Y-89756548D01*
X119225057Y-89821409D01*
X119118697Y-89908697D01*
X119031409Y-90015057D01*
X118966548Y-90136403D01*
X118926607Y-90268070D01*
X118913121Y-90405000D01*
X118913121Y-90487500D01*
X118156784Y-90487500D01*
X118109999Y-90482892D01*
X117923277Y-90501283D01*
X117743731Y-90555748D01*
X117578259Y-90644194D01*
X117433222Y-90763222D01*
X117403393Y-90799569D01*
X115720819Y-92482143D01*
X115717589Y-92481500D01*
X115422411Y-92481500D01*
X115132904Y-92539086D01*
X114860194Y-92652046D01*
X114614762Y-92816039D01*
X114406039Y-93024762D01*
X114242046Y-93270194D01*
X114129086Y-93542904D01*
X114071500Y-93832411D01*
X114071500Y-94127589D01*
X114072143Y-94130819D01*
X113779565Y-94423397D01*
X113743223Y-94453222D01*
X113713399Y-94489563D01*
X113624194Y-94598260D01*
X113535749Y-94763731D01*
X113481283Y-94943278D01*
X113462892Y-95130000D01*
X113467501Y-95176794D01*
X113467500Y-98006438D01*
X113318179Y-98155759D01*
X113162941Y-98388088D01*
X113120000Y-98491757D01*
X113077059Y-98388088D01*
X112921821Y-98155759D01*
X112772500Y-98006438D01*
X112772500Y-91192699D01*
X112913961Y-91051238D01*
X113077954Y-90805806D01*
X113190914Y-90533096D01*
X113248500Y-90243589D01*
X113248500Y-89948411D01*
X113190914Y-89658904D01*
X113077954Y-89386194D01*
X112913961Y-89140762D01*
X112705238Y-88932039D01*
X112459806Y-88768046D01*
X112187096Y-88655086D01*
X111897589Y-88597500D01*
X111602411Y-88597500D01*
X111312904Y-88655086D01*
X111040194Y-88768046D01*
X110794762Y-88932039D01*
X110586039Y-89140762D01*
X110422046Y-89386194D01*
X110309086Y-89658904D01*
X110251500Y-89948411D01*
X110251500Y-90243589D01*
X110309086Y-90533096D01*
X110422046Y-90805806D01*
X110586039Y-91051238D01*
X110794762Y-91259961D01*
X110867501Y-91308564D01*
X110867500Y-98006438D01*
X110718179Y-98155759D01*
X110562941Y-98388088D01*
X110522403Y-98485955D01*
X110409323Y-98274397D01*
X110148167Y-98221636D01*
X109309803Y-99060000D01*
X110148167Y-99898364D01*
X110409323Y-99845603D01*
X110521772Y-99632520D01*
X110562941Y-99731912D01*
X110718179Y-99964241D01*
X110915759Y-100161821D01*
X111148088Y-100317059D01*
X111406239Y-100423988D01*
X111680290Y-100478500D01*
X111959710Y-100478500D01*
X112233761Y-100423988D01*
X112491912Y-100317059D01*
X112724241Y-100161821D01*
X112921821Y-99964241D01*
X113077059Y-99731912D01*
X113120000Y-99628243D01*
X113162941Y-99731912D01*
X113318179Y-99964241D01*
X113467500Y-100113562D01*
X113467501Y-102943206D01*
X113462892Y-102990000D01*
X113481283Y-103176722D01*
X113535749Y-103356269D01*
X113624194Y-103521740D01*
X113670385Y-103578024D01*
X113743223Y-103666778D01*
X113779565Y-103696603D01*
X114072143Y-103989181D01*
X114071500Y-103992411D01*
X114071500Y-104287589D01*
X114129086Y-104577096D01*
X114242046Y-104849806D01*
X114406039Y-105095238D01*
X114614762Y-105303961D01*
X114860194Y-105467954D01*
X115132904Y-105580914D01*
X115422411Y-105638500D01*
X115717589Y-105638500D01*
X115931490Y-105595953D01*
X115931490Y-106027551D01*
X110436431Y-111522611D01*
X110361325Y-111584249D01*
X110299687Y-111659355D01*
X110299683Y-111659359D01*
X110166637Y-111821477D01*
X110115332Y-111883992D01*
X109932543Y-112225966D01*
X109918500Y-112272260D01*
X109918500Y-104236688D01*
X109928023Y-104139999D01*
X109918500Y-104043310D01*
X109918500Y-104043301D01*
X109890017Y-103754107D01*
X109777456Y-103383043D01*
X109594667Y-103041069D01*
X109348674Y-102741326D01*
X109273563Y-102679684D01*
X107378500Y-100784621D01*
X107378500Y-99988167D01*
X108381636Y-99988167D01*
X108434397Y-100249323D01*
X108681517Y-100379734D01*
X108949332Y-100459429D01*
X109227547Y-100485344D01*
X109505472Y-100456484D01*
X109772428Y-100373958D01*
X110005603Y-100249323D01*
X110058364Y-99988167D01*
X109220000Y-99149803D01*
X108381636Y-99988167D01*
X107378500Y-99988167D01*
X107378500Y-99067547D01*
X107794656Y-99067547D01*
X107823516Y-99345472D01*
X107906042Y-99612428D01*
X108030677Y-99845603D01*
X108291833Y-99898364D01*
X109130197Y-99060000D01*
X108291833Y-98221636D01*
X108030677Y-98274397D01*
X107900266Y-98521517D01*
X107820571Y-98789332D01*
X107794656Y-99067547D01*
X107378500Y-99067547D01*
X107378500Y-98131833D01*
X108381636Y-98131833D01*
X109220000Y-98970197D01*
X110058364Y-98131833D01*
X110005603Y-97870677D01*
X109758483Y-97740266D01*
X109490668Y-97660571D01*
X109212453Y-97634656D01*
X108934528Y-97663516D01*
X108667572Y-97746042D01*
X108434397Y-97870677D01*
X108381636Y-98131833D01*
X107378500Y-98131833D01*
X107378500Y-95364562D01*
X107653075Y-95448790D01*
X107886500Y-95302531D01*
X107886500Y-94043500D01*
X108013500Y-94043500D01*
X108013500Y-95302531D01*
X108246925Y-95448790D01*
X108527766Y-95362640D01*
X108786404Y-95223356D01*
X109012899Y-95036291D01*
X109198548Y-94808633D01*
X109336216Y-94549131D01*
X109418788Y-94276925D01*
X109272351Y-94043500D01*
X108013500Y-94043500D01*
X107886500Y-94043500D01*
X107866500Y-94043500D01*
X107866500Y-93916500D01*
X107886500Y-93916500D01*
X107886500Y-92657469D01*
X108013500Y-92657469D01*
X108013500Y-93916500D01*
X109272351Y-93916500D01*
X109418788Y-93683075D01*
X109336216Y-93410869D01*
X109198548Y-93151367D01*
X109012899Y-92923709D01*
X108786404Y-92736644D01*
X108527766Y-92597360D01*
X108246925Y-92511210D01*
X108013500Y-92657469D01*
X107886500Y-92657469D01*
X107653075Y-92511210D01*
X107378500Y-92595438D01*
X107378500Y-88996688D01*
X107388023Y-88899999D01*
X107378500Y-88803310D01*
X107378500Y-88803301D01*
X107350017Y-88514107D01*
X107237456Y-88143043D01*
X107054667Y-87801069D01*
X106808674Y-87501326D01*
X106733563Y-87439684D01*
X104500379Y-85206500D01*
X114243215Y-85206500D01*
X114290000Y-85211108D01*
X114336785Y-85206500D01*
X114476723Y-85192717D01*
X114656269Y-85138252D01*
X114821741Y-85049806D01*
X114966778Y-84930778D01*
X114996607Y-84894431D01*
X120020436Y-79870603D01*
X120056778Y-79840778D01*
X120114168Y-79770848D01*
X120186391Y-79722590D01*
X120362590Y-79546391D01*
X120501029Y-79339202D01*
X120596387Y-79108987D01*
X120645000Y-78864592D01*
X120645000Y-78615408D01*
X120655000Y-78615408D01*
X120655000Y-78864592D01*
X120703613Y-79108987D01*
X120798971Y-79339202D01*
X120937410Y-79546391D01*
X121113609Y-79722590D01*
X121320798Y-79861029D01*
X121551013Y-79956387D01*
X121795408Y-80005000D01*
X122044592Y-80005000D01*
X122288987Y-79956387D01*
X122519202Y-79861029D01*
X122726391Y-79722590D01*
X122902590Y-79546391D01*
X123041029Y-79339202D01*
X123136387Y-79108987D01*
X123185000Y-78864592D01*
X123185000Y-78615408D01*
X123195000Y-78615408D01*
X123195000Y-78864592D01*
X123243613Y-79108987D01*
X123338971Y-79339202D01*
X123477410Y-79546391D01*
X123653609Y-79722590D01*
X123860798Y-79861029D01*
X124091013Y-79956387D01*
X124335408Y-80005000D01*
X124584592Y-80005000D01*
X124828987Y-79956387D01*
X125059202Y-79861029D01*
X125266391Y-79722590D01*
X125442590Y-79546391D01*
X125581029Y-79339202D01*
X125676387Y-79108987D01*
X125725000Y-78864592D01*
X125725000Y-78615408D01*
X125676387Y-78371013D01*
X125581029Y-78140798D01*
X125442590Y-77933609D01*
X125266391Y-77757410D01*
X125059202Y-77618971D01*
X124828987Y-77523613D01*
X124584592Y-77475000D01*
X124335408Y-77475000D01*
X124091013Y-77523613D01*
X123860798Y-77618971D01*
X123653609Y-77757410D01*
X123477410Y-77933609D01*
X123338971Y-78140798D01*
X123243613Y-78371013D01*
X123195000Y-78615408D01*
X123185000Y-78615408D01*
X123136387Y-78371013D01*
X123041029Y-78140798D01*
X122902590Y-77933609D01*
X122726391Y-77757410D01*
X122519202Y-77618971D01*
X122288987Y-77523613D01*
X122044592Y-77475000D01*
X121795408Y-77475000D01*
X121551013Y-77523613D01*
X121320798Y-77618971D01*
X121113609Y-77757410D01*
X120937410Y-77933609D01*
X120798971Y-78140798D01*
X120703613Y-78371013D01*
X120655000Y-78615408D01*
X120645000Y-78615408D01*
X120596387Y-78371013D01*
X120501029Y-78140798D01*
X120362590Y-77933609D01*
X120186391Y-77757410D01*
X119979202Y-77618971D01*
X119748987Y-77523613D01*
X119504592Y-77475000D01*
X119255408Y-77475000D01*
X119011013Y-77523613D01*
X118780798Y-77618971D01*
X118573609Y-77757410D01*
X118397410Y-77933609D01*
X118258971Y-78140798D01*
X118163613Y-78371013D01*
X118115000Y-78615408D01*
X118115000Y-78864592D01*
X118151064Y-79045897D01*
X118034052Y-79162910D01*
X118056387Y-79108987D01*
X118105000Y-78864592D01*
X118105000Y-78615408D01*
X118056387Y-78371013D01*
X117961029Y-78140798D01*
X117822590Y-77933609D01*
X117646391Y-77757410D01*
X117439202Y-77618971D01*
X117208987Y-77523613D01*
X116964592Y-77475000D01*
X116715408Y-77475000D01*
X116471013Y-77523613D01*
X116240798Y-77618971D01*
X116033609Y-77757410D01*
X115857410Y-77933609D01*
X115718971Y-78140798D01*
X115623613Y-78371013D01*
X115575000Y-78615408D01*
X115575000Y-78864592D01*
X115623613Y-79108987D01*
X115718971Y-79339202D01*
X115857410Y-79546391D01*
X115887501Y-79576482D01*
X115887500Y-80039461D01*
X114403462Y-81523500D01*
X112915790Y-81523500D01*
X112913961Y-81520762D01*
X112705238Y-81312039D01*
X112459806Y-81148046D01*
X112187096Y-81035086D01*
X111897589Y-80977500D01*
X111602411Y-80977500D01*
X111312904Y-81035086D01*
X111040194Y-81148046D01*
X110794762Y-81312039D01*
X110586039Y-81520762D01*
X110422046Y-81766194D01*
X110309086Y-82038904D01*
X110251500Y-82328411D01*
X110251500Y-82623589D01*
X110309086Y-82913096D01*
X110422046Y-83185806D01*
X110499351Y-83301500D01*
X91062539Y-83301500D01*
X90387858Y-82626819D01*
X90388500Y-82623589D01*
X90388500Y-82328411D01*
X90330914Y-82038904D01*
X90217954Y-81766194D01*
X90053961Y-81520762D01*
X89845238Y-81312039D01*
X89599806Y-81148046D01*
X89327096Y-81035086D01*
X89037589Y-80977500D01*
X88742411Y-80977500D01*
X88452904Y-81035086D01*
X88180194Y-81148046D01*
X87934762Y-81312039D01*
X87726039Y-81520762D01*
X87562046Y-81766194D01*
X87449086Y-82038904D01*
X87391500Y-82328411D01*
X87391500Y-82623589D01*
X87449086Y-82913096D01*
X87562046Y-83185806D01*
X87726039Y-83431238D01*
X87934762Y-83639961D01*
X88180194Y-83803954D01*
X88452904Y-83916914D01*
X88742411Y-83974500D01*
X89037589Y-83974500D01*
X89040819Y-83973858D01*
X89458461Y-84391500D01*
X84518500Y-84391500D01*
X84518500Y-58817078D01*
X90544724Y-58817078D01*
X90607102Y-59086419D01*
X90867831Y-59224806D01*
X91150548Y-59309669D01*
X91444389Y-59337745D01*
X91738061Y-59307957D01*
X92020279Y-59221448D01*
X92272898Y-59086419D01*
X92335276Y-58817078D01*
X91440000Y-57921803D01*
X90544724Y-58817078D01*
X84518500Y-58817078D01*
X84518500Y-57836389D01*
X89934255Y-57836389D01*
X89964043Y-58130061D01*
X90050552Y-58412279D01*
X90185581Y-58664898D01*
X90454922Y-58727276D01*
X91350197Y-57832000D01*
X91529803Y-57832000D01*
X92425078Y-58727276D01*
X92694419Y-58664898D01*
X92832806Y-58404169D01*
X92917669Y-58121452D01*
X92945745Y-57827611D01*
X92915957Y-57533939D01*
X92829448Y-57251721D01*
X92694419Y-56999102D01*
X92425078Y-56936724D01*
X91529803Y-57832000D01*
X91350197Y-57832000D01*
X90454922Y-56936724D01*
X90185581Y-56999102D01*
X90047194Y-57259831D01*
X89962331Y-57542548D01*
X89934255Y-57836389D01*
X84518500Y-57836389D01*
X84518500Y-56846922D01*
X90544724Y-56846922D01*
X91440000Y-57742197D01*
X92335276Y-56846922D01*
X92272898Y-56577581D01*
X92012169Y-56439194D01*
X91729452Y-56354331D01*
X91435611Y-56326255D01*
X91141939Y-56356043D01*
X90859721Y-56442552D01*
X90607102Y-56577581D01*
X90544724Y-56846922D01*
X84518500Y-56846922D01*
X84518500Y-56187379D01*
X84715726Y-55990153D01*
X100139500Y-55990153D01*
X100139500Y-56277847D01*
X100195626Y-56560012D01*
X100305721Y-56825806D01*
X100465555Y-57065015D01*
X100668985Y-57268445D01*
X100908194Y-57428279D01*
X101173988Y-57538374D01*
X101456153Y-57594500D01*
X101743847Y-57594500D01*
X102026012Y-57538374D01*
X102291806Y-57428279D01*
X102531015Y-57268445D01*
X102734445Y-57065015D01*
X102894279Y-56825806D01*
X103004374Y-56560012D01*
X103060500Y-56277847D01*
X103060500Y-55990153D01*
X103004374Y-55707988D01*
X102894279Y-55442194D01*
X102734445Y-55202985D01*
X102531015Y-54999555D01*
X102291806Y-54839721D01*
X102026012Y-54729626D01*
X101743847Y-54673500D01*
X101456153Y-54673500D01*
X101173988Y-54729626D01*
X100908194Y-54839721D01*
X100668985Y-54999555D01*
X100465555Y-55202985D01*
X100305721Y-55442194D01*
X100195626Y-55707988D01*
X100139500Y-55990153D01*
X84715726Y-55990153D01*
X85905379Y-54800500D01*
X99156699Y-54800500D01*
X99445893Y-54772017D01*
X99816957Y-54659456D01*
X100158931Y-54476667D01*
X100458674Y-54230674D01*
X100542208Y-54128887D01*
X100810853Y-54308390D01*
X101114046Y-54433976D01*
X101435913Y-54498000D01*
X101764087Y-54498000D01*
X102085954Y-54433976D01*
X102389147Y-54308390D01*
X102583187Y-54178737D01*
X102588909Y-54189443D01*
X102676197Y-54295803D01*
X102782557Y-54383091D01*
X102903903Y-54447952D01*
X103035570Y-54487893D01*
X103172500Y-54501379D01*
X104726341Y-54501379D01*
X109365393Y-59140431D01*
X109395222Y-59176778D01*
X109540259Y-59295806D01*
X109705731Y-59384252D01*
X109877847Y-59436463D01*
X109885277Y-59438717D01*
X110071999Y-59457108D01*
X110118784Y-59452500D01*
X113162183Y-59452500D01*
X113168272Y-59461613D01*
X113378387Y-59671728D01*
X113625457Y-59836815D01*
X113899987Y-59950529D01*
X114191426Y-60008500D01*
X114488574Y-60008500D01*
X114780013Y-59950529D01*
X115054543Y-59836815D01*
X115301613Y-59671728D01*
X115511728Y-59461613D01*
X115517817Y-59452500D01*
X120335462Y-59452500D01*
X121184142Y-60301181D01*
X121183500Y-60304411D01*
X121183500Y-60599589D01*
X121241086Y-60889096D01*
X121354046Y-61161806D01*
X121518039Y-61407238D01*
X121726762Y-61615961D01*
X121972194Y-61779954D01*
X122244904Y-61892914D01*
X122534411Y-61950500D01*
X122829589Y-61950500D01*
X123119096Y-61892914D01*
X123391806Y-61779954D01*
X123637238Y-61615961D01*
X123845961Y-61407238D01*
X124009954Y-61161806D01*
X124122914Y-60889096D01*
X124180500Y-60599589D01*
X124180500Y-60304411D01*
X124122914Y-60014904D01*
X124009954Y-59742194D01*
X123845961Y-59496762D01*
X123637238Y-59288039D01*
X123391806Y-59124046D01*
X123119096Y-59011086D01*
X122829589Y-58953500D01*
X122534411Y-58953500D01*
X122531181Y-58954142D01*
X121436607Y-57859569D01*
X121406778Y-57823222D01*
X121261741Y-57704194D01*
X121096269Y-57615748D01*
X120916723Y-57561283D01*
X120776785Y-57547500D01*
X120730000Y-57542892D01*
X120683215Y-57547500D01*
X115517817Y-57547500D01*
X115511728Y-57538387D01*
X115301613Y-57328272D01*
X115054543Y-57163185D01*
X114780013Y-57049471D01*
X114488574Y-56991500D01*
X114191426Y-56991500D01*
X113899987Y-57049471D01*
X113625457Y-57163185D01*
X113378387Y-57328272D01*
X113168272Y-57538387D01*
X113162183Y-57547500D01*
X110466538Y-57547500D01*
X108768116Y-55849078D01*
X113404724Y-55849078D01*
X113467102Y-56118419D01*
X113727831Y-56256806D01*
X114010548Y-56341669D01*
X114304389Y-56369745D01*
X114598061Y-56339957D01*
X114880279Y-56253448D01*
X115132898Y-56118419D01*
X115195276Y-55849078D01*
X114300000Y-54953803D01*
X113404724Y-55849078D01*
X108768116Y-55849078D01*
X106933455Y-54014417D01*
X107097225Y-54101954D01*
X107348590Y-54178205D01*
X107544494Y-54197500D01*
X107544504Y-54197500D01*
X107610002Y-54203951D01*
X107675499Y-54197500D01*
X112957262Y-54197500D01*
X112907194Y-54291831D01*
X112822331Y-54574548D01*
X112794255Y-54868389D01*
X112824043Y-55162061D01*
X112910552Y-55444279D01*
X113045581Y-55696898D01*
X113314922Y-55759276D01*
X114210197Y-54864000D01*
X114196055Y-54849858D01*
X114285858Y-54760055D01*
X114300000Y-54774197D01*
X114314142Y-54760055D01*
X114403945Y-54849858D01*
X114389803Y-54864000D01*
X115285078Y-55759276D01*
X115554419Y-55696898D01*
X115692806Y-55436169D01*
X115777669Y-55153452D01*
X115805745Y-54859611D01*
X115775957Y-54565939D01*
X115689448Y-54283721D01*
X115643361Y-54197500D01*
X122062838Y-54197500D01*
X122231515Y-54267368D01*
X127485146Y-59521000D01*
X122373647Y-64632500D01*
X117840841Y-64632500D01*
X118011728Y-64461613D01*
X118176815Y-64214543D01*
X118290529Y-63940013D01*
X118348500Y-63648574D01*
X118348500Y-63351426D01*
X118290529Y-63059987D01*
X118176815Y-62785457D01*
X118011728Y-62538387D01*
X117801613Y-62328272D01*
X117554543Y-62163185D01*
X117280013Y-62049471D01*
X116988574Y-61991500D01*
X116691426Y-61991500D01*
X116399987Y-62049471D01*
X116125457Y-62163185D01*
X115878387Y-62328272D01*
X115668272Y-62538387D01*
X115503185Y-62785457D01*
X115389471Y-63059987D01*
X115331500Y-63351426D01*
X115331500Y-63648574D01*
X115389471Y-63940013D01*
X115503185Y-64214543D01*
X115668272Y-64461613D01*
X115839159Y-64632500D01*
X114121497Y-64632500D01*
X114056000Y-64626049D01*
X113990502Y-64632500D01*
X113990492Y-64632500D01*
X113794588Y-64651795D01*
X113543223Y-64728046D01*
X113464733Y-64770000D01*
X113311563Y-64851871D01*
X113159394Y-64976752D01*
X113159391Y-64976755D01*
X113108511Y-65018511D01*
X113066755Y-65069391D01*
X108230752Y-69905395D01*
X108105871Y-70057563D01*
X107982047Y-70289223D01*
X107914697Y-70511248D01*
X107849088Y-70303017D01*
X107744399Y-70107159D01*
X107498940Y-70072863D01*
X106769803Y-70802000D01*
X106783945Y-70816142D01*
X106694142Y-70905945D01*
X106680000Y-70891803D01*
X106665858Y-70905945D01*
X106576055Y-70816142D01*
X106590197Y-70802000D01*
X106576055Y-70787858D01*
X106665858Y-70698055D01*
X106680000Y-70712197D01*
X107409137Y-69983060D01*
X107374841Y-69737601D01*
X107153836Y-69622497D01*
X106914622Y-69552720D01*
X106666391Y-69530952D01*
X106418683Y-69558029D01*
X106352500Y-69578882D01*
X106352500Y-68298784D01*
X106357108Y-68251999D01*
X106338717Y-68065277D01*
X106284252Y-67885731D01*
X106195806Y-67720259D01*
X106076778Y-67575222D01*
X106040431Y-67545393D01*
X103894607Y-65399569D01*
X103864778Y-65363222D01*
X103719741Y-65244194D01*
X103554269Y-65155748D01*
X103374723Y-65101283D01*
X103234785Y-65087500D01*
X103188000Y-65082892D01*
X103141215Y-65087500D01*
X102063926Y-65087500D01*
X102040799Y-65052888D01*
X101825112Y-64837201D01*
X101724538Y-64770000D01*
X101825112Y-64702799D01*
X102035720Y-64492191D01*
X110937612Y-64492191D01*
X111001190Y-64762555D01*
X111263620Y-64901939D01*
X111548200Y-64987447D01*
X111843993Y-65015794D01*
X112139633Y-64985889D01*
X112423758Y-64898883D01*
X112678810Y-64762555D01*
X112742388Y-64492191D01*
X111840000Y-63589803D01*
X110937612Y-64492191D01*
X102035720Y-64492191D01*
X102040799Y-64487112D01*
X102210263Y-64233490D01*
X102326992Y-63951681D01*
X102386500Y-63652514D01*
X102386500Y-63503993D01*
X110324206Y-63503993D01*
X110354111Y-63799633D01*
X110441117Y-64083758D01*
X110577445Y-64338810D01*
X110847809Y-64402388D01*
X111750197Y-63500000D01*
X111929803Y-63500000D01*
X112832191Y-64402388D01*
X113102555Y-64338810D01*
X113241939Y-64076380D01*
X113327447Y-63791800D01*
X113355794Y-63496007D01*
X113325889Y-63200367D01*
X113238883Y-62916242D01*
X113102555Y-62661190D01*
X112832191Y-62597612D01*
X111929803Y-63500000D01*
X111750197Y-63500000D01*
X110847809Y-62597612D01*
X110577445Y-62661190D01*
X110438061Y-62923620D01*
X110352553Y-63208200D01*
X110324206Y-63503993D01*
X102386500Y-63503993D01*
X102386500Y-63347486D01*
X102326992Y-63048319D01*
X102210263Y-62766510D01*
X102040799Y-62512888D01*
X102035720Y-62507809D01*
X110937612Y-62507809D01*
X111840000Y-63410197D01*
X112742388Y-62507809D01*
X112678810Y-62237445D01*
X112416380Y-62098061D01*
X112131800Y-62012553D01*
X111836007Y-61984206D01*
X111540367Y-62014111D01*
X111256242Y-62101117D01*
X111001190Y-62237445D01*
X110937612Y-62507809D01*
X102035720Y-62507809D01*
X101825112Y-62297201D01*
X101571490Y-62127737D01*
X101289681Y-62011008D01*
X100990514Y-61951500D01*
X100685486Y-61951500D01*
X100386319Y-62011008D01*
X100104510Y-62127737D01*
X99850888Y-62297201D01*
X99635201Y-62512888D01*
X99568000Y-62613462D01*
X99500799Y-62512888D01*
X99285112Y-62297201D01*
X99031490Y-62127737D01*
X98749681Y-62011008D01*
X98450514Y-61951500D01*
X98145486Y-61951500D01*
X97846319Y-62011008D01*
X97564510Y-62127737D01*
X97310888Y-62297201D01*
X97246084Y-62362005D01*
X97191591Y-62260057D01*
X97104303Y-62153697D01*
X96997943Y-62066409D01*
X96876597Y-62001548D01*
X96744930Y-61961607D01*
X96608000Y-61948121D01*
X94908000Y-61948121D01*
X94771070Y-61961607D01*
X94639403Y-62001548D01*
X94518057Y-62066409D01*
X94411697Y-62153697D01*
X94324409Y-62260057D01*
X94259548Y-62381403D01*
X94219607Y-62513070D01*
X94216216Y-62547500D01*
X88608784Y-62547500D01*
X88561999Y-62542892D01*
X88490411Y-62549943D01*
X88375277Y-62561283D01*
X88195731Y-62615748D01*
X88030259Y-62704194D01*
X87885222Y-62823222D01*
X87855397Y-62859564D01*
X84947564Y-65767398D01*
X84911223Y-65797222D01*
X84881399Y-65833563D01*
X84792194Y-65942260D01*
X84703749Y-66107731D01*
X84649283Y-66287278D01*
X84630892Y-66474000D01*
X84635501Y-66520795D01*
X84635500Y-76153215D01*
X84630892Y-76200000D01*
X84635500Y-76246784D01*
X84649283Y-76386722D01*
X84703748Y-76566268D01*
X84792194Y-76731741D01*
X84911222Y-76876778D01*
X84947569Y-76906607D01*
X86376142Y-78335181D01*
X86375500Y-78338411D01*
X86375500Y-78633589D01*
X86433086Y-78923096D01*
X86546046Y-79195806D01*
X86710039Y-79441238D01*
X86918762Y-79649961D01*
X87164194Y-79813954D01*
X87436904Y-79926914D01*
X87726411Y-79984500D01*
X88021589Y-79984500D01*
X88311096Y-79926914D01*
X88583806Y-79813954D01*
X88765574Y-79692500D01*
X90287801Y-79692500D01*
X90289909Y-79696443D01*
X90377197Y-79802803D01*
X90483557Y-79890091D01*
X90604903Y-79954952D01*
X90736570Y-79994893D01*
X90873500Y-80008379D01*
X92006500Y-80008379D01*
X92143430Y-79994893D01*
X92275097Y-79954952D01*
X92396443Y-79890091D01*
X92502803Y-79802803D01*
X92590091Y-79696443D01*
X92654952Y-79575097D01*
X92694893Y-79443430D01*
X92708379Y-79306500D01*
X92708379Y-78615408D01*
X92715000Y-78615408D01*
X92715000Y-78864592D01*
X92763613Y-79108987D01*
X92858971Y-79339202D01*
X92997410Y-79546391D01*
X93173609Y-79722590D01*
X93380798Y-79861029D01*
X93611013Y-79956387D01*
X93855408Y-80005000D01*
X94104592Y-80005000D01*
X94348987Y-79956387D01*
X94579202Y-79861029D01*
X94786391Y-79722590D01*
X94962590Y-79546391D01*
X95101029Y-79339202D01*
X95196387Y-79108987D01*
X95245000Y-78864592D01*
X95245000Y-78615408D01*
X95255000Y-78615408D01*
X95255000Y-78864592D01*
X95303613Y-79108987D01*
X95398971Y-79339202D01*
X95537410Y-79546391D01*
X95713609Y-79722590D01*
X95920798Y-79861029D01*
X96151013Y-79956387D01*
X96395408Y-80005000D01*
X96644592Y-80005000D01*
X96888987Y-79956387D01*
X97119202Y-79861029D01*
X97326391Y-79722590D01*
X97502590Y-79546391D01*
X97641029Y-79339202D01*
X97736387Y-79108987D01*
X97785000Y-78864592D01*
X97785000Y-78615408D01*
X97795000Y-78615408D01*
X97795000Y-78864592D01*
X97843613Y-79108987D01*
X97938971Y-79339202D01*
X98077410Y-79546391D01*
X98253609Y-79722590D01*
X98460798Y-79861029D01*
X98691013Y-79956387D01*
X98935408Y-80005000D01*
X99184592Y-80005000D01*
X99428987Y-79956387D01*
X99659202Y-79861029D01*
X99866391Y-79722590D01*
X100042590Y-79546391D01*
X100181029Y-79339202D01*
X100276387Y-79108987D01*
X100325000Y-78864592D01*
X100325000Y-78615408D01*
X100335000Y-78615408D01*
X100335000Y-78864592D01*
X100383613Y-79108987D01*
X100478971Y-79339202D01*
X100617410Y-79546391D01*
X100793609Y-79722590D01*
X101000798Y-79861029D01*
X101231013Y-79956387D01*
X101475408Y-80005000D01*
X101724592Y-80005000D01*
X101968987Y-79956387D01*
X102199202Y-79861029D01*
X102406391Y-79722590D01*
X102582590Y-79546391D01*
X102721029Y-79339202D01*
X102816387Y-79108987D01*
X102865000Y-78864592D01*
X102865000Y-78615408D01*
X102875000Y-78615408D01*
X102875000Y-78864592D01*
X102923613Y-79108987D01*
X103018971Y-79339202D01*
X103157410Y-79546391D01*
X103333609Y-79722590D01*
X103540798Y-79861029D01*
X103771013Y-79956387D01*
X104015408Y-80005000D01*
X104264592Y-80005000D01*
X104508987Y-79956387D01*
X104739202Y-79861029D01*
X104946391Y-79722590D01*
X105122590Y-79546391D01*
X105261029Y-79339202D01*
X105356387Y-79108987D01*
X105405000Y-78864592D01*
X105405000Y-78615408D01*
X105356387Y-78371013D01*
X105261029Y-78140798D01*
X105122590Y-77933609D01*
X104946391Y-77757410D01*
X104739202Y-77618971D01*
X104508987Y-77523613D01*
X104264592Y-77475000D01*
X104015408Y-77475000D01*
X103771013Y-77523613D01*
X103540798Y-77618971D01*
X103333609Y-77757410D01*
X103157410Y-77933609D01*
X103018971Y-78140798D01*
X102923613Y-78371013D01*
X102875000Y-78615408D01*
X102865000Y-78615408D01*
X102816387Y-78371013D01*
X102721029Y-78140798D01*
X102582590Y-77933609D01*
X102406391Y-77757410D01*
X102199202Y-77618971D01*
X101968987Y-77523613D01*
X101724592Y-77475000D01*
X101475408Y-77475000D01*
X101231013Y-77523613D01*
X101000798Y-77618971D01*
X100793609Y-77757410D01*
X100617410Y-77933609D01*
X100478971Y-78140798D01*
X100383613Y-78371013D01*
X100335000Y-78615408D01*
X100325000Y-78615408D01*
X100276387Y-78371013D01*
X100181029Y-78140798D01*
X100042590Y-77933609D01*
X99866391Y-77757410D01*
X99659202Y-77618971D01*
X99428987Y-77523613D01*
X99184592Y-77475000D01*
X98935408Y-77475000D01*
X98691013Y-77523613D01*
X98460798Y-77618971D01*
X98253609Y-77757410D01*
X98077410Y-77933609D01*
X97938971Y-78140798D01*
X97843613Y-78371013D01*
X97795000Y-78615408D01*
X97785000Y-78615408D01*
X97736387Y-78371013D01*
X97641029Y-78140798D01*
X97502590Y-77933609D01*
X97326391Y-77757410D01*
X97119202Y-77618971D01*
X96888987Y-77523613D01*
X96644592Y-77475000D01*
X96395408Y-77475000D01*
X96151013Y-77523613D01*
X95920798Y-77618971D01*
X95713609Y-77757410D01*
X95537410Y-77933609D01*
X95398971Y-78140798D01*
X95303613Y-78371013D01*
X95255000Y-78615408D01*
X95245000Y-78615408D01*
X95196387Y-78371013D01*
X95101029Y-78140798D01*
X94962590Y-77933609D01*
X94786391Y-77757410D01*
X94579202Y-77618971D01*
X94348987Y-77523613D01*
X94104592Y-77475000D01*
X93855408Y-77475000D01*
X93611013Y-77523613D01*
X93380798Y-77618971D01*
X93173609Y-77757410D01*
X92997410Y-77933609D01*
X92858971Y-78140798D01*
X92763613Y-78371013D01*
X92715000Y-78615408D01*
X92708379Y-78615408D01*
X92708379Y-78173500D01*
X92694893Y-78036570D01*
X92654952Y-77904903D01*
X92590091Y-77783557D01*
X92502803Y-77677197D01*
X92396443Y-77589909D01*
X92275097Y-77525048D01*
X92143430Y-77485107D01*
X92006500Y-77471621D01*
X90873500Y-77471621D01*
X90736570Y-77485107D01*
X90604903Y-77525048D01*
X90483557Y-77589909D01*
X90377197Y-77677197D01*
X90289909Y-77783557D01*
X90287801Y-77787500D01*
X89206637Y-77787500D01*
X89201954Y-77776194D01*
X89037961Y-77530762D01*
X88829238Y-77322039D01*
X88583806Y-77158046D01*
X88311096Y-77045086D01*
X88021589Y-76987500D01*
X87726411Y-76987500D01*
X87723181Y-76988142D01*
X86540500Y-75805462D01*
X86540500Y-71562417D01*
X86546046Y-71575806D01*
X86710039Y-71821238D01*
X86918762Y-72029961D01*
X87164194Y-72193954D01*
X87436904Y-72306914D01*
X87726411Y-72364500D01*
X88021589Y-72364500D01*
X88024819Y-72363857D01*
X88617393Y-72956431D01*
X88647222Y-72992778D01*
X88792259Y-73111806D01*
X88874995Y-73156029D01*
X88957730Y-73200252D01*
X88988982Y-73209732D01*
X89137277Y-73254717D01*
X89277215Y-73268500D01*
X89324000Y-73273108D01*
X89370785Y-73268500D01*
X105353215Y-73268500D01*
X105400000Y-73273108D01*
X105446785Y-73268500D01*
X107659215Y-73268500D01*
X107706000Y-73273108D01*
X107752785Y-73268500D01*
X107892723Y-73254717D01*
X108072269Y-73200252D01*
X108237741Y-73111806D01*
X108267501Y-73087383D01*
X108267501Y-73181461D01*
X106039569Y-75409393D01*
X106003222Y-75439222D01*
X105884194Y-75584259D01*
X105795748Y-75749732D01*
X105770267Y-75833731D01*
X105741283Y-75929278D01*
X105722892Y-76116000D01*
X105727500Y-76162785D01*
X105727501Y-77903518D01*
X105697410Y-77933609D01*
X105558971Y-78140798D01*
X105463613Y-78371013D01*
X105415000Y-78615408D01*
X105415000Y-78864592D01*
X105463613Y-79108987D01*
X105558971Y-79339202D01*
X105697410Y-79546391D01*
X105873609Y-79722590D01*
X106080798Y-79861029D01*
X106311013Y-79956387D01*
X106555408Y-80005000D01*
X106804592Y-80005000D01*
X107048987Y-79956387D01*
X107279202Y-79861029D01*
X107486391Y-79722590D01*
X107650041Y-79558940D01*
X108490863Y-79558940D01*
X108525159Y-79804399D01*
X108746164Y-79919503D01*
X108985378Y-79989280D01*
X109233609Y-80011048D01*
X109481317Y-79983971D01*
X109718983Y-79909088D01*
X109914841Y-79804399D01*
X109949137Y-79558940D01*
X109220000Y-78829803D01*
X108490863Y-79558940D01*
X107650041Y-79558940D01*
X107662590Y-79546391D01*
X107801029Y-79339202D01*
X107896387Y-79108987D01*
X107945000Y-78864592D01*
X107945000Y-78753609D01*
X107948952Y-78753609D01*
X107976029Y-79001317D01*
X108050912Y-79238983D01*
X108155601Y-79434841D01*
X108401060Y-79469137D01*
X109130197Y-78740000D01*
X109309803Y-78740000D01*
X110038940Y-79469137D01*
X110284399Y-79434841D01*
X110399503Y-79213836D01*
X110469280Y-78974622D01*
X110491048Y-78726391D01*
X110478917Y-78615408D01*
X110495000Y-78615408D01*
X110495000Y-78864592D01*
X110543613Y-79108987D01*
X110638971Y-79339202D01*
X110777410Y-79546391D01*
X110953609Y-79722590D01*
X111160798Y-79861029D01*
X111391013Y-79956387D01*
X111635408Y-80005000D01*
X111884592Y-80005000D01*
X112128987Y-79956387D01*
X112359202Y-79861029D01*
X112566391Y-79722590D01*
X112742590Y-79546391D01*
X112881029Y-79339202D01*
X112976387Y-79108987D01*
X113025000Y-78864592D01*
X113025000Y-78615408D01*
X113035000Y-78615408D01*
X113035000Y-78864592D01*
X113083613Y-79108987D01*
X113178971Y-79339202D01*
X113317410Y-79546391D01*
X113493609Y-79722590D01*
X113700798Y-79861029D01*
X113931013Y-79956387D01*
X114175408Y-80005000D01*
X114424592Y-80005000D01*
X114668987Y-79956387D01*
X114899202Y-79861029D01*
X115106391Y-79722590D01*
X115282590Y-79546391D01*
X115421029Y-79339202D01*
X115516387Y-79108987D01*
X115565000Y-78864592D01*
X115565000Y-78615408D01*
X115516387Y-78371013D01*
X115421029Y-78140798D01*
X115282590Y-77933609D01*
X115106391Y-77757410D01*
X114899202Y-77618971D01*
X114668987Y-77523613D01*
X114424592Y-77475000D01*
X114175408Y-77475000D01*
X113931013Y-77523613D01*
X113700798Y-77618971D01*
X113493609Y-77757410D01*
X113317410Y-77933609D01*
X113178971Y-78140798D01*
X113083613Y-78371013D01*
X113035000Y-78615408D01*
X113025000Y-78615408D01*
X112976387Y-78371013D01*
X112881029Y-78140798D01*
X112742590Y-77933609D01*
X112566391Y-77757410D01*
X112359202Y-77618971D01*
X112128987Y-77523613D01*
X111884592Y-77475000D01*
X111635408Y-77475000D01*
X111391013Y-77523613D01*
X111160798Y-77618971D01*
X110953609Y-77757410D01*
X110777410Y-77933609D01*
X110638971Y-78140798D01*
X110543613Y-78371013D01*
X110495000Y-78615408D01*
X110478917Y-78615408D01*
X110463971Y-78478683D01*
X110389088Y-78241017D01*
X110284399Y-78045159D01*
X110038940Y-78010863D01*
X109309803Y-78740000D01*
X109130197Y-78740000D01*
X108401060Y-78010863D01*
X108155601Y-78045159D01*
X108040497Y-78266164D01*
X107970720Y-78505378D01*
X107948952Y-78753609D01*
X107945000Y-78753609D01*
X107945000Y-78615408D01*
X107896387Y-78371013D01*
X107801029Y-78140798D01*
X107662590Y-77933609D01*
X107650041Y-77921060D01*
X108490863Y-77921060D01*
X109220000Y-78650197D01*
X109949137Y-77921060D01*
X109914841Y-77675601D01*
X109693836Y-77560497D01*
X109454622Y-77490720D01*
X109206391Y-77468952D01*
X108958683Y-77496029D01*
X108721017Y-77570912D01*
X108525159Y-77675601D01*
X108490863Y-77921060D01*
X107650041Y-77921060D01*
X107632500Y-77903519D01*
X107632500Y-76510538D01*
X109860431Y-74282607D01*
X109896778Y-74252778D01*
X110015806Y-74107741D01*
X110104252Y-73942269D01*
X110158717Y-73762723D01*
X110172500Y-73622785D01*
X110177108Y-73576001D01*
X110172500Y-73529216D01*
X110172500Y-71754500D01*
X110923519Y-71754500D01*
X110953609Y-71784590D01*
X111160798Y-71923029D01*
X111391013Y-72018387D01*
X111635408Y-72067000D01*
X111884592Y-72067000D01*
X112128987Y-72018387D01*
X112359202Y-71923029D01*
X112566391Y-71784590D01*
X112742590Y-71608391D01*
X112881029Y-71401202D01*
X112976387Y-71170987D01*
X113025000Y-70926592D01*
X113025000Y-70677408D01*
X113035000Y-70677408D01*
X113035000Y-70926592D01*
X113083613Y-71170987D01*
X113178971Y-71401202D01*
X113317410Y-71608391D01*
X113493609Y-71784590D01*
X113700798Y-71923029D01*
X113931013Y-72018387D01*
X114175408Y-72067000D01*
X114424592Y-72067000D01*
X114668987Y-72018387D01*
X114899202Y-71923029D01*
X115106391Y-71784590D01*
X115282590Y-71608391D01*
X115421029Y-71401202D01*
X115516387Y-71170987D01*
X115565000Y-70926592D01*
X115565000Y-70677408D01*
X115575000Y-70677408D01*
X115575000Y-70926592D01*
X115623613Y-71170987D01*
X115718971Y-71401202D01*
X115857410Y-71608391D01*
X116033609Y-71784590D01*
X116240798Y-71923029D01*
X116471013Y-72018387D01*
X116715408Y-72067000D01*
X116964592Y-72067000D01*
X117208987Y-72018387D01*
X117439202Y-71923029D01*
X117646391Y-71784590D01*
X117822590Y-71608391D01*
X117961029Y-71401202D01*
X118056387Y-71170987D01*
X118105000Y-70926592D01*
X118105000Y-70677408D01*
X118115000Y-70677408D01*
X118115000Y-70926592D01*
X118163613Y-71170987D01*
X118258971Y-71401202D01*
X118397410Y-71608391D01*
X118573609Y-71784590D01*
X118780798Y-71923029D01*
X119011013Y-72018387D01*
X119255408Y-72067000D01*
X119504592Y-72067000D01*
X119748987Y-72018387D01*
X119979202Y-71923029D01*
X120186391Y-71784590D01*
X120362590Y-71608391D01*
X120501029Y-71401202D01*
X120596387Y-71170987D01*
X120645000Y-70926592D01*
X120645000Y-70677408D01*
X120655000Y-70677408D01*
X120655000Y-70926592D01*
X120703613Y-71170987D01*
X120798971Y-71401202D01*
X120937410Y-71608391D01*
X121113609Y-71784590D01*
X121320798Y-71923029D01*
X121551013Y-72018387D01*
X121795408Y-72067000D01*
X122044592Y-72067000D01*
X122288987Y-72018387D01*
X122519202Y-71923029D01*
X122726391Y-71784590D01*
X122902590Y-71608391D01*
X123041029Y-71401202D01*
X123136387Y-71170987D01*
X123185000Y-70926592D01*
X123185000Y-70677408D01*
X123195000Y-70677408D01*
X123195000Y-70926592D01*
X123243613Y-71170987D01*
X123338971Y-71401202D01*
X123477410Y-71608391D01*
X123653609Y-71784590D01*
X123860798Y-71923029D01*
X124091013Y-72018387D01*
X124335408Y-72067000D01*
X124584592Y-72067000D01*
X124828987Y-72018387D01*
X125059202Y-71923029D01*
X125266391Y-71784590D01*
X125442590Y-71608391D01*
X125581029Y-71401202D01*
X125676387Y-71170987D01*
X125725000Y-70926592D01*
X125725000Y-70677408D01*
X125676387Y-70433013D01*
X125581029Y-70202798D01*
X125442590Y-69995609D01*
X125266391Y-69819410D01*
X125059202Y-69680971D01*
X124828987Y-69585613D01*
X124584592Y-69537000D01*
X124335408Y-69537000D01*
X124091013Y-69585613D01*
X123860798Y-69680971D01*
X123653609Y-69819410D01*
X123477410Y-69995609D01*
X123338971Y-70202798D01*
X123243613Y-70433013D01*
X123195000Y-70677408D01*
X123185000Y-70677408D01*
X123136387Y-70433013D01*
X123041029Y-70202798D01*
X122902590Y-69995609D01*
X122726391Y-69819410D01*
X122519202Y-69680971D01*
X122288987Y-69585613D01*
X122044592Y-69537000D01*
X121795408Y-69537000D01*
X121551013Y-69585613D01*
X121320798Y-69680971D01*
X121113609Y-69819410D01*
X120937410Y-69995609D01*
X120798971Y-70202798D01*
X120703613Y-70433013D01*
X120655000Y-70677408D01*
X120645000Y-70677408D01*
X120596387Y-70433013D01*
X120501029Y-70202798D01*
X120362590Y-69995609D01*
X120186391Y-69819410D01*
X119979202Y-69680971D01*
X119748987Y-69585613D01*
X119504592Y-69537000D01*
X119255408Y-69537000D01*
X119011013Y-69585613D01*
X118780798Y-69680971D01*
X118573609Y-69819410D01*
X118397410Y-69995609D01*
X118258971Y-70202798D01*
X118163613Y-70433013D01*
X118115000Y-70677408D01*
X118105000Y-70677408D01*
X118056387Y-70433013D01*
X117961029Y-70202798D01*
X117822590Y-69995609D01*
X117646391Y-69819410D01*
X117439202Y-69680971D01*
X117208987Y-69585613D01*
X116964592Y-69537000D01*
X116715408Y-69537000D01*
X116471013Y-69585613D01*
X116240798Y-69680971D01*
X116033609Y-69819410D01*
X115857410Y-69995609D01*
X115718971Y-70202798D01*
X115623613Y-70433013D01*
X115575000Y-70677408D01*
X115565000Y-70677408D01*
X115516387Y-70433013D01*
X115421029Y-70202798D01*
X115282590Y-69995609D01*
X115106391Y-69819410D01*
X114899202Y-69680971D01*
X114668987Y-69585613D01*
X114424592Y-69537000D01*
X114175408Y-69537000D01*
X113931013Y-69585613D01*
X113700798Y-69680971D01*
X113493609Y-69819410D01*
X113317410Y-69995609D01*
X113178971Y-70202798D01*
X113083613Y-70433013D01*
X113035000Y-70677408D01*
X113025000Y-70677408D01*
X112976387Y-70433013D01*
X112881029Y-70202798D01*
X112742590Y-69995609D01*
X112566391Y-69819410D01*
X112359202Y-69680971D01*
X112265638Y-69642216D01*
X114608354Y-67299500D01*
X122860503Y-67299500D01*
X122926000Y-67305951D01*
X122991497Y-67299500D01*
X122991508Y-67299500D01*
X123187412Y-67280205D01*
X123438777Y-67203954D01*
X123670437Y-67080129D01*
X123873489Y-66913489D01*
X123915250Y-66862603D01*
X129371000Y-61406853D01*
X133530500Y-65566353D01*
X133530501Y-72314493D01*
X133524049Y-72380000D01*
X133530501Y-72445508D01*
X133540500Y-72547029D01*
X133540501Y-95692492D01*
X133534049Y-95758000D01*
X133540501Y-95823508D01*
X133559796Y-96019412D01*
X133597994Y-96145333D01*
X133636047Y-96270777D01*
X133759871Y-96502437D01*
X133884752Y-96654605D01*
X133884756Y-96654609D01*
X133926512Y-96705489D01*
X133977392Y-96747245D01*
X135826500Y-98596354D01*
X135826501Y-108900483D01*
X135826500Y-108900493D01*
X135826501Y-115387839D01*
X135761327Y-115441326D01*
X135515334Y-115741069D01*
X135332545Y-116083043D01*
X135219984Y-116454107D01*
X135191501Y-116743301D01*
X135191500Y-121823301D01*
X135191500Y-122798620D01*
X134067643Y-123922478D01*
X129974954Y-123922478D01*
X130075553Y-123821879D01*
X130298383Y-123821879D01*
X130424107Y-123860017D01*
X130810000Y-123898024D01*
X131195892Y-123860017D01*
X131321616Y-123821879D01*
X132010000Y-123821879D01*
X132146930Y-123808393D01*
X132278597Y-123768452D01*
X132399943Y-123703591D01*
X132506303Y-123616303D01*
X132593591Y-123509943D01*
X132658452Y-123388597D01*
X132698393Y-123256930D01*
X132711879Y-123120000D01*
X132711879Y-122431617D01*
X132750017Y-122305893D01*
X132778500Y-122016699D01*
X132778500Y-116743301D01*
X132750017Y-116454107D01*
X132637456Y-116083043D01*
X132454667Y-115741069D01*
X132208674Y-115441326D01*
X131908931Y-115195333D01*
X131566957Y-115012544D01*
X131195893Y-114899983D01*
X130810000Y-114861976D01*
X130424108Y-114899983D01*
X130053044Y-115012544D01*
X129711070Y-115195333D01*
X129411327Y-115441326D01*
X129165334Y-115741069D01*
X128982545Y-116083043D01*
X128905001Y-116338673D01*
X128827456Y-116083043D01*
X128644667Y-115741069D01*
X128398674Y-115441326D01*
X128098931Y-115195333D01*
X127756957Y-115012544D01*
X127385893Y-114899983D01*
X127000000Y-114861976D01*
X126614108Y-114899983D01*
X126243044Y-115012544D01*
X125901070Y-115195333D01*
X125601327Y-115441326D01*
X125355334Y-115741069D01*
X125172545Y-116083043D01*
X125095001Y-116338673D01*
X125017456Y-116083043D01*
X124834667Y-115741069D01*
X124588674Y-115441326D01*
X124288931Y-115195333D01*
X123986403Y-115033629D01*
X123956353Y-114934566D01*
X123932523Y-114889984D01*
X123879699Y-114791157D01*
X123802392Y-114696958D01*
X123802389Y-114696955D01*
X123776541Y-114665459D01*
X123745046Y-114639612D01*
X122830387Y-113724955D01*
X122804531Y-113693449D01*
X122678832Y-113590291D01*
X122535424Y-113513637D01*
X122379816Y-113466434D01*
X122258543Y-113454490D01*
X122258540Y-113454490D01*
X122217990Y-113450496D01*
X122177440Y-113454490D01*
X118206493Y-113454490D01*
X118165943Y-113450496D01*
X118125392Y-113454490D01*
X118125390Y-113454490D01*
X118004117Y-113466434D01*
X117848509Y-113513637D01*
X117705100Y-113590291D01*
X117610901Y-113667598D01*
X117610900Y-113667599D01*
X117579402Y-113693449D01*
X117553554Y-113724945D01*
X116274961Y-115003540D01*
X116243460Y-115029392D01*
X116217609Y-115060892D01*
X116140301Y-115155091D01*
X116063647Y-115298500D01*
X116016445Y-115454107D01*
X116000506Y-115615933D01*
X116004501Y-115656493D01*
X116004500Y-125495516D01*
X116000506Y-125536066D01*
X116004500Y-125576616D01*
X116004500Y-125576618D01*
X116016444Y-125697891D01*
X116041014Y-125778887D01*
X116063647Y-125853499D01*
X116140301Y-125996908D01*
X116173785Y-126037708D01*
X116243459Y-126122607D01*
X116274966Y-126148464D01*
X118868948Y-128742448D01*
X118868952Y-128742451D01*
X119077548Y-128951049D01*
X119103402Y-128982552D01*
X119188667Y-129052527D01*
X119229098Y-129085708D01*
X119229100Y-129085709D01*
X119229101Y-129085710D01*
X119372509Y-129162364D01*
X119528117Y-129209567D01*
X119649390Y-129221511D01*
X119649392Y-129221511D01*
X119689940Y-129225505D01*
X119730493Y-129221511D01*
X135967541Y-129221511D01*
X136008091Y-129225505D01*
X136048641Y-129221511D01*
X136048644Y-129221511D01*
X136169917Y-129209567D01*
X136325525Y-129162364D01*
X136468933Y-129085710D01*
X136594632Y-128982552D01*
X136620489Y-128951045D01*
X141525040Y-124046495D01*
X141556541Y-124020643D01*
X141637158Y-123922411D01*
X141659699Y-123894945D01*
X141698754Y-123821879D01*
X142170000Y-123821879D01*
X142306930Y-123808393D01*
X142438597Y-123768452D01*
X142559943Y-123703591D01*
X142666303Y-123616303D01*
X142753591Y-123509943D01*
X142818452Y-123388597D01*
X142858393Y-123256930D01*
X142871879Y-123120000D01*
X142871879Y-122431617D01*
X142875000Y-122421328D01*
X142878121Y-122431616D01*
X142878121Y-123120000D01*
X142891607Y-123256930D01*
X142931548Y-123388597D01*
X142996409Y-123509943D01*
X143083697Y-123616303D01*
X143190057Y-123703591D01*
X143311403Y-123768452D01*
X143443070Y-123808393D01*
X143580000Y-123821879D01*
X144268383Y-123821879D01*
X144394107Y-123860017D01*
X144780000Y-123898024D01*
X145165892Y-123860017D01*
X145291616Y-123821879D01*
X145980000Y-123821879D01*
X146116930Y-123808393D01*
X146248597Y-123768452D01*
X146369943Y-123703591D01*
X146476303Y-123616303D01*
X146563591Y-123509943D01*
X146628452Y-123388597D01*
X146668393Y-123256930D01*
X146681879Y-123120000D01*
X146681879Y-122431617D01*
X146685000Y-122421328D01*
X146688121Y-122431616D01*
X146688121Y-123120000D01*
X146701607Y-123256930D01*
X146741548Y-123388597D01*
X146806409Y-123509943D01*
X146893697Y-123616303D01*
X147000057Y-123703591D01*
X147121403Y-123768452D01*
X147253070Y-123808393D01*
X147390000Y-123821879D01*
X148078383Y-123821879D01*
X148204107Y-123860017D01*
X148590000Y-123898024D01*
X148975892Y-123860017D01*
X149101616Y-123821879D01*
X149790000Y-123821879D01*
X149926930Y-123808393D01*
X150058597Y-123768452D01*
X150179943Y-123703591D01*
X150286303Y-123616303D01*
X150373591Y-123509943D01*
X150438452Y-123388597D01*
X150478393Y-123256930D01*
X150491879Y-123120000D01*
X150491879Y-122431617D01*
X150530017Y-122305893D01*
X150558500Y-122016699D01*
X150558500Y-116743301D01*
X150530017Y-116454107D01*
X150417456Y-116083043D01*
X150234667Y-115741069D01*
X149988674Y-115441326D01*
X149688931Y-115195333D01*
X149346957Y-115012544D01*
X149221769Y-114974569D01*
X149202392Y-114950958D01*
X149202389Y-114950955D01*
X149176541Y-114919459D01*
X149145046Y-114893612D01*
X148358377Y-114106945D01*
X148332521Y-114075439D01*
X148206822Y-113972281D01*
X148063414Y-113895627D01*
X147907806Y-113848424D01*
X147786533Y-113836480D01*
X147786530Y-113836480D01*
X147745980Y-113832486D01*
X147705430Y-113836480D01*
X139922503Y-113836480D01*
X139881953Y-113832486D01*
X139841402Y-113836480D01*
X139841400Y-113836480D01*
X139720127Y-113848424D01*
X139564519Y-113895627D01*
X139421110Y-113972281D01*
X139326911Y-114049588D01*
X139326910Y-114049589D01*
X139295412Y-114075439D01*
X139269564Y-114106935D01*
X138493500Y-114883000D01*
X138493500Y-99123500D01*
X141041839Y-99123500D01*
X141095326Y-99188674D01*
X141395069Y-99434667D01*
X141737043Y-99617456D01*
X142108107Y-99730017D01*
X142397301Y-99758500D01*
X147670699Y-99758500D01*
X147959893Y-99730017D01*
X148085617Y-99691879D01*
X148774000Y-99691879D01*
X148910930Y-99678393D01*
X149042597Y-99638452D01*
X149163943Y-99573591D01*
X149270303Y-99486303D01*
X149357591Y-99379943D01*
X149422452Y-99258597D01*
X149462393Y-99126930D01*
X149475879Y-98990000D01*
X149475879Y-98301617D01*
X149514017Y-98175893D01*
X149552024Y-97790000D01*
X149514017Y-97404107D01*
X149475879Y-97278383D01*
X149475879Y-96590000D01*
X149462393Y-96453070D01*
X149422452Y-96321403D01*
X149357591Y-96200057D01*
X149270303Y-96093697D01*
X149163943Y-96006409D01*
X149042597Y-95941548D01*
X148910930Y-95901607D01*
X148774000Y-95888121D01*
X148085617Y-95888121D01*
X148075329Y-95885000D01*
X148085617Y-95881879D01*
X148774000Y-95881879D01*
X148910930Y-95868393D01*
X149042597Y-95828452D01*
X149163943Y-95763591D01*
X149270303Y-95676303D01*
X149357591Y-95569943D01*
X149422452Y-95448597D01*
X149462393Y-95316930D01*
X149475879Y-95180000D01*
X149475879Y-94491617D01*
X149514017Y-94365893D01*
X149552024Y-93980000D01*
X149514017Y-93594107D01*
X149475879Y-93468383D01*
X149475879Y-92780000D01*
X149462393Y-92643070D01*
X149422452Y-92511403D01*
X149357591Y-92390057D01*
X149270303Y-92283697D01*
X149163943Y-92196409D01*
X149042597Y-92131548D01*
X148910930Y-92091607D01*
X148774000Y-92078121D01*
X148085617Y-92078121D01*
X148075329Y-92075000D01*
X148085617Y-92071879D01*
X148774000Y-92071879D01*
X148910930Y-92058393D01*
X149042597Y-92018452D01*
X149163943Y-91953591D01*
X149270303Y-91866303D01*
X149357591Y-91759943D01*
X149422452Y-91638597D01*
X149462393Y-91506930D01*
X149475879Y-91370000D01*
X149475879Y-90681617D01*
X149514017Y-90555893D01*
X149552024Y-90170000D01*
X149514017Y-89784107D01*
X149475879Y-89658383D01*
X149475879Y-88970000D01*
X149462393Y-88833070D01*
X149422452Y-88701403D01*
X149357591Y-88580057D01*
X149270303Y-88473697D01*
X149163943Y-88386409D01*
X149042597Y-88321548D01*
X148910930Y-88281607D01*
X148774000Y-88268121D01*
X148085617Y-88268121D01*
X148075329Y-88265000D01*
X148085617Y-88261879D01*
X148774000Y-88261879D01*
X148910930Y-88248393D01*
X149042597Y-88208452D01*
X149163943Y-88143591D01*
X149270303Y-88056303D01*
X149357591Y-87949943D01*
X149422452Y-87828597D01*
X149462393Y-87696930D01*
X149475879Y-87560000D01*
X149475879Y-86871617D01*
X149514017Y-86745893D01*
X149552024Y-86360000D01*
X149514017Y-85974107D01*
X149475879Y-85848383D01*
X149475879Y-85160000D01*
X149462393Y-85023070D01*
X149422452Y-84891403D01*
X149357591Y-84770057D01*
X149270303Y-84663697D01*
X149163943Y-84576409D01*
X149042597Y-84511548D01*
X148910930Y-84471607D01*
X148774000Y-84458121D01*
X148085617Y-84458121D01*
X148075329Y-84455000D01*
X148085617Y-84451879D01*
X148774000Y-84451879D01*
X148910930Y-84438393D01*
X149042597Y-84398452D01*
X149163943Y-84333591D01*
X149270303Y-84246303D01*
X149357591Y-84139943D01*
X149422452Y-84018597D01*
X149462393Y-83886930D01*
X149475879Y-83750000D01*
X149475879Y-83061617D01*
X149514017Y-82935893D01*
X149552024Y-82550000D01*
X149514017Y-82164107D01*
X149475879Y-82038383D01*
X149475879Y-81350000D01*
X149462393Y-81213070D01*
X149422452Y-81081403D01*
X149357591Y-80960057D01*
X149270303Y-80853697D01*
X149163943Y-80766409D01*
X149042597Y-80701548D01*
X148910930Y-80661607D01*
X148774000Y-80648121D01*
X148085617Y-80648121D01*
X148056735Y-80639360D01*
X148774000Y-80641880D01*
X148910930Y-80628394D01*
X149042598Y-80588453D01*
X149163944Y-80523592D01*
X149270304Y-80436304D01*
X149357592Y-80329944D01*
X149422453Y-80208598D01*
X149462394Y-80076930D01*
X149475880Y-79940000D01*
X149472500Y-78978125D01*
X149297875Y-78803500D01*
X147637500Y-78803500D01*
X147637500Y-78823500D01*
X147510500Y-78823500D01*
X147510500Y-78803500D01*
X145850125Y-78803500D01*
X145675500Y-78978125D01*
X145672120Y-79940000D01*
X145685606Y-80076930D01*
X145725547Y-80208598D01*
X145790408Y-80329944D01*
X145877696Y-80436304D01*
X145984056Y-80523592D01*
X146092394Y-80581500D01*
X142961850Y-80581500D01*
X143213492Y-80506805D01*
X143544353Y-80332491D01*
X143563316Y-80319820D01*
X143673735Y-80009537D01*
X142494000Y-78829803D01*
X141314265Y-80009537D01*
X141424684Y-80319820D01*
X141753438Y-80498077D01*
X142110652Y-80608773D01*
X142115377Y-80609267D01*
X142108107Y-80609983D01*
X141737043Y-80722544D01*
X141395069Y-80905333D01*
X141095326Y-81151326D01*
X140849333Y-81451069D01*
X140666544Y-81793043D01*
X140553983Y-82164107D01*
X140515976Y-82550000D01*
X140553983Y-82935893D01*
X140666544Y-83306957D01*
X140849333Y-83648931D01*
X141095326Y-83948674D01*
X141395069Y-84194667D01*
X141737043Y-84377456D01*
X141992671Y-84455000D01*
X141737043Y-84532544D01*
X141395069Y-84715333D01*
X141095326Y-84961326D01*
X140849333Y-85261069D01*
X140666544Y-85603043D01*
X140553983Y-85974107D01*
X140515976Y-86360000D01*
X140553983Y-86745893D01*
X140666544Y-87116957D01*
X140849333Y-87458931D01*
X141095326Y-87758674D01*
X141395069Y-88004667D01*
X141737043Y-88187456D01*
X141992671Y-88265000D01*
X141737043Y-88342544D01*
X141395069Y-88525333D01*
X141095326Y-88771326D01*
X140849333Y-89071069D01*
X140666544Y-89413043D01*
X140553983Y-89784107D01*
X140515976Y-90170000D01*
X140553983Y-90555893D01*
X140666544Y-90926957D01*
X140849333Y-91268931D01*
X141095326Y-91568674D01*
X141395069Y-91814667D01*
X141737043Y-91997456D01*
X141992671Y-92075000D01*
X141737043Y-92152544D01*
X141395069Y-92335333D01*
X141095326Y-92581326D01*
X140849333Y-92881069D01*
X140666544Y-93223043D01*
X140553983Y-93594107D01*
X140515976Y-93980000D01*
X140553983Y-94365893D01*
X140666544Y-94736957D01*
X140849333Y-95078931D01*
X141095326Y-95378674D01*
X141395069Y-95624667D01*
X141737043Y-95807456D01*
X141992671Y-95885000D01*
X141737043Y-95962544D01*
X141395069Y-96145333D01*
X141095326Y-96391326D01*
X141041839Y-96456500D01*
X137458354Y-96456500D01*
X136207500Y-95205647D01*
X136207500Y-78728597D01*
X140586348Y-78728597D01*
X140620778Y-79100981D01*
X140727195Y-79459492D01*
X140901509Y-79790353D01*
X140914180Y-79809316D01*
X141224463Y-79919735D01*
X142404197Y-78740000D01*
X142583803Y-78740000D01*
X143763537Y-79919735D01*
X144073820Y-79809316D01*
X144252077Y-79480562D01*
X144362773Y-79123348D01*
X144401652Y-78751403D01*
X144367222Y-78379019D01*
X144260805Y-78020508D01*
X144086491Y-77689647D01*
X144073820Y-77670684D01*
X143763537Y-77560265D01*
X142583803Y-78740000D01*
X142404197Y-78740000D01*
X141224463Y-77560265D01*
X140914180Y-77670684D01*
X140735923Y-77999438D01*
X140625227Y-78356652D01*
X140586348Y-78728597D01*
X136207500Y-78728597D01*
X136207500Y-77470463D01*
X141314265Y-77470463D01*
X142494000Y-78650197D01*
X143604197Y-77540000D01*
X145672120Y-77540000D01*
X145675500Y-78501875D01*
X145850125Y-78676500D01*
X147510500Y-78676500D01*
X147510500Y-77016125D01*
X147637500Y-77016125D01*
X147637500Y-78676500D01*
X149297875Y-78676500D01*
X149472500Y-78501875D01*
X149475880Y-77540000D01*
X149462394Y-77403070D01*
X149422453Y-77271402D01*
X149357592Y-77150056D01*
X149270304Y-77043696D01*
X149163944Y-76956408D01*
X149042598Y-76891547D01*
X148910930Y-76851606D01*
X148774000Y-76838120D01*
X147812125Y-76841500D01*
X147637500Y-77016125D01*
X147510500Y-77016125D01*
X147335875Y-76841500D01*
X146374000Y-76838120D01*
X146237070Y-76851606D01*
X146105402Y-76891547D01*
X145984056Y-76956408D01*
X145877696Y-77043696D01*
X145790408Y-77150056D01*
X145725547Y-77271402D01*
X145685606Y-77403070D01*
X145672120Y-77540000D01*
X143604197Y-77540000D01*
X143673735Y-77470463D01*
X143563316Y-77160180D01*
X143234562Y-76981923D01*
X142877348Y-76871227D01*
X142505403Y-76832348D01*
X142133019Y-76866778D01*
X141774508Y-76973195D01*
X141443647Y-77147509D01*
X141424684Y-77160180D01*
X141314265Y-77470463D01*
X136207500Y-77470463D01*
X136207500Y-73723500D01*
X141041839Y-73723500D01*
X141095326Y-73788674D01*
X141395069Y-74034667D01*
X141737043Y-74217456D01*
X142108107Y-74330017D01*
X142397301Y-74358500D01*
X147670699Y-74358500D01*
X147959893Y-74330017D01*
X148085617Y-74291879D01*
X148774000Y-74291879D01*
X148910930Y-74278393D01*
X149042597Y-74238452D01*
X149163943Y-74173591D01*
X149270303Y-74086303D01*
X149357591Y-73979943D01*
X149422452Y-73858597D01*
X149462393Y-73726930D01*
X149475879Y-73590000D01*
X149475879Y-72901617D01*
X149514017Y-72775893D01*
X149552024Y-72390000D01*
X149514017Y-72004107D01*
X149475879Y-71878383D01*
X149475879Y-71190000D01*
X149462393Y-71053070D01*
X149422452Y-70921403D01*
X149357591Y-70800057D01*
X149270303Y-70693697D01*
X149163943Y-70606409D01*
X149042597Y-70541548D01*
X148910930Y-70501607D01*
X148774000Y-70488121D01*
X148085617Y-70488121D01*
X148075329Y-70485000D01*
X148085617Y-70481879D01*
X148774000Y-70481879D01*
X148910930Y-70468393D01*
X149042597Y-70428452D01*
X149163943Y-70363591D01*
X149270303Y-70276303D01*
X149357591Y-70169943D01*
X149422452Y-70048597D01*
X149462393Y-69916930D01*
X149475879Y-69780000D01*
X149475879Y-69091617D01*
X149514017Y-68965893D01*
X149552024Y-68580000D01*
X149514017Y-68194107D01*
X149475879Y-68068383D01*
X149475879Y-67380000D01*
X149462393Y-67243070D01*
X149422452Y-67111403D01*
X149357591Y-66990057D01*
X149270303Y-66883697D01*
X149163943Y-66796409D01*
X149042597Y-66731548D01*
X148910930Y-66691607D01*
X148774000Y-66678121D01*
X148085617Y-66678121D01*
X148075329Y-66675000D01*
X148085617Y-66671879D01*
X148774000Y-66671879D01*
X148910930Y-66658393D01*
X149042597Y-66618452D01*
X149163943Y-66553591D01*
X149270303Y-66466303D01*
X149357591Y-66359943D01*
X149422452Y-66238597D01*
X149462393Y-66106930D01*
X149475879Y-65970000D01*
X149475879Y-65281617D01*
X149514017Y-65155893D01*
X149552024Y-64770000D01*
X149514017Y-64384107D01*
X149475879Y-64258383D01*
X149475879Y-63570000D01*
X149462393Y-63433070D01*
X149422452Y-63301403D01*
X149357591Y-63180057D01*
X149270303Y-63073697D01*
X149163943Y-62986409D01*
X149042597Y-62921548D01*
X148910930Y-62881607D01*
X148774000Y-62868121D01*
X148085617Y-62868121D01*
X148075329Y-62865000D01*
X148085617Y-62861879D01*
X148774000Y-62861879D01*
X148910930Y-62848393D01*
X149042597Y-62808452D01*
X149163943Y-62743591D01*
X149270303Y-62656303D01*
X149357591Y-62549943D01*
X149422452Y-62428597D01*
X149462393Y-62296930D01*
X149475879Y-62160000D01*
X149475879Y-61471617D01*
X149514017Y-61345893D01*
X149552024Y-60960000D01*
X149514017Y-60574107D01*
X149475879Y-60448383D01*
X149475879Y-59760000D01*
X149462393Y-59623070D01*
X149422452Y-59491403D01*
X149357591Y-59370057D01*
X149270303Y-59263697D01*
X149163943Y-59176409D01*
X149042597Y-59111548D01*
X148910930Y-59071607D01*
X148774000Y-59058121D01*
X148085617Y-59058121D01*
X148075329Y-59055000D01*
X148085617Y-59051879D01*
X148774000Y-59051879D01*
X148910930Y-59038393D01*
X149042597Y-58998452D01*
X149163943Y-58933591D01*
X149270303Y-58846303D01*
X149357591Y-58739943D01*
X149422452Y-58618597D01*
X149462393Y-58486930D01*
X149475879Y-58350000D01*
X149475879Y-57661617D01*
X149514017Y-57535893D01*
X149552024Y-57150000D01*
X149514017Y-56764107D01*
X149475879Y-56638383D01*
X149475879Y-55950000D01*
X149462393Y-55813070D01*
X149422452Y-55681403D01*
X149357591Y-55560057D01*
X149270303Y-55453697D01*
X149163943Y-55366409D01*
X149042597Y-55301548D01*
X148910930Y-55261607D01*
X148774000Y-55248121D01*
X148085617Y-55248121D01*
X148056735Y-55239360D01*
X148774000Y-55241880D01*
X148910930Y-55228394D01*
X149042598Y-55188453D01*
X149163944Y-55123592D01*
X149270304Y-55036304D01*
X149357592Y-54929944D01*
X149422453Y-54808598D01*
X149462394Y-54676930D01*
X149475880Y-54540000D01*
X149472500Y-53578125D01*
X149297875Y-53403500D01*
X147637500Y-53403500D01*
X147637500Y-53423500D01*
X147510500Y-53423500D01*
X147510500Y-53403500D01*
X145850125Y-53403500D01*
X145675500Y-53578125D01*
X145672120Y-54540000D01*
X145685606Y-54676930D01*
X145725547Y-54808598D01*
X145790408Y-54929944D01*
X145877696Y-55036304D01*
X145984056Y-55123592D01*
X146092394Y-55181500D01*
X142961850Y-55181500D01*
X143213492Y-55106805D01*
X143544353Y-54932491D01*
X143563316Y-54919820D01*
X143673735Y-54609537D01*
X142494000Y-53429803D01*
X141314265Y-54609537D01*
X141424684Y-54919820D01*
X141753438Y-55098077D01*
X142110652Y-55208773D01*
X142115377Y-55209267D01*
X142108107Y-55209983D01*
X141737043Y-55322544D01*
X141395069Y-55505333D01*
X141095326Y-55751326D01*
X140849333Y-56051069D01*
X140666544Y-56393043D01*
X140553983Y-56764107D01*
X140515976Y-57150000D01*
X140553983Y-57535893D01*
X140666544Y-57906957D01*
X140849333Y-58248931D01*
X141095326Y-58548674D01*
X141395069Y-58794667D01*
X141737043Y-58977456D01*
X141992671Y-59055000D01*
X141737043Y-59132544D01*
X141395069Y-59315333D01*
X141095326Y-59561326D01*
X140849333Y-59861069D01*
X140666544Y-60203043D01*
X140553983Y-60574107D01*
X140515976Y-60960000D01*
X140553983Y-61345893D01*
X140666544Y-61716957D01*
X140849333Y-62058931D01*
X141095326Y-62358674D01*
X141395069Y-62604667D01*
X141737043Y-62787456D01*
X141992671Y-62865000D01*
X141737043Y-62942544D01*
X141395069Y-63125333D01*
X141095326Y-63371326D01*
X140849333Y-63671069D01*
X140666544Y-64013043D01*
X140553983Y-64384107D01*
X140515976Y-64770000D01*
X140553983Y-65155893D01*
X140666544Y-65526957D01*
X140849333Y-65868931D01*
X141095326Y-66168674D01*
X141395069Y-66414667D01*
X141737043Y-66597456D01*
X141992671Y-66675000D01*
X141737043Y-66752544D01*
X141395069Y-66935333D01*
X141095326Y-67181326D01*
X140849333Y-67481069D01*
X140666544Y-67823043D01*
X140553983Y-68194107D01*
X140515976Y-68580000D01*
X140553983Y-68965893D01*
X140666544Y-69336957D01*
X140849333Y-69678931D01*
X141095326Y-69978674D01*
X141395069Y-70224667D01*
X141737043Y-70407456D01*
X141992671Y-70485000D01*
X141737043Y-70562544D01*
X141395069Y-70745333D01*
X141095326Y-70991326D01*
X141041839Y-71056500D01*
X136197500Y-71056500D01*
X136197500Y-65079497D01*
X136203951Y-65013999D01*
X136197500Y-64948502D01*
X136197500Y-64948492D01*
X136178205Y-64752588D01*
X136101954Y-64501223D01*
X136021124Y-64350000D01*
X135978129Y-64269562D01*
X135853247Y-64117394D01*
X135811489Y-64066511D01*
X135760604Y-64024751D01*
X130360253Y-58624400D01*
X130360248Y-58624394D01*
X130360236Y-58624382D01*
X130318488Y-58573512D01*
X130267618Y-58531764D01*
X125064451Y-53328597D01*
X140586348Y-53328597D01*
X140620778Y-53700981D01*
X140727195Y-54059492D01*
X140901509Y-54390353D01*
X140914180Y-54409316D01*
X141224463Y-54519735D01*
X142404197Y-53340000D01*
X142583803Y-53340000D01*
X143763537Y-54519735D01*
X144073820Y-54409316D01*
X144252077Y-54080562D01*
X144362773Y-53723348D01*
X144401652Y-53351403D01*
X144367222Y-52979019D01*
X144260805Y-52620508D01*
X144086491Y-52289647D01*
X144073820Y-52270684D01*
X143763537Y-52160265D01*
X142583803Y-53340000D01*
X142404197Y-53340000D01*
X141224463Y-52160265D01*
X140914180Y-52270684D01*
X140735923Y-52599438D01*
X140625227Y-52956652D01*
X140586348Y-53328597D01*
X125064451Y-53328597D01*
X124117368Y-52381515D01*
X124009954Y-52122194D01*
X123975389Y-52070463D01*
X141314265Y-52070463D01*
X142494000Y-53250197D01*
X143604197Y-52140000D01*
X145672120Y-52140000D01*
X145675500Y-53101875D01*
X145850125Y-53276500D01*
X147510500Y-53276500D01*
X147510500Y-51616125D01*
X147637500Y-51616125D01*
X147637500Y-53276500D01*
X149297875Y-53276500D01*
X149472500Y-53101875D01*
X149475880Y-52140000D01*
X149462394Y-52003070D01*
X149422453Y-51871402D01*
X149357592Y-51750056D01*
X149270304Y-51643696D01*
X149163944Y-51556408D01*
X149042598Y-51491547D01*
X148910930Y-51451606D01*
X148774000Y-51438120D01*
X147812125Y-51441500D01*
X147637500Y-51616125D01*
X147510500Y-51616125D01*
X147335875Y-51441500D01*
X146374000Y-51438120D01*
X146237070Y-51451606D01*
X146105402Y-51491547D01*
X145984056Y-51556408D01*
X145877696Y-51643696D01*
X145790408Y-51750056D01*
X145725547Y-51871402D01*
X145685606Y-52003070D01*
X145672120Y-52140000D01*
X143604197Y-52140000D01*
X143673735Y-52070463D01*
X143563316Y-51760180D01*
X143234562Y-51581923D01*
X142877348Y-51471227D01*
X142505403Y-51432348D01*
X142133019Y-51466778D01*
X141774508Y-51573195D01*
X141443647Y-51747509D01*
X141424684Y-51760180D01*
X141314265Y-52070463D01*
X123975389Y-52070463D01*
X123845961Y-51876762D01*
X123637238Y-51668039D01*
X123391806Y-51504046D01*
X123119096Y-51391086D01*
X122829589Y-51333500D01*
X122534411Y-51333500D01*
X122244904Y-51391086D01*
X121972194Y-51504046D01*
X121932603Y-51530500D01*
X114996417Y-51530500D01*
X114737096Y-51423086D01*
X114447589Y-51365500D01*
X114152411Y-51365500D01*
X113862904Y-51423086D01*
X113603583Y-51530500D01*
X108162356Y-51530500D01*
X106535251Y-49903396D01*
X106493491Y-49852511D01*
X106290439Y-49685871D01*
X106058779Y-49562046D01*
X105807414Y-49485795D01*
X105611510Y-49466500D01*
X105611499Y-49466500D01*
X105546002Y-49460049D01*
X105480505Y-49466500D01*
X102427497Y-49466500D01*
X102362000Y-49460049D01*
X102296502Y-49466500D01*
X102296492Y-49466500D01*
X102100588Y-49485795D01*
X101849223Y-49562046D01*
X101617563Y-49685871D01*
X101414511Y-49852511D01*
X101372750Y-49903397D01*
X100703392Y-50572755D01*
X100652512Y-50614511D01*
X100610756Y-50665391D01*
X100610752Y-50665395D01*
X100485871Y-50817563D01*
X100423959Y-50933393D01*
X100362046Y-51049223D01*
X100288015Y-51293270D01*
X100158931Y-51187333D01*
X99816957Y-51004544D01*
X99445893Y-50891983D01*
X99156699Y-50863500D01*
X85186688Y-50863500D01*
X85089999Y-50853977D01*
X84993310Y-50863500D01*
X84993301Y-50863500D01*
X84704107Y-50891983D01*
X84333043Y-51004544D01*
X83991069Y-51187333D01*
X83691326Y-51433326D01*
X83629684Y-51508437D01*
X81414000Y-53724121D01*
X81350000Y-53724121D01*
X81213070Y-53737607D01*
X81081403Y-53777548D01*
X80960057Y-53842409D01*
X80853697Y-53929697D01*
X80766409Y-54036057D01*
X80701548Y-54157403D01*
X80661607Y-54289070D01*
X80648121Y-54426000D01*
X80648121Y-54860383D01*
X80640263Y-54886289D01*
X80641880Y-54426000D01*
X80628394Y-54289070D01*
X80588453Y-54157402D01*
X80523592Y-54036056D01*
X80436304Y-53929696D01*
X80329944Y-53842408D01*
X80208598Y-53777547D01*
X80076930Y-53737606D01*
X79940000Y-53724120D01*
X78978125Y-53727500D01*
X78803500Y-53902125D01*
X78676500Y-53902125D01*
X78501875Y-53727500D01*
X77540000Y-53724120D01*
X77403070Y-53737606D01*
X77271402Y-53777547D01*
X77150056Y-53842408D01*
X77043696Y-53929696D01*
X76956408Y-54036056D01*
X76891547Y-54157402D01*
X76851606Y-54289070D01*
X76838120Y-54426000D01*
X66220500Y-54426000D01*
X66220500Y-50916500D01*
X76190000Y-50916500D01*
X76227165Y-50912840D01*
X76262901Y-50901999D01*
X76295836Y-50884395D01*
X76324704Y-50860704D01*
X76348395Y-50831836D01*
X76365999Y-50798901D01*
X76376840Y-50763165D01*
X76380500Y-50726000D01*
X76380500Y-40756500D01*
X152199500Y-40756500D01*
X152199500Y-50726000D01*
%TA.AperFunction,Conductor*%
D32*
G36*
X152199500Y-50726000D02*
G01*
X152203160Y-50763165D01*
X152214001Y-50798901D01*
X152231605Y-50831836D01*
X152255296Y-50860704D01*
X152284164Y-50884395D01*
X152317099Y-50901999D01*
X152352835Y-50912840D01*
X152390000Y-50916500D01*
X162359500Y-50916500D01*
X162359500Y-126735500D01*
X152390000Y-126735500D01*
X152352835Y-126739160D01*
X152317099Y-126750001D01*
X152284164Y-126767605D01*
X152255296Y-126791296D01*
X152231605Y-126820164D01*
X152214001Y-126853099D01*
X152203160Y-126888835D01*
X152199500Y-126926000D01*
X152199500Y-136895500D01*
X76380500Y-136895500D01*
X76380500Y-126926000D01*
X76376840Y-126888835D01*
X76365999Y-126853099D01*
X76348395Y-126820164D01*
X76324704Y-126791296D01*
X76295836Y-126767605D01*
X76262901Y-126750001D01*
X76227165Y-126739160D01*
X76190000Y-126735500D01*
X66220500Y-126735500D01*
X66220500Y-61975537D01*
X77560265Y-61975537D01*
X77670684Y-62285820D01*
X77999438Y-62464077D01*
X78356652Y-62574773D01*
X78728597Y-62613652D01*
X79100981Y-62579222D01*
X79459492Y-62472805D01*
X79790353Y-62298491D01*
X79809316Y-62285820D01*
X79919735Y-61975537D01*
X78740000Y-60795803D01*
X77560265Y-61975537D01*
X66220500Y-61975537D01*
X66220500Y-60694597D01*
X76832348Y-60694597D01*
X76866778Y-61066981D01*
X76973195Y-61425492D01*
X77147509Y-61756353D01*
X77160180Y-61775316D01*
X77470463Y-61885735D01*
X78650197Y-60706000D01*
X77470463Y-59526265D01*
X77160180Y-59636684D01*
X76981923Y-59965438D01*
X76871227Y-60322652D01*
X76832348Y-60694597D01*
X66220500Y-60694597D01*
X66220500Y-59436463D01*
X77560265Y-59436463D01*
X78740000Y-60616197D01*
X79919735Y-59436463D01*
X79809316Y-59126180D01*
X79480562Y-58947923D01*
X79123348Y-58837227D01*
X78751403Y-58798348D01*
X78379019Y-58832778D01*
X78020508Y-58939195D01*
X77689647Y-59113509D01*
X77670684Y-59126180D01*
X77560265Y-59436463D01*
X66220500Y-59436463D01*
X66220500Y-56826000D01*
X76838120Y-56826000D01*
X76851606Y-56962930D01*
X76891547Y-57094598D01*
X76956408Y-57215944D01*
X77043696Y-57322304D01*
X77150056Y-57409592D01*
X77271402Y-57474453D01*
X77403070Y-57514394D01*
X77540000Y-57527880D01*
X78501875Y-57524500D01*
X78676500Y-57349875D01*
X78676500Y-55689500D01*
X77016125Y-55689500D01*
X76841500Y-55864125D01*
X76838120Y-56826000D01*
X66220500Y-56826000D01*
X66220500Y-54426000D01*
X76838120Y-54426000D01*
X76841500Y-55387875D01*
X77016125Y-55562500D01*
X78676500Y-55562500D01*
X78676500Y-53902125D01*
X78803500Y-53902125D01*
X78803500Y-55562500D01*
X78823500Y-55562500D01*
X78823500Y-55689500D01*
X78803500Y-55689500D01*
X78803500Y-57349875D01*
X78978125Y-57524500D01*
X79940000Y-57527880D01*
X80076930Y-57514394D01*
X80208598Y-57474453D01*
X80329944Y-57409592D01*
X80436304Y-57322304D01*
X80523592Y-57215944D01*
X80581500Y-57107606D01*
X80581501Y-60238153D01*
X80506805Y-59986508D01*
X80332491Y-59655647D01*
X80319820Y-59636684D01*
X80009537Y-59526265D01*
X78829803Y-60706000D01*
X80009537Y-61885735D01*
X80319820Y-61775316D01*
X80498077Y-61446562D01*
X80581500Y-61177357D01*
X80581501Y-86263291D01*
X80571976Y-86360000D01*
X80581500Y-86456699D01*
X80581501Y-101503301D01*
X80571977Y-101600000D01*
X80609984Y-101985893D01*
X80722545Y-102356957D01*
X80905334Y-102698931D01*
X81089684Y-102923563D01*
X81089689Y-102923568D01*
X81151327Y-102998674D01*
X81226433Y-103060312D01*
X83121501Y-104955380D01*
X83121500Y-116936698D01*
X83121501Y-116936708D01*
X83121500Y-122016698D01*
X83149983Y-122305892D01*
X83188121Y-122431616D01*
X83188121Y-123120000D01*
X83201607Y-123256930D01*
X83241548Y-123388597D01*
X83306409Y-123509943D01*
X83393697Y-123616303D01*
X83500057Y-123703591D01*
X83621403Y-123768452D01*
X83753070Y-123808393D01*
X83890000Y-123821879D01*
X84578383Y-123821879D01*
X84704107Y-123860017D01*
X85090000Y-123898024D01*
X85475892Y-123860017D01*
X85601616Y-123821879D01*
X86290000Y-123821879D01*
X86426930Y-123808393D01*
X86558597Y-123768452D01*
X86679943Y-123703591D01*
X86786303Y-123616303D01*
X86873591Y-123509943D01*
X86938452Y-123388597D01*
X86978393Y-123256930D01*
X86991879Y-123120000D01*
X86991879Y-122431617D01*
X86995000Y-122421328D01*
X86998121Y-122431616D01*
X86998121Y-123120000D01*
X87011607Y-123256930D01*
X87051548Y-123388597D01*
X87116409Y-123509943D01*
X87203697Y-123616303D01*
X87310057Y-123703591D01*
X87431403Y-123768452D01*
X87563070Y-123808393D01*
X87700000Y-123821879D01*
X88388383Y-123821879D01*
X88514107Y-123860017D01*
X88900000Y-123898024D01*
X89285892Y-123860017D01*
X89411616Y-123821879D01*
X90100000Y-123821879D01*
X90236930Y-123808393D01*
X90368597Y-123768452D01*
X90489943Y-123703591D01*
X90596303Y-123616303D01*
X90683591Y-123509943D01*
X90748452Y-123388597D01*
X90788393Y-123256930D01*
X90801879Y-123120000D01*
X90801879Y-122431617D01*
X90840017Y-122305893D01*
X90868500Y-122016699D01*
X90868500Y-116936688D01*
X90878023Y-116839999D01*
X90868500Y-116743310D01*
X90868500Y-116743301D01*
X90858500Y-116641769D01*
X90858500Y-113960419D01*
X96373557Y-108445363D01*
X96448663Y-108383725D01*
X96510301Y-108308619D01*
X96510305Y-108308615D01*
X96694655Y-108083983D01*
X96729651Y-108018511D01*
X96877445Y-107742008D01*
X96990006Y-107370944D01*
X97018489Y-107081750D01*
X97018489Y-107081740D01*
X97028012Y-106985051D01*
X97018489Y-106888362D01*
X97018489Y-98073386D01*
X97118893Y-98127416D01*
X97445380Y-98227456D01*
X97785110Y-98261880D01*
X98125028Y-98229365D01*
X98452070Y-98131159D01*
X98753670Y-97971038D01*
X98761803Y-97965604D01*
X98852411Y-97672214D01*
X97790000Y-96609803D01*
X97775858Y-96623945D01*
X97686055Y-96534142D01*
X97700197Y-96520000D01*
X97879803Y-96520000D01*
X98942214Y-97582411D01*
X99235604Y-97491803D01*
X99397416Y-97191107D01*
X99497456Y-96864620D01*
X99531880Y-96524890D01*
X99499365Y-96184972D01*
X99401159Y-95857930D01*
X99241038Y-95556330D01*
X99235604Y-95548197D01*
X98942214Y-95457589D01*
X97879803Y-96520000D01*
X97700197Y-96520000D01*
X97686055Y-96505858D01*
X97775858Y-96416055D01*
X97790000Y-96430197D01*
X98550287Y-95669910D01*
X98634931Y-95624667D01*
X98934674Y-95378674D01*
X99180667Y-95078931D01*
X99363456Y-94736957D01*
X99392653Y-94640709D01*
X99456883Y-94485643D01*
X99523500Y-94150735D01*
X99523500Y-93836153D01*
X99631500Y-93836153D01*
X99631500Y-94123847D01*
X99687626Y-94406012D01*
X99797721Y-94671806D01*
X99957555Y-94911015D01*
X100160985Y-95114445D01*
X100400194Y-95274279D01*
X100665988Y-95384374D01*
X100948153Y-95440500D01*
X101235847Y-95440500D01*
X101518012Y-95384374D01*
X101783806Y-95274279D01*
X102023015Y-95114445D01*
X102226445Y-94911015D01*
X102386279Y-94671806D01*
X102496374Y-94406012D01*
X102552500Y-94123847D01*
X102552500Y-93836153D01*
X102496374Y-93553988D01*
X102386279Y-93288194D01*
X102226445Y-93048985D01*
X102023015Y-92845555D01*
X101783806Y-92685721D01*
X101518012Y-92575626D01*
X101235847Y-92519500D01*
X100948153Y-92519500D01*
X100665988Y-92575626D01*
X100400194Y-92685721D01*
X100160985Y-92845555D01*
X99957555Y-93048985D01*
X99797721Y-93288194D01*
X99687626Y-93553988D01*
X99631500Y-93836153D01*
X99523500Y-93836153D01*
X99523500Y-93809265D01*
X99456883Y-93474357D01*
X99392653Y-93319291D01*
X99363456Y-93223043D01*
X99257073Y-93024015D01*
X99321303Y-92971303D01*
X99408591Y-92864943D01*
X99473452Y-92743597D01*
X99513393Y-92611930D01*
X99526879Y-92475000D01*
X99526879Y-90405000D01*
X99513393Y-90268070D01*
X99473452Y-90136403D01*
X99408591Y-90015057D01*
X99321303Y-89908697D01*
X99214943Y-89821409D01*
X99093597Y-89756548D01*
X98961930Y-89716607D01*
X98825000Y-89703121D01*
X96755000Y-89703121D01*
X96618070Y-89716607D01*
X96486403Y-89756548D01*
X96365057Y-89821409D01*
X96258697Y-89908697D01*
X96171409Y-90015057D01*
X96106548Y-90136403D01*
X96066607Y-90268070D01*
X96053121Y-90405000D01*
X96053121Y-90487500D01*
X95296784Y-90487500D01*
X95249999Y-90482892D01*
X95063277Y-90501283D01*
X94883731Y-90555748D01*
X94718259Y-90644194D01*
X94573222Y-90763222D01*
X94543393Y-90799569D01*
X92860819Y-92482143D01*
X92857589Y-92481500D01*
X92562411Y-92481500D01*
X92272904Y-92539086D01*
X92000194Y-92652046D01*
X91754762Y-92816039D01*
X91546039Y-93024762D01*
X91382046Y-93270194D01*
X91269086Y-93542904D01*
X91211500Y-93832411D01*
X91211500Y-94127589D01*
X91212143Y-94130819D01*
X90859565Y-94483397D01*
X90823223Y-94513222D01*
X90793399Y-94549563D01*
X90704194Y-94658260D01*
X90615749Y-94823731D01*
X90561283Y-95003278D01*
X90542892Y-95190000D01*
X90547501Y-95236794D01*
X90547500Y-98006438D01*
X90398179Y-98155759D01*
X90242941Y-98388088D01*
X90200000Y-98491757D01*
X90157059Y-98388088D01*
X90001821Y-98155759D01*
X89852500Y-98006438D01*
X89852500Y-91252699D01*
X90053961Y-91051238D01*
X90217954Y-90805806D01*
X90330914Y-90533096D01*
X90388500Y-90243589D01*
X90388500Y-89948411D01*
X90330914Y-89658904D01*
X90217954Y-89386194D01*
X90053961Y-89140762D01*
X89845238Y-88932039D01*
X89599806Y-88768046D01*
X89327096Y-88655086D01*
X89037589Y-88597500D01*
X88742411Y-88597500D01*
X88452904Y-88655086D01*
X88180194Y-88768046D01*
X87934762Y-88932039D01*
X87726039Y-89140762D01*
X87562046Y-89386194D01*
X87449086Y-89658904D01*
X87391500Y-89948411D01*
X87391500Y-90243589D01*
X87449086Y-90533096D01*
X87562046Y-90805806D01*
X87726039Y-91051238D01*
X87934762Y-91259961D01*
X87947501Y-91268473D01*
X87947500Y-98006438D01*
X87798179Y-98155759D01*
X87642941Y-98388088D01*
X87602403Y-98485955D01*
X87489323Y-98274397D01*
X87228167Y-98221636D01*
X86389803Y-99060000D01*
X87228167Y-99898364D01*
X87489323Y-99845603D01*
X87601772Y-99632520D01*
X87642941Y-99731912D01*
X87798179Y-99964241D01*
X87995759Y-100161821D01*
X88228088Y-100317059D01*
X88486239Y-100423988D01*
X88760290Y-100478500D01*
X89039710Y-100478500D01*
X89313761Y-100423988D01*
X89571912Y-100317059D01*
X89804241Y-100161821D01*
X90001821Y-99964241D01*
X90157059Y-99731912D01*
X90200000Y-99628243D01*
X90242941Y-99731912D01*
X90398179Y-99964241D01*
X90547500Y-100113562D01*
X90547501Y-102883206D01*
X90542892Y-102930000D01*
X90561283Y-103116722D01*
X90615749Y-103296269D01*
X90704194Y-103461740D01*
X90753435Y-103521740D01*
X90823223Y-103606778D01*
X90859565Y-103636603D01*
X91212143Y-103989181D01*
X91211500Y-103992411D01*
X91211500Y-104287589D01*
X91269086Y-104577096D01*
X91382046Y-104849806D01*
X91546039Y-105095238D01*
X91754762Y-105303961D01*
X92000194Y-105467954D01*
X92272904Y-105580914D01*
X92562411Y-105638500D01*
X92857589Y-105638500D01*
X93081490Y-105593964D01*
X93081490Y-106169670D01*
X87566437Y-111684724D01*
X87491326Y-111746366D01*
X87245333Y-112046109D01*
X87062544Y-112388084D01*
X87058500Y-112401415D01*
X87058500Y-104236688D01*
X87068023Y-104139999D01*
X87058500Y-104043310D01*
X87058500Y-104043301D01*
X87030017Y-103754107D01*
X86917456Y-103383043D01*
X86734667Y-103041069D01*
X86488674Y-102741326D01*
X86413563Y-102679684D01*
X84518500Y-100784621D01*
X84518500Y-99988167D01*
X85461636Y-99988167D01*
X85514397Y-100249323D01*
X85761517Y-100379734D01*
X86029332Y-100459429D01*
X86307547Y-100485344D01*
X86585472Y-100456484D01*
X86852428Y-100373958D01*
X87085603Y-100249323D01*
X87138364Y-99988167D01*
X86300000Y-99149803D01*
X85461636Y-99988167D01*
X84518500Y-99988167D01*
X84518500Y-99067547D01*
X84874656Y-99067547D01*
X84903516Y-99345472D01*
X84986042Y-99612428D01*
X85110677Y-99845603D01*
X85371833Y-99898364D01*
X86210197Y-99060000D01*
X85371833Y-98221636D01*
X85110677Y-98274397D01*
X84980266Y-98521517D01*
X84900571Y-98789332D01*
X84874656Y-99067547D01*
X84518500Y-99067547D01*
X84518500Y-98131833D01*
X85461636Y-98131833D01*
X86300000Y-98970197D01*
X87138364Y-98131833D01*
X87085603Y-97870677D01*
X86838483Y-97740266D01*
X86570668Y-97660571D01*
X86292453Y-97634656D01*
X86014528Y-97663516D01*
X85747572Y-97746042D01*
X85514397Y-97870677D01*
X85461636Y-98131833D01*
X84518500Y-98131833D01*
X84518500Y-95364562D01*
X84793075Y-95448790D01*
X85026500Y-95302531D01*
X85026500Y-94043500D01*
X85153500Y-94043500D01*
X85153500Y-95302531D01*
X85386925Y-95448790D01*
X85667766Y-95362640D01*
X85926404Y-95223356D01*
X86152899Y-95036291D01*
X86338548Y-94808633D01*
X86476216Y-94549131D01*
X86558788Y-94276925D01*
X86412351Y-94043500D01*
X85153500Y-94043500D01*
X85026500Y-94043500D01*
X85006500Y-94043500D01*
X85006500Y-93916500D01*
X85026500Y-93916500D01*
X85026500Y-92657469D01*
X85153500Y-92657469D01*
X85153500Y-93916500D01*
X86412351Y-93916500D01*
X86558788Y-93683075D01*
X86476216Y-93410869D01*
X86338548Y-93151367D01*
X86152899Y-92923709D01*
X85926404Y-92736644D01*
X85667766Y-92597360D01*
X85386925Y-92511210D01*
X85153500Y-92657469D01*
X85026500Y-92657469D01*
X84793075Y-92511210D01*
X84518500Y-92595438D01*
X84518500Y-88328500D01*
X102054621Y-88328500D01*
X103441501Y-89715380D01*
X103441500Y-101503311D01*
X103431977Y-101600000D01*
X103441500Y-101696689D01*
X103441500Y-101696698D01*
X103469983Y-101985892D01*
X103582544Y-102356956D01*
X103765333Y-102698931D01*
X104011326Y-102998674D01*
X104086437Y-103060316D01*
X105981501Y-104955380D01*
X105981500Y-116936698D01*
X105981501Y-116936708D01*
X105981500Y-122016698D01*
X106009983Y-122305892D01*
X106048121Y-122431616D01*
X106048121Y-123120000D01*
X106061607Y-123256930D01*
X106101548Y-123388597D01*
X106166409Y-123509943D01*
X106253697Y-123616303D01*
X106360057Y-123703591D01*
X106481403Y-123768452D01*
X106613070Y-123808393D01*
X106750000Y-123821879D01*
X107438383Y-123821879D01*
X107564107Y-123860017D01*
X107950000Y-123898024D01*
X108335892Y-123860017D01*
X108461616Y-123821879D01*
X109150000Y-123821879D01*
X109286930Y-123808393D01*
X109418597Y-123768452D01*
X109539943Y-123703591D01*
X109646303Y-123616303D01*
X109733591Y-123509943D01*
X109798452Y-123388597D01*
X109838393Y-123256930D01*
X109851879Y-123120000D01*
X109851879Y-122431617D01*
X109855000Y-122421328D01*
X109858121Y-122431616D01*
X109858121Y-123120000D01*
X109871607Y-123256930D01*
X109911548Y-123388597D01*
X109976409Y-123509943D01*
X110063697Y-123616303D01*
X110170057Y-123703591D01*
X110291403Y-123768452D01*
X110423070Y-123808393D01*
X110560000Y-123821879D01*
X111248383Y-123821879D01*
X111374107Y-123860017D01*
X111760000Y-123898024D01*
X112145892Y-123860017D01*
X112271616Y-123821879D01*
X112960000Y-123821879D01*
X113096930Y-123808393D01*
X113228597Y-123768452D01*
X113349943Y-123703591D01*
X113456303Y-123616303D01*
X113543591Y-123509943D01*
X113608452Y-123388597D01*
X113648393Y-123256930D01*
X113661879Y-123120000D01*
X113661879Y-122431617D01*
X113700017Y-122305893D01*
X113728500Y-122016699D01*
X113728500Y-116743300D01*
X113728498Y-113798302D01*
X119223557Y-108303244D01*
X119298663Y-108241606D01*
X119360301Y-108166500D01*
X119360305Y-108166496D01*
X119544655Y-107941864D01*
X119544656Y-107941863D01*
X119727445Y-107599889D01*
X119840006Y-107228825D01*
X119868489Y-106939631D01*
X119868489Y-106939622D01*
X119878012Y-106842933D01*
X119868489Y-106746244D01*
X119868489Y-98068005D01*
X119978893Y-98127416D01*
X120305380Y-98227456D01*
X120645110Y-98261880D01*
X120985028Y-98229365D01*
X121312070Y-98131159D01*
X121613670Y-97971038D01*
X121621803Y-97965604D01*
X121712411Y-97672214D01*
X120650000Y-96609803D01*
X120635858Y-96623945D01*
X120546055Y-96534142D01*
X120560197Y-96520000D01*
X120546055Y-96505858D01*
X120635858Y-96416055D01*
X120650000Y-96430197D01*
X120664142Y-96416055D01*
X120753945Y-96505858D01*
X120739803Y-96520000D01*
X121802214Y-97582411D01*
X122095604Y-97491803D01*
X122257416Y-97191107D01*
X122357456Y-96864620D01*
X122391880Y-96524890D01*
X122359365Y-96184972D01*
X122261159Y-95857930D01*
X122101038Y-95556330D01*
X122095604Y-95548197D01*
X121911420Y-95491315D01*
X122048674Y-95378674D01*
X122294667Y-95078931D01*
X122477456Y-94736957D01*
X122565071Y-94448128D01*
X122657721Y-94671806D01*
X122817555Y-94911015D01*
X123020985Y-95114445D01*
X123260194Y-95274279D01*
X123525988Y-95384374D01*
X123808153Y-95440500D01*
X124095847Y-95440500D01*
X124378012Y-95384374D01*
X124643806Y-95274279D01*
X124883015Y-95114445D01*
X125086445Y-94911015D01*
X125246279Y-94671806D01*
X125356374Y-94406012D01*
X125412500Y-94123847D01*
X125412500Y-93836153D01*
X125356374Y-93553988D01*
X125246279Y-93288194D01*
X125086445Y-93048985D01*
X124883015Y-92845555D01*
X124643806Y-92685721D01*
X124378012Y-92575626D01*
X124095847Y-92519500D01*
X123808153Y-92519500D01*
X123525988Y-92575626D01*
X123260194Y-92685721D01*
X123020985Y-92845555D01*
X122817555Y-93048985D01*
X122657721Y-93288194D01*
X122565071Y-93511872D01*
X122477456Y-93223043D01*
X122294667Y-92881069D01*
X122273656Y-92855467D01*
X122333452Y-92743597D01*
X122373393Y-92611930D01*
X122386879Y-92475000D01*
X122386879Y-90405000D01*
X122373393Y-90268070D01*
X122333452Y-90136403D01*
X122268591Y-90015057D01*
X122181303Y-89908697D01*
X122074943Y-89821409D01*
X121953597Y-89756548D01*
X121821930Y-89716607D01*
X121685000Y-89703121D01*
X119615000Y-89703121D01*
X119478070Y-89716607D01*
X119346403Y-89756548D01*
X119225057Y-89821409D01*
X119118697Y-89908697D01*
X119031409Y-90015057D01*
X118966548Y-90136403D01*
X118926607Y-90268070D01*
X118913121Y-90405000D01*
X118913121Y-90487500D01*
X118156784Y-90487500D01*
X118109999Y-90482892D01*
X117923277Y-90501283D01*
X117743731Y-90555748D01*
X117578259Y-90644194D01*
X117433222Y-90763222D01*
X117403393Y-90799569D01*
X115720819Y-92482143D01*
X115717589Y-92481500D01*
X115422411Y-92481500D01*
X115132904Y-92539086D01*
X114860194Y-92652046D01*
X114614762Y-92816039D01*
X114406039Y-93024762D01*
X114242046Y-93270194D01*
X114129086Y-93542904D01*
X114071500Y-93832411D01*
X114071500Y-94127589D01*
X114072143Y-94130819D01*
X113779565Y-94423397D01*
X113743223Y-94453222D01*
X113713399Y-94489563D01*
X113624194Y-94598260D01*
X113535749Y-94763731D01*
X113481283Y-94943278D01*
X113462892Y-95130000D01*
X113467501Y-95176794D01*
X113467500Y-98006438D01*
X113318179Y-98155759D01*
X113162941Y-98388088D01*
X113120000Y-98491757D01*
X113077059Y-98388088D01*
X112921821Y-98155759D01*
X112772500Y-98006438D01*
X112772500Y-91192699D01*
X112913961Y-91051238D01*
X113077954Y-90805806D01*
X113190914Y-90533096D01*
X113248500Y-90243589D01*
X113248500Y-89948411D01*
X113190914Y-89658904D01*
X113077954Y-89386194D01*
X112913961Y-89140762D01*
X112705238Y-88932039D01*
X112459806Y-88768046D01*
X112187096Y-88655086D01*
X111897589Y-88597500D01*
X111602411Y-88597500D01*
X111312904Y-88655086D01*
X111040194Y-88768046D01*
X110794762Y-88932039D01*
X110586039Y-89140762D01*
X110422046Y-89386194D01*
X110309086Y-89658904D01*
X110251500Y-89948411D01*
X110251500Y-90243589D01*
X110309086Y-90533096D01*
X110422046Y-90805806D01*
X110586039Y-91051238D01*
X110794762Y-91259961D01*
X110867501Y-91308564D01*
X110867500Y-98006438D01*
X110718179Y-98155759D01*
X110562941Y-98388088D01*
X110522403Y-98485955D01*
X110409323Y-98274397D01*
X110148167Y-98221636D01*
X109309803Y-99060000D01*
X110148167Y-99898364D01*
X110409323Y-99845603D01*
X110521772Y-99632520D01*
X110562941Y-99731912D01*
X110718179Y-99964241D01*
X110915759Y-100161821D01*
X111148088Y-100317059D01*
X111406239Y-100423988D01*
X111680290Y-100478500D01*
X111959710Y-100478500D01*
X112233761Y-100423988D01*
X112491912Y-100317059D01*
X112724241Y-100161821D01*
X112921821Y-99964241D01*
X113077059Y-99731912D01*
X113120000Y-99628243D01*
X113162941Y-99731912D01*
X113318179Y-99964241D01*
X113467500Y-100113562D01*
X113467501Y-102943206D01*
X113462892Y-102990000D01*
X113481283Y-103176722D01*
X113535749Y-103356269D01*
X113624194Y-103521740D01*
X113670385Y-103578024D01*
X113743223Y-103666778D01*
X113779565Y-103696603D01*
X114072143Y-103989181D01*
X114071500Y-103992411D01*
X114071500Y-104287589D01*
X114129086Y-104577096D01*
X114242046Y-104849806D01*
X114406039Y-105095238D01*
X114614762Y-105303961D01*
X114860194Y-105467954D01*
X115132904Y-105580914D01*
X115422411Y-105638500D01*
X115717589Y-105638500D01*
X115931490Y-105595953D01*
X115931490Y-106027551D01*
X110436431Y-111522611D01*
X110361325Y-111584249D01*
X110299687Y-111659355D01*
X110299683Y-111659359D01*
X110166637Y-111821477D01*
X110115332Y-111883992D01*
X109932543Y-112225966D01*
X109918500Y-112272260D01*
X109918500Y-104236688D01*
X109928023Y-104139999D01*
X109918500Y-104043310D01*
X109918500Y-104043301D01*
X109890017Y-103754107D01*
X109777456Y-103383043D01*
X109594667Y-103041069D01*
X109348674Y-102741326D01*
X109273563Y-102679684D01*
X107378500Y-100784621D01*
X107378500Y-99988167D01*
X108381636Y-99988167D01*
X108434397Y-100249323D01*
X108681517Y-100379734D01*
X108949332Y-100459429D01*
X109227547Y-100485344D01*
X109505472Y-100456484D01*
X109772428Y-100373958D01*
X110005603Y-100249323D01*
X110058364Y-99988167D01*
X109220000Y-99149803D01*
X108381636Y-99988167D01*
X107378500Y-99988167D01*
X107378500Y-99067547D01*
X107794656Y-99067547D01*
X107823516Y-99345472D01*
X107906042Y-99612428D01*
X108030677Y-99845603D01*
X108291833Y-99898364D01*
X109130197Y-99060000D01*
X108291833Y-98221636D01*
X108030677Y-98274397D01*
X107900266Y-98521517D01*
X107820571Y-98789332D01*
X107794656Y-99067547D01*
X107378500Y-99067547D01*
X107378500Y-98131833D01*
X108381636Y-98131833D01*
X109220000Y-98970197D01*
X110058364Y-98131833D01*
X110005603Y-97870677D01*
X109758483Y-97740266D01*
X109490668Y-97660571D01*
X109212453Y-97634656D01*
X108934528Y-97663516D01*
X108667572Y-97746042D01*
X108434397Y-97870677D01*
X108381636Y-98131833D01*
X107378500Y-98131833D01*
X107378500Y-95364562D01*
X107653075Y-95448790D01*
X107886500Y-95302531D01*
X107886500Y-94043500D01*
X108013500Y-94043500D01*
X108013500Y-95302531D01*
X108246925Y-95448790D01*
X108527766Y-95362640D01*
X108786404Y-95223356D01*
X109012899Y-95036291D01*
X109198548Y-94808633D01*
X109336216Y-94549131D01*
X109418788Y-94276925D01*
X109272351Y-94043500D01*
X108013500Y-94043500D01*
X107886500Y-94043500D01*
X107866500Y-94043500D01*
X107866500Y-93916500D01*
X107886500Y-93916500D01*
X107886500Y-92657469D01*
X108013500Y-92657469D01*
X108013500Y-93916500D01*
X109272351Y-93916500D01*
X109418788Y-93683075D01*
X109336216Y-93410869D01*
X109198548Y-93151367D01*
X109012899Y-92923709D01*
X108786404Y-92736644D01*
X108527766Y-92597360D01*
X108246925Y-92511210D01*
X108013500Y-92657469D01*
X107886500Y-92657469D01*
X107653075Y-92511210D01*
X107378500Y-92595438D01*
X107378500Y-88996688D01*
X107388023Y-88899999D01*
X107378500Y-88803310D01*
X107378500Y-88803301D01*
X107350017Y-88514107D01*
X107237456Y-88143043D01*
X107054667Y-87801069D01*
X106808674Y-87501326D01*
X106733563Y-87439684D01*
X104500379Y-85206500D01*
X114243215Y-85206500D01*
X114290000Y-85211108D01*
X114336785Y-85206500D01*
X114476723Y-85192717D01*
X114656269Y-85138252D01*
X114821741Y-85049806D01*
X114966778Y-84930778D01*
X114996607Y-84894431D01*
X120020436Y-79870603D01*
X120056778Y-79840778D01*
X120114168Y-79770848D01*
X120186391Y-79722590D01*
X120362590Y-79546391D01*
X120501029Y-79339202D01*
X120596387Y-79108987D01*
X120645000Y-78864592D01*
X120645000Y-78615408D01*
X120655000Y-78615408D01*
X120655000Y-78864592D01*
X120703613Y-79108987D01*
X120798971Y-79339202D01*
X120937410Y-79546391D01*
X121113609Y-79722590D01*
X121320798Y-79861029D01*
X121551013Y-79956387D01*
X121795408Y-80005000D01*
X122044592Y-80005000D01*
X122288987Y-79956387D01*
X122519202Y-79861029D01*
X122726391Y-79722590D01*
X122902590Y-79546391D01*
X123041029Y-79339202D01*
X123136387Y-79108987D01*
X123185000Y-78864592D01*
X123185000Y-78615408D01*
X123195000Y-78615408D01*
X123195000Y-78864592D01*
X123243613Y-79108987D01*
X123338971Y-79339202D01*
X123477410Y-79546391D01*
X123653609Y-79722590D01*
X123860798Y-79861029D01*
X124091013Y-79956387D01*
X124335408Y-80005000D01*
X124584592Y-80005000D01*
X124828987Y-79956387D01*
X125059202Y-79861029D01*
X125266391Y-79722590D01*
X125442590Y-79546391D01*
X125581029Y-79339202D01*
X125676387Y-79108987D01*
X125725000Y-78864592D01*
X125725000Y-78615408D01*
X125676387Y-78371013D01*
X125581029Y-78140798D01*
X125442590Y-77933609D01*
X125266391Y-77757410D01*
X125059202Y-77618971D01*
X124828987Y-77523613D01*
X124584592Y-77475000D01*
X124335408Y-77475000D01*
X124091013Y-77523613D01*
X123860798Y-77618971D01*
X123653609Y-77757410D01*
X123477410Y-77933609D01*
X123338971Y-78140798D01*
X123243613Y-78371013D01*
X123195000Y-78615408D01*
X123185000Y-78615408D01*
X123136387Y-78371013D01*
X123041029Y-78140798D01*
X122902590Y-77933609D01*
X122726391Y-77757410D01*
X122519202Y-77618971D01*
X122288987Y-77523613D01*
X122044592Y-77475000D01*
X121795408Y-77475000D01*
X121551013Y-77523613D01*
X121320798Y-77618971D01*
X121113609Y-77757410D01*
X120937410Y-77933609D01*
X120798971Y-78140798D01*
X120703613Y-78371013D01*
X120655000Y-78615408D01*
X120645000Y-78615408D01*
X120596387Y-78371013D01*
X120501029Y-78140798D01*
X120362590Y-77933609D01*
X120186391Y-77757410D01*
X119979202Y-77618971D01*
X119748987Y-77523613D01*
X119504592Y-77475000D01*
X119255408Y-77475000D01*
X119011013Y-77523613D01*
X118780798Y-77618971D01*
X118573609Y-77757410D01*
X118397410Y-77933609D01*
X118258971Y-78140798D01*
X118163613Y-78371013D01*
X118115000Y-78615408D01*
X118115000Y-78864592D01*
X118151064Y-79045897D01*
X118034052Y-79162910D01*
X118056387Y-79108987D01*
X118105000Y-78864592D01*
X118105000Y-78615408D01*
X118056387Y-78371013D01*
X117961029Y-78140798D01*
X117822590Y-77933609D01*
X117646391Y-77757410D01*
X117439202Y-77618971D01*
X117208987Y-77523613D01*
X116964592Y-77475000D01*
X116715408Y-77475000D01*
X116471013Y-77523613D01*
X116240798Y-77618971D01*
X116033609Y-77757410D01*
X115857410Y-77933609D01*
X115718971Y-78140798D01*
X115623613Y-78371013D01*
X115575000Y-78615408D01*
X115575000Y-78864592D01*
X115623613Y-79108987D01*
X115718971Y-79339202D01*
X115857410Y-79546391D01*
X115887501Y-79576482D01*
X115887500Y-80039461D01*
X114403462Y-81523500D01*
X112915790Y-81523500D01*
X112913961Y-81520762D01*
X112705238Y-81312039D01*
X112459806Y-81148046D01*
X112187096Y-81035086D01*
X111897589Y-80977500D01*
X111602411Y-80977500D01*
X111312904Y-81035086D01*
X111040194Y-81148046D01*
X110794762Y-81312039D01*
X110586039Y-81520762D01*
X110422046Y-81766194D01*
X110309086Y-82038904D01*
X110251500Y-82328411D01*
X110251500Y-82623589D01*
X110309086Y-82913096D01*
X110422046Y-83185806D01*
X110499351Y-83301500D01*
X91062539Y-83301500D01*
X90387858Y-82626819D01*
X90388500Y-82623589D01*
X90388500Y-82328411D01*
X90330914Y-82038904D01*
X90217954Y-81766194D01*
X90053961Y-81520762D01*
X89845238Y-81312039D01*
X89599806Y-81148046D01*
X89327096Y-81035086D01*
X89037589Y-80977500D01*
X88742411Y-80977500D01*
X88452904Y-81035086D01*
X88180194Y-81148046D01*
X87934762Y-81312039D01*
X87726039Y-81520762D01*
X87562046Y-81766194D01*
X87449086Y-82038904D01*
X87391500Y-82328411D01*
X87391500Y-82623589D01*
X87449086Y-82913096D01*
X87562046Y-83185806D01*
X87726039Y-83431238D01*
X87934762Y-83639961D01*
X88180194Y-83803954D01*
X88452904Y-83916914D01*
X88742411Y-83974500D01*
X89037589Y-83974500D01*
X89040819Y-83973858D01*
X89458461Y-84391500D01*
X84518500Y-84391500D01*
X84518500Y-58817078D01*
X90544724Y-58817078D01*
X90607102Y-59086419D01*
X90867831Y-59224806D01*
X91150548Y-59309669D01*
X91444389Y-59337745D01*
X91738061Y-59307957D01*
X92020279Y-59221448D01*
X92272898Y-59086419D01*
X92335276Y-58817078D01*
X91440000Y-57921803D01*
X90544724Y-58817078D01*
X84518500Y-58817078D01*
X84518500Y-57836389D01*
X89934255Y-57836389D01*
X89964043Y-58130061D01*
X90050552Y-58412279D01*
X90185581Y-58664898D01*
X90454922Y-58727276D01*
X91350197Y-57832000D01*
X91529803Y-57832000D01*
X92425078Y-58727276D01*
X92694419Y-58664898D01*
X92832806Y-58404169D01*
X92917669Y-58121452D01*
X92945745Y-57827611D01*
X92915957Y-57533939D01*
X92829448Y-57251721D01*
X92694419Y-56999102D01*
X92425078Y-56936724D01*
X91529803Y-57832000D01*
X91350197Y-57832000D01*
X90454922Y-56936724D01*
X90185581Y-56999102D01*
X90047194Y-57259831D01*
X89962331Y-57542548D01*
X89934255Y-57836389D01*
X84518500Y-57836389D01*
X84518500Y-56846922D01*
X90544724Y-56846922D01*
X91440000Y-57742197D01*
X92335276Y-56846922D01*
X92272898Y-56577581D01*
X92012169Y-56439194D01*
X91729452Y-56354331D01*
X91435611Y-56326255D01*
X91141939Y-56356043D01*
X90859721Y-56442552D01*
X90607102Y-56577581D01*
X90544724Y-56846922D01*
X84518500Y-56846922D01*
X84518500Y-56187379D01*
X84715726Y-55990153D01*
X100139500Y-55990153D01*
X100139500Y-56277847D01*
X100195626Y-56560012D01*
X100305721Y-56825806D01*
X100465555Y-57065015D01*
X100668985Y-57268445D01*
X100908194Y-57428279D01*
X101173988Y-57538374D01*
X101456153Y-57594500D01*
X101743847Y-57594500D01*
X102026012Y-57538374D01*
X102291806Y-57428279D01*
X102531015Y-57268445D01*
X102734445Y-57065015D01*
X102894279Y-56825806D01*
X103004374Y-56560012D01*
X103060500Y-56277847D01*
X103060500Y-55990153D01*
X103004374Y-55707988D01*
X102894279Y-55442194D01*
X102734445Y-55202985D01*
X102531015Y-54999555D01*
X102291806Y-54839721D01*
X102026012Y-54729626D01*
X101743847Y-54673500D01*
X101456153Y-54673500D01*
X101173988Y-54729626D01*
X100908194Y-54839721D01*
X100668985Y-54999555D01*
X100465555Y-55202985D01*
X100305721Y-55442194D01*
X100195626Y-55707988D01*
X100139500Y-55990153D01*
X84715726Y-55990153D01*
X85905379Y-54800500D01*
X99156699Y-54800500D01*
X99445893Y-54772017D01*
X99816957Y-54659456D01*
X100158931Y-54476667D01*
X100458674Y-54230674D01*
X100542208Y-54128887D01*
X100810853Y-54308390D01*
X101114046Y-54433976D01*
X101435913Y-54498000D01*
X101764087Y-54498000D01*
X102085954Y-54433976D01*
X102389147Y-54308390D01*
X102583187Y-54178737D01*
X102588909Y-54189443D01*
X102676197Y-54295803D01*
X102782557Y-54383091D01*
X102903903Y-54447952D01*
X103035570Y-54487893D01*
X103172500Y-54501379D01*
X104726341Y-54501379D01*
X109365393Y-59140431D01*
X109395222Y-59176778D01*
X109540259Y-59295806D01*
X109705731Y-59384252D01*
X109877847Y-59436463D01*
X109885277Y-59438717D01*
X110071999Y-59457108D01*
X110118784Y-59452500D01*
X113162183Y-59452500D01*
X113168272Y-59461613D01*
X113378387Y-59671728D01*
X113625457Y-59836815D01*
X113899987Y-59950529D01*
X114191426Y-60008500D01*
X114488574Y-60008500D01*
X114780013Y-59950529D01*
X115054543Y-59836815D01*
X115301613Y-59671728D01*
X115511728Y-59461613D01*
X115517817Y-59452500D01*
X120335462Y-59452500D01*
X121184142Y-60301181D01*
X121183500Y-60304411D01*
X121183500Y-60599589D01*
X121241086Y-60889096D01*
X121354046Y-61161806D01*
X121518039Y-61407238D01*
X121726762Y-61615961D01*
X121972194Y-61779954D01*
X122244904Y-61892914D01*
X122534411Y-61950500D01*
X122829589Y-61950500D01*
X123119096Y-61892914D01*
X123391806Y-61779954D01*
X123637238Y-61615961D01*
X123845961Y-61407238D01*
X124009954Y-61161806D01*
X124122914Y-60889096D01*
X124180500Y-60599589D01*
X124180500Y-60304411D01*
X124122914Y-60014904D01*
X124009954Y-59742194D01*
X123845961Y-59496762D01*
X123637238Y-59288039D01*
X123391806Y-59124046D01*
X123119096Y-59011086D01*
X122829589Y-58953500D01*
X122534411Y-58953500D01*
X122531181Y-58954142D01*
X121436607Y-57859569D01*
X121406778Y-57823222D01*
X121261741Y-57704194D01*
X121096269Y-57615748D01*
X120916723Y-57561283D01*
X120776785Y-57547500D01*
X120730000Y-57542892D01*
X120683215Y-57547500D01*
X115517817Y-57547500D01*
X115511728Y-57538387D01*
X115301613Y-57328272D01*
X115054543Y-57163185D01*
X114780013Y-57049471D01*
X114488574Y-56991500D01*
X114191426Y-56991500D01*
X113899987Y-57049471D01*
X113625457Y-57163185D01*
X113378387Y-57328272D01*
X113168272Y-57538387D01*
X113162183Y-57547500D01*
X110466538Y-57547500D01*
X108768116Y-55849078D01*
X113404724Y-55849078D01*
X113467102Y-56118419D01*
X113727831Y-56256806D01*
X114010548Y-56341669D01*
X114304389Y-56369745D01*
X114598061Y-56339957D01*
X114880279Y-56253448D01*
X115132898Y-56118419D01*
X115195276Y-55849078D01*
X114300000Y-54953803D01*
X113404724Y-55849078D01*
X108768116Y-55849078D01*
X106933455Y-54014417D01*
X107097225Y-54101954D01*
X107348590Y-54178205D01*
X107544494Y-54197500D01*
X107544504Y-54197500D01*
X107610002Y-54203951D01*
X107675499Y-54197500D01*
X112957262Y-54197500D01*
X112907194Y-54291831D01*
X112822331Y-54574548D01*
X112794255Y-54868389D01*
X112824043Y-55162061D01*
X112910552Y-55444279D01*
X113045581Y-55696898D01*
X113314922Y-55759276D01*
X114210197Y-54864000D01*
X114196055Y-54849858D01*
X114285858Y-54760055D01*
X114300000Y-54774197D01*
X114314142Y-54760055D01*
X114403945Y-54849858D01*
X114389803Y-54864000D01*
X115285078Y-55759276D01*
X115554419Y-55696898D01*
X115692806Y-55436169D01*
X115777669Y-55153452D01*
X115805745Y-54859611D01*
X115775957Y-54565939D01*
X115689448Y-54283721D01*
X115643361Y-54197500D01*
X122062838Y-54197500D01*
X122231515Y-54267368D01*
X127485146Y-59521000D01*
X122373647Y-64632500D01*
X117840841Y-64632500D01*
X118011728Y-64461613D01*
X118176815Y-64214543D01*
X118290529Y-63940013D01*
X118348500Y-63648574D01*
X118348500Y-63351426D01*
X118290529Y-63059987D01*
X118176815Y-62785457D01*
X118011728Y-62538387D01*
X117801613Y-62328272D01*
X117554543Y-62163185D01*
X117280013Y-62049471D01*
X116988574Y-61991500D01*
X116691426Y-61991500D01*
X116399987Y-62049471D01*
X116125457Y-62163185D01*
X115878387Y-62328272D01*
X115668272Y-62538387D01*
X115503185Y-62785457D01*
X115389471Y-63059987D01*
X115331500Y-63351426D01*
X115331500Y-63648574D01*
X115389471Y-63940013D01*
X115503185Y-64214543D01*
X115668272Y-64461613D01*
X115839159Y-64632500D01*
X114121497Y-64632500D01*
X114056000Y-64626049D01*
X113990502Y-64632500D01*
X113990492Y-64632500D01*
X113794588Y-64651795D01*
X113543223Y-64728046D01*
X113464733Y-64770000D01*
X113311563Y-64851871D01*
X113159394Y-64976752D01*
X113159391Y-64976755D01*
X113108511Y-65018511D01*
X113066755Y-65069391D01*
X108230752Y-69905395D01*
X108105871Y-70057563D01*
X107982047Y-70289223D01*
X107914697Y-70511248D01*
X107849088Y-70303017D01*
X107744399Y-70107159D01*
X107498940Y-70072863D01*
X106769803Y-70802000D01*
X106783945Y-70816142D01*
X106694142Y-70905945D01*
X106680000Y-70891803D01*
X106665858Y-70905945D01*
X106576055Y-70816142D01*
X106590197Y-70802000D01*
X106576055Y-70787858D01*
X106665858Y-70698055D01*
X106680000Y-70712197D01*
X107409137Y-69983060D01*
X107374841Y-69737601D01*
X107153836Y-69622497D01*
X106914622Y-69552720D01*
X106666391Y-69530952D01*
X106418683Y-69558029D01*
X106352500Y-69578882D01*
X106352500Y-68298784D01*
X106357108Y-68251999D01*
X106338717Y-68065277D01*
X106284252Y-67885731D01*
X106195806Y-67720259D01*
X106076778Y-67575222D01*
X106040431Y-67545393D01*
X103894607Y-65399569D01*
X103864778Y-65363222D01*
X103719741Y-65244194D01*
X103554269Y-65155748D01*
X103374723Y-65101283D01*
X103234785Y-65087500D01*
X103188000Y-65082892D01*
X103141215Y-65087500D01*
X102063926Y-65087500D01*
X102040799Y-65052888D01*
X101825112Y-64837201D01*
X101724538Y-64770000D01*
X101825112Y-64702799D01*
X102035720Y-64492191D01*
X110937612Y-64492191D01*
X111001190Y-64762555D01*
X111263620Y-64901939D01*
X111548200Y-64987447D01*
X111843993Y-65015794D01*
X112139633Y-64985889D01*
X112423758Y-64898883D01*
X112678810Y-64762555D01*
X112742388Y-64492191D01*
X111840000Y-63589803D01*
X110937612Y-64492191D01*
X102035720Y-64492191D01*
X102040799Y-64487112D01*
X102210263Y-64233490D01*
X102326992Y-63951681D01*
X102386500Y-63652514D01*
X102386500Y-63503993D01*
X110324206Y-63503993D01*
X110354111Y-63799633D01*
X110441117Y-64083758D01*
X110577445Y-64338810D01*
X110847809Y-64402388D01*
X111750197Y-63500000D01*
X111929803Y-63500000D01*
X112832191Y-64402388D01*
X113102555Y-64338810D01*
X113241939Y-64076380D01*
X113327447Y-63791800D01*
X113355794Y-63496007D01*
X113325889Y-63200367D01*
X113238883Y-62916242D01*
X113102555Y-62661190D01*
X112832191Y-62597612D01*
X111929803Y-63500000D01*
X111750197Y-63500000D01*
X110847809Y-62597612D01*
X110577445Y-62661190D01*
X110438061Y-62923620D01*
X110352553Y-63208200D01*
X110324206Y-63503993D01*
X102386500Y-63503993D01*
X102386500Y-63347486D01*
X102326992Y-63048319D01*
X102210263Y-62766510D01*
X102040799Y-62512888D01*
X102035720Y-62507809D01*
X110937612Y-62507809D01*
X111840000Y-63410197D01*
X112742388Y-62507809D01*
X112678810Y-62237445D01*
X112416380Y-62098061D01*
X112131800Y-62012553D01*
X111836007Y-61984206D01*
X111540367Y-62014111D01*
X111256242Y-62101117D01*
X111001190Y-62237445D01*
X110937612Y-62507809D01*
X102035720Y-62507809D01*
X101825112Y-62297201D01*
X101571490Y-62127737D01*
X101289681Y-62011008D01*
X100990514Y-61951500D01*
X100685486Y-61951500D01*
X100386319Y-62011008D01*
X100104510Y-62127737D01*
X99850888Y-62297201D01*
X99635201Y-62512888D01*
X99568000Y-62613462D01*
X99500799Y-62512888D01*
X99285112Y-62297201D01*
X99031490Y-62127737D01*
X98749681Y-62011008D01*
X98450514Y-61951500D01*
X98145486Y-61951500D01*
X97846319Y-62011008D01*
X97564510Y-62127737D01*
X97310888Y-62297201D01*
X97246084Y-62362005D01*
X97191591Y-62260057D01*
X97104303Y-62153697D01*
X96997943Y-62066409D01*
X96876597Y-62001548D01*
X96744930Y-61961607D01*
X96608000Y-61948121D01*
X94908000Y-61948121D01*
X94771070Y-61961607D01*
X94639403Y-62001548D01*
X94518057Y-62066409D01*
X94411697Y-62153697D01*
X94324409Y-62260057D01*
X94259548Y-62381403D01*
X94219607Y-62513070D01*
X94216216Y-62547500D01*
X88608784Y-62547500D01*
X88561999Y-62542892D01*
X88490411Y-62549943D01*
X88375277Y-62561283D01*
X88195731Y-62615748D01*
X88030259Y-62704194D01*
X87885222Y-62823222D01*
X87855397Y-62859564D01*
X84947564Y-65767398D01*
X84911223Y-65797222D01*
X84881399Y-65833563D01*
X84792194Y-65942260D01*
X84703749Y-66107731D01*
X84649283Y-66287278D01*
X84630892Y-66474000D01*
X84635501Y-66520795D01*
X84635500Y-76153215D01*
X84630892Y-76200000D01*
X84635500Y-76246784D01*
X84649283Y-76386722D01*
X84703748Y-76566268D01*
X84792194Y-76731741D01*
X84911222Y-76876778D01*
X84947569Y-76906607D01*
X86376142Y-78335181D01*
X86375500Y-78338411D01*
X86375500Y-78633589D01*
X86433086Y-78923096D01*
X86546046Y-79195806D01*
X86710039Y-79441238D01*
X86918762Y-79649961D01*
X87164194Y-79813954D01*
X87436904Y-79926914D01*
X87726411Y-79984500D01*
X88021589Y-79984500D01*
X88311096Y-79926914D01*
X88583806Y-79813954D01*
X88765574Y-79692500D01*
X90287801Y-79692500D01*
X90289909Y-79696443D01*
X90377197Y-79802803D01*
X90483557Y-79890091D01*
X90604903Y-79954952D01*
X90736570Y-79994893D01*
X90873500Y-80008379D01*
X92006500Y-80008379D01*
X92143430Y-79994893D01*
X92275097Y-79954952D01*
X92396443Y-79890091D01*
X92502803Y-79802803D01*
X92590091Y-79696443D01*
X92654952Y-79575097D01*
X92694893Y-79443430D01*
X92708379Y-79306500D01*
X92708379Y-78615408D01*
X92715000Y-78615408D01*
X92715000Y-78864592D01*
X92763613Y-79108987D01*
X92858971Y-79339202D01*
X92997410Y-79546391D01*
X93173609Y-79722590D01*
X93380798Y-79861029D01*
X93611013Y-79956387D01*
X93855408Y-80005000D01*
X94104592Y-80005000D01*
X94348987Y-79956387D01*
X94579202Y-79861029D01*
X94786391Y-79722590D01*
X94962590Y-79546391D01*
X95101029Y-79339202D01*
X95196387Y-79108987D01*
X95245000Y-78864592D01*
X95245000Y-78615408D01*
X95255000Y-78615408D01*
X95255000Y-78864592D01*
X95303613Y-79108987D01*
X95398971Y-79339202D01*
X95537410Y-79546391D01*
X95713609Y-79722590D01*
X95920798Y-79861029D01*
X96151013Y-79956387D01*
X96395408Y-80005000D01*
X96644592Y-80005000D01*
X96888987Y-79956387D01*
X97119202Y-79861029D01*
X97326391Y-79722590D01*
X97502590Y-79546391D01*
X97641029Y-79339202D01*
X97736387Y-79108987D01*
X97785000Y-78864592D01*
X97785000Y-78615408D01*
X97795000Y-78615408D01*
X97795000Y-78864592D01*
X97843613Y-79108987D01*
X97938971Y-79339202D01*
X98077410Y-79546391D01*
X98253609Y-79722590D01*
X98460798Y-79861029D01*
X98691013Y-79956387D01*
X98935408Y-80005000D01*
X99184592Y-80005000D01*
X99428987Y-79956387D01*
X99659202Y-79861029D01*
X99866391Y-79722590D01*
X100042590Y-79546391D01*
X100181029Y-79339202D01*
X100276387Y-79108987D01*
X100325000Y-78864592D01*
X100325000Y-78615408D01*
X100335000Y-78615408D01*
X100335000Y-78864592D01*
X100383613Y-79108987D01*
X100478971Y-79339202D01*
X100617410Y-79546391D01*
X100793609Y-79722590D01*
X101000798Y-79861029D01*
X101231013Y-79956387D01*
X101475408Y-80005000D01*
X101724592Y-80005000D01*
X101968987Y-79956387D01*
X102199202Y-79861029D01*
X102406391Y-79722590D01*
X102582590Y-79546391D01*
X102721029Y-79339202D01*
X102816387Y-79108987D01*
X102865000Y-78864592D01*
X102865000Y-78615408D01*
X102875000Y-78615408D01*
X102875000Y-78864592D01*
X102923613Y-79108987D01*
X103018971Y-79339202D01*
X103157410Y-79546391D01*
X103333609Y-79722590D01*
X103540798Y-79861029D01*
X103771013Y-79956387D01*
X104015408Y-80005000D01*
X104264592Y-80005000D01*
X104508987Y-79956387D01*
X104739202Y-79861029D01*
X104946391Y-79722590D01*
X105122590Y-79546391D01*
X105261029Y-79339202D01*
X105356387Y-79108987D01*
X105405000Y-78864592D01*
X105405000Y-78615408D01*
X105356387Y-78371013D01*
X105261029Y-78140798D01*
X105122590Y-77933609D01*
X104946391Y-77757410D01*
X104739202Y-77618971D01*
X104508987Y-77523613D01*
X104264592Y-77475000D01*
X104015408Y-77475000D01*
X103771013Y-77523613D01*
X103540798Y-77618971D01*
X103333609Y-77757410D01*
X103157410Y-77933609D01*
X103018971Y-78140798D01*
X102923613Y-78371013D01*
X102875000Y-78615408D01*
X102865000Y-78615408D01*
X102816387Y-78371013D01*
X102721029Y-78140798D01*
X102582590Y-77933609D01*
X102406391Y-77757410D01*
X102199202Y-77618971D01*
X101968987Y-77523613D01*
X101724592Y-77475000D01*
X101475408Y-77475000D01*
X101231013Y-77523613D01*
X101000798Y-77618971D01*
X100793609Y-77757410D01*
X100617410Y-77933609D01*
X100478971Y-78140798D01*
X100383613Y-78371013D01*
X100335000Y-78615408D01*
X100325000Y-78615408D01*
X100276387Y-78371013D01*
X100181029Y-78140798D01*
X100042590Y-77933609D01*
X99866391Y-77757410D01*
X99659202Y-77618971D01*
X99428987Y-77523613D01*
X99184592Y-77475000D01*
X98935408Y-77475000D01*
X98691013Y-77523613D01*
X98460798Y-77618971D01*
X98253609Y-77757410D01*
X98077410Y-77933609D01*
X97938971Y-78140798D01*
X97843613Y-78371013D01*
X97795000Y-78615408D01*
X97785000Y-78615408D01*
X97736387Y-78371013D01*
X97641029Y-78140798D01*
X97502590Y-77933609D01*
X97326391Y-77757410D01*
X97119202Y-77618971D01*
X96888987Y-77523613D01*
X96644592Y-77475000D01*
X96395408Y-77475000D01*
X96151013Y-77523613D01*
X95920798Y-77618971D01*
X95713609Y-77757410D01*
X95537410Y-77933609D01*
X95398971Y-78140798D01*
X95303613Y-78371013D01*
X95255000Y-78615408D01*
X95245000Y-78615408D01*
X95196387Y-78371013D01*
X95101029Y-78140798D01*
X94962590Y-77933609D01*
X94786391Y-77757410D01*
X94579202Y-77618971D01*
X94348987Y-77523613D01*
X94104592Y-77475000D01*
X93855408Y-77475000D01*
X93611013Y-77523613D01*
X93380798Y-77618971D01*
X93173609Y-77757410D01*
X92997410Y-77933609D01*
X92858971Y-78140798D01*
X92763613Y-78371013D01*
X92715000Y-78615408D01*
X92708379Y-78615408D01*
X92708379Y-78173500D01*
X92694893Y-78036570D01*
X92654952Y-77904903D01*
X92590091Y-77783557D01*
X92502803Y-77677197D01*
X92396443Y-77589909D01*
X92275097Y-77525048D01*
X92143430Y-77485107D01*
X92006500Y-77471621D01*
X90873500Y-77471621D01*
X90736570Y-77485107D01*
X90604903Y-77525048D01*
X90483557Y-77589909D01*
X90377197Y-77677197D01*
X90289909Y-77783557D01*
X90287801Y-77787500D01*
X89206637Y-77787500D01*
X89201954Y-77776194D01*
X89037961Y-77530762D01*
X88829238Y-77322039D01*
X88583806Y-77158046D01*
X88311096Y-77045086D01*
X88021589Y-76987500D01*
X87726411Y-76987500D01*
X87723181Y-76988142D01*
X86540500Y-75805462D01*
X86540500Y-71562417D01*
X86546046Y-71575806D01*
X86710039Y-71821238D01*
X86918762Y-72029961D01*
X87164194Y-72193954D01*
X87436904Y-72306914D01*
X87726411Y-72364500D01*
X88021589Y-72364500D01*
X88024819Y-72363857D01*
X88617393Y-72956431D01*
X88647222Y-72992778D01*
X88792259Y-73111806D01*
X88874995Y-73156029D01*
X88957730Y-73200252D01*
X88988982Y-73209732D01*
X89137277Y-73254717D01*
X89277215Y-73268500D01*
X89324000Y-73273108D01*
X89370785Y-73268500D01*
X105353215Y-73268500D01*
X105400000Y-73273108D01*
X105446785Y-73268500D01*
X107659215Y-73268500D01*
X107706000Y-73273108D01*
X107752785Y-73268500D01*
X107892723Y-73254717D01*
X108072269Y-73200252D01*
X108237741Y-73111806D01*
X108267501Y-73087383D01*
X108267501Y-73181461D01*
X106039569Y-75409393D01*
X106003222Y-75439222D01*
X105884194Y-75584259D01*
X105795748Y-75749732D01*
X105770267Y-75833731D01*
X105741283Y-75929278D01*
X105722892Y-76116000D01*
X105727500Y-76162785D01*
X105727501Y-77903518D01*
X105697410Y-77933609D01*
X105558971Y-78140798D01*
X105463613Y-78371013D01*
X105415000Y-78615408D01*
X105415000Y-78864592D01*
X105463613Y-79108987D01*
X105558971Y-79339202D01*
X105697410Y-79546391D01*
X105873609Y-79722590D01*
X106080798Y-79861029D01*
X106311013Y-79956387D01*
X106555408Y-80005000D01*
X106804592Y-80005000D01*
X107048987Y-79956387D01*
X107279202Y-79861029D01*
X107486391Y-79722590D01*
X107650041Y-79558940D01*
X108490863Y-79558940D01*
X108525159Y-79804399D01*
X108746164Y-79919503D01*
X108985378Y-79989280D01*
X109233609Y-80011048D01*
X109481317Y-79983971D01*
X109718983Y-79909088D01*
X109914841Y-79804399D01*
X109949137Y-79558940D01*
X109220000Y-78829803D01*
X108490863Y-79558940D01*
X107650041Y-79558940D01*
X107662590Y-79546391D01*
X107801029Y-79339202D01*
X107896387Y-79108987D01*
X107945000Y-78864592D01*
X107945000Y-78753609D01*
X107948952Y-78753609D01*
X107976029Y-79001317D01*
X108050912Y-79238983D01*
X108155601Y-79434841D01*
X108401060Y-79469137D01*
X109130197Y-78740000D01*
X109309803Y-78740000D01*
X110038940Y-79469137D01*
X110284399Y-79434841D01*
X110399503Y-79213836D01*
X110469280Y-78974622D01*
X110491048Y-78726391D01*
X110478917Y-78615408D01*
X110495000Y-78615408D01*
X110495000Y-78864592D01*
X110543613Y-79108987D01*
X110638971Y-79339202D01*
X110777410Y-79546391D01*
X110953609Y-79722590D01*
X111160798Y-79861029D01*
X111391013Y-79956387D01*
X111635408Y-80005000D01*
X111884592Y-80005000D01*
X112128987Y-79956387D01*
X112359202Y-79861029D01*
X112566391Y-79722590D01*
X112742590Y-79546391D01*
X112881029Y-79339202D01*
X112976387Y-79108987D01*
X113025000Y-78864592D01*
X113025000Y-78615408D01*
X113035000Y-78615408D01*
X113035000Y-78864592D01*
X113083613Y-79108987D01*
X113178971Y-79339202D01*
X113317410Y-79546391D01*
X113493609Y-79722590D01*
X113700798Y-79861029D01*
X113931013Y-79956387D01*
X114175408Y-80005000D01*
X114424592Y-80005000D01*
X114668987Y-79956387D01*
X114899202Y-79861029D01*
X115106391Y-79722590D01*
X115282590Y-79546391D01*
X115421029Y-79339202D01*
X115516387Y-79108987D01*
X115565000Y-78864592D01*
X115565000Y-78615408D01*
X115516387Y-78371013D01*
X115421029Y-78140798D01*
X115282590Y-77933609D01*
X115106391Y-77757410D01*
X114899202Y-77618971D01*
X114668987Y-77523613D01*
X114424592Y-77475000D01*
X114175408Y-77475000D01*
X113931013Y-77523613D01*
X113700798Y-77618971D01*
X113493609Y-77757410D01*
X113317410Y-77933609D01*
X113178971Y-78140798D01*
X113083613Y-78371013D01*
X113035000Y-78615408D01*
X113025000Y-78615408D01*
X112976387Y-78371013D01*
X112881029Y-78140798D01*
X112742590Y-77933609D01*
X112566391Y-77757410D01*
X112359202Y-77618971D01*
X112128987Y-77523613D01*
X111884592Y-77475000D01*
X111635408Y-77475000D01*
X111391013Y-77523613D01*
X111160798Y-77618971D01*
X110953609Y-77757410D01*
X110777410Y-77933609D01*
X110638971Y-78140798D01*
X110543613Y-78371013D01*
X110495000Y-78615408D01*
X110478917Y-78615408D01*
X110463971Y-78478683D01*
X110389088Y-78241017D01*
X110284399Y-78045159D01*
X110038940Y-78010863D01*
X109309803Y-78740000D01*
X109130197Y-78740000D01*
X108401060Y-78010863D01*
X108155601Y-78045159D01*
X108040497Y-78266164D01*
X107970720Y-78505378D01*
X107948952Y-78753609D01*
X107945000Y-78753609D01*
X107945000Y-78615408D01*
X107896387Y-78371013D01*
X107801029Y-78140798D01*
X107662590Y-77933609D01*
X107650041Y-77921060D01*
X108490863Y-77921060D01*
X109220000Y-78650197D01*
X109949137Y-77921060D01*
X109914841Y-77675601D01*
X109693836Y-77560497D01*
X109454622Y-77490720D01*
X109206391Y-77468952D01*
X108958683Y-77496029D01*
X108721017Y-77570912D01*
X108525159Y-77675601D01*
X108490863Y-77921060D01*
X107650041Y-77921060D01*
X107632500Y-77903519D01*
X107632500Y-76510538D01*
X109860431Y-74282607D01*
X109896778Y-74252778D01*
X110015806Y-74107741D01*
X110104252Y-73942269D01*
X110158717Y-73762723D01*
X110172500Y-73622785D01*
X110177108Y-73576001D01*
X110172500Y-73529216D01*
X110172500Y-71754500D01*
X110923519Y-71754500D01*
X110953609Y-71784590D01*
X111160798Y-71923029D01*
X111391013Y-72018387D01*
X111635408Y-72067000D01*
X111884592Y-72067000D01*
X112128987Y-72018387D01*
X112359202Y-71923029D01*
X112566391Y-71784590D01*
X112742590Y-71608391D01*
X112881029Y-71401202D01*
X112976387Y-71170987D01*
X113025000Y-70926592D01*
X113025000Y-70677408D01*
X113035000Y-70677408D01*
X113035000Y-70926592D01*
X113083613Y-71170987D01*
X113178971Y-71401202D01*
X113317410Y-71608391D01*
X113493609Y-71784590D01*
X113700798Y-71923029D01*
X113931013Y-72018387D01*
X114175408Y-72067000D01*
X114424592Y-72067000D01*
X114668987Y-72018387D01*
X114899202Y-71923029D01*
X115106391Y-71784590D01*
X115282590Y-71608391D01*
X115421029Y-71401202D01*
X115516387Y-71170987D01*
X115565000Y-70926592D01*
X115565000Y-70677408D01*
X115575000Y-70677408D01*
X115575000Y-70926592D01*
X115623613Y-71170987D01*
X115718971Y-71401202D01*
X115857410Y-71608391D01*
X116033609Y-71784590D01*
X116240798Y-71923029D01*
X116471013Y-72018387D01*
X116715408Y-72067000D01*
X116964592Y-72067000D01*
X117208987Y-72018387D01*
X117439202Y-71923029D01*
X117646391Y-71784590D01*
X117822590Y-71608391D01*
X117961029Y-71401202D01*
X118056387Y-71170987D01*
X118105000Y-70926592D01*
X118105000Y-70677408D01*
X118115000Y-70677408D01*
X118115000Y-70926592D01*
X118163613Y-71170987D01*
X118258971Y-71401202D01*
X118397410Y-71608391D01*
X118573609Y-71784590D01*
X118780798Y-71923029D01*
X119011013Y-72018387D01*
X119255408Y-72067000D01*
X119504592Y-72067000D01*
X119748987Y-72018387D01*
X119979202Y-71923029D01*
X120186391Y-71784590D01*
X120362590Y-71608391D01*
X120501029Y-71401202D01*
X120596387Y-71170987D01*
X120645000Y-70926592D01*
X120645000Y-70677408D01*
X120655000Y-70677408D01*
X120655000Y-70926592D01*
X120703613Y-71170987D01*
X120798971Y-71401202D01*
X120937410Y-71608391D01*
X121113609Y-71784590D01*
X121320798Y-71923029D01*
X121551013Y-72018387D01*
X121795408Y-72067000D01*
X122044592Y-72067000D01*
X122288987Y-72018387D01*
X122519202Y-71923029D01*
X122726391Y-71784590D01*
X122902590Y-71608391D01*
X123041029Y-71401202D01*
X123136387Y-71170987D01*
X123185000Y-70926592D01*
X123185000Y-70677408D01*
X123195000Y-70677408D01*
X123195000Y-70926592D01*
X123243613Y-71170987D01*
X123338971Y-71401202D01*
X123477410Y-71608391D01*
X123653609Y-71784590D01*
X123860798Y-71923029D01*
X124091013Y-72018387D01*
X124335408Y-72067000D01*
X124584592Y-72067000D01*
X124828987Y-72018387D01*
X125059202Y-71923029D01*
X125266391Y-71784590D01*
X125442590Y-71608391D01*
X125581029Y-71401202D01*
X125676387Y-71170987D01*
X125725000Y-70926592D01*
X125725000Y-70677408D01*
X125676387Y-70433013D01*
X125581029Y-70202798D01*
X125442590Y-69995609D01*
X125266391Y-69819410D01*
X125059202Y-69680971D01*
X124828987Y-69585613D01*
X124584592Y-69537000D01*
X124335408Y-69537000D01*
X124091013Y-69585613D01*
X123860798Y-69680971D01*
X123653609Y-69819410D01*
X123477410Y-69995609D01*
X123338971Y-70202798D01*
X123243613Y-70433013D01*
X123195000Y-70677408D01*
X123185000Y-70677408D01*
X123136387Y-70433013D01*
X123041029Y-70202798D01*
X122902590Y-69995609D01*
X122726391Y-69819410D01*
X122519202Y-69680971D01*
X122288987Y-69585613D01*
X122044592Y-69537000D01*
X121795408Y-69537000D01*
X121551013Y-69585613D01*
X121320798Y-69680971D01*
X121113609Y-69819410D01*
X120937410Y-69995609D01*
X120798971Y-70202798D01*
X120703613Y-70433013D01*
X120655000Y-70677408D01*
X120645000Y-70677408D01*
X120596387Y-70433013D01*
X120501029Y-70202798D01*
X120362590Y-69995609D01*
X120186391Y-69819410D01*
X119979202Y-69680971D01*
X119748987Y-69585613D01*
X119504592Y-69537000D01*
X119255408Y-69537000D01*
X119011013Y-69585613D01*
X118780798Y-69680971D01*
X118573609Y-69819410D01*
X118397410Y-69995609D01*
X118258971Y-70202798D01*
X118163613Y-70433013D01*
X118115000Y-70677408D01*
X118105000Y-70677408D01*
X118056387Y-70433013D01*
X117961029Y-70202798D01*
X117822590Y-69995609D01*
X117646391Y-69819410D01*
X117439202Y-69680971D01*
X117208987Y-69585613D01*
X116964592Y-69537000D01*
X116715408Y-69537000D01*
X116471013Y-69585613D01*
X116240798Y-69680971D01*
X116033609Y-69819410D01*
X115857410Y-69995609D01*
X115718971Y-70202798D01*
X115623613Y-70433013D01*
X115575000Y-70677408D01*
X115565000Y-70677408D01*
X115516387Y-70433013D01*
X115421029Y-70202798D01*
X115282590Y-69995609D01*
X115106391Y-69819410D01*
X114899202Y-69680971D01*
X114668987Y-69585613D01*
X114424592Y-69537000D01*
X114175408Y-69537000D01*
X113931013Y-69585613D01*
X113700798Y-69680971D01*
X113493609Y-69819410D01*
X113317410Y-69995609D01*
X113178971Y-70202798D01*
X113083613Y-70433013D01*
X113035000Y-70677408D01*
X113025000Y-70677408D01*
X112976387Y-70433013D01*
X112881029Y-70202798D01*
X112742590Y-69995609D01*
X112566391Y-69819410D01*
X112359202Y-69680971D01*
X112265638Y-69642216D01*
X114608354Y-67299500D01*
X122860503Y-67299500D01*
X122926000Y-67305951D01*
X122991497Y-67299500D01*
X122991508Y-67299500D01*
X123187412Y-67280205D01*
X123438777Y-67203954D01*
X123670437Y-67080129D01*
X123873489Y-66913489D01*
X123915250Y-66862603D01*
X129371000Y-61406853D01*
X133530500Y-65566353D01*
X133530501Y-72314493D01*
X133524049Y-72380000D01*
X133530501Y-72445508D01*
X133540500Y-72547029D01*
X133540501Y-95692492D01*
X133534049Y-95758000D01*
X133540501Y-95823508D01*
X133559796Y-96019412D01*
X133597994Y-96145333D01*
X133636047Y-96270777D01*
X133759871Y-96502437D01*
X133884752Y-96654605D01*
X133884756Y-96654609D01*
X133926512Y-96705489D01*
X133977392Y-96747245D01*
X135826500Y-98596354D01*
X135826501Y-108900483D01*
X135826500Y-108900493D01*
X135826501Y-115387839D01*
X135761327Y-115441326D01*
X135515334Y-115741069D01*
X135332545Y-116083043D01*
X135219984Y-116454107D01*
X135191501Y-116743301D01*
X135191500Y-121823301D01*
X135191500Y-122798620D01*
X134067643Y-123922478D01*
X129974954Y-123922478D01*
X130075553Y-123821879D01*
X130298383Y-123821879D01*
X130424107Y-123860017D01*
X130810000Y-123898024D01*
X131195892Y-123860017D01*
X131321616Y-123821879D01*
X132010000Y-123821879D01*
X132146930Y-123808393D01*
X132278597Y-123768452D01*
X132399943Y-123703591D01*
X132506303Y-123616303D01*
X132593591Y-123509943D01*
X132658452Y-123388597D01*
X132698393Y-123256930D01*
X132711879Y-123120000D01*
X132711879Y-122431617D01*
X132750017Y-122305893D01*
X132778500Y-122016699D01*
X132778500Y-116743301D01*
X132750017Y-116454107D01*
X132637456Y-116083043D01*
X132454667Y-115741069D01*
X132208674Y-115441326D01*
X131908931Y-115195333D01*
X131566957Y-115012544D01*
X131195893Y-114899983D01*
X130810000Y-114861976D01*
X130424108Y-114899983D01*
X130053044Y-115012544D01*
X129711070Y-115195333D01*
X129411327Y-115441326D01*
X129165334Y-115741069D01*
X128982545Y-116083043D01*
X128905001Y-116338673D01*
X128827456Y-116083043D01*
X128644667Y-115741069D01*
X128398674Y-115441326D01*
X128098931Y-115195333D01*
X127756957Y-115012544D01*
X127385893Y-114899983D01*
X127000000Y-114861976D01*
X126614108Y-114899983D01*
X126243044Y-115012544D01*
X125901070Y-115195333D01*
X125601327Y-115441326D01*
X125355334Y-115741069D01*
X125172545Y-116083043D01*
X125095001Y-116338673D01*
X125017456Y-116083043D01*
X124834667Y-115741069D01*
X124588674Y-115441326D01*
X124288931Y-115195333D01*
X123986403Y-115033629D01*
X123956353Y-114934566D01*
X123932523Y-114889984D01*
X123879699Y-114791157D01*
X123802392Y-114696958D01*
X123802389Y-114696955D01*
X123776541Y-114665459D01*
X123745046Y-114639612D01*
X122830387Y-113724955D01*
X122804531Y-113693449D01*
X122678832Y-113590291D01*
X122535424Y-113513637D01*
X122379816Y-113466434D01*
X122258543Y-113454490D01*
X122258540Y-113454490D01*
X122217990Y-113450496D01*
X122177440Y-113454490D01*
X118206493Y-113454490D01*
X118165943Y-113450496D01*
X118125392Y-113454490D01*
X118125390Y-113454490D01*
X118004117Y-113466434D01*
X117848509Y-113513637D01*
X117705100Y-113590291D01*
X117610901Y-113667598D01*
X117610900Y-113667599D01*
X117579402Y-113693449D01*
X117553554Y-113724945D01*
X116274961Y-115003540D01*
X116243460Y-115029392D01*
X116217609Y-115060892D01*
X116140301Y-115155091D01*
X116063647Y-115298500D01*
X116016445Y-115454107D01*
X116000506Y-115615933D01*
X116004501Y-115656493D01*
X116004500Y-125495516D01*
X116000506Y-125536066D01*
X116004500Y-125576616D01*
X116004500Y-125576618D01*
X116016444Y-125697891D01*
X116041014Y-125778887D01*
X116063647Y-125853499D01*
X116140301Y-125996908D01*
X116173785Y-126037708D01*
X116243459Y-126122607D01*
X116274966Y-126148464D01*
X118868948Y-128742448D01*
X118868952Y-128742451D01*
X119077548Y-128951049D01*
X119103402Y-128982552D01*
X119188667Y-129052527D01*
X119229098Y-129085708D01*
X119229100Y-129085709D01*
X119229101Y-129085710D01*
X119372509Y-129162364D01*
X119528117Y-129209567D01*
X119649390Y-129221511D01*
X119649392Y-129221511D01*
X119689940Y-129225505D01*
X119730493Y-129221511D01*
X135967541Y-129221511D01*
X136008091Y-129225505D01*
X136048641Y-129221511D01*
X136048644Y-129221511D01*
X136169917Y-129209567D01*
X136325525Y-129162364D01*
X136468933Y-129085710D01*
X136594632Y-128982552D01*
X136620489Y-128951045D01*
X141525040Y-124046495D01*
X141556541Y-124020643D01*
X141637158Y-123922411D01*
X141659699Y-123894945D01*
X141698754Y-123821879D01*
X142170000Y-123821879D01*
X142306930Y-123808393D01*
X142438597Y-123768452D01*
X142559943Y-123703591D01*
X142666303Y-123616303D01*
X142753591Y-123509943D01*
X142818452Y-123388597D01*
X142858393Y-123256930D01*
X142871879Y-123120000D01*
X142871879Y-122431617D01*
X142875000Y-122421328D01*
X142878121Y-122431616D01*
X142878121Y-123120000D01*
X142891607Y-123256930D01*
X142931548Y-123388597D01*
X142996409Y-123509943D01*
X143083697Y-123616303D01*
X143190057Y-123703591D01*
X143311403Y-123768452D01*
X143443070Y-123808393D01*
X143580000Y-123821879D01*
X144268383Y-123821879D01*
X144394107Y-123860017D01*
X144780000Y-123898024D01*
X145165892Y-123860017D01*
X145291616Y-123821879D01*
X145980000Y-123821879D01*
X146116930Y-123808393D01*
X146248597Y-123768452D01*
X146369943Y-123703591D01*
X146476303Y-123616303D01*
X146563591Y-123509943D01*
X146628452Y-123388597D01*
X146668393Y-123256930D01*
X146681879Y-123120000D01*
X146681879Y-122431617D01*
X146685000Y-122421328D01*
X146688121Y-122431616D01*
X146688121Y-123120000D01*
X146701607Y-123256930D01*
X146741548Y-123388597D01*
X146806409Y-123509943D01*
X146893697Y-123616303D01*
X147000057Y-123703591D01*
X147121403Y-123768452D01*
X147253070Y-123808393D01*
X147390000Y-123821879D01*
X148078383Y-123821879D01*
X148204107Y-123860017D01*
X148590000Y-123898024D01*
X148975892Y-123860017D01*
X149101616Y-123821879D01*
X149790000Y-123821879D01*
X149926930Y-123808393D01*
X150058597Y-123768452D01*
X150179943Y-123703591D01*
X150286303Y-123616303D01*
X150373591Y-123509943D01*
X150438452Y-123388597D01*
X150478393Y-123256930D01*
X150491879Y-123120000D01*
X150491879Y-122431617D01*
X150530017Y-122305893D01*
X150558500Y-122016699D01*
X150558500Y-116743301D01*
X150530017Y-116454107D01*
X150417456Y-116083043D01*
X150234667Y-115741069D01*
X149988674Y-115441326D01*
X149688931Y-115195333D01*
X149346957Y-115012544D01*
X149221769Y-114974569D01*
X149202392Y-114950958D01*
X149202389Y-114950955D01*
X149176541Y-114919459D01*
X149145046Y-114893612D01*
X148358377Y-114106945D01*
X148332521Y-114075439D01*
X148206822Y-113972281D01*
X148063414Y-113895627D01*
X147907806Y-113848424D01*
X147786533Y-113836480D01*
X147786530Y-113836480D01*
X147745980Y-113832486D01*
X147705430Y-113836480D01*
X139922503Y-113836480D01*
X139881953Y-113832486D01*
X139841402Y-113836480D01*
X139841400Y-113836480D01*
X139720127Y-113848424D01*
X139564519Y-113895627D01*
X139421110Y-113972281D01*
X139326911Y-114049588D01*
X139326910Y-114049589D01*
X139295412Y-114075439D01*
X139269564Y-114106935D01*
X138493500Y-114883000D01*
X138493500Y-99123500D01*
X141041839Y-99123500D01*
X141095326Y-99188674D01*
X141395069Y-99434667D01*
X141737043Y-99617456D01*
X142108107Y-99730017D01*
X142397301Y-99758500D01*
X147670699Y-99758500D01*
X147959893Y-99730017D01*
X148085617Y-99691879D01*
X148774000Y-99691879D01*
X148910930Y-99678393D01*
X149042597Y-99638452D01*
X149163943Y-99573591D01*
X149270303Y-99486303D01*
X149357591Y-99379943D01*
X149422452Y-99258597D01*
X149462393Y-99126930D01*
X149475879Y-98990000D01*
X149475879Y-98301617D01*
X149514017Y-98175893D01*
X149552024Y-97790000D01*
X149514017Y-97404107D01*
X149475879Y-97278383D01*
X149475879Y-96590000D01*
X149462393Y-96453070D01*
X149422452Y-96321403D01*
X149357591Y-96200057D01*
X149270303Y-96093697D01*
X149163943Y-96006409D01*
X149042597Y-95941548D01*
X148910930Y-95901607D01*
X148774000Y-95888121D01*
X148085617Y-95888121D01*
X148075329Y-95885000D01*
X148085617Y-95881879D01*
X148774000Y-95881879D01*
X148910930Y-95868393D01*
X149042597Y-95828452D01*
X149163943Y-95763591D01*
X149270303Y-95676303D01*
X149357591Y-95569943D01*
X149422452Y-95448597D01*
X149462393Y-95316930D01*
X149475879Y-95180000D01*
X149475879Y-94491617D01*
X149514017Y-94365893D01*
X149552024Y-93980000D01*
X149514017Y-93594107D01*
X149475879Y-93468383D01*
X149475879Y-92780000D01*
X149462393Y-92643070D01*
X149422452Y-92511403D01*
X149357591Y-92390057D01*
X149270303Y-92283697D01*
X149163943Y-92196409D01*
X149042597Y-92131548D01*
X148910930Y-92091607D01*
X148774000Y-92078121D01*
X148085617Y-92078121D01*
X148075329Y-92075000D01*
X148085617Y-92071879D01*
X148774000Y-92071879D01*
X148910930Y-92058393D01*
X149042597Y-92018452D01*
X149163943Y-91953591D01*
X149270303Y-91866303D01*
X149357591Y-91759943D01*
X149422452Y-91638597D01*
X149462393Y-91506930D01*
X149475879Y-91370000D01*
X149475879Y-90681617D01*
X149514017Y-90555893D01*
X149552024Y-90170000D01*
X149514017Y-89784107D01*
X149475879Y-89658383D01*
X149475879Y-88970000D01*
X149462393Y-88833070D01*
X149422452Y-88701403D01*
X149357591Y-88580057D01*
X149270303Y-88473697D01*
X149163943Y-88386409D01*
X149042597Y-88321548D01*
X148910930Y-88281607D01*
X148774000Y-88268121D01*
X148085617Y-88268121D01*
X148075329Y-88265000D01*
X148085617Y-88261879D01*
X148774000Y-88261879D01*
X148910930Y-88248393D01*
X149042597Y-88208452D01*
X149163943Y-88143591D01*
X149270303Y-88056303D01*
X149357591Y-87949943D01*
X149422452Y-87828597D01*
X149462393Y-87696930D01*
X149475879Y-87560000D01*
X149475879Y-86871617D01*
X149514017Y-86745893D01*
X149552024Y-86360000D01*
X149514017Y-85974107D01*
X149475879Y-85848383D01*
X149475879Y-85160000D01*
X149462393Y-85023070D01*
X149422452Y-84891403D01*
X149357591Y-84770057D01*
X149270303Y-84663697D01*
X149163943Y-84576409D01*
X149042597Y-84511548D01*
X148910930Y-84471607D01*
X148774000Y-84458121D01*
X148085617Y-84458121D01*
X148075329Y-84455000D01*
X148085617Y-84451879D01*
X148774000Y-84451879D01*
X148910930Y-84438393D01*
X149042597Y-84398452D01*
X149163943Y-84333591D01*
X149270303Y-84246303D01*
X149357591Y-84139943D01*
X149422452Y-84018597D01*
X149462393Y-83886930D01*
X149475879Y-83750000D01*
X149475879Y-83061617D01*
X149514017Y-82935893D01*
X149552024Y-82550000D01*
X149514017Y-82164107D01*
X149475879Y-82038383D01*
X149475879Y-81350000D01*
X149462393Y-81213070D01*
X149422452Y-81081403D01*
X149357591Y-80960057D01*
X149270303Y-80853697D01*
X149163943Y-80766409D01*
X149042597Y-80701548D01*
X148910930Y-80661607D01*
X148774000Y-80648121D01*
X148085617Y-80648121D01*
X148056735Y-80639360D01*
X148774000Y-80641880D01*
X148910930Y-80628394D01*
X149042598Y-80588453D01*
X149163944Y-80523592D01*
X149270304Y-80436304D01*
X149357592Y-80329944D01*
X149422453Y-80208598D01*
X149462394Y-80076930D01*
X149475880Y-79940000D01*
X149472500Y-78978125D01*
X149297875Y-78803500D01*
X147637500Y-78803500D01*
X147637500Y-78823500D01*
X147510500Y-78823500D01*
X147510500Y-78803500D01*
X145850125Y-78803500D01*
X145675500Y-78978125D01*
X145672120Y-79940000D01*
X145685606Y-80076930D01*
X145725547Y-80208598D01*
X145790408Y-80329944D01*
X145877696Y-80436304D01*
X145984056Y-80523592D01*
X146092394Y-80581500D01*
X142961850Y-80581500D01*
X143213492Y-80506805D01*
X143544353Y-80332491D01*
X143563316Y-80319820D01*
X143673735Y-80009537D01*
X142494000Y-78829803D01*
X141314265Y-80009537D01*
X141424684Y-80319820D01*
X141753438Y-80498077D01*
X142110652Y-80608773D01*
X142115377Y-80609267D01*
X142108107Y-80609983D01*
X141737043Y-80722544D01*
X141395069Y-80905333D01*
X141095326Y-81151326D01*
X140849333Y-81451069D01*
X140666544Y-81793043D01*
X140553983Y-82164107D01*
X140515976Y-82550000D01*
X140553983Y-82935893D01*
X140666544Y-83306957D01*
X140849333Y-83648931D01*
X141095326Y-83948674D01*
X141395069Y-84194667D01*
X141737043Y-84377456D01*
X141992671Y-84455000D01*
X141737043Y-84532544D01*
X141395069Y-84715333D01*
X141095326Y-84961326D01*
X140849333Y-85261069D01*
X140666544Y-85603043D01*
X140553983Y-85974107D01*
X140515976Y-86360000D01*
X140553983Y-86745893D01*
X140666544Y-87116957D01*
X140849333Y-87458931D01*
X141095326Y-87758674D01*
X141395069Y-88004667D01*
X141737043Y-88187456D01*
X141992671Y-88265000D01*
X141737043Y-88342544D01*
X141395069Y-88525333D01*
X141095326Y-88771326D01*
X140849333Y-89071069D01*
X140666544Y-89413043D01*
X140553983Y-89784107D01*
X140515976Y-90170000D01*
X140553983Y-90555893D01*
X140666544Y-90926957D01*
X140849333Y-91268931D01*
X141095326Y-91568674D01*
X141395069Y-91814667D01*
X141737043Y-91997456D01*
X141992671Y-92075000D01*
X141737043Y-92152544D01*
X141395069Y-92335333D01*
X141095326Y-92581326D01*
X140849333Y-92881069D01*
X140666544Y-93223043D01*
X140553983Y-93594107D01*
X140515976Y-93980000D01*
X140553983Y-94365893D01*
X140666544Y-94736957D01*
X140849333Y-95078931D01*
X141095326Y-95378674D01*
X141395069Y-95624667D01*
X141737043Y-95807456D01*
X141992671Y-95885000D01*
X141737043Y-95962544D01*
X141395069Y-96145333D01*
X141095326Y-96391326D01*
X141041839Y-96456500D01*
X137458354Y-96456500D01*
X136207500Y-95205647D01*
X136207500Y-78728597D01*
X140586348Y-78728597D01*
X140620778Y-79100981D01*
X140727195Y-79459492D01*
X140901509Y-79790353D01*
X140914180Y-79809316D01*
X141224463Y-79919735D01*
X142404197Y-78740000D01*
X142583803Y-78740000D01*
X143763537Y-79919735D01*
X144073820Y-79809316D01*
X144252077Y-79480562D01*
X144362773Y-79123348D01*
X144401652Y-78751403D01*
X144367222Y-78379019D01*
X144260805Y-78020508D01*
X144086491Y-77689647D01*
X144073820Y-77670684D01*
X143763537Y-77560265D01*
X142583803Y-78740000D01*
X142404197Y-78740000D01*
X141224463Y-77560265D01*
X140914180Y-77670684D01*
X140735923Y-77999438D01*
X140625227Y-78356652D01*
X140586348Y-78728597D01*
X136207500Y-78728597D01*
X136207500Y-77470463D01*
X141314265Y-77470463D01*
X142494000Y-78650197D01*
X143604197Y-77540000D01*
X145672120Y-77540000D01*
X145675500Y-78501875D01*
X145850125Y-78676500D01*
X147510500Y-78676500D01*
X147510500Y-77016125D01*
X147637500Y-77016125D01*
X147637500Y-78676500D01*
X149297875Y-78676500D01*
X149472500Y-78501875D01*
X149475880Y-77540000D01*
X149462394Y-77403070D01*
X149422453Y-77271402D01*
X149357592Y-77150056D01*
X149270304Y-77043696D01*
X149163944Y-76956408D01*
X149042598Y-76891547D01*
X148910930Y-76851606D01*
X148774000Y-76838120D01*
X147812125Y-76841500D01*
X147637500Y-77016125D01*
X147510500Y-77016125D01*
X147335875Y-76841500D01*
X146374000Y-76838120D01*
X146237070Y-76851606D01*
X146105402Y-76891547D01*
X145984056Y-76956408D01*
X145877696Y-77043696D01*
X145790408Y-77150056D01*
X145725547Y-77271402D01*
X145685606Y-77403070D01*
X145672120Y-77540000D01*
X143604197Y-77540000D01*
X143673735Y-77470463D01*
X143563316Y-77160180D01*
X143234562Y-76981923D01*
X142877348Y-76871227D01*
X142505403Y-76832348D01*
X142133019Y-76866778D01*
X141774508Y-76973195D01*
X141443647Y-77147509D01*
X141424684Y-77160180D01*
X141314265Y-77470463D01*
X136207500Y-77470463D01*
X136207500Y-73723500D01*
X141041839Y-73723500D01*
X141095326Y-73788674D01*
X141395069Y-74034667D01*
X141737043Y-74217456D01*
X142108107Y-74330017D01*
X142397301Y-74358500D01*
X147670699Y-74358500D01*
X147959893Y-74330017D01*
X148085617Y-74291879D01*
X148774000Y-74291879D01*
X148910930Y-74278393D01*
X149042597Y-74238452D01*
X149163943Y-74173591D01*
X149270303Y-74086303D01*
X149357591Y-73979943D01*
X149422452Y-73858597D01*
X149462393Y-73726930D01*
X149475879Y-73590000D01*
X149475879Y-72901617D01*
X149514017Y-72775893D01*
X149552024Y-72390000D01*
X149514017Y-72004107D01*
X149475879Y-71878383D01*
X149475879Y-71190000D01*
X149462393Y-71053070D01*
X149422452Y-70921403D01*
X149357591Y-70800057D01*
X149270303Y-70693697D01*
X149163943Y-70606409D01*
X149042597Y-70541548D01*
X148910930Y-70501607D01*
X148774000Y-70488121D01*
X148085617Y-70488121D01*
X148075329Y-70485000D01*
X148085617Y-70481879D01*
X148774000Y-70481879D01*
X148910930Y-70468393D01*
X149042597Y-70428452D01*
X149163943Y-70363591D01*
X149270303Y-70276303D01*
X149357591Y-70169943D01*
X149422452Y-70048597D01*
X149462393Y-69916930D01*
X149475879Y-69780000D01*
X149475879Y-69091617D01*
X149514017Y-68965893D01*
X149552024Y-68580000D01*
X149514017Y-68194107D01*
X149475879Y-68068383D01*
X149475879Y-67380000D01*
X149462393Y-67243070D01*
X149422452Y-67111403D01*
X149357591Y-66990057D01*
X149270303Y-66883697D01*
X149163943Y-66796409D01*
X149042597Y-66731548D01*
X148910930Y-66691607D01*
X148774000Y-66678121D01*
X148085617Y-66678121D01*
X148075329Y-66675000D01*
X148085617Y-66671879D01*
X148774000Y-66671879D01*
X148910930Y-66658393D01*
X149042597Y-66618452D01*
X149163943Y-66553591D01*
X149270303Y-66466303D01*
X149357591Y-66359943D01*
X149422452Y-66238597D01*
X149462393Y-66106930D01*
X149475879Y-65970000D01*
X149475879Y-65281617D01*
X149514017Y-65155893D01*
X149552024Y-64770000D01*
X149514017Y-64384107D01*
X149475879Y-64258383D01*
X149475879Y-63570000D01*
X149462393Y-63433070D01*
X149422452Y-63301403D01*
X149357591Y-63180057D01*
X149270303Y-63073697D01*
X149163943Y-62986409D01*
X149042597Y-62921548D01*
X148910930Y-62881607D01*
X148774000Y-62868121D01*
X148085617Y-62868121D01*
X148075329Y-62865000D01*
X148085617Y-62861879D01*
X148774000Y-62861879D01*
X148910930Y-62848393D01*
X149042597Y-62808452D01*
X149163943Y-62743591D01*
X149270303Y-62656303D01*
X149357591Y-62549943D01*
X149422452Y-62428597D01*
X149462393Y-62296930D01*
X149475879Y-62160000D01*
X149475879Y-61471617D01*
X149514017Y-61345893D01*
X149552024Y-60960000D01*
X149514017Y-60574107D01*
X149475879Y-60448383D01*
X149475879Y-59760000D01*
X149462393Y-59623070D01*
X149422452Y-59491403D01*
X149357591Y-59370057D01*
X149270303Y-59263697D01*
X149163943Y-59176409D01*
X149042597Y-59111548D01*
X148910930Y-59071607D01*
X148774000Y-59058121D01*
X148085617Y-59058121D01*
X148075329Y-59055000D01*
X148085617Y-59051879D01*
X148774000Y-59051879D01*
X148910930Y-59038393D01*
X149042597Y-58998452D01*
X149163943Y-58933591D01*
X149270303Y-58846303D01*
X149357591Y-58739943D01*
X149422452Y-58618597D01*
X149462393Y-58486930D01*
X149475879Y-58350000D01*
X149475879Y-57661617D01*
X149514017Y-57535893D01*
X149552024Y-57150000D01*
X149514017Y-56764107D01*
X149475879Y-56638383D01*
X149475879Y-55950000D01*
X149462393Y-55813070D01*
X149422452Y-55681403D01*
X149357591Y-55560057D01*
X149270303Y-55453697D01*
X149163943Y-55366409D01*
X149042597Y-55301548D01*
X148910930Y-55261607D01*
X148774000Y-55248121D01*
X148085617Y-55248121D01*
X148056735Y-55239360D01*
X148774000Y-55241880D01*
X148910930Y-55228394D01*
X149042598Y-55188453D01*
X149163944Y-55123592D01*
X149270304Y-55036304D01*
X149357592Y-54929944D01*
X149422453Y-54808598D01*
X149462394Y-54676930D01*
X149475880Y-54540000D01*
X149472500Y-53578125D01*
X149297875Y-53403500D01*
X147637500Y-53403500D01*
X147637500Y-53423500D01*
X147510500Y-53423500D01*
X147510500Y-53403500D01*
X145850125Y-53403500D01*
X145675500Y-53578125D01*
X145672120Y-54540000D01*
X145685606Y-54676930D01*
X145725547Y-54808598D01*
X145790408Y-54929944D01*
X145877696Y-55036304D01*
X145984056Y-55123592D01*
X146092394Y-55181500D01*
X142961850Y-55181500D01*
X143213492Y-55106805D01*
X143544353Y-54932491D01*
X143563316Y-54919820D01*
X143673735Y-54609537D01*
X142494000Y-53429803D01*
X141314265Y-54609537D01*
X141424684Y-54919820D01*
X141753438Y-55098077D01*
X142110652Y-55208773D01*
X142115377Y-55209267D01*
X142108107Y-55209983D01*
X141737043Y-55322544D01*
X141395069Y-55505333D01*
X141095326Y-55751326D01*
X140849333Y-56051069D01*
X140666544Y-56393043D01*
X140553983Y-56764107D01*
X140515976Y-57150000D01*
X140553983Y-57535893D01*
X140666544Y-57906957D01*
X140849333Y-58248931D01*
X141095326Y-58548674D01*
X141395069Y-58794667D01*
X141737043Y-58977456D01*
X141992671Y-59055000D01*
X141737043Y-59132544D01*
X141395069Y-59315333D01*
X141095326Y-59561326D01*
X140849333Y-59861069D01*
X140666544Y-60203043D01*
X140553983Y-60574107D01*
X140515976Y-60960000D01*
X140553983Y-61345893D01*
X140666544Y-61716957D01*
X140849333Y-62058931D01*
X141095326Y-62358674D01*
X141395069Y-62604667D01*
X141737043Y-62787456D01*
X141992671Y-62865000D01*
X141737043Y-62942544D01*
X141395069Y-63125333D01*
X141095326Y-63371326D01*
X140849333Y-63671069D01*
X140666544Y-64013043D01*
X140553983Y-64384107D01*
X140515976Y-64770000D01*
X140553983Y-65155893D01*
X140666544Y-65526957D01*
X140849333Y-65868931D01*
X141095326Y-66168674D01*
X141395069Y-66414667D01*
X141737043Y-66597456D01*
X141992671Y-66675000D01*
X141737043Y-66752544D01*
X141395069Y-66935333D01*
X141095326Y-67181326D01*
X140849333Y-67481069D01*
X140666544Y-67823043D01*
X140553983Y-68194107D01*
X140515976Y-68580000D01*
X140553983Y-68965893D01*
X140666544Y-69336957D01*
X140849333Y-69678931D01*
X141095326Y-69978674D01*
X141395069Y-70224667D01*
X141737043Y-70407456D01*
X141992671Y-70485000D01*
X141737043Y-70562544D01*
X141395069Y-70745333D01*
X141095326Y-70991326D01*
X141041839Y-71056500D01*
X136197500Y-71056500D01*
X136197500Y-65079497D01*
X136203951Y-65013999D01*
X136197500Y-64948502D01*
X136197500Y-64948492D01*
X136178205Y-64752588D01*
X136101954Y-64501223D01*
X136021124Y-64350000D01*
X135978129Y-64269562D01*
X135853247Y-64117394D01*
X135811489Y-64066511D01*
X135760604Y-64024751D01*
X130360253Y-58624400D01*
X130360248Y-58624394D01*
X130360236Y-58624382D01*
X130318488Y-58573512D01*
X130267618Y-58531764D01*
X125064451Y-53328597D01*
X140586348Y-53328597D01*
X140620778Y-53700981D01*
X140727195Y-54059492D01*
X140901509Y-54390353D01*
X140914180Y-54409316D01*
X141224463Y-54519735D01*
X142404197Y-53340000D01*
X142583803Y-53340000D01*
X143763537Y-54519735D01*
X144073820Y-54409316D01*
X144252077Y-54080562D01*
X144362773Y-53723348D01*
X144401652Y-53351403D01*
X144367222Y-52979019D01*
X144260805Y-52620508D01*
X144086491Y-52289647D01*
X144073820Y-52270684D01*
X143763537Y-52160265D01*
X142583803Y-53340000D01*
X142404197Y-53340000D01*
X141224463Y-52160265D01*
X140914180Y-52270684D01*
X140735923Y-52599438D01*
X140625227Y-52956652D01*
X140586348Y-53328597D01*
X125064451Y-53328597D01*
X124117368Y-52381515D01*
X124009954Y-52122194D01*
X123975389Y-52070463D01*
X141314265Y-52070463D01*
X142494000Y-53250197D01*
X143604197Y-52140000D01*
X145672120Y-52140000D01*
X145675500Y-53101875D01*
X145850125Y-53276500D01*
X147510500Y-53276500D01*
X147510500Y-51616125D01*
X147637500Y-51616125D01*
X147637500Y-53276500D01*
X149297875Y-53276500D01*
X149472500Y-53101875D01*
X149475880Y-52140000D01*
X149462394Y-52003070D01*
X149422453Y-51871402D01*
X149357592Y-51750056D01*
X149270304Y-51643696D01*
X149163944Y-51556408D01*
X149042598Y-51491547D01*
X148910930Y-51451606D01*
X148774000Y-51438120D01*
X147812125Y-51441500D01*
X147637500Y-51616125D01*
X147510500Y-51616125D01*
X147335875Y-51441500D01*
X146374000Y-51438120D01*
X146237070Y-51451606D01*
X146105402Y-51491547D01*
X145984056Y-51556408D01*
X145877696Y-51643696D01*
X145790408Y-51750056D01*
X145725547Y-51871402D01*
X145685606Y-52003070D01*
X145672120Y-52140000D01*
X143604197Y-52140000D01*
X143673735Y-52070463D01*
X143563316Y-51760180D01*
X143234562Y-51581923D01*
X142877348Y-51471227D01*
X142505403Y-51432348D01*
X142133019Y-51466778D01*
X141774508Y-51573195D01*
X141443647Y-51747509D01*
X141424684Y-51760180D01*
X141314265Y-52070463D01*
X123975389Y-52070463D01*
X123845961Y-51876762D01*
X123637238Y-51668039D01*
X123391806Y-51504046D01*
X123119096Y-51391086D01*
X122829589Y-51333500D01*
X122534411Y-51333500D01*
X122244904Y-51391086D01*
X121972194Y-51504046D01*
X121932603Y-51530500D01*
X114996417Y-51530500D01*
X114737096Y-51423086D01*
X114447589Y-51365500D01*
X114152411Y-51365500D01*
X113862904Y-51423086D01*
X113603583Y-51530500D01*
X108162356Y-51530500D01*
X106535251Y-49903396D01*
X106493491Y-49852511D01*
X106290439Y-49685871D01*
X106058779Y-49562046D01*
X105807414Y-49485795D01*
X105611510Y-49466500D01*
X105611499Y-49466500D01*
X105546002Y-49460049D01*
X105480505Y-49466500D01*
X102427497Y-49466500D01*
X102362000Y-49460049D01*
X102296502Y-49466500D01*
X102296492Y-49466500D01*
X102100588Y-49485795D01*
X101849223Y-49562046D01*
X101617563Y-49685871D01*
X101414511Y-49852511D01*
X101372750Y-49903397D01*
X100703392Y-50572755D01*
X100652512Y-50614511D01*
X100610756Y-50665391D01*
X100610752Y-50665395D01*
X100485871Y-50817563D01*
X100423959Y-50933393D01*
X100362046Y-51049223D01*
X100288015Y-51293270D01*
X100158931Y-51187333D01*
X99816957Y-51004544D01*
X99445893Y-50891983D01*
X99156699Y-50863500D01*
X85186688Y-50863500D01*
X85089999Y-50853977D01*
X84993310Y-50863500D01*
X84993301Y-50863500D01*
X84704107Y-50891983D01*
X84333043Y-51004544D01*
X83991069Y-51187333D01*
X83691326Y-51433326D01*
X83629684Y-51508437D01*
X81414000Y-53724121D01*
X81350000Y-53724121D01*
X81213070Y-53737607D01*
X81081403Y-53777548D01*
X80960057Y-53842409D01*
X80853697Y-53929697D01*
X80766409Y-54036057D01*
X80701548Y-54157403D01*
X80661607Y-54289070D01*
X80648121Y-54426000D01*
X80648121Y-54860383D01*
X80640263Y-54886289D01*
X80641880Y-54426000D01*
X80628394Y-54289070D01*
X80588453Y-54157402D01*
X80523592Y-54036056D01*
X80436304Y-53929696D01*
X80329944Y-53842408D01*
X80208598Y-53777547D01*
X80076930Y-53737606D01*
X79940000Y-53724120D01*
X78978125Y-53727500D01*
X78803500Y-53902125D01*
X78676500Y-53902125D01*
X78501875Y-53727500D01*
X77540000Y-53724120D01*
X77403070Y-53737606D01*
X77271402Y-53777547D01*
X77150056Y-53842408D01*
X77043696Y-53929696D01*
X76956408Y-54036056D01*
X76891547Y-54157402D01*
X76851606Y-54289070D01*
X76838120Y-54426000D01*
X66220500Y-54426000D01*
X66220500Y-50916500D01*
X76190000Y-50916500D01*
X76227165Y-50912840D01*
X76262901Y-50901999D01*
X76295836Y-50884395D01*
X76324704Y-50860704D01*
X76348395Y-50831836D01*
X76365999Y-50798901D01*
X76376840Y-50763165D01*
X76380500Y-50726000D01*
X76380500Y-40756500D01*
X152199500Y-40756500D01*
X152199500Y-50726000D01*
G37*
%TD.AperFunction*%
D31*
X94219607Y-64486930D02*
X94259548Y-64618597D01*
X94324409Y-64739943D01*
X94411697Y-64846303D01*
X94518057Y-64933591D01*
X94625511Y-64991027D01*
X94471974Y-65177447D01*
X94328409Y-65444912D01*
X94239782Y-65735246D01*
X94385425Y-65976500D01*
X95694500Y-65976500D01*
X95694500Y-65956500D01*
X95821500Y-65956500D01*
X95821500Y-65976500D01*
X95841500Y-65976500D01*
X95841500Y-66103500D01*
X95821500Y-66103500D01*
X95821500Y-67412407D01*
X96062753Y-67558215D01*
X96348083Y-67471665D01*
X96616049Y-67329036D01*
X96851040Y-67136871D01*
X97026330Y-66924039D01*
X97095201Y-67027112D01*
X97310888Y-67242799D01*
X97564510Y-67412263D01*
X97846319Y-67528992D01*
X98145486Y-67588500D01*
X98450514Y-67588500D01*
X98749681Y-67528992D01*
X99031490Y-67412263D01*
X99285112Y-67242799D01*
X99500799Y-67027112D01*
X99568000Y-66926538D01*
X99635201Y-67027112D01*
X99850888Y-67242799D01*
X100104510Y-67412263D01*
X100386319Y-67528992D01*
X100685486Y-67588500D01*
X100990514Y-67588500D01*
X101289681Y-67528992D01*
X101571490Y-67412263D01*
X101825112Y-67242799D01*
X102040799Y-67027112D01*
X102063926Y-66992500D01*
X102793462Y-66992500D01*
X104447500Y-68646538D01*
X104447500Y-69573383D01*
X104264592Y-69537000D01*
X104015408Y-69537000D01*
X103771013Y-69585613D01*
X103540798Y-69680971D01*
X103333609Y-69819410D01*
X103157410Y-69995609D01*
X103018971Y-70202798D01*
X102923613Y-70433013D01*
X102875000Y-70677408D01*
X102875000Y-70926592D01*
X102923613Y-71170987D01*
X103003354Y-71363500D01*
X102736646Y-71363500D01*
X102816387Y-71170987D01*
X102865000Y-70926592D01*
X102865000Y-70677408D01*
X102816387Y-70433013D01*
X102721029Y-70202798D01*
X102582590Y-69995609D01*
X102406391Y-69819410D01*
X102199202Y-69680971D01*
X101968987Y-69585613D01*
X101724592Y-69537000D01*
X101475408Y-69537000D01*
X101231013Y-69585613D01*
X101000798Y-69680971D01*
X100793609Y-69819410D01*
X100617410Y-69995609D01*
X100478971Y-70202798D01*
X100383613Y-70433013D01*
X100335000Y-70677408D01*
X100335000Y-70926592D01*
X100383613Y-71170987D01*
X100463354Y-71363500D01*
X100196646Y-71363500D01*
X100276387Y-71170987D01*
X100325000Y-70926592D01*
X100325000Y-70677408D01*
X100276387Y-70433013D01*
X100181029Y-70202798D01*
X100042590Y-69995609D01*
X99866391Y-69819410D01*
X99659202Y-69680971D01*
X99428987Y-69585613D01*
X99184592Y-69537000D01*
X98935408Y-69537000D01*
X98691013Y-69585613D01*
X98460798Y-69680971D01*
X98253609Y-69819410D01*
X98077410Y-69995609D01*
X97938971Y-70202798D01*
X97843613Y-70433013D01*
X97795000Y-70677408D01*
X97795000Y-70926592D01*
X97843613Y-71170987D01*
X97923354Y-71363500D01*
X97656646Y-71363500D01*
X97736387Y-71170987D01*
X97785000Y-70926592D01*
X97785000Y-70677408D01*
X97736387Y-70433013D01*
X97641029Y-70202798D01*
X97502590Y-69995609D01*
X97326391Y-69819410D01*
X97119202Y-69680971D01*
X96888987Y-69585613D01*
X96644592Y-69537000D01*
X96395408Y-69537000D01*
X96151013Y-69585613D01*
X95920798Y-69680971D01*
X95713609Y-69819410D01*
X95537410Y-69995609D01*
X95398971Y-70202798D01*
X95303613Y-70433013D01*
X95255000Y-70677408D01*
X95255000Y-70926592D01*
X95303613Y-71170987D01*
X95383354Y-71363500D01*
X95116646Y-71363500D01*
X95196387Y-71170987D01*
X95245000Y-70926592D01*
X95245000Y-70677408D01*
X95196387Y-70433013D01*
X95101029Y-70202798D01*
X94962590Y-69995609D01*
X94786391Y-69819410D01*
X94579202Y-69680971D01*
X94348987Y-69585613D01*
X94104592Y-69537000D01*
X93855408Y-69537000D01*
X93611013Y-69585613D01*
X93380798Y-69680971D01*
X93173609Y-69819410D01*
X92997410Y-69995609D01*
X92858971Y-70202798D01*
X92763613Y-70433013D01*
X92715000Y-70677408D01*
X92715000Y-70926592D01*
X92763613Y-71170987D01*
X92843354Y-71363500D01*
X92576646Y-71363500D01*
X92656387Y-71170987D01*
X92705000Y-70926592D01*
X92705000Y-70677408D01*
X92656387Y-70433013D01*
X92561029Y-70202798D01*
X92422590Y-69995609D01*
X92246391Y-69819410D01*
X92039202Y-69680971D01*
X91808987Y-69585613D01*
X91564592Y-69537000D01*
X91315408Y-69537000D01*
X91071013Y-69585613D01*
X90840798Y-69680971D01*
X90633609Y-69819410D01*
X90457410Y-69995609D01*
X90318971Y-70202798D01*
X90223613Y-70433013D01*
X90175000Y-70677408D01*
X90175000Y-70926592D01*
X90223613Y-71170987D01*
X90303354Y-71363500D01*
X89718538Y-71363500D01*
X89371857Y-71016819D01*
X89372500Y-71013589D01*
X89372500Y-70718411D01*
X89314914Y-70428904D01*
X89201954Y-70156194D01*
X89037961Y-69910762D01*
X88829238Y-69702039D01*
X88583806Y-69538046D01*
X88311096Y-69425086D01*
X88021589Y-69367500D01*
X87726411Y-69367500D01*
X87436904Y-69425086D01*
X87164194Y-69538046D01*
X86918762Y-69702039D01*
X86710039Y-69910762D01*
X86546046Y-70156194D01*
X86540500Y-70169583D01*
X86540500Y-66868538D01*
X87064284Y-66344754D01*
X94239782Y-66344754D01*
X94328409Y-66635088D01*
X94471974Y-66902553D01*
X94664960Y-67136871D01*
X94899951Y-67329036D01*
X95167917Y-67471665D01*
X95453247Y-67558215D01*
X95694500Y-67412407D01*
X95694500Y-66103500D01*
X94385425Y-66103500D01*
X94239782Y-66344754D01*
X87064284Y-66344754D01*
X88956539Y-64452500D01*
X94216216Y-64452500D01*
X94219607Y-64486930D01*
%TA.AperFunction,Conductor*%
D32*
G36*
X94219607Y-64486930D02*
G01*
X94259548Y-64618597D01*
X94324409Y-64739943D01*
X94411697Y-64846303D01*
X94518057Y-64933591D01*
X94625511Y-64991027D01*
X94471974Y-65177447D01*
X94328409Y-65444912D01*
X94239782Y-65735246D01*
X94385425Y-65976500D01*
X95694500Y-65976500D01*
X95694500Y-65956500D01*
X95821500Y-65956500D01*
X95821500Y-65976500D01*
X95841500Y-65976500D01*
X95841500Y-66103500D01*
X95821500Y-66103500D01*
X95821500Y-67412407D01*
X96062753Y-67558215D01*
X96348083Y-67471665D01*
X96616049Y-67329036D01*
X96851040Y-67136871D01*
X97026330Y-66924039D01*
X97095201Y-67027112D01*
X97310888Y-67242799D01*
X97564510Y-67412263D01*
X97846319Y-67528992D01*
X98145486Y-67588500D01*
X98450514Y-67588500D01*
X98749681Y-67528992D01*
X99031490Y-67412263D01*
X99285112Y-67242799D01*
X99500799Y-67027112D01*
X99568000Y-66926538D01*
X99635201Y-67027112D01*
X99850888Y-67242799D01*
X100104510Y-67412263D01*
X100386319Y-67528992D01*
X100685486Y-67588500D01*
X100990514Y-67588500D01*
X101289681Y-67528992D01*
X101571490Y-67412263D01*
X101825112Y-67242799D01*
X102040799Y-67027112D01*
X102063926Y-66992500D01*
X102793462Y-66992500D01*
X104447500Y-68646538D01*
X104447500Y-69573383D01*
X104264592Y-69537000D01*
X104015408Y-69537000D01*
X103771013Y-69585613D01*
X103540798Y-69680971D01*
X103333609Y-69819410D01*
X103157410Y-69995609D01*
X103018971Y-70202798D01*
X102923613Y-70433013D01*
X102875000Y-70677408D01*
X102875000Y-70926592D01*
X102923613Y-71170987D01*
X103003354Y-71363500D01*
X102736646Y-71363500D01*
X102816387Y-71170987D01*
X102865000Y-70926592D01*
X102865000Y-70677408D01*
X102816387Y-70433013D01*
X102721029Y-70202798D01*
X102582590Y-69995609D01*
X102406391Y-69819410D01*
X102199202Y-69680971D01*
X101968987Y-69585613D01*
X101724592Y-69537000D01*
X101475408Y-69537000D01*
X101231013Y-69585613D01*
X101000798Y-69680971D01*
X100793609Y-69819410D01*
X100617410Y-69995609D01*
X100478971Y-70202798D01*
X100383613Y-70433013D01*
X100335000Y-70677408D01*
X100335000Y-70926592D01*
X100383613Y-71170987D01*
X100463354Y-71363500D01*
X100196646Y-71363500D01*
X100276387Y-71170987D01*
X100325000Y-70926592D01*
X100325000Y-70677408D01*
X100276387Y-70433013D01*
X100181029Y-70202798D01*
X100042590Y-69995609D01*
X99866391Y-69819410D01*
X99659202Y-69680971D01*
X99428987Y-69585613D01*
X99184592Y-69537000D01*
X98935408Y-69537000D01*
X98691013Y-69585613D01*
X98460798Y-69680971D01*
X98253609Y-69819410D01*
X98077410Y-69995609D01*
X97938971Y-70202798D01*
X97843613Y-70433013D01*
X97795000Y-70677408D01*
X97795000Y-70926592D01*
X97843613Y-71170987D01*
X97923354Y-71363500D01*
X97656646Y-71363500D01*
X97736387Y-71170987D01*
X97785000Y-70926592D01*
X97785000Y-70677408D01*
X97736387Y-70433013D01*
X97641029Y-70202798D01*
X97502590Y-69995609D01*
X97326391Y-69819410D01*
X97119202Y-69680971D01*
X96888987Y-69585613D01*
X96644592Y-69537000D01*
X96395408Y-69537000D01*
X96151013Y-69585613D01*
X95920798Y-69680971D01*
X95713609Y-69819410D01*
X95537410Y-69995609D01*
X95398971Y-70202798D01*
X95303613Y-70433013D01*
X95255000Y-70677408D01*
X95255000Y-70926592D01*
X95303613Y-71170987D01*
X95383354Y-71363500D01*
X95116646Y-71363500D01*
X95196387Y-71170987D01*
X95245000Y-70926592D01*
X95245000Y-70677408D01*
X95196387Y-70433013D01*
X95101029Y-70202798D01*
X94962590Y-69995609D01*
X94786391Y-69819410D01*
X94579202Y-69680971D01*
X94348987Y-69585613D01*
X94104592Y-69537000D01*
X93855408Y-69537000D01*
X93611013Y-69585613D01*
X93380798Y-69680971D01*
X93173609Y-69819410D01*
X92997410Y-69995609D01*
X92858971Y-70202798D01*
X92763613Y-70433013D01*
X92715000Y-70677408D01*
X92715000Y-70926592D01*
X92763613Y-71170987D01*
X92843354Y-71363500D01*
X92576646Y-71363500D01*
X92656387Y-71170987D01*
X92705000Y-70926592D01*
X92705000Y-70677408D01*
X92656387Y-70433013D01*
X92561029Y-70202798D01*
X92422590Y-69995609D01*
X92246391Y-69819410D01*
X92039202Y-69680971D01*
X91808987Y-69585613D01*
X91564592Y-69537000D01*
X91315408Y-69537000D01*
X91071013Y-69585613D01*
X90840798Y-69680971D01*
X90633609Y-69819410D01*
X90457410Y-69995609D01*
X90318971Y-70202798D01*
X90223613Y-70433013D01*
X90175000Y-70677408D01*
X90175000Y-70926592D01*
X90223613Y-71170987D01*
X90303354Y-71363500D01*
X89718538Y-71363500D01*
X89371857Y-71016819D01*
X89372500Y-71013589D01*
X89372500Y-70718411D01*
X89314914Y-70428904D01*
X89201954Y-70156194D01*
X89037961Y-69910762D01*
X88829238Y-69702039D01*
X88583806Y-69538046D01*
X88311096Y-69425086D01*
X88021589Y-69367500D01*
X87726411Y-69367500D01*
X87436904Y-69425086D01*
X87164194Y-69538046D01*
X86918762Y-69702039D01*
X86710039Y-69910762D01*
X86546046Y-70156194D01*
X86540500Y-70169583D01*
X86540500Y-66868538D01*
X87064284Y-66344754D01*
X94239782Y-66344754D01*
X94328409Y-66635088D01*
X94471974Y-66902553D01*
X94664960Y-67136871D01*
X94899951Y-67329036D01*
X95167917Y-67471665D01*
X95453247Y-67558215D01*
X95694500Y-67412407D01*
X95694500Y-66103500D01*
X94385425Y-66103500D01*
X94239782Y-66344754D01*
X87064284Y-66344754D01*
X88956539Y-64452500D01*
X94216216Y-64452500D01*
X94219607Y-64486930D01*
G37*
%TD.AperFunction*%
%TD*%
M02*
