%TF.GenerationSoftware,KiCad,Pcbnew,(5.1.10)-1*%
%TF.CreationDate,2021-12-22T13:08:42+01:00*%
%TF.ProjectId,Scheinwerfer_Dirk,53636865-696e-4776-9572-6665725f4469,V2.0*%
%TF.SameCoordinates,Original*%
%TF.FileFunction,Soldermask,Top*%
%TF.FilePolarity,Negative*%
%FSLAX46Y46*%
G04 Gerber Fmt 4.6, Leading zero omitted, Abs format (unit mm)*
G04 Created by KiCad (PCBNEW (5.1.10)-1) date 2021-12-22 13:08:42*
%MOMM*%
%LPD*%
G01*
G04 APERTURE LIST*
%ADD10C,3.100000*%
%ADD11C,4.700000*%
%ADD12C,1.133000*%
%ADD13R,1.133000X1.133000*%
%ADD14O,1.700000X1.700000*%
%ADD15R,1.700000X1.700000*%
%ADD16C,1.440000*%
%ADD17C,2.070000*%
%ADD18R,2.070000X2.070000*%
%ADD19O,1.600000X1.600000*%
%ADD20C,1.600000*%
%ADD21C,1.620000*%
%ADD22C,1.524000*%
%ADD23C,1.935000*%
%ADD24R,1.935000X1.935000*%
%ADD25C,2.400000*%
%ADD26R,2.400000X2.400000*%
G04 APERTURE END LIST*
D10*
%TO.C,REF\u002A\u002A*%
X157470000Y-45646000D03*
D11*
X157470000Y-45646000D03*
%TD*%
%TO.C,REF\u002A\u002A*%
X157470000Y-132006000D03*
D10*
X157470000Y-132006000D03*
%TD*%
%TO.C,REF\u002A\u002A*%
X71110000Y-132006000D03*
D11*
X71110000Y-132006000D03*
%TD*%
%TO.C,REF\u002A\u002A*%
X71110000Y-45646000D03*
D10*
X71110000Y-45646000D03*
%TD*%
D12*
%TO.C,IC2*%
X91440000Y-70802000D03*
X93980000Y-70802000D03*
X96520000Y-70802000D03*
X99060000Y-70802000D03*
X101600000Y-70802000D03*
X104140000Y-70802000D03*
X106680000Y-70802000D03*
X109220000Y-70802000D03*
X111760000Y-70802000D03*
X114300000Y-70802000D03*
X116840000Y-70802000D03*
X119380000Y-70802000D03*
X121920000Y-70802000D03*
X124460000Y-70802000D03*
X124460000Y-78740000D03*
X121920000Y-78740000D03*
X119380000Y-78740000D03*
X116840000Y-78740000D03*
X114300000Y-78740000D03*
X111760000Y-78740000D03*
X109220000Y-78740000D03*
X106680000Y-78740000D03*
X104140000Y-78740000D03*
X101600000Y-78740000D03*
X99060000Y-78740000D03*
X96520000Y-78740000D03*
X93980000Y-78740000D03*
D13*
X91440000Y-78740000D03*
%TD*%
D14*
%TO.C,CON8*%
X95758000Y-66040000D03*
X98298000Y-66040000D03*
X100838000Y-66040000D03*
X100838000Y-63500000D03*
X98298000Y-63500000D03*
D15*
X95758000Y-63500000D03*
%TD*%
D16*
%TO.C,T4*%
X109220000Y-99060000D03*
X111820000Y-99060000D03*
X114420000Y-99060000D03*
%TD*%
D17*
%TO.C,T3*%
X120650000Y-96520000D03*
X120650000Y-93980000D03*
D18*
X120650000Y-91440000D03*
%TD*%
D16*
%TO.C,T2*%
X86300000Y-99060000D03*
X88900000Y-99060000D03*
X91500000Y-99060000D03*
%TD*%
D17*
%TO.C,T1*%
X97790000Y-96520000D03*
X97790000Y-93980000D03*
D18*
X97790000Y-91440000D03*
%TD*%
D19*
%TO.C,R7*%
X87874000Y-70866000D03*
D20*
X87874000Y-78486000D03*
%TD*%
D19*
%TO.C,R6*%
X107950000Y-104140000D03*
D20*
X115570000Y-104140000D03*
%TD*%
D19*
%TO.C,R5*%
X111750000Y-90096000D03*
D20*
X111750000Y-82476000D03*
%TD*%
D19*
%TO.C,R4*%
X85090000Y-104140000D03*
D20*
X92710000Y-104140000D03*
%TD*%
D19*
%TO.C,R3*%
X88890000Y-90096000D03*
D20*
X88890000Y-82476000D03*
%TD*%
D21*
%TO.C,R2*%
X116840000Y-63500000D03*
X114340000Y-58500000D03*
X111840000Y-63500000D03*
%TD*%
D19*
%TO.C,R1*%
X122682000Y-52832000D03*
D20*
X122682000Y-60452000D03*
%TD*%
D22*
%TO.C,KK3*%
X101600000Y-56134000D03*
%TD*%
%TO.C,KK2*%
X123952000Y-93980000D03*
%TD*%
%TO.C,KK1*%
X101092000Y-93980000D03*
%TD*%
D23*
%TO.C,IC1*%
X99060000Y-52832000D03*
X101600000Y-52832000D03*
D24*
X104140000Y-52832000D03*
%TD*%
D19*
%TO.C,D2*%
X107950000Y-93980000D03*
D20*
X115570000Y-93980000D03*
%TD*%
D19*
%TO.C,D1*%
X85090000Y-93980000D03*
D20*
X92710000Y-93980000D03*
%TD*%
D25*
%TO.C,CON7_2*%
X111760000Y-116840000D03*
D26*
X111760000Y-121920000D03*
%TD*%
D25*
%TO.C,CON7_1*%
X107950000Y-116840000D03*
D26*
X107950000Y-121920000D03*
%TD*%
D25*
%TO.C,CON6_2*%
X88900000Y-116840000D03*
D26*
X88900000Y-121920000D03*
%TD*%
D25*
%TO.C,CON6_1*%
X85090000Y-116840000D03*
D26*
X85090000Y-121920000D03*
%TD*%
D25*
%TO.C,CON5_4*%
X148590000Y-116840000D03*
D26*
X148590000Y-121920000D03*
%TD*%
D25*
%TO.C,CON5_3*%
X144780000Y-116840000D03*
D26*
X144780000Y-121920000D03*
%TD*%
D25*
%TO.C,CON5_2*%
X140970000Y-116840000D03*
D26*
X140970000Y-121920000D03*
%TD*%
D25*
%TO.C,CON5_1*%
X137160000Y-116840000D03*
D26*
X137160000Y-121920000D03*
%TD*%
D25*
%TO.C,CON4_4*%
X130810000Y-116840000D03*
D26*
X130810000Y-121920000D03*
%TD*%
D25*
%TO.C,CON4_3*%
X127000000Y-116840000D03*
D26*
X127000000Y-121920000D03*
%TD*%
D25*
%TO.C,CON4_2*%
X123190000Y-116840000D03*
D26*
X123190000Y-121920000D03*
%TD*%
D25*
%TO.C,CON4_1*%
X119380000Y-116840000D03*
D26*
X119380000Y-121920000D03*
%TD*%
D25*
%TO.C,CON3_6*%
X142494000Y-53340000D03*
D26*
X147574000Y-53340000D03*
%TD*%
D25*
%TO.C,CON3_5*%
X142494000Y-57150000D03*
D26*
X147574000Y-57150000D03*
%TD*%
D25*
%TO.C,CON3_4*%
X142494000Y-60960000D03*
D26*
X147574000Y-60960000D03*
%TD*%
D25*
%TO.C,CON3_3*%
X142494000Y-64770000D03*
D26*
X147574000Y-64770000D03*
%TD*%
D25*
%TO.C,CON3_2*%
X142494000Y-68580000D03*
D26*
X147574000Y-68580000D03*
%TD*%
D25*
%TO.C,CON3_1*%
X142494000Y-72390000D03*
D26*
X147574000Y-72390000D03*
%TD*%
D25*
%TO.C,CON2_6*%
X142494000Y-78740000D03*
D26*
X147574000Y-78740000D03*
%TD*%
D25*
%TO.C,CON2_5*%
X142494000Y-82550000D03*
D26*
X147574000Y-82550000D03*
%TD*%
D25*
%TO.C,CON2_4*%
X142494000Y-86360000D03*
D26*
X147574000Y-86360000D03*
%TD*%
D25*
%TO.C,CON2_3*%
X142494000Y-90170000D03*
D26*
X147574000Y-90170000D03*
%TD*%
D25*
%TO.C,CON2_2*%
X142494000Y-93980000D03*
D26*
X147574000Y-93980000D03*
%TD*%
D25*
%TO.C,CON2_1*%
X142494000Y-97790000D03*
D26*
X147574000Y-97790000D03*
%TD*%
D25*
%TO.C,CON1_2*%
X78740000Y-60706000D03*
D26*
X78740000Y-55626000D03*
%TD*%
D25*
%TO.C,CON1_1*%
X82550000Y-60706000D03*
D26*
X82550000Y-55626000D03*
%TD*%
D20*
%TO.C,C2*%
X114300000Y-54864000D03*
X114300000Y-52864000D03*
%TD*%
%TO.C,C1*%
X91440000Y-57832000D03*
X91440000Y-52832000D03*
%TD*%
M02*
