%TF.GenerationSoftware,KiCad,Pcbnew,(5.1.10)-1*%
%TF.CreationDate,2021-12-22T13:08:42+01:00*%
%TF.ProjectId,Scheinwerfer_Dirk,53636865-696e-4776-9572-6665725f4469,V2.0*%
%TF.SameCoordinates,Original*%
%TF.FileFunction,Legend,Top*%
%TF.FilePolarity,Positive*%
%FSLAX46Y46*%
G04 Gerber Fmt 4.6, Leading zero omitted, Abs format (unit mm)*
G04 Created by KiCad (PCBNEW (5.1.10)-1) date 2021-12-22 13:08:42*
%MOMM*%
%LPD*%
G01*
G04 APERTURE LIST*
%ADD10C,0.100000*%
%ADD11C,0.150000*%
%ADD12C,0.200000*%
%ADD13C,0.120000*%
%ADD14C,0.254000*%
%ADD15C,3.100000*%
%ADD16C,4.700000*%
%ADD17C,1.133000*%
%ADD18R,1.133000X1.133000*%
%ADD19O,1.700000X1.700000*%
%ADD20R,1.700000X1.700000*%
%ADD21C,1.440000*%
%ADD22C,2.070000*%
%ADD23R,2.070000X2.070000*%
%ADD24O,1.600000X1.600000*%
%ADD25C,1.600000*%
%ADD26C,1.620000*%
%ADD27C,1.524000*%
%ADD28C,1.935000*%
%ADD29R,1.935000X1.935000*%
%ADD30C,2.400000*%
%ADD31R,2.400000X2.400000*%
G04 APERTURE END LIST*
D10*
X68069285Y-52178380D02*
X68069285Y-52892666D01*
X68040714Y-53035523D01*
X67983571Y-53130761D01*
X67897857Y-53178380D01*
X67840714Y-53178380D01*
X68640714Y-53178380D02*
X68355000Y-53178380D01*
X68355000Y-52178380D01*
X69183571Y-53083142D02*
X69155000Y-53130761D01*
X69069285Y-53178380D01*
X69012142Y-53178380D01*
X68926428Y-53130761D01*
X68869285Y-53035523D01*
X68840714Y-52940285D01*
X68812142Y-52749809D01*
X68812142Y-52606952D01*
X68840714Y-52416476D01*
X68869285Y-52321238D01*
X68926428Y-52226000D01*
X69012142Y-52178380D01*
X69069285Y-52178380D01*
X69155000Y-52226000D01*
X69183571Y-52273619D01*
X69612142Y-52178380D02*
X69612142Y-52892666D01*
X69583571Y-53035523D01*
X69526428Y-53130761D01*
X69440714Y-53178380D01*
X69383571Y-53178380D01*
X70183571Y-53178380D02*
X69897857Y-53178380D01*
X69897857Y-52178380D01*
X70726428Y-53083142D02*
X70697857Y-53130761D01*
X70612142Y-53178380D01*
X70555000Y-53178380D01*
X70469285Y-53130761D01*
X70412142Y-53035523D01*
X70383571Y-52940285D01*
X70355000Y-52749809D01*
X70355000Y-52606952D01*
X70383571Y-52416476D01*
X70412142Y-52321238D01*
X70469285Y-52226000D01*
X70555000Y-52178380D01*
X70612142Y-52178380D01*
X70697857Y-52226000D01*
X70726428Y-52273619D01*
X71155000Y-52178380D02*
X71155000Y-52892666D01*
X71126428Y-53035523D01*
X71069285Y-53130761D01*
X70983571Y-53178380D01*
X70926428Y-53178380D01*
X71726428Y-53178380D02*
X71440714Y-53178380D01*
X71440714Y-52178380D01*
X72269285Y-53083142D02*
X72240714Y-53130761D01*
X72155000Y-53178380D01*
X72097857Y-53178380D01*
X72012142Y-53130761D01*
X71955000Y-53035523D01*
X71926428Y-52940285D01*
X71897857Y-52749809D01*
X71897857Y-52606952D01*
X71926428Y-52416476D01*
X71955000Y-52321238D01*
X72012142Y-52226000D01*
X72097857Y-52178380D01*
X72155000Y-52178380D01*
X72240714Y-52226000D01*
X72269285Y-52273619D01*
X72697857Y-52178380D02*
X72697857Y-52892666D01*
X72669285Y-53035523D01*
X72612142Y-53130761D01*
X72526428Y-53178380D01*
X72469285Y-53178380D01*
X73269285Y-53178380D02*
X72983571Y-53178380D01*
X72983571Y-52178380D01*
X73812142Y-53083142D02*
X73783571Y-53130761D01*
X73697857Y-53178380D01*
X73640714Y-53178380D01*
X73555000Y-53130761D01*
X73497857Y-53035523D01*
X73469285Y-52940285D01*
X73440714Y-52749809D01*
X73440714Y-52606952D01*
X73469285Y-52416476D01*
X73497857Y-52321238D01*
X73555000Y-52226000D01*
X73640714Y-52178380D01*
X73697857Y-52178380D01*
X73783571Y-52226000D01*
X73812142Y-52273619D01*
X68494761Y-124546714D02*
X68542380Y-124461000D01*
X68542380Y-124318142D01*
X68494761Y-124261000D01*
X68447142Y-124232428D01*
X68351904Y-124203857D01*
X68256666Y-124203857D01*
X68161428Y-124232428D01*
X68113809Y-124261000D01*
X68066190Y-124318142D01*
X68018571Y-124432428D01*
X67970952Y-124489571D01*
X67923333Y-124518142D01*
X67828095Y-124546714D01*
X67732857Y-124546714D01*
X67637619Y-124518142D01*
X67590000Y-124489571D01*
X67542380Y-124432428D01*
X67542380Y-124289571D01*
X67590000Y-124203857D01*
X68494761Y-123689571D02*
X68542380Y-123746714D01*
X68542380Y-123861000D01*
X68494761Y-123918142D01*
X68447142Y-123946714D01*
X68351904Y-123975285D01*
X68066190Y-123975285D01*
X67970952Y-123946714D01*
X67923333Y-123918142D01*
X67875714Y-123861000D01*
X67875714Y-123746714D01*
X67923333Y-123689571D01*
X68542380Y-123432428D02*
X67542380Y-123432428D01*
X68542380Y-123175285D02*
X68018571Y-123175285D01*
X67923333Y-123203857D01*
X67875714Y-123261000D01*
X67875714Y-123346714D01*
X67923333Y-123403857D01*
X67970952Y-123432428D01*
X68494761Y-122661000D02*
X68542380Y-122718142D01*
X68542380Y-122832428D01*
X68494761Y-122889571D01*
X68399523Y-122918142D01*
X68018571Y-122918142D01*
X67923333Y-122889571D01*
X67875714Y-122832428D01*
X67875714Y-122718142D01*
X67923333Y-122661000D01*
X68018571Y-122632428D01*
X68113809Y-122632428D01*
X68209047Y-122918142D01*
X68542380Y-122375285D02*
X67875714Y-122375285D01*
X67542380Y-122375285D02*
X67590000Y-122403857D01*
X67637619Y-122375285D01*
X67590000Y-122346714D01*
X67542380Y-122375285D01*
X67637619Y-122375285D01*
X67875714Y-122089571D02*
X68542380Y-122089571D01*
X67970952Y-122089571D02*
X67923333Y-122061000D01*
X67875714Y-122003857D01*
X67875714Y-121918142D01*
X67923333Y-121861000D01*
X68018571Y-121832428D01*
X68542380Y-121832428D01*
X67875714Y-121603857D02*
X68542380Y-121489571D01*
X68066190Y-121375285D01*
X68542380Y-121261000D01*
X67875714Y-121146714D01*
X68494761Y-120689571D02*
X68542380Y-120746714D01*
X68542380Y-120861000D01*
X68494761Y-120918142D01*
X68399523Y-120946714D01*
X68018571Y-120946714D01*
X67923333Y-120918142D01*
X67875714Y-120861000D01*
X67875714Y-120746714D01*
X67923333Y-120689571D01*
X68018571Y-120661000D01*
X68113809Y-120661000D01*
X68209047Y-120946714D01*
X68542380Y-120403857D02*
X67875714Y-120403857D01*
X68066190Y-120403857D02*
X67970952Y-120375285D01*
X67923333Y-120346714D01*
X67875714Y-120289571D01*
X67875714Y-120232428D01*
X67875714Y-120118142D02*
X67875714Y-119889571D01*
X68542380Y-120032428D02*
X67685238Y-120032428D01*
X67590000Y-120003857D01*
X67542380Y-119946714D01*
X67542380Y-119889571D01*
X68494761Y-119461000D02*
X68542380Y-119518142D01*
X68542380Y-119632428D01*
X68494761Y-119689571D01*
X68399523Y-119718142D01*
X68018571Y-119718142D01*
X67923333Y-119689571D01*
X67875714Y-119632428D01*
X67875714Y-119518142D01*
X67923333Y-119461000D01*
X68018571Y-119432428D01*
X68113809Y-119432428D01*
X68209047Y-119718142D01*
X68542380Y-119175285D02*
X67875714Y-119175285D01*
X68066190Y-119175285D02*
X67970952Y-119146714D01*
X67923333Y-119118142D01*
X67875714Y-119061000D01*
X67875714Y-119003857D01*
X68161428Y-118803857D02*
X68161428Y-118346714D01*
X68447142Y-117718142D02*
X68494761Y-117746714D01*
X68542380Y-117832428D01*
X68542380Y-117889571D01*
X68494761Y-117975285D01*
X68399523Y-118032428D01*
X68304285Y-118061000D01*
X68113809Y-118089571D01*
X67970952Y-118089571D01*
X67780476Y-118061000D01*
X67685238Y-118032428D01*
X67590000Y-117975285D01*
X67542380Y-117889571D01*
X67542380Y-117832428D01*
X67590000Y-117746714D01*
X67637619Y-117718142D01*
X68542380Y-117375285D02*
X68494761Y-117432428D01*
X68447142Y-117461000D01*
X68351904Y-117489571D01*
X68066190Y-117489571D01*
X67970952Y-117461000D01*
X67923333Y-117432428D01*
X67875714Y-117375285D01*
X67875714Y-117289571D01*
X67923333Y-117232428D01*
X67970952Y-117203857D01*
X68066190Y-117175285D01*
X68351904Y-117175285D01*
X68447142Y-117203857D01*
X68494761Y-117232428D01*
X68542380Y-117289571D01*
X68542380Y-117375285D01*
X67875714Y-116918142D02*
X68542380Y-116918142D01*
X67970952Y-116918142D02*
X67923333Y-116889571D01*
X67875714Y-116832428D01*
X67875714Y-116746714D01*
X67923333Y-116689571D01*
X68018571Y-116661000D01*
X68542380Y-116661000D01*
X67875714Y-116461000D02*
X67875714Y-116232428D01*
X67542380Y-116375285D02*
X68399523Y-116375285D01*
X68494761Y-116346714D01*
X68542380Y-116289571D01*
X68542380Y-116232428D01*
X68542380Y-116032428D02*
X67875714Y-116032428D01*
X68066190Y-116032428D02*
X67970952Y-116003857D01*
X67923333Y-115975285D01*
X67875714Y-115918142D01*
X67875714Y-115861000D01*
X68542380Y-115575285D02*
X68494761Y-115632428D01*
X68447142Y-115661000D01*
X68351904Y-115689571D01*
X68066190Y-115689571D01*
X67970952Y-115661000D01*
X67923333Y-115632428D01*
X67875714Y-115575285D01*
X67875714Y-115489571D01*
X67923333Y-115432428D01*
X67970952Y-115403857D01*
X68066190Y-115375285D01*
X68351904Y-115375285D01*
X68447142Y-115403857D01*
X68494761Y-115432428D01*
X68542380Y-115489571D01*
X68542380Y-115575285D01*
X68542380Y-115032428D02*
X68494761Y-115089571D01*
X68399523Y-115118142D01*
X67542380Y-115118142D01*
X68542380Y-114718142D02*
X68494761Y-114775285D01*
X68399523Y-114803857D01*
X67542380Y-114803857D01*
X68494761Y-114261000D02*
X68542380Y-114318142D01*
X68542380Y-114432428D01*
X68494761Y-114489571D01*
X68399523Y-114518142D01*
X68018571Y-114518142D01*
X67923333Y-114489571D01*
X67875714Y-114432428D01*
X67875714Y-114318142D01*
X67923333Y-114261000D01*
X68018571Y-114232428D01*
X68113809Y-114232428D01*
X68209047Y-114518142D01*
X68542380Y-113975285D02*
X67875714Y-113975285D01*
X68066190Y-113975285D02*
X67970952Y-113946714D01*
X67923333Y-113918142D01*
X67875714Y-113861000D01*
X67875714Y-113803857D01*
X69142380Y-124603857D02*
X70142380Y-124403857D01*
X69142380Y-124203857D01*
X69237619Y-123575285D02*
X69190000Y-123546714D01*
X69142380Y-123489571D01*
X69142380Y-123346714D01*
X69190000Y-123289571D01*
X69237619Y-123261000D01*
X69332857Y-123232428D01*
X69428095Y-123232428D01*
X69570952Y-123261000D01*
X70142380Y-123603857D01*
X70142380Y-123232428D01*
X70047142Y-122975285D02*
X70094761Y-122946714D01*
X70142380Y-122975285D01*
X70094761Y-123003857D01*
X70047142Y-122975285D01*
X70142380Y-122975285D01*
X69142380Y-122575285D02*
X69142380Y-122518142D01*
X69190000Y-122461000D01*
X69237619Y-122432428D01*
X69332857Y-122403857D01*
X69523333Y-122375285D01*
X69761428Y-122375285D01*
X69951904Y-122403857D01*
X70047142Y-122432428D01*
X70094761Y-122461000D01*
X70142380Y-122518142D01*
X70142380Y-122575285D01*
X70094761Y-122632428D01*
X70047142Y-122661000D01*
X69951904Y-122689571D01*
X69761428Y-122718142D01*
X69523333Y-122718142D01*
X69332857Y-122689571D01*
X69237619Y-122661000D01*
X69190000Y-122632428D01*
X69142380Y-122575285D01*
X71218571Y-124318142D02*
X71218571Y-124518142D01*
X71742380Y-124518142D02*
X70742380Y-124518142D01*
X70742380Y-124232428D01*
X71647142Y-124003857D02*
X71694761Y-123975285D01*
X71742380Y-124003857D01*
X71694761Y-124032428D01*
X71647142Y-124003857D01*
X71742380Y-124003857D01*
X71742380Y-123261000D02*
X70742380Y-123261000D01*
X71218571Y-123261000D02*
X71218571Y-122918142D01*
X71742380Y-122918142D02*
X70742380Y-122918142D01*
X71694761Y-122403857D02*
X71742380Y-122461000D01*
X71742380Y-122575285D01*
X71694761Y-122632428D01*
X71599523Y-122661000D01*
X71218571Y-122661000D01*
X71123333Y-122632428D01*
X71075714Y-122575285D01*
X71075714Y-122461000D01*
X71123333Y-122403857D01*
X71218571Y-122375285D01*
X71313809Y-122375285D01*
X71409047Y-122661000D01*
X71742380Y-122118142D02*
X71075714Y-122118142D01*
X70742380Y-122118142D02*
X70790000Y-122146714D01*
X70837619Y-122118142D01*
X70790000Y-122089571D01*
X70742380Y-122118142D01*
X70837619Y-122118142D01*
X71742380Y-121832428D02*
X71075714Y-121832428D01*
X71170952Y-121832428D02*
X71123333Y-121803857D01*
X71075714Y-121746714D01*
X71075714Y-121661000D01*
X71123333Y-121603857D01*
X71218571Y-121575285D01*
X71742380Y-121575285D01*
X71218571Y-121575285D02*
X71123333Y-121546714D01*
X71075714Y-121489571D01*
X71075714Y-121403857D01*
X71123333Y-121346714D01*
X71218571Y-121318142D01*
X71742380Y-121318142D01*
X71742380Y-120775285D02*
X71218571Y-120775285D01*
X71123333Y-120803857D01*
X71075714Y-120861000D01*
X71075714Y-120975285D01*
X71123333Y-121032428D01*
X71694761Y-120775285D02*
X71742380Y-120832428D01*
X71742380Y-120975285D01*
X71694761Y-121032428D01*
X71599523Y-121061000D01*
X71504285Y-121061000D01*
X71409047Y-121032428D01*
X71361428Y-120975285D01*
X71361428Y-120832428D01*
X71313809Y-120775285D01*
X71075714Y-120489571D02*
X71742380Y-120489571D01*
X71170952Y-120489571D02*
X71123333Y-120461000D01*
X71075714Y-120403857D01*
X71075714Y-120318142D01*
X71123333Y-120261000D01*
X71218571Y-120232428D01*
X71742380Y-120232428D01*
X71075714Y-119946714D02*
X71742380Y-119946714D01*
X71170952Y-119946714D02*
X71123333Y-119918142D01*
X71075714Y-119861000D01*
X71075714Y-119775285D01*
X71123333Y-119718142D01*
X71218571Y-119689571D01*
X71742380Y-119689571D01*
D11*
X137221428Y-130624666D02*
X137221428Y-129862761D01*
X137602380Y-130243714D02*
X136840476Y-130243714D01*
X136602380Y-128910380D02*
X136602380Y-129386571D01*
X137078571Y-129434190D01*
X137030952Y-129386571D01*
X136983333Y-129291333D01*
X136983333Y-129053238D01*
X137030952Y-128958000D01*
X137078571Y-128910380D01*
X137173809Y-128862761D01*
X137411904Y-128862761D01*
X137507142Y-128910380D01*
X137554761Y-128958000D01*
X137602380Y-129053238D01*
X137602380Y-129291333D01*
X137554761Y-129386571D01*
X137507142Y-129434190D01*
X136602380Y-127815142D02*
X137602380Y-127481809D01*
X136602380Y-127148476D01*
X145476380Y-131751714D02*
X144476380Y-131751714D01*
X144476380Y-131370761D01*
X144524000Y-131275523D01*
X144571619Y-131227904D01*
X144666857Y-131180285D01*
X144809714Y-131180285D01*
X144904952Y-131227904D01*
X144952571Y-131275523D01*
X145000190Y-131370761D01*
X145000190Y-131751714D01*
X144476380Y-130846952D02*
X145476380Y-130608857D01*
X144762095Y-130418380D01*
X145476380Y-130227904D01*
X144476380Y-129989809D01*
X145476380Y-129608857D02*
X144476380Y-129608857D01*
X145190666Y-129275523D01*
X144476380Y-128942190D01*
X145476380Y-128942190D01*
X145571619Y-128704095D02*
X145571619Y-127942190D01*
X144524000Y-127180285D02*
X144476380Y-127275523D01*
X144476380Y-127418380D01*
X144524000Y-127561238D01*
X144619238Y-127656476D01*
X144714476Y-127704095D01*
X144904952Y-127751714D01*
X145047809Y-127751714D01*
X145238285Y-127704095D01*
X145333523Y-127656476D01*
X145428761Y-127561238D01*
X145476380Y-127418380D01*
X145476380Y-127323142D01*
X145428761Y-127180285D01*
X145381142Y-127132666D01*
X145047809Y-127132666D01*
X145047809Y-127323142D01*
X141412380Y-131751714D02*
X140412380Y-131751714D01*
X140412380Y-131370761D01*
X140460000Y-131275523D01*
X140507619Y-131227904D01*
X140602857Y-131180285D01*
X140745714Y-131180285D01*
X140840952Y-131227904D01*
X140888571Y-131275523D01*
X140936190Y-131370761D01*
X140936190Y-131751714D01*
X140412380Y-130846952D02*
X141412380Y-130608857D01*
X140698095Y-130418380D01*
X141412380Y-130227904D01*
X140412380Y-129989809D01*
X141412380Y-129608857D02*
X140412380Y-129608857D01*
X141126666Y-129275523D01*
X140412380Y-128942190D01*
X141412380Y-128942190D01*
X141507619Y-128704095D02*
X141507619Y-127942190D01*
X141412380Y-127132666D02*
X140936190Y-127466000D01*
X141412380Y-127704095D02*
X140412380Y-127704095D01*
X140412380Y-127323142D01*
X140460000Y-127227904D01*
X140507619Y-127180285D01*
X140602857Y-127132666D01*
X140745714Y-127132666D01*
X140840952Y-127180285D01*
X140888571Y-127227904D01*
X140936190Y-127323142D01*
X140936190Y-127704095D01*
X149286380Y-131751714D02*
X148286380Y-131751714D01*
X148286380Y-131370761D01*
X148334000Y-131275523D01*
X148381619Y-131227904D01*
X148476857Y-131180285D01*
X148619714Y-131180285D01*
X148714952Y-131227904D01*
X148762571Y-131275523D01*
X148810190Y-131370761D01*
X148810190Y-131751714D01*
X148286380Y-130846952D02*
X149286380Y-130608857D01*
X148572095Y-130418380D01*
X149286380Y-130227904D01*
X148286380Y-129989809D01*
X149286380Y-129608857D02*
X148286380Y-129608857D01*
X149000666Y-129275523D01*
X148286380Y-128942190D01*
X149286380Y-128942190D01*
X149381619Y-128704095D02*
X149381619Y-127942190D01*
X148762571Y-127370761D02*
X148810190Y-127227904D01*
X148857809Y-127180285D01*
X148953047Y-127132666D01*
X149095904Y-127132666D01*
X149191142Y-127180285D01*
X149238761Y-127227904D01*
X149286380Y-127323142D01*
X149286380Y-127704095D01*
X148286380Y-127704095D01*
X148286380Y-127370761D01*
X148334000Y-127275523D01*
X148381619Y-127227904D01*
X148476857Y-127180285D01*
X148572095Y-127180285D01*
X148667333Y-127227904D01*
X148714952Y-127275523D01*
X148762571Y-127370761D01*
X148762571Y-127704095D01*
X131506380Y-131751714D02*
X130506380Y-131751714D01*
X130506380Y-131370761D01*
X130554000Y-131275523D01*
X130601619Y-131227904D01*
X130696857Y-131180285D01*
X130839714Y-131180285D01*
X130934952Y-131227904D01*
X130982571Y-131275523D01*
X131030190Y-131370761D01*
X131030190Y-131751714D01*
X130506380Y-130846952D02*
X131506380Y-130608857D01*
X130792095Y-130418380D01*
X131506380Y-130227904D01*
X130506380Y-129989809D01*
X131506380Y-129608857D02*
X130506380Y-129608857D01*
X131220666Y-129275523D01*
X130506380Y-128942190D01*
X131506380Y-128942190D01*
X131601619Y-128704095D02*
X131601619Y-127942190D01*
X130982571Y-127370761D02*
X131030190Y-127227904D01*
X131077809Y-127180285D01*
X131173047Y-127132666D01*
X131315904Y-127132666D01*
X131411142Y-127180285D01*
X131458761Y-127227904D01*
X131506380Y-127323142D01*
X131506380Y-127704095D01*
X130506380Y-127704095D01*
X130506380Y-127370761D01*
X130554000Y-127275523D01*
X130601619Y-127227904D01*
X130696857Y-127180285D01*
X130792095Y-127180285D01*
X130887333Y-127227904D01*
X130934952Y-127275523D01*
X130982571Y-127370761D01*
X130982571Y-127704095D01*
X127696380Y-131751714D02*
X126696380Y-131751714D01*
X126696380Y-131370761D01*
X126744000Y-131275523D01*
X126791619Y-131227904D01*
X126886857Y-131180285D01*
X127029714Y-131180285D01*
X127124952Y-131227904D01*
X127172571Y-131275523D01*
X127220190Y-131370761D01*
X127220190Y-131751714D01*
X126696380Y-130846952D02*
X127696380Y-130608857D01*
X126982095Y-130418380D01*
X127696380Y-130227904D01*
X126696380Y-129989809D01*
X127696380Y-129608857D02*
X126696380Y-129608857D01*
X127410666Y-129275523D01*
X126696380Y-128942190D01*
X127696380Y-128942190D01*
X127791619Y-128704095D02*
X127791619Y-127942190D01*
X126744000Y-127180285D02*
X126696380Y-127275523D01*
X126696380Y-127418380D01*
X126744000Y-127561238D01*
X126839238Y-127656476D01*
X126934476Y-127704095D01*
X127124952Y-127751714D01*
X127267809Y-127751714D01*
X127458285Y-127704095D01*
X127553523Y-127656476D01*
X127648761Y-127561238D01*
X127696380Y-127418380D01*
X127696380Y-127323142D01*
X127648761Y-127180285D01*
X127601142Y-127132666D01*
X127267809Y-127132666D01*
X127267809Y-127323142D01*
X123632380Y-131751714D02*
X122632380Y-131751714D01*
X122632380Y-131370761D01*
X122680000Y-131275523D01*
X122727619Y-131227904D01*
X122822857Y-131180285D01*
X122965714Y-131180285D01*
X123060952Y-131227904D01*
X123108571Y-131275523D01*
X123156190Y-131370761D01*
X123156190Y-131751714D01*
X122632380Y-130846952D02*
X123632380Y-130608857D01*
X122918095Y-130418380D01*
X123632380Y-130227904D01*
X122632380Y-129989809D01*
X123632380Y-129608857D02*
X122632380Y-129608857D01*
X123346666Y-129275523D01*
X122632380Y-128942190D01*
X123632380Y-128942190D01*
X123727619Y-128704095D02*
X123727619Y-127942190D01*
X123632380Y-127132666D02*
X123156190Y-127466000D01*
X123632380Y-127704095D02*
X122632380Y-127704095D01*
X122632380Y-127323142D01*
X122680000Y-127227904D01*
X122727619Y-127180285D01*
X122822857Y-127132666D01*
X122965714Y-127132666D01*
X123060952Y-127180285D01*
X123108571Y-127227904D01*
X123156190Y-127323142D01*
X123156190Y-127704095D01*
X119441428Y-130624666D02*
X119441428Y-129862761D01*
X119822380Y-130243714D02*
X119060476Y-130243714D01*
X118822380Y-128910380D02*
X118822380Y-129386571D01*
X119298571Y-129434190D01*
X119250952Y-129386571D01*
X119203333Y-129291333D01*
X119203333Y-129053238D01*
X119250952Y-128958000D01*
X119298571Y-128910380D01*
X119393809Y-128862761D01*
X119631904Y-128862761D01*
X119727142Y-128910380D01*
X119774761Y-128958000D01*
X119822380Y-129053238D01*
X119822380Y-129291333D01*
X119774761Y-129386571D01*
X119727142Y-129434190D01*
X118822380Y-127815142D02*
X119822380Y-127481809D01*
X118822380Y-127148476D01*
X112154761Y-131680285D02*
X112202380Y-131537428D01*
X112202380Y-131299333D01*
X112154761Y-131204095D01*
X112107142Y-131156476D01*
X112011904Y-131108857D01*
X111916666Y-131108857D01*
X111821428Y-131156476D01*
X111773809Y-131204095D01*
X111726190Y-131299333D01*
X111678571Y-131489809D01*
X111630952Y-131585047D01*
X111583333Y-131632666D01*
X111488095Y-131680285D01*
X111392857Y-131680285D01*
X111297619Y-131632666D01*
X111250000Y-131585047D01*
X111202380Y-131489809D01*
X111202380Y-131251714D01*
X111250000Y-131108857D01*
X111535714Y-130775523D02*
X112202380Y-130585047D01*
X111726190Y-130394571D01*
X112202380Y-130204095D01*
X111535714Y-130013619D01*
X112202380Y-129632666D02*
X111535714Y-129632666D01*
X111202380Y-129632666D02*
X111250000Y-129680285D01*
X111297619Y-129632666D01*
X111250000Y-129585047D01*
X111202380Y-129632666D01*
X111297619Y-129632666D01*
X111535714Y-129299333D02*
X111535714Y-128918380D01*
X111202380Y-129156476D02*
X112059523Y-129156476D01*
X112154761Y-129108857D01*
X112202380Y-129013619D01*
X112202380Y-128918380D01*
X112154761Y-128156476D02*
X112202380Y-128251714D01*
X112202380Y-128442190D01*
X112154761Y-128537428D01*
X112107142Y-128585047D01*
X112011904Y-128632666D01*
X111726190Y-128632666D01*
X111630952Y-128585047D01*
X111583333Y-128537428D01*
X111535714Y-128442190D01*
X111535714Y-128251714D01*
X111583333Y-128156476D01*
X112202380Y-127727904D02*
X111202380Y-127727904D01*
X112202380Y-127299333D02*
X111678571Y-127299333D01*
X111583333Y-127346952D01*
X111535714Y-127442190D01*
X111535714Y-127585047D01*
X111583333Y-127680285D01*
X111630952Y-127727904D01*
X89294761Y-131680285D02*
X89342380Y-131537428D01*
X89342380Y-131299333D01*
X89294761Y-131204095D01*
X89247142Y-131156476D01*
X89151904Y-131108857D01*
X89056666Y-131108857D01*
X88961428Y-131156476D01*
X88913809Y-131204095D01*
X88866190Y-131299333D01*
X88818571Y-131489809D01*
X88770952Y-131585047D01*
X88723333Y-131632666D01*
X88628095Y-131680285D01*
X88532857Y-131680285D01*
X88437619Y-131632666D01*
X88390000Y-131585047D01*
X88342380Y-131489809D01*
X88342380Y-131251714D01*
X88390000Y-131108857D01*
X88675714Y-130775523D02*
X89342380Y-130585047D01*
X88866190Y-130394571D01*
X89342380Y-130204095D01*
X88675714Y-130013619D01*
X89342380Y-129632666D02*
X88675714Y-129632666D01*
X88342380Y-129632666D02*
X88390000Y-129680285D01*
X88437619Y-129632666D01*
X88390000Y-129585047D01*
X88342380Y-129632666D01*
X88437619Y-129632666D01*
X88675714Y-129299333D02*
X88675714Y-128918380D01*
X88342380Y-129156476D02*
X89199523Y-129156476D01*
X89294761Y-129108857D01*
X89342380Y-129013619D01*
X89342380Y-128918380D01*
X89294761Y-128156476D02*
X89342380Y-128251714D01*
X89342380Y-128442190D01*
X89294761Y-128537428D01*
X89247142Y-128585047D01*
X89151904Y-128632666D01*
X88866190Y-128632666D01*
X88770952Y-128585047D01*
X88723333Y-128537428D01*
X88675714Y-128442190D01*
X88675714Y-128251714D01*
X88723333Y-128156476D01*
X89342380Y-127727904D02*
X88342380Y-127727904D01*
X89342380Y-127299333D02*
X88818571Y-127299333D01*
X88723333Y-127346952D01*
X88675714Y-127442190D01*
X88675714Y-127585047D01*
X88723333Y-127680285D01*
X88770952Y-127727904D01*
X108011428Y-131608857D02*
X108011428Y-130846952D01*
X108392380Y-131227904D02*
X107630476Y-131227904D01*
X107487619Y-130418380D02*
X107440000Y-130370761D01*
X107392380Y-130275523D01*
X107392380Y-130037428D01*
X107440000Y-129942190D01*
X107487619Y-129894571D01*
X107582857Y-129846952D01*
X107678095Y-129846952D01*
X107820952Y-129894571D01*
X108392380Y-130466000D01*
X108392380Y-129846952D01*
X107725714Y-128989809D02*
X108392380Y-128989809D01*
X107344761Y-129227904D02*
X108059047Y-129466000D01*
X108059047Y-128846952D01*
X107392380Y-127846952D02*
X108392380Y-127513619D01*
X107392380Y-127180285D01*
X85151428Y-131608857D02*
X85151428Y-130846952D01*
X85532380Y-131227904D02*
X84770476Y-131227904D01*
X84627619Y-130418380D02*
X84580000Y-130370761D01*
X84532380Y-130275523D01*
X84532380Y-130037428D01*
X84580000Y-129942190D01*
X84627619Y-129894571D01*
X84722857Y-129846952D01*
X84818095Y-129846952D01*
X84960952Y-129894571D01*
X85532380Y-130466000D01*
X85532380Y-129846952D01*
X84865714Y-128989809D02*
X85532380Y-128989809D01*
X84484761Y-129227904D02*
X85199047Y-129466000D01*
X85199047Y-128846952D01*
X84532380Y-127846952D02*
X85532380Y-127513619D01*
X84532380Y-127180285D01*
X153771333Y-97787428D02*
X154533238Y-97787428D01*
X154152285Y-98168380D02*
X154152285Y-97406476D01*
X155485619Y-97168380D02*
X155009428Y-97168380D01*
X154961809Y-97644571D01*
X155009428Y-97596952D01*
X155104666Y-97549333D01*
X155342761Y-97549333D01*
X155438000Y-97596952D01*
X155485619Y-97644571D01*
X155533238Y-97739809D01*
X155533238Y-97977904D01*
X155485619Y-98073142D01*
X155438000Y-98120761D01*
X155342761Y-98168380D01*
X155104666Y-98168380D01*
X155009428Y-98120761D01*
X154961809Y-98073142D01*
X156580857Y-97168380D02*
X156914190Y-98168380D01*
X157247523Y-97168380D01*
X154493619Y-90548380D02*
X154160285Y-90072190D01*
X153922190Y-90548380D02*
X153922190Y-89548380D01*
X154303142Y-89548380D01*
X154398380Y-89596000D01*
X154446000Y-89643619D01*
X154493619Y-89738857D01*
X154493619Y-89881714D01*
X154446000Y-89976952D01*
X154398380Y-90024571D01*
X154303142Y-90072190D01*
X153922190Y-90072190D01*
X154922190Y-90024571D02*
X155255523Y-90024571D01*
X155398380Y-90548380D02*
X154922190Y-90548380D01*
X154922190Y-89548380D01*
X155398380Y-89548380D01*
X155779333Y-90500761D02*
X155922190Y-90548380D01*
X156160285Y-90548380D01*
X156255523Y-90500761D01*
X156303142Y-90453142D01*
X156350761Y-90357904D01*
X156350761Y-90262666D01*
X156303142Y-90167428D01*
X156255523Y-90119809D01*
X156160285Y-90072190D01*
X155969809Y-90024571D01*
X155874571Y-89976952D01*
X155826952Y-89929333D01*
X155779333Y-89834095D01*
X155779333Y-89738857D01*
X155826952Y-89643619D01*
X155874571Y-89596000D01*
X155969809Y-89548380D01*
X156207904Y-89548380D01*
X156350761Y-89596000D01*
X156779333Y-90024571D02*
X157112666Y-90024571D01*
X157255523Y-90548380D02*
X156779333Y-90548380D01*
X156779333Y-89548380D01*
X157255523Y-89548380D01*
X157541238Y-89548380D02*
X158112666Y-89548380D01*
X157826952Y-90548380D02*
X157826952Y-89548380D01*
X154446000Y-86738380D02*
X153969809Y-86738380D01*
X153969809Y-85738380D01*
X154779333Y-86214571D02*
X155112666Y-86214571D01*
X155255523Y-86738380D02*
X154779333Y-86738380D01*
X154779333Y-85738380D01*
X155255523Y-85738380D01*
X155684095Y-86738380D02*
X155684095Y-85738380D01*
X155922190Y-85738380D01*
X156065047Y-85786000D01*
X156160285Y-85881238D01*
X156207904Y-85976476D01*
X156255523Y-86166952D01*
X156255523Y-86309809D01*
X156207904Y-86500285D01*
X156160285Y-86595523D01*
X156065047Y-86690761D01*
X155922190Y-86738380D01*
X155684095Y-86738380D01*
X156446000Y-86833619D02*
X157207904Y-86833619D01*
X157969809Y-86738380D02*
X157398380Y-86738380D01*
X157684095Y-86738380D02*
X157684095Y-85738380D01*
X157588857Y-85881238D01*
X157493619Y-85976476D01*
X157398380Y-86024095D01*
X154025333Y-94358380D02*
X154025333Y-93358380D01*
X154358666Y-94072666D01*
X154692000Y-93358380D01*
X154692000Y-94358380D01*
X155311047Y-94358380D02*
X155215809Y-94310761D01*
X155168190Y-94263142D01*
X155120571Y-94167904D01*
X155120571Y-93882190D01*
X155168190Y-93786952D01*
X155215809Y-93739333D01*
X155311047Y-93691714D01*
X155453904Y-93691714D01*
X155549142Y-93739333D01*
X155596761Y-93786952D01*
X155644380Y-93882190D01*
X155644380Y-94167904D01*
X155596761Y-94263142D01*
X155549142Y-94310761D01*
X155453904Y-94358380D01*
X155311047Y-94358380D01*
X156501523Y-94358380D02*
X156501523Y-93358380D01*
X156501523Y-94310761D02*
X156406285Y-94358380D01*
X156215809Y-94358380D01*
X156120571Y-94310761D01*
X156072952Y-94263142D01*
X156025333Y-94167904D01*
X156025333Y-93882190D01*
X156072952Y-93786952D01*
X156120571Y-93739333D01*
X156215809Y-93691714D01*
X156406285Y-93691714D01*
X156501523Y-93739333D01*
X157358666Y-94310761D02*
X157263428Y-94358380D01*
X157072952Y-94358380D01*
X156977714Y-94310761D01*
X156930095Y-94215523D01*
X156930095Y-93834571D01*
X156977714Y-93739333D01*
X157072952Y-93691714D01*
X157263428Y-93691714D01*
X157358666Y-93739333D01*
X157406285Y-93834571D01*
X157406285Y-93929809D01*
X156930095Y-94025047D01*
X154446000Y-83182380D02*
X153969809Y-83182380D01*
X153969809Y-82182380D01*
X154779333Y-82658571D02*
X155112666Y-82658571D01*
X155255523Y-83182380D02*
X154779333Y-83182380D01*
X154779333Y-82182380D01*
X155255523Y-82182380D01*
X155684095Y-83182380D02*
X155684095Y-82182380D01*
X155922190Y-82182380D01*
X156065047Y-82230000D01*
X156160285Y-82325238D01*
X156207904Y-82420476D01*
X156255523Y-82610952D01*
X156255523Y-82753809D01*
X156207904Y-82944285D01*
X156160285Y-83039523D01*
X156065047Y-83134761D01*
X155922190Y-83182380D01*
X155684095Y-83182380D01*
X156446000Y-83277619D02*
X157207904Y-83277619D01*
X157398380Y-82277619D02*
X157446000Y-82230000D01*
X157541238Y-82182380D01*
X157779333Y-82182380D01*
X157874571Y-82230000D01*
X157922190Y-82277619D01*
X157969809Y-82372857D01*
X157969809Y-82468095D01*
X157922190Y-82610952D01*
X157350761Y-83182380D01*
X157969809Y-83182380D01*
X154422095Y-78166000D02*
X154326857Y-78118380D01*
X154184000Y-78118380D01*
X154041142Y-78166000D01*
X153945904Y-78261238D01*
X153898285Y-78356476D01*
X153850666Y-78546952D01*
X153850666Y-78689809D01*
X153898285Y-78880285D01*
X153945904Y-78975523D01*
X154041142Y-79070761D01*
X154184000Y-79118380D01*
X154279238Y-79118380D01*
X154422095Y-79070761D01*
X154469714Y-79023142D01*
X154469714Y-78689809D01*
X154279238Y-78689809D01*
X154898285Y-79118380D02*
X154898285Y-78118380D01*
X155469714Y-79118380D01*
X155469714Y-78118380D01*
X155945904Y-79118380D02*
X155945904Y-78118380D01*
X156184000Y-78118380D01*
X156326857Y-78166000D01*
X156422095Y-78261238D01*
X156469714Y-78356476D01*
X156517333Y-78546952D01*
X156517333Y-78689809D01*
X156469714Y-78880285D01*
X156422095Y-78975523D01*
X156326857Y-79070761D01*
X156184000Y-79118380D01*
X155945904Y-79118380D01*
X153263333Y-72387428D02*
X154025238Y-72387428D01*
X153644285Y-72768380D02*
X153644285Y-72006476D01*
X154977619Y-71768380D02*
X154501428Y-71768380D01*
X154453809Y-72244571D01*
X154501428Y-72196952D01*
X154596666Y-72149333D01*
X154834761Y-72149333D01*
X154930000Y-72196952D01*
X154977619Y-72244571D01*
X155025238Y-72339809D01*
X155025238Y-72577904D01*
X154977619Y-72673142D01*
X154930000Y-72720761D01*
X154834761Y-72768380D01*
X154596666Y-72768380D01*
X154501428Y-72720761D01*
X154453809Y-72673142D01*
X156072857Y-71768380D02*
X156406190Y-72768380D01*
X156739523Y-71768380D01*
X153557047Y-68958380D02*
X153557047Y-67958380D01*
X153938000Y-67958380D01*
X154033238Y-68006000D01*
X154080857Y-68053619D01*
X154128476Y-68148857D01*
X154128476Y-68291714D01*
X154080857Y-68386952D01*
X154033238Y-68434571D01*
X153938000Y-68482190D01*
X153557047Y-68482190D01*
X154699904Y-68958380D02*
X154604666Y-68910761D01*
X154557047Y-68863142D01*
X154509428Y-68767904D01*
X154509428Y-68482190D01*
X154557047Y-68386952D01*
X154604666Y-68339333D01*
X154699904Y-68291714D01*
X154842761Y-68291714D01*
X154938000Y-68339333D01*
X154985619Y-68386952D01*
X155033238Y-68482190D01*
X155033238Y-68767904D01*
X154985619Y-68863142D01*
X154938000Y-68910761D01*
X154842761Y-68958380D01*
X154699904Y-68958380D01*
X155318952Y-68291714D02*
X155699904Y-68291714D01*
X155461809Y-67958380D02*
X155461809Y-68815523D01*
X155509428Y-68910761D01*
X155604666Y-68958380D01*
X155699904Y-68958380D01*
X155795142Y-69053619D02*
X156557047Y-69053619D01*
X157366571Y-68958380D02*
X157033238Y-68482190D01*
X156795142Y-68958380D02*
X156795142Y-67958380D01*
X157176095Y-67958380D01*
X157271333Y-68006000D01*
X157318952Y-68053619D01*
X157366571Y-68148857D01*
X157366571Y-68291714D01*
X157318952Y-68386952D01*
X157271333Y-68434571D01*
X157176095Y-68482190D01*
X156795142Y-68482190D01*
X153557047Y-65148380D02*
X153557047Y-64148380D01*
X153938000Y-64148380D01*
X154033238Y-64196000D01*
X154080857Y-64243619D01*
X154128476Y-64338857D01*
X154128476Y-64481714D01*
X154080857Y-64576952D01*
X154033238Y-64624571D01*
X153938000Y-64672190D01*
X153557047Y-64672190D01*
X154699904Y-65148380D02*
X154604666Y-65100761D01*
X154557047Y-65053142D01*
X154509428Y-64957904D01*
X154509428Y-64672190D01*
X154557047Y-64576952D01*
X154604666Y-64529333D01*
X154699904Y-64481714D01*
X154842761Y-64481714D01*
X154938000Y-64529333D01*
X154985619Y-64576952D01*
X155033238Y-64672190D01*
X155033238Y-64957904D01*
X154985619Y-65053142D01*
X154938000Y-65100761D01*
X154842761Y-65148380D01*
X154699904Y-65148380D01*
X155318952Y-64481714D02*
X155699904Y-64481714D01*
X155461809Y-64148380D02*
X155461809Y-65005523D01*
X155509428Y-65100761D01*
X155604666Y-65148380D01*
X155699904Y-65148380D01*
X155795142Y-65243619D02*
X156557047Y-65243619D01*
X157318952Y-64196000D02*
X157223714Y-64148380D01*
X157080857Y-64148380D01*
X156938000Y-64196000D01*
X156842761Y-64291238D01*
X156795142Y-64386476D01*
X156747523Y-64576952D01*
X156747523Y-64719809D01*
X156795142Y-64910285D01*
X156842761Y-65005523D01*
X156938000Y-65100761D01*
X157080857Y-65148380D01*
X157176095Y-65148380D01*
X157318952Y-65100761D01*
X157366571Y-65053142D01*
X157366571Y-64719809D01*
X157176095Y-64719809D01*
X153557047Y-61338380D02*
X153557047Y-60338380D01*
X153938000Y-60338380D01*
X154033238Y-60386000D01*
X154080857Y-60433619D01*
X154128476Y-60528857D01*
X154128476Y-60671714D01*
X154080857Y-60766952D01*
X154033238Y-60814571D01*
X153938000Y-60862190D01*
X153557047Y-60862190D01*
X154699904Y-61338380D02*
X154604666Y-61290761D01*
X154557047Y-61243142D01*
X154509428Y-61147904D01*
X154509428Y-60862190D01*
X154557047Y-60766952D01*
X154604666Y-60719333D01*
X154699904Y-60671714D01*
X154842761Y-60671714D01*
X154938000Y-60719333D01*
X154985619Y-60766952D01*
X155033238Y-60862190D01*
X155033238Y-61147904D01*
X154985619Y-61243142D01*
X154938000Y-61290761D01*
X154842761Y-61338380D01*
X154699904Y-61338380D01*
X155318952Y-60671714D02*
X155699904Y-60671714D01*
X155461809Y-60338380D02*
X155461809Y-61195523D01*
X155509428Y-61290761D01*
X155604666Y-61338380D01*
X155699904Y-61338380D01*
X155795142Y-61433619D02*
X156557047Y-61433619D01*
X157128476Y-60814571D02*
X157271333Y-60862190D01*
X157318952Y-60909809D01*
X157366571Y-61005047D01*
X157366571Y-61147904D01*
X157318952Y-61243142D01*
X157271333Y-61290761D01*
X157176095Y-61338380D01*
X156795142Y-61338380D01*
X156795142Y-60338380D01*
X157128476Y-60338380D01*
X157223714Y-60386000D01*
X157271333Y-60433619D01*
X157318952Y-60528857D01*
X157318952Y-60624095D01*
X157271333Y-60719333D01*
X157223714Y-60766952D01*
X157128476Y-60814571D01*
X156795142Y-60814571D01*
X153557142Y-57528380D02*
X153557142Y-56528380D01*
X153938095Y-56528380D01*
X154033333Y-56576000D01*
X154080952Y-56623619D01*
X154128571Y-56718857D01*
X154128571Y-56861714D01*
X154080952Y-56956952D01*
X154033333Y-57004571D01*
X153938095Y-57052190D01*
X153557142Y-57052190D01*
X154700000Y-57528380D02*
X154604761Y-57480761D01*
X154557142Y-57433142D01*
X154509523Y-57337904D01*
X154509523Y-57052190D01*
X154557142Y-56956952D01*
X154604761Y-56909333D01*
X154700000Y-56861714D01*
X154842857Y-56861714D01*
X154938095Y-56909333D01*
X154985714Y-56956952D01*
X155033333Y-57052190D01*
X155033333Y-57337904D01*
X154985714Y-57433142D01*
X154938095Y-57480761D01*
X154842857Y-57528380D01*
X154700000Y-57528380D01*
X155319047Y-56861714D02*
X155700000Y-56861714D01*
X155461904Y-56528380D02*
X155461904Y-57385523D01*
X155509523Y-57480761D01*
X155604761Y-57528380D01*
X155700000Y-57528380D01*
X155795238Y-57623619D02*
X156557142Y-57623619D01*
X156747619Y-57480761D02*
X156890476Y-57528380D01*
X157128571Y-57528380D01*
X157223809Y-57480761D01*
X157271428Y-57433142D01*
X157319047Y-57337904D01*
X157319047Y-57242666D01*
X157271428Y-57147428D01*
X157223809Y-57099809D01*
X157128571Y-57052190D01*
X156938095Y-57004571D01*
X156842857Y-56956952D01*
X156795238Y-56909333D01*
X156747619Y-56814095D01*
X156747619Y-56718857D01*
X156795238Y-56623619D01*
X156842857Y-56576000D01*
X156938095Y-56528380D01*
X157176190Y-56528380D01*
X157319047Y-56576000D01*
X157652380Y-56861714D02*
X157890476Y-57528380D01*
X158128571Y-56861714D02*
X157890476Y-57528380D01*
X157795238Y-57766476D01*
X157747619Y-57814095D01*
X157652380Y-57861714D01*
X158461904Y-57480761D02*
X158557142Y-57528380D01*
X158747619Y-57528380D01*
X158842857Y-57480761D01*
X158890476Y-57385523D01*
X158890476Y-57337904D01*
X158842857Y-57242666D01*
X158747619Y-57195047D01*
X158604761Y-57195047D01*
X158509523Y-57147428D01*
X158461904Y-57052190D01*
X158461904Y-57004571D01*
X158509523Y-56909333D01*
X158604761Y-56861714D01*
X158747619Y-56861714D01*
X158842857Y-56909333D01*
X154168095Y-52766000D02*
X154072857Y-52718380D01*
X153930000Y-52718380D01*
X153787142Y-52766000D01*
X153691904Y-52861238D01*
X153644285Y-52956476D01*
X153596666Y-53146952D01*
X153596666Y-53289809D01*
X153644285Y-53480285D01*
X153691904Y-53575523D01*
X153787142Y-53670761D01*
X153930000Y-53718380D01*
X154025238Y-53718380D01*
X154168095Y-53670761D01*
X154215714Y-53623142D01*
X154215714Y-53289809D01*
X154025238Y-53289809D01*
X154644285Y-53718380D02*
X154644285Y-52718380D01*
X155215714Y-53718380D01*
X155215714Y-52718380D01*
X155691904Y-53718380D02*
X155691904Y-52718380D01*
X155930000Y-52718380D01*
X156072857Y-52766000D01*
X156168095Y-52861238D01*
X156215714Y-52956476D01*
X156263333Y-53146952D01*
X156263333Y-53289809D01*
X156215714Y-53480285D01*
X156168095Y-53575523D01*
X156072857Y-53670761D01*
X155930000Y-53718380D01*
X155691904Y-53718380D01*
X80397142Y-50035428D02*
X81159047Y-50035428D01*
X80778095Y-50416380D02*
X80778095Y-49654476D01*
X81587619Y-49511619D02*
X81635238Y-49464000D01*
X81730476Y-49416380D01*
X81968571Y-49416380D01*
X82063809Y-49464000D01*
X82111428Y-49511619D01*
X82159047Y-49606857D01*
X82159047Y-49702095D01*
X82111428Y-49844952D01*
X81540000Y-50416380D01*
X82159047Y-50416380D01*
X83016190Y-49749714D02*
X83016190Y-50416380D01*
X82778095Y-49368761D02*
X82540000Y-50083047D01*
X83159047Y-50083047D01*
X84159047Y-49416380D02*
X84492380Y-50416380D01*
X84825714Y-49416380D01*
X76952095Y-49464000D02*
X76856857Y-49416380D01*
X76714000Y-49416380D01*
X76571142Y-49464000D01*
X76475904Y-49559238D01*
X76428285Y-49654476D01*
X76380666Y-49844952D01*
X76380666Y-49987809D01*
X76428285Y-50178285D01*
X76475904Y-50273523D01*
X76571142Y-50368761D01*
X76714000Y-50416380D01*
X76809238Y-50416380D01*
X76952095Y-50368761D01*
X76999714Y-50321142D01*
X76999714Y-49987809D01*
X76809238Y-49987809D01*
X77428285Y-50416380D02*
X77428285Y-49416380D01*
X77999714Y-50416380D01*
X77999714Y-49416380D01*
X78475904Y-50416380D02*
X78475904Y-49416380D01*
X78714000Y-49416380D01*
X78856857Y-49464000D01*
X78952095Y-49559238D01*
X78999714Y-49654476D01*
X79047333Y-49844952D01*
X79047333Y-49987809D01*
X78999714Y-50178285D01*
X78952095Y-50273523D01*
X78856857Y-50368761D01*
X78714000Y-50416380D01*
X78475904Y-50416380D01*
D12*
%TO.C,IC2*%
X125349000Y-78517000D02*
X125349000Y-71025000D01*
X90551000Y-79306000D02*
X90551000Y-71025000D01*
D13*
%TO.C,CON8*%
X102168000Y-67370000D02*
X102168000Y-62170000D01*
X94428000Y-67370000D02*
X102168000Y-67370000D01*
X97028000Y-62170000D02*
X102168000Y-62170000D01*
X97028000Y-64770000D02*
X97028000Y-62170000D01*
X94428000Y-67370000D02*
X94428000Y-64770000D01*
X95818000Y-62170000D02*
X94488000Y-62170000D01*
X94488000Y-63500000D02*
X94488000Y-62170000D01*
X94428000Y-64770000D02*
X97028000Y-64770000D01*
D10*
%TO.C,T4*%
X109888100Y-97722000D02*
X113751900Y-97722000D01*
X113922452Y-100109846D02*
G75*
G02*
X109718100Y-100110950I-2102452J1049846D01*
G01*
D12*
%TO.C,T3*%
X123875000Y-88645000D02*
X120650000Y-88645000D01*
X123875000Y-99315000D02*
X123875000Y-88645000D01*
X119045000Y-99315000D02*
X123875000Y-99315000D01*
D10*
%TO.C,T2*%
X86968100Y-97722000D02*
X90831900Y-97722000D01*
X91002452Y-100109846D02*
G75*
G02*
X86798100Y-100110950I-2102452J1049846D01*
G01*
D12*
%TO.C,T1*%
X101015000Y-88645000D02*
X97790000Y-88645000D01*
X101015000Y-99315000D02*
X101015000Y-88645000D01*
X96185000Y-99315000D02*
X101015000Y-99315000D01*
D13*
%TO.C,R7*%
X89244000Y-71406000D02*
X88914000Y-71406000D01*
X89244000Y-77946000D02*
X89244000Y-71406000D01*
X88914000Y-77946000D02*
X89244000Y-77946000D01*
X86504000Y-71406000D02*
X86834000Y-71406000D01*
X86504000Y-77946000D02*
X86504000Y-71406000D01*
X86834000Y-77946000D02*
X86504000Y-77946000D01*
%TO.C,R6*%
X108490000Y-102770000D02*
X108490000Y-103100000D01*
X115030000Y-102770000D02*
X108490000Y-102770000D01*
X115030000Y-103100000D02*
X115030000Y-102770000D01*
X108490000Y-105510000D02*
X108490000Y-105180000D01*
X115030000Y-105510000D02*
X108490000Y-105510000D01*
X115030000Y-105180000D02*
X115030000Y-105510000D01*
%TO.C,R5*%
X110380000Y-89556000D02*
X110710000Y-89556000D01*
X110380000Y-83016000D02*
X110380000Y-89556000D01*
X110710000Y-83016000D02*
X110380000Y-83016000D01*
X113120000Y-89556000D02*
X112790000Y-89556000D01*
X113120000Y-83016000D02*
X113120000Y-89556000D01*
X112790000Y-83016000D02*
X113120000Y-83016000D01*
%TO.C,R4*%
X85630000Y-102770000D02*
X85630000Y-103100000D01*
X92170000Y-102770000D02*
X85630000Y-102770000D01*
X92170000Y-103100000D02*
X92170000Y-102770000D01*
X85630000Y-105510000D02*
X85630000Y-105180000D01*
X92170000Y-105510000D02*
X85630000Y-105510000D01*
X92170000Y-105180000D02*
X92170000Y-105510000D01*
%TO.C,R3*%
X87520000Y-89556000D02*
X87850000Y-89556000D01*
X87520000Y-83016000D02*
X87520000Y-89556000D01*
X87850000Y-83016000D02*
X87520000Y-83016000D01*
X90260000Y-89556000D02*
X89930000Y-89556000D01*
X90260000Y-83016000D02*
X90260000Y-89556000D01*
X89930000Y-83016000D02*
X90260000Y-83016000D01*
%TO.C,R2*%
X117610075Y-60943137D02*
G75*
G02*
X117254000Y-62485000I-3270075J-56863D01*
G01*
X115825202Y-63913387D02*
G75*
G02*
X112856000Y-63914000I-1485202J2913387D01*
G01*
X111426171Y-62483968D02*
G75*
G02*
X113276000Y-57908000I2913829J1483968D01*
G01*
X115404608Y-57908154D02*
G75*
G02*
X117610000Y-61000000I-1064608J-3091846D01*
G01*
%TO.C,R1*%
X124052000Y-53372000D02*
X123722000Y-53372000D01*
X124052000Y-59912000D02*
X124052000Y-53372000D01*
X123722000Y-59912000D02*
X124052000Y-59912000D01*
X121312000Y-53372000D02*
X121642000Y-53372000D01*
X121312000Y-59912000D02*
X121312000Y-53372000D01*
X121642000Y-59912000D02*
X121312000Y-59912000D01*
%TO.C,KK3*%
X93980000Y-50800000D02*
X109220000Y-50800000D01*
X94234000Y-60706000D02*
X93980000Y-50800000D01*
X109220000Y-60706000D02*
X94234000Y-60706000D01*
X109220000Y-50800000D02*
X109220000Y-60706000D01*
%TO.C,KK2*%
X118618000Y-101600000D02*
X118618000Y-86360000D01*
X128524000Y-101346000D02*
X118618000Y-101600000D01*
X128524000Y-86360000D02*
X128524000Y-101346000D01*
X118618000Y-86360000D02*
X128524000Y-86360000D01*
%TO.C,KK1*%
X95758000Y-101600000D02*
X95758000Y-86360000D01*
X105664000Y-101346000D02*
X95758000Y-101600000D01*
X105664000Y-86360000D02*
X105664000Y-101346000D01*
X95758000Y-86360000D02*
X105664000Y-86360000D01*
D12*
%TO.C,IC1*%
X106740000Y-55942000D02*
X106740000Y-52832000D01*
X96460000Y-55942000D02*
X106740000Y-55942000D01*
X96460000Y-51122000D02*
X96460000Y-55942000D01*
D13*
%TO.C,D2*%
X108490000Y-92610000D02*
X108490000Y-92940000D01*
X115030000Y-92610000D02*
X108490000Y-92610000D01*
X115030000Y-92940000D02*
X115030000Y-92610000D01*
X108490000Y-95350000D02*
X108490000Y-95020000D01*
X115030000Y-95350000D02*
X108490000Y-95350000D01*
X115030000Y-95020000D02*
X115030000Y-95350000D01*
%TO.C,D1*%
X85630000Y-92610000D02*
X85630000Y-92940000D01*
X92170000Y-92610000D02*
X85630000Y-92610000D01*
X92170000Y-92940000D02*
X92170000Y-92610000D01*
X85630000Y-95350000D02*
X85630000Y-95020000D01*
X92170000Y-95350000D02*
X85630000Y-95350000D01*
X92170000Y-95020000D02*
X92170000Y-95350000D01*
D12*
%TO.C,CON7_2*%
X109460000Y-109070000D02*
X109460000Y-121920000D01*
X114060000Y-109070000D02*
X109460000Y-109070000D01*
X114060000Y-126570000D02*
X114060000Y-109070000D01*
X111760000Y-126570000D02*
X114060000Y-126570000D01*
%TO.C,CON7_1*%
X105650000Y-109070000D02*
X105650000Y-121920000D01*
X110250000Y-109070000D02*
X105650000Y-109070000D01*
X110250000Y-126570000D02*
X110250000Y-109070000D01*
X107950000Y-126570000D02*
X110250000Y-126570000D01*
%TO.C,CON6_2*%
X86600000Y-109070000D02*
X86600000Y-121920000D01*
X91200000Y-109070000D02*
X86600000Y-109070000D01*
X91200000Y-126570000D02*
X91200000Y-109070000D01*
X88900000Y-126570000D02*
X91200000Y-126570000D01*
%TO.C,CON6_1*%
X82790000Y-109070000D02*
X82790000Y-121920000D01*
X87390000Y-109070000D02*
X82790000Y-109070000D01*
X87390000Y-126570000D02*
X87390000Y-109070000D01*
X85090000Y-126570000D02*
X87390000Y-126570000D01*
%TO.C,CON5_4*%
X146290000Y-109070000D02*
X146290000Y-121920000D01*
X150890000Y-109070000D02*
X146290000Y-109070000D01*
X150890000Y-126570000D02*
X150890000Y-109070000D01*
X148590000Y-126570000D02*
X150890000Y-126570000D01*
%TO.C,CON5_3*%
X142480000Y-109070000D02*
X142480000Y-121920000D01*
X147080000Y-109070000D02*
X142480000Y-109070000D01*
X147080000Y-126570000D02*
X147080000Y-109070000D01*
X144780000Y-126570000D02*
X147080000Y-126570000D01*
%TO.C,CON5_2*%
X138670000Y-109070000D02*
X138670000Y-121920000D01*
X143270000Y-109070000D02*
X138670000Y-109070000D01*
X143270000Y-126570000D02*
X143270000Y-109070000D01*
X140970000Y-126570000D02*
X143270000Y-126570000D01*
%TO.C,CON5_1*%
X134860000Y-109070000D02*
X134860000Y-121920000D01*
X139460000Y-109070000D02*
X134860000Y-109070000D01*
X139460000Y-126570000D02*
X139460000Y-109070000D01*
X137160000Y-126570000D02*
X139460000Y-126570000D01*
%TO.C,CON4_4*%
X128510000Y-109070000D02*
X128510000Y-121920000D01*
X133110000Y-109070000D02*
X128510000Y-109070000D01*
X133110000Y-126570000D02*
X133110000Y-109070000D01*
X130810000Y-126570000D02*
X133110000Y-126570000D01*
%TO.C,CON4_3*%
X124700000Y-109070000D02*
X124700000Y-121920000D01*
X129300000Y-109070000D02*
X124700000Y-109070000D01*
X129300000Y-126570000D02*
X129300000Y-109070000D01*
X127000000Y-126570000D02*
X129300000Y-126570000D01*
%TO.C,CON4_2*%
X120890000Y-109070000D02*
X120890000Y-121920000D01*
X125490000Y-109070000D02*
X120890000Y-109070000D01*
X125490000Y-126570000D02*
X125490000Y-109070000D01*
X123190000Y-126570000D02*
X125490000Y-126570000D01*
%TO.C,CON4_1*%
X117080000Y-109070000D02*
X117080000Y-121920000D01*
X121680000Y-109070000D02*
X117080000Y-109070000D01*
X121680000Y-126570000D02*
X121680000Y-109070000D01*
X119380000Y-126570000D02*
X121680000Y-126570000D01*
%TO.C,CON3_6*%
X134724000Y-55640000D02*
X147574000Y-55640000D01*
X134724000Y-51040000D02*
X134724000Y-55640000D01*
X152224000Y-51040000D02*
X134724000Y-51040000D01*
X152224000Y-53340000D02*
X152224000Y-51040000D01*
%TO.C,CON3_5*%
X134724000Y-59450000D02*
X147574000Y-59450000D01*
X134724000Y-54850000D02*
X134724000Y-59450000D01*
X152224000Y-54850000D02*
X134724000Y-54850000D01*
X152224000Y-57150000D02*
X152224000Y-54850000D01*
%TO.C,CON3_4*%
X134724000Y-63260000D02*
X147574000Y-63260000D01*
X134724000Y-58660000D02*
X134724000Y-63260000D01*
X152224000Y-58660000D02*
X134724000Y-58660000D01*
X152224000Y-60960000D02*
X152224000Y-58660000D01*
%TO.C,CON3_3*%
X134724000Y-67070000D02*
X147574000Y-67070000D01*
X134724000Y-62470000D02*
X134724000Y-67070000D01*
X152224000Y-62470000D02*
X134724000Y-62470000D01*
X152224000Y-64770000D02*
X152224000Y-62470000D01*
%TO.C,CON3_2*%
X134724000Y-70880000D02*
X147574000Y-70880000D01*
X134724000Y-66280000D02*
X134724000Y-70880000D01*
X152224000Y-66280000D02*
X134724000Y-66280000D01*
X152224000Y-68580000D02*
X152224000Y-66280000D01*
%TO.C,CON3_1*%
X134724000Y-74690000D02*
X147574000Y-74690000D01*
X134724000Y-70090000D02*
X134724000Y-74690000D01*
X152224000Y-70090000D02*
X134724000Y-70090000D01*
X152224000Y-72390000D02*
X152224000Y-70090000D01*
%TO.C,CON2_6*%
X134724000Y-81040000D02*
X147574000Y-81040000D01*
X134724000Y-76440000D02*
X134724000Y-81040000D01*
X152224000Y-76440000D02*
X134724000Y-76440000D01*
X152224000Y-78740000D02*
X152224000Y-76440000D01*
%TO.C,CON2_5*%
X134724000Y-84850000D02*
X147574000Y-84850000D01*
X134724000Y-80250000D02*
X134724000Y-84850000D01*
X152224000Y-80250000D02*
X134724000Y-80250000D01*
X152224000Y-82550000D02*
X152224000Y-80250000D01*
%TO.C,CON2_4*%
X134724000Y-88660000D02*
X147574000Y-88660000D01*
X134724000Y-84060000D02*
X134724000Y-88660000D01*
X152224000Y-84060000D02*
X134724000Y-84060000D01*
X152224000Y-86360000D02*
X152224000Y-84060000D01*
%TO.C,CON2_3*%
X134724000Y-92470000D02*
X147574000Y-92470000D01*
X134724000Y-87870000D02*
X134724000Y-92470000D01*
X152224000Y-87870000D02*
X134724000Y-87870000D01*
X152224000Y-90170000D02*
X152224000Y-87870000D01*
%TO.C,CON2_2*%
X134724000Y-96280000D02*
X147574000Y-96280000D01*
X134724000Y-91680000D02*
X134724000Y-96280000D01*
X152224000Y-91680000D02*
X134724000Y-91680000D01*
X152224000Y-93980000D02*
X152224000Y-91680000D01*
%TO.C,CON2_1*%
X134724000Y-100090000D02*
X147574000Y-100090000D01*
X134724000Y-95490000D02*
X134724000Y-100090000D01*
X152224000Y-95490000D02*
X134724000Y-95490000D01*
X152224000Y-97790000D02*
X152224000Y-95490000D01*
%TO.C,CON1_2*%
X81040000Y-68476000D02*
X81040000Y-55626000D01*
X76440000Y-68476000D02*
X81040000Y-68476000D01*
X76440000Y-50976000D02*
X76440000Y-68476000D01*
X78740000Y-50976000D02*
X76440000Y-50976000D01*
%TO.C,CON1_1*%
X84850000Y-68476000D02*
X84850000Y-55626000D01*
X80250000Y-68476000D02*
X84850000Y-68476000D01*
X80250000Y-50976000D02*
X80250000Y-68476000D01*
X82550000Y-50976000D02*
X80250000Y-50976000D01*
D13*
%TO.C,C2*%
X116920000Y-53864000D02*
G75*
G03*
X116920000Y-53864000I-2620000J0D01*
G01*
%TO.C,C1*%
X90385000Y-57952000D02*
X90070000Y-57952000D01*
X92810000Y-57952000D02*
X92495000Y-57952000D01*
X90385000Y-52712000D02*
X90070000Y-52712000D01*
X92810000Y-52712000D02*
X92495000Y-52712000D01*
X90070000Y-52712000D02*
X90070000Y-57952000D01*
X92810000Y-52712000D02*
X92810000Y-57952000D01*
%TO.C,IC2*%
D14*
X89682238Y-69334523D02*
X89682238Y-68064523D01*
X91012714Y-69213571D02*
X90952238Y-69274047D01*
X90770809Y-69334523D01*
X90649857Y-69334523D01*
X90468428Y-69274047D01*
X90347476Y-69153095D01*
X90287000Y-69032142D01*
X90226523Y-68790238D01*
X90226523Y-68608809D01*
X90287000Y-68366904D01*
X90347476Y-68245952D01*
X90468428Y-68125000D01*
X90649857Y-68064523D01*
X90770809Y-68064523D01*
X90952238Y-68125000D01*
X91012714Y-68185476D01*
X91496523Y-68185476D02*
X91557000Y-68125000D01*
X91677952Y-68064523D01*
X91980333Y-68064523D01*
X92101285Y-68125000D01*
X92161761Y-68185476D01*
X92222238Y-68306428D01*
X92222238Y-68427380D01*
X92161761Y-68608809D01*
X91436047Y-69334523D01*
X92222238Y-69334523D01*
%TO.C,CON8*%
D11*
X93785142Y-65984285D02*
X93832761Y-66031904D01*
X93880380Y-66174761D01*
X93880380Y-66270000D01*
X93832761Y-66412857D01*
X93737523Y-66508095D01*
X93642285Y-66555714D01*
X93451809Y-66603333D01*
X93308952Y-66603333D01*
X93118476Y-66555714D01*
X93023238Y-66508095D01*
X92928000Y-66412857D01*
X92880380Y-66270000D01*
X92880380Y-66174761D01*
X92928000Y-66031904D01*
X92975619Y-65984285D01*
X92880380Y-65365238D02*
X92880380Y-65174761D01*
X92928000Y-65079523D01*
X93023238Y-64984285D01*
X93213714Y-64936666D01*
X93547047Y-64936666D01*
X93737523Y-64984285D01*
X93832761Y-65079523D01*
X93880380Y-65174761D01*
X93880380Y-65365238D01*
X93832761Y-65460476D01*
X93737523Y-65555714D01*
X93547047Y-65603333D01*
X93213714Y-65603333D01*
X93023238Y-65555714D01*
X92928000Y-65460476D01*
X92880380Y-65365238D01*
X93880380Y-64508095D02*
X92880380Y-64508095D01*
X93880380Y-63936666D01*
X92880380Y-63936666D01*
X93308952Y-63317619D02*
X93261333Y-63412857D01*
X93213714Y-63460476D01*
X93118476Y-63508095D01*
X93070857Y-63508095D01*
X92975619Y-63460476D01*
X92928000Y-63412857D01*
X92880380Y-63317619D01*
X92880380Y-63127142D01*
X92928000Y-63031904D01*
X92975619Y-62984285D01*
X93070857Y-62936666D01*
X93118476Y-62936666D01*
X93213714Y-62984285D01*
X93261333Y-63031904D01*
X93308952Y-63127142D01*
X93308952Y-63317619D01*
X93356571Y-63412857D01*
X93404190Y-63460476D01*
X93499428Y-63508095D01*
X93689904Y-63508095D01*
X93785142Y-63460476D01*
X93832761Y-63412857D01*
X93880380Y-63317619D01*
X93880380Y-63127142D01*
X93832761Y-63031904D01*
X93785142Y-62984285D01*
X93689904Y-62936666D01*
X93499428Y-62936666D01*
X93404190Y-62984285D01*
X93356571Y-63031904D01*
X93308952Y-63127142D01*
%TO.C,T4*%
D14*
X114338380Y-96512523D02*
X115064095Y-96512523D01*
X114701238Y-97782523D02*
X114701238Y-96512523D01*
X116031714Y-96935857D02*
X116031714Y-97782523D01*
X115729333Y-96452047D02*
X115426952Y-97359190D01*
X116213142Y-97359190D01*
%TO.C,T3*%
X116896523Y-99445619D02*
X116896523Y-98719904D01*
X118166523Y-99082761D02*
X116896523Y-99082761D01*
X116896523Y-98417523D02*
X116896523Y-97631333D01*
X117380333Y-98054666D01*
X117380333Y-97873238D01*
X117440809Y-97752285D01*
X117501285Y-97691809D01*
X117622238Y-97631333D01*
X117924619Y-97631333D01*
X118045571Y-97691809D01*
X118106047Y-97752285D01*
X118166523Y-97873238D01*
X118166523Y-98236095D01*
X118106047Y-98357047D01*
X118045571Y-98417523D01*
%TO.C,T2*%
X91224380Y-96512523D02*
X91950095Y-96512523D01*
X91587238Y-97782523D02*
X91587238Y-96512523D01*
X92312952Y-96633476D02*
X92373428Y-96573000D01*
X92494380Y-96512523D01*
X92796761Y-96512523D01*
X92917714Y-96573000D01*
X92978190Y-96633476D01*
X93038666Y-96754428D01*
X93038666Y-96875380D01*
X92978190Y-97056809D01*
X92252476Y-97782523D01*
X93038666Y-97782523D01*
%TO.C,T1*%
X94036523Y-99191619D02*
X94036523Y-98465904D01*
X95306523Y-98828761D02*
X94036523Y-98828761D01*
X95306523Y-97377333D02*
X95306523Y-98103047D01*
X95306523Y-97740190D02*
X94036523Y-97740190D01*
X94217952Y-97861142D01*
X94338904Y-97982095D01*
X94399380Y-98103047D01*
%TO.C,R7*%
D11*
X85956380Y-74842666D02*
X85480190Y-75176000D01*
X85956380Y-75414095D02*
X84956380Y-75414095D01*
X84956380Y-75033142D01*
X85004000Y-74937904D01*
X85051619Y-74890285D01*
X85146857Y-74842666D01*
X85289714Y-74842666D01*
X85384952Y-74890285D01*
X85432571Y-74937904D01*
X85480190Y-75033142D01*
X85480190Y-75414095D01*
X84956380Y-74509333D02*
X84956380Y-73842666D01*
X85956380Y-74271238D01*
%TO.C,R6*%
X111593333Y-106962380D02*
X111260000Y-106486190D01*
X111021904Y-106962380D02*
X111021904Y-105962380D01*
X111402857Y-105962380D01*
X111498095Y-106010000D01*
X111545714Y-106057619D01*
X111593333Y-106152857D01*
X111593333Y-106295714D01*
X111545714Y-106390952D01*
X111498095Y-106438571D01*
X111402857Y-106486190D01*
X111021904Y-106486190D01*
X112450476Y-105962380D02*
X112260000Y-105962380D01*
X112164761Y-106010000D01*
X112117142Y-106057619D01*
X112021904Y-106200476D01*
X111974285Y-106390952D01*
X111974285Y-106771904D01*
X112021904Y-106867142D01*
X112069523Y-106914761D01*
X112164761Y-106962380D01*
X112355238Y-106962380D01*
X112450476Y-106914761D01*
X112498095Y-106867142D01*
X112545714Y-106771904D01*
X112545714Y-106533809D01*
X112498095Y-106438571D01*
X112450476Y-106390952D01*
X112355238Y-106343333D01*
X112164761Y-106343333D01*
X112069523Y-106390952D01*
X112021904Y-106438571D01*
X111974285Y-106533809D01*
%TO.C,R5*%
X114572380Y-86452666D02*
X114096190Y-86786000D01*
X114572380Y-87024095D02*
X113572380Y-87024095D01*
X113572380Y-86643142D01*
X113620000Y-86547904D01*
X113667619Y-86500285D01*
X113762857Y-86452666D01*
X113905714Y-86452666D01*
X114000952Y-86500285D01*
X114048571Y-86547904D01*
X114096190Y-86643142D01*
X114096190Y-87024095D01*
X113572380Y-85547904D02*
X113572380Y-86024095D01*
X114048571Y-86071714D01*
X114000952Y-86024095D01*
X113953333Y-85928857D01*
X113953333Y-85690761D01*
X114000952Y-85595523D01*
X114048571Y-85547904D01*
X114143809Y-85500285D01*
X114381904Y-85500285D01*
X114477142Y-85547904D01*
X114524761Y-85595523D01*
X114572380Y-85690761D01*
X114572380Y-85928857D01*
X114524761Y-86024095D01*
X114477142Y-86071714D01*
%TO.C,R4*%
X88733333Y-106962380D02*
X88400000Y-106486190D01*
X88161904Y-106962380D02*
X88161904Y-105962380D01*
X88542857Y-105962380D01*
X88638095Y-106010000D01*
X88685714Y-106057619D01*
X88733333Y-106152857D01*
X88733333Y-106295714D01*
X88685714Y-106390952D01*
X88638095Y-106438571D01*
X88542857Y-106486190D01*
X88161904Y-106486190D01*
X89590476Y-106295714D02*
X89590476Y-106962380D01*
X89352380Y-105914761D02*
X89114285Y-106629047D01*
X89733333Y-106629047D01*
%TO.C,R3*%
X91712380Y-86452666D02*
X91236190Y-86786000D01*
X91712380Y-87024095D02*
X90712380Y-87024095D01*
X90712380Y-86643142D01*
X90760000Y-86547904D01*
X90807619Y-86500285D01*
X90902857Y-86452666D01*
X91045714Y-86452666D01*
X91140952Y-86500285D01*
X91188571Y-86547904D01*
X91236190Y-86643142D01*
X91236190Y-87024095D01*
X90712380Y-86119333D02*
X90712380Y-85500285D01*
X91093333Y-85833619D01*
X91093333Y-85690761D01*
X91140952Y-85595523D01*
X91188571Y-85547904D01*
X91283809Y-85500285D01*
X91521904Y-85500285D01*
X91617142Y-85547904D01*
X91664761Y-85595523D01*
X91712380Y-85690761D01*
X91712380Y-85976476D01*
X91664761Y-86071714D01*
X91617142Y-86119333D01*
%TO.C,R2*%
X110232380Y-61166666D02*
X109756190Y-61500000D01*
X110232380Y-61738095D02*
X109232380Y-61738095D01*
X109232380Y-61357142D01*
X109280000Y-61261904D01*
X109327619Y-61214285D01*
X109422857Y-61166666D01*
X109565714Y-61166666D01*
X109660952Y-61214285D01*
X109708571Y-61261904D01*
X109756190Y-61357142D01*
X109756190Y-61738095D01*
X109327619Y-60785714D02*
X109280000Y-60738095D01*
X109232380Y-60642857D01*
X109232380Y-60404761D01*
X109280000Y-60309523D01*
X109327619Y-60261904D01*
X109422857Y-60214285D01*
X109518095Y-60214285D01*
X109660952Y-60261904D01*
X110232380Y-60833333D01*
X110232380Y-60214285D01*
%TO.C,R1*%
X120764380Y-56808666D02*
X120288190Y-57142000D01*
X120764380Y-57380095D02*
X119764380Y-57380095D01*
X119764380Y-56999142D01*
X119812000Y-56903904D01*
X119859619Y-56856285D01*
X119954857Y-56808666D01*
X120097714Y-56808666D01*
X120192952Y-56856285D01*
X120240571Y-56903904D01*
X120288190Y-56999142D01*
X120288190Y-57380095D01*
X120764380Y-55856285D02*
X120764380Y-56427714D01*
X120764380Y-56142000D02*
X119764380Y-56142000D01*
X119907238Y-56237238D01*
X120002476Y-56332476D01*
X120050095Y-56427714D01*
%TO.C,KK3*%
X94509904Y-60322380D02*
X94509904Y-59322380D01*
X95081333Y-60322380D02*
X94652761Y-59750952D01*
X95081333Y-59322380D02*
X94509904Y-59893809D01*
X95509904Y-60322380D02*
X95509904Y-59322380D01*
X96081333Y-60322380D02*
X95652761Y-59750952D01*
X96081333Y-59322380D02*
X95509904Y-59893809D01*
X96414666Y-59322380D02*
X97033714Y-59322380D01*
X96700380Y-59703333D01*
X96843238Y-59703333D01*
X96938476Y-59750952D01*
X96986095Y-59798571D01*
X97033714Y-59893809D01*
X97033714Y-60131904D01*
X96986095Y-60227142D01*
X96938476Y-60274761D01*
X96843238Y-60322380D01*
X96557523Y-60322380D01*
X96462285Y-60274761D01*
X96414666Y-60227142D01*
%TO.C,KK2*%
X128204380Y-100986095D02*
X127204380Y-100986095D01*
X128204380Y-100414666D02*
X127632952Y-100843238D01*
X127204380Y-100414666D02*
X127775809Y-100986095D01*
X128204380Y-99986095D02*
X127204380Y-99986095D01*
X128204380Y-99414666D02*
X127632952Y-99843238D01*
X127204380Y-99414666D02*
X127775809Y-99986095D01*
X127299619Y-99033714D02*
X127252000Y-98986095D01*
X127204380Y-98890857D01*
X127204380Y-98652761D01*
X127252000Y-98557523D01*
X127299619Y-98509904D01*
X127394857Y-98462285D01*
X127490095Y-98462285D01*
X127632952Y-98509904D01*
X128204380Y-99081333D01*
X128204380Y-98462285D01*
%TO.C,KK1*%
X105344380Y-100986095D02*
X104344380Y-100986095D01*
X105344380Y-100414666D02*
X104772952Y-100843238D01*
X104344380Y-100414666D02*
X104915809Y-100986095D01*
X105344380Y-99986095D02*
X104344380Y-99986095D01*
X105344380Y-99414666D02*
X104772952Y-99843238D01*
X104344380Y-99414666D02*
X104915809Y-99986095D01*
X105344380Y-98462285D02*
X105344380Y-99033714D01*
X105344380Y-98748000D02*
X104344380Y-98748000D01*
X104487238Y-98843238D01*
X104582476Y-98938476D01*
X104630095Y-99033714D01*
%TO.C,IC1*%
D14*
X94254238Y-50284523D02*
X94254238Y-49014523D01*
X95584714Y-50163571D02*
X95524238Y-50224047D01*
X95342809Y-50284523D01*
X95221857Y-50284523D01*
X95040428Y-50224047D01*
X94919476Y-50103095D01*
X94859000Y-49982142D01*
X94798523Y-49740238D01*
X94798523Y-49558809D01*
X94859000Y-49316904D01*
X94919476Y-49195952D01*
X95040428Y-49075000D01*
X95221857Y-49014523D01*
X95342809Y-49014523D01*
X95524238Y-49075000D01*
X95584714Y-49135476D01*
X96794238Y-50284523D02*
X96068523Y-50284523D01*
X96431380Y-50284523D02*
X96431380Y-49014523D01*
X96310428Y-49195952D01*
X96189476Y-49316904D01*
X96068523Y-49377380D01*
%TO.C,D2*%
D11*
X111021904Y-96802380D02*
X111021904Y-95802380D01*
X111260000Y-95802380D01*
X111402857Y-95850000D01*
X111498095Y-95945238D01*
X111545714Y-96040476D01*
X111593333Y-96230952D01*
X111593333Y-96373809D01*
X111545714Y-96564285D01*
X111498095Y-96659523D01*
X111402857Y-96754761D01*
X111260000Y-96802380D01*
X111021904Y-96802380D01*
X111974285Y-95897619D02*
X112021904Y-95850000D01*
X112117142Y-95802380D01*
X112355238Y-95802380D01*
X112450476Y-95850000D01*
X112498095Y-95897619D01*
X112545714Y-95992857D01*
X112545714Y-96088095D01*
X112498095Y-96230952D01*
X111926666Y-96802380D01*
X112545714Y-96802380D01*
%TO.C,D1*%
X88161904Y-96802380D02*
X88161904Y-95802380D01*
X88400000Y-95802380D01*
X88542857Y-95850000D01*
X88638095Y-95945238D01*
X88685714Y-96040476D01*
X88733333Y-96230952D01*
X88733333Y-96373809D01*
X88685714Y-96564285D01*
X88638095Y-96659523D01*
X88542857Y-96754761D01*
X88400000Y-96802380D01*
X88161904Y-96802380D01*
X89685714Y-96802380D02*
X89114285Y-96802380D01*
X89400000Y-96802380D02*
X89400000Y-95802380D01*
X89304761Y-95945238D01*
X89209523Y-96040476D01*
X89114285Y-96088095D01*
%TO.C,CON7_2*%
D14*
X112203571Y-114570714D02*
X112264047Y-114631190D01*
X112324523Y-114812619D01*
X112324523Y-114933571D01*
X112264047Y-115115000D01*
X112143095Y-115235952D01*
X112022142Y-115296428D01*
X111780238Y-115356904D01*
X111598809Y-115356904D01*
X111356904Y-115296428D01*
X111235952Y-115235952D01*
X111115000Y-115115000D01*
X111054523Y-114933571D01*
X111054523Y-114812619D01*
X111115000Y-114631190D01*
X111175476Y-114570714D01*
X111054523Y-113784523D02*
X111054523Y-113542619D01*
X111115000Y-113421666D01*
X111235952Y-113300714D01*
X111477857Y-113240238D01*
X111901190Y-113240238D01*
X112143095Y-113300714D01*
X112264047Y-113421666D01*
X112324523Y-113542619D01*
X112324523Y-113784523D01*
X112264047Y-113905476D01*
X112143095Y-114026428D01*
X111901190Y-114086904D01*
X111477857Y-114086904D01*
X111235952Y-114026428D01*
X111115000Y-113905476D01*
X111054523Y-113784523D01*
X112324523Y-112695952D02*
X111054523Y-112695952D01*
X112324523Y-111970238D01*
X111054523Y-111970238D01*
X111054523Y-111486428D02*
X111054523Y-110639761D01*
X112324523Y-111184047D01*
X112445476Y-110458333D02*
X112445476Y-109490714D01*
X111175476Y-109248809D02*
X111115000Y-109188333D01*
X111054523Y-109067380D01*
X111054523Y-108765000D01*
X111115000Y-108644047D01*
X111175476Y-108583571D01*
X111296428Y-108523095D01*
X111417380Y-108523095D01*
X111598809Y-108583571D01*
X112324523Y-109309285D01*
X112324523Y-108523095D01*
%TO.C,CON7_1*%
X108393571Y-114570714D02*
X108454047Y-114631190D01*
X108514523Y-114812619D01*
X108514523Y-114933571D01*
X108454047Y-115115000D01*
X108333095Y-115235952D01*
X108212142Y-115296428D01*
X107970238Y-115356904D01*
X107788809Y-115356904D01*
X107546904Y-115296428D01*
X107425952Y-115235952D01*
X107305000Y-115115000D01*
X107244523Y-114933571D01*
X107244523Y-114812619D01*
X107305000Y-114631190D01*
X107365476Y-114570714D01*
X107244523Y-113784523D02*
X107244523Y-113542619D01*
X107305000Y-113421666D01*
X107425952Y-113300714D01*
X107667857Y-113240238D01*
X108091190Y-113240238D01*
X108333095Y-113300714D01*
X108454047Y-113421666D01*
X108514523Y-113542619D01*
X108514523Y-113784523D01*
X108454047Y-113905476D01*
X108333095Y-114026428D01*
X108091190Y-114086904D01*
X107667857Y-114086904D01*
X107425952Y-114026428D01*
X107305000Y-113905476D01*
X107244523Y-113784523D01*
X108514523Y-112695952D02*
X107244523Y-112695952D01*
X108514523Y-111970238D01*
X107244523Y-111970238D01*
X107244523Y-111486428D02*
X107244523Y-110639761D01*
X108514523Y-111184047D01*
X108635476Y-110458333D02*
X108635476Y-109490714D01*
X108514523Y-108523095D02*
X108514523Y-109248809D01*
X108514523Y-108885952D02*
X107244523Y-108885952D01*
X107425952Y-109006904D01*
X107546904Y-109127857D01*
X107607380Y-109248809D01*
%TO.C,CON6_2*%
X89343571Y-114570714D02*
X89404047Y-114631190D01*
X89464523Y-114812619D01*
X89464523Y-114933571D01*
X89404047Y-115115000D01*
X89283095Y-115235952D01*
X89162142Y-115296428D01*
X88920238Y-115356904D01*
X88738809Y-115356904D01*
X88496904Y-115296428D01*
X88375952Y-115235952D01*
X88255000Y-115115000D01*
X88194523Y-114933571D01*
X88194523Y-114812619D01*
X88255000Y-114631190D01*
X88315476Y-114570714D01*
X88194523Y-113784523D02*
X88194523Y-113542619D01*
X88255000Y-113421666D01*
X88375952Y-113300714D01*
X88617857Y-113240238D01*
X89041190Y-113240238D01*
X89283095Y-113300714D01*
X89404047Y-113421666D01*
X89464523Y-113542619D01*
X89464523Y-113784523D01*
X89404047Y-113905476D01*
X89283095Y-114026428D01*
X89041190Y-114086904D01*
X88617857Y-114086904D01*
X88375952Y-114026428D01*
X88255000Y-113905476D01*
X88194523Y-113784523D01*
X89464523Y-112695952D02*
X88194523Y-112695952D01*
X89464523Y-111970238D01*
X88194523Y-111970238D01*
X88194523Y-110821190D02*
X88194523Y-111063095D01*
X88255000Y-111184047D01*
X88315476Y-111244523D01*
X88496904Y-111365476D01*
X88738809Y-111425952D01*
X89222619Y-111425952D01*
X89343571Y-111365476D01*
X89404047Y-111305000D01*
X89464523Y-111184047D01*
X89464523Y-110942142D01*
X89404047Y-110821190D01*
X89343571Y-110760714D01*
X89222619Y-110700238D01*
X88920238Y-110700238D01*
X88799285Y-110760714D01*
X88738809Y-110821190D01*
X88678333Y-110942142D01*
X88678333Y-111184047D01*
X88738809Y-111305000D01*
X88799285Y-111365476D01*
X88920238Y-111425952D01*
X89585476Y-110458333D02*
X89585476Y-109490714D01*
X88315476Y-109248809D02*
X88255000Y-109188333D01*
X88194523Y-109067380D01*
X88194523Y-108765000D01*
X88255000Y-108644047D01*
X88315476Y-108583571D01*
X88436428Y-108523095D01*
X88557380Y-108523095D01*
X88738809Y-108583571D01*
X89464523Y-109309285D01*
X89464523Y-108523095D01*
%TO.C,CON6_1*%
X85533571Y-114570714D02*
X85594047Y-114631190D01*
X85654523Y-114812619D01*
X85654523Y-114933571D01*
X85594047Y-115115000D01*
X85473095Y-115235952D01*
X85352142Y-115296428D01*
X85110238Y-115356904D01*
X84928809Y-115356904D01*
X84686904Y-115296428D01*
X84565952Y-115235952D01*
X84445000Y-115115000D01*
X84384523Y-114933571D01*
X84384523Y-114812619D01*
X84445000Y-114631190D01*
X84505476Y-114570714D01*
X84384523Y-113784523D02*
X84384523Y-113542619D01*
X84445000Y-113421666D01*
X84565952Y-113300714D01*
X84807857Y-113240238D01*
X85231190Y-113240238D01*
X85473095Y-113300714D01*
X85594047Y-113421666D01*
X85654523Y-113542619D01*
X85654523Y-113784523D01*
X85594047Y-113905476D01*
X85473095Y-114026428D01*
X85231190Y-114086904D01*
X84807857Y-114086904D01*
X84565952Y-114026428D01*
X84445000Y-113905476D01*
X84384523Y-113784523D01*
X85654523Y-112695952D02*
X84384523Y-112695952D01*
X85654523Y-111970238D01*
X84384523Y-111970238D01*
X84384523Y-110821190D02*
X84384523Y-111063095D01*
X84445000Y-111184047D01*
X84505476Y-111244523D01*
X84686904Y-111365476D01*
X84928809Y-111425952D01*
X85412619Y-111425952D01*
X85533571Y-111365476D01*
X85594047Y-111305000D01*
X85654523Y-111184047D01*
X85654523Y-110942142D01*
X85594047Y-110821190D01*
X85533571Y-110760714D01*
X85412619Y-110700238D01*
X85110238Y-110700238D01*
X84989285Y-110760714D01*
X84928809Y-110821190D01*
X84868333Y-110942142D01*
X84868333Y-111184047D01*
X84928809Y-111305000D01*
X84989285Y-111365476D01*
X85110238Y-111425952D01*
X85775476Y-110458333D02*
X85775476Y-109490714D01*
X85654523Y-108523095D02*
X85654523Y-109248809D01*
X85654523Y-108885952D02*
X84384523Y-108885952D01*
X84565952Y-109006904D01*
X84686904Y-109127857D01*
X84747380Y-109248809D01*
%TO.C,CON5_4*%
X149033571Y-114570714D02*
X149094047Y-114631190D01*
X149154523Y-114812619D01*
X149154523Y-114933571D01*
X149094047Y-115115000D01*
X148973095Y-115235952D01*
X148852142Y-115296428D01*
X148610238Y-115356904D01*
X148428809Y-115356904D01*
X148186904Y-115296428D01*
X148065952Y-115235952D01*
X147945000Y-115115000D01*
X147884523Y-114933571D01*
X147884523Y-114812619D01*
X147945000Y-114631190D01*
X148005476Y-114570714D01*
X147884523Y-113784523D02*
X147884523Y-113542619D01*
X147945000Y-113421666D01*
X148065952Y-113300714D01*
X148307857Y-113240238D01*
X148731190Y-113240238D01*
X148973095Y-113300714D01*
X149094047Y-113421666D01*
X149154523Y-113542619D01*
X149154523Y-113784523D01*
X149094047Y-113905476D01*
X148973095Y-114026428D01*
X148731190Y-114086904D01*
X148307857Y-114086904D01*
X148065952Y-114026428D01*
X147945000Y-113905476D01*
X147884523Y-113784523D01*
X149154523Y-112695952D02*
X147884523Y-112695952D01*
X149154523Y-111970238D01*
X147884523Y-111970238D01*
X147884523Y-110760714D02*
X147884523Y-111365476D01*
X148489285Y-111425952D01*
X148428809Y-111365476D01*
X148368333Y-111244523D01*
X148368333Y-110942142D01*
X148428809Y-110821190D01*
X148489285Y-110760714D01*
X148610238Y-110700238D01*
X148912619Y-110700238D01*
X149033571Y-110760714D01*
X149094047Y-110821190D01*
X149154523Y-110942142D01*
X149154523Y-111244523D01*
X149094047Y-111365476D01*
X149033571Y-111425952D01*
X149275476Y-110458333D02*
X149275476Y-109490714D01*
X148307857Y-108644047D02*
X149154523Y-108644047D01*
X147824047Y-108946428D02*
X148731190Y-109248809D01*
X148731190Y-108462619D01*
%TO.C,CON5_3*%
X145223571Y-114570714D02*
X145284047Y-114631190D01*
X145344523Y-114812619D01*
X145344523Y-114933571D01*
X145284047Y-115115000D01*
X145163095Y-115235952D01*
X145042142Y-115296428D01*
X144800238Y-115356904D01*
X144618809Y-115356904D01*
X144376904Y-115296428D01*
X144255952Y-115235952D01*
X144135000Y-115115000D01*
X144074523Y-114933571D01*
X144074523Y-114812619D01*
X144135000Y-114631190D01*
X144195476Y-114570714D01*
X144074523Y-113784523D02*
X144074523Y-113542619D01*
X144135000Y-113421666D01*
X144255952Y-113300714D01*
X144497857Y-113240238D01*
X144921190Y-113240238D01*
X145163095Y-113300714D01*
X145284047Y-113421666D01*
X145344523Y-113542619D01*
X145344523Y-113784523D01*
X145284047Y-113905476D01*
X145163095Y-114026428D01*
X144921190Y-114086904D01*
X144497857Y-114086904D01*
X144255952Y-114026428D01*
X144135000Y-113905476D01*
X144074523Y-113784523D01*
X145344523Y-112695952D02*
X144074523Y-112695952D01*
X145344523Y-111970238D01*
X144074523Y-111970238D01*
X144074523Y-110760714D02*
X144074523Y-111365476D01*
X144679285Y-111425952D01*
X144618809Y-111365476D01*
X144558333Y-111244523D01*
X144558333Y-110942142D01*
X144618809Y-110821190D01*
X144679285Y-110760714D01*
X144800238Y-110700238D01*
X145102619Y-110700238D01*
X145223571Y-110760714D01*
X145284047Y-110821190D01*
X145344523Y-110942142D01*
X145344523Y-111244523D01*
X145284047Y-111365476D01*
X145223571Y-111425952D01*
X145465476Y-110458333D02*
X145465476Y-109490714D01*
X144074523Y-109309285D02*
X144074523Y-108523095D01*
X144558333Y-108946428D01*
X144558333Y-108765000D01*
X144618809Y-108644047D01*
X144679285Y-108583571D01*
X144800238Y-108523095D01*
X145102619Y-108523095D01*
X145223571Y-108583571D01*
X145284047Y-108644047D01*
X145344523Y-108765000D01*
X145344523Y-109127857D01*
X145284047Y-109248809D01*
X145223571Y-109309285D01*
%TO.C,CON5_2*%
X141413571Y-114570714D02*
X141474047Y-114631190D01*
X141534523Y-114812619D01*
X141534523Y-114933571D01*
X141474047Y-115115000D01*
X141353095Y-115235952D01*
X141232142Y-115296428D01*
X140990238Y-115356904D01*
X140808809Y-115356904D01*
X140566904Y-115296428D01*
X140445952Y-115235952D01*
X140325000Y-115115000D01*
X140264523Y-114933571D01*
X140264523Y-114812619D01*
X140325000Y-114631190D01*
X140385476Y-114570714D01*
X140264523Y-113784523D02*
X140264523Y-113542619D01*
X140325000Y-113421666D01*
X140445952Y-113300714D01*
X140687857Y-113240238D01*
X141111190Y-113240238D01*
X141353095Y-113300714D01*
X141474047Y-113421666D01*
X141534523Y-113542619D01*
X141534523Y-113784523D01*
X141474047Y-113905476D01*
X141353095Y-114026428D01*
X141111190Y-114086904D01*
X140687857Y-114086904D01*
X140445952Y-114026428D01*
X140325000Y-113905476D01*
X140264523Y-113784523D01*
X141534523Y-112695952D02*
X140264523Y-112695952D01*
X141534523Y-111970238D01*
X140264523Y-111970238D01*
X140264523Y-110760714D02*
X140264523Y-111365476D01*
X140869285Y-111425952D01*
X140808809Y-111365476D01*
X140748333Y-111244523D01*
X140748333Y-110942142D01*
X140808809Y-110821190D01*
X140869285Y-110760714D01*
X140990238Y-110700238D01*
X141292619Y-110700238D01*
X141413571Y-110760714D01*
X141474047Y-110821190D01*
X141534523Y-110942142D01*
X141534523Y-111244523D01*
X141474047Y-111365476D01*
X141413571Y-111425952D01*
X141655476Y-110458333D02*
X141655476Y-109490714D01*
X140385476Y-109248809D02*
X140325000Y-109188333D01*
X140264523Y-109067380D01*
X140264523Y-108765000D01*
X140325000Y-108644047D01*
X140385476Y-108583571D01*
X140506428Y-108523095D01*
X140627380Y-108523095D01*
X140808809Y-108583571D01*
X141534523Y-109309285D01*
X141534523Y-108523095D01*
%TO.C,CON5_1*%
X137603571Y-114570714D02*
X137664047Y-114631190D01*
X137724523Y-114812619D01*
X137724523Y-114933571D01*
X137664047Y-115115000D01*
X137543095Y-115235952D01*
X137422142Y-115296428D01*
X137180238Y-115356904D01*
X136998809Y-115356904D01*
X136756904Y-115296428D01*
X136635952Y-115235952D01*
X136515000Y-115115000D01*
X136454523Y-114933571D01*
X136454523Y-114812619D01*
X136515000Y-114631190D01*
X136575476Y-114570714D01*
X136454523Y-113784523D02*
X136454523Y-113542619D01*
X136515000Y-113421666D01*
X136635952Y-113300714D01*
X136877857Y-113240238D01*
X137301190Y-113240238D01*
X137543095Y-113300714D01*
X137664047Y-113421666D01*
X137724523Y-113542619D01*
X137724523Y-113784523D01*
X137664047Y-113905476D01*
X137543095Y-114026428D01*
X137301190Y-114086904D01*
X136877857Y-114086904D01*
X136635952Y-114026428D01*
X136515000Y-113905476D01*
X136454523Y-113784523D01*
X137724523Y-112695952D02*
X136454523Y-112695952D01*
X137724523Y-111970238D01*
X136454523Y-111970238D01*
X136454523Y-110760714D02*
X136454523Y-111365476D01*
X137059285Y-111425952D01*
X136998809Y-111365476D01*
X136938333Y-111244523D01*
X136938333Y-110942142D01*
X136998809Y-110821190D01*
X137059285Y-110760714D01*
X137180238Y-110700238D01*
X137482619Y-110700238D01*
X137603571Y-110760714D01*
X137664047Y-110821190D01*
X137724523Y-110942142D01*
X137724523Y-111244523D01*
X137664047Y-111365476D01*
X137603571Y-111425952D01*
X137845476Y-110458333D02*
X137845476Y-109490714D01*
X137724523Y-108523095D02*
X137724523Y-109248809D01*
X137724523Y-108885952D02*
X136454523Y-108885952D01*
X136635952Y-109006904D01*
X136756904Y-109127857D01*
X136817380Y-109248809D01*
%TO.C,CON4_4*%
X131253571Y-114570714D02*
X131314047Y-114631190D01*
X131374523Y-114812619D01*
X131374523Y-114933571D01*
X131314047Y-115115000D01*
X131193095Y-115235952D01*
X131072142Y-115296428D01*
X130830238Y-115356904D01*
X130648809Y-115356904D01*
X130406904Y-115296428D01*
X130285952Y-115235952D01*
X130165000Y-115115000D01*
X130104523Y-114933571D01*
X130104523Y-114812619D01*
X130165000Y-114631190D01*
X130225476Y-114570714D01*
X130104523Y-113784523D02*
X130104523Y-113542619D01*
X130165000Y-113421666D01*
X130285952Y-113300714D01*
X130527857Y-113240238D01*
X130951190Y-113240238D01*
X131193095Y-113300714D01*
X131314047Y-113421666D01*
X131374523Y-113542619D01*
X131374523Y-113784523D01*
X131314047Y-113905476D01*
X131193095Y-114026428D01*
X130951190Y-114086904D01*
X130527857Y-114086904D01*
X130285952Y-114026428D01*
X130165000Y-113905476D01*
X130104523Y-113784523D01*
X131374523Y-112695952D02*
X130104523Y-112695952D01*
X131374523Y-111970238D01*
X130104523Y-111970238D01*
X130527857Y-110821190D02*
X131374523Y-110821190D01*
X130044047Y-111123571D02*
X130951190Y-111425952D01*
X130951190Y-110639761D01*
X131495476Y-110458333D02*
X131495476Y-109490714D01*
X130527857Y-108644047D02*
X131374523Y-108644047D01*
X130044047Y-108946428D02*
X130951190Y-109248809D01*
X130951190Y-108462619D01*
%TO.C,CON4_3*%
X127443571Y-114570714D02*
X127504047Y-114631190D01*
X127564523Y-114812619D01*
X127564523Y-114933571D01*
X127504047Y-115115000D01*
X127383095Y-115235952D01*
X127262142Y-115296428D01*
X127020238Y-115356904D01*
X126838809Y-115356904D01*
X126596904Y-115296428D01*
X126475952Y-115235952D01*
X126355000Y-115115000D01*
X126294523Y-114933571D01*
X126294523Y-114812619D01*
X126355000Y-114631190D01*
X126415476Y-114570714D01*
X126294523Y-113784523D02*
X126294523Y-113542619D01*
X126355000Y-113421666D01*
X126475952Y-113300714D01*
X126717857Y-113240238D01*
X127141190Y-113240238D01*
X127383095Y-113300714D01*
X127504047Y-113421666D01*
X127564523Y-113542619D01*
X127564523Y-113784523D01*
X127504047Y-113905476D01*
X127383095Y-114026428D01*
X127141190Y-114086904D01*
X126717857Y-114086904D01*
X126475952Y-114026428D01*
X126355000Y-113905476D01*
X126294523Y-113784523D01*
X127564523Y-112695952D02*
X126294523Y-112695952D01*
X127564523Y-111970238D01*
X126294523Y-111970238D01*
X126717857Y-110821190D02*
X127564523Y-110821190D01*
X126234047Y-111123571D02*
X127141190Y-111425952D01*
X127141190Y-110639761D01*
X127685476Y-110458333D02*
X127685476Y-109490714D01*
X126294523Y-109309285D02*
X126294523Y-108523095D01*
X126778333Y-108946428D01*
X126778333Y-108765000D01*
X126838809Y-108644047D01*
X126899285Y-108583571D01*
X127020238Y-108523095D01*
X127322619Y-108523095D01*
X127443571Y-108583571D01*
X127504047Y-108644047D01*
X127564523Y-108765000D01*
X127564523Y-109127857D01*
X127504047Y-109248809D01*
X127443571Y-109309285D01*
%TO.C,CON4_2*%
X123633571Y-114570714D02*
X123694047Y-114631190D01*
X123754523Y-114812619D01*
X123754523Y-114933571D01*
X123694047Y-115115000D01*
X123573095Y-115235952D01*
X123452142Y-115296428D01*
X123210238Y-115356904D01*
X123028809Y-115356904D01*
X122786904Y-115296428D01*
X122665952Y-115235952D01*
X122545000Y-115115000D01*
X122484523Y-114933571D01*
X122484523Y-114812619D01*
X122545000Y-114631190D01*
X122605476Y-114570714D01*
X122484523Y-113784523D02*
X122484523Y-113542619D01*
X122545000Y-113421666D01*
X122665952Y-113300714D01*
X122907857Y-113240238D01*
X123331190Y-113240238D01*
X123573095Y-113300714D01*
X123694047Y-113421666D01*
X123754523Y-113542619D01*
X123754523Y-113784523D01*
X123694047Y-113905476D01*
X123573095Y-114026428D01*
X123331190Y-114086904D01*
X122907857Y-114086904D01*
X122665952Y-114026428D01*
X122545000Y-113905476D01*
X122484523Y-113784523D01*
X123754523Y-112695952D02*
X122484523Y-112695952D01*
X123754523Y-111970238D01*
X122484523Y-111970238D01*
X122907857Y-110821190D02*
X123754523Y-110821190D01*
X122424047Y-111123571D02*
X123331190Y-111425952D01*
X123331190Y-110639761D01*
X123875476Y-110458333D02*
X123875476Y-109490714D01*
X122605476Y-109248809D02*
X122545000Y-109188333D01*
X122484523Y-109067380D01*
X122484523Y-108765000D01*
X122545000Y-108644047D01*
X122605476Y-108583571D01*
X122726428Y-108523095D01*
X122847380Y-108523095D01*
X123028809Y-108583571D01*
X123754523Y-109309285D01*
X123754523Y-108523095D01*
%TO.C,CON4_1*%
X119823571Y-114570714D02*
X119884047Y-114631190D01*
X119944523Y-114812619D01*
X119944523Y-114933571D01*
X119884047Y-115115000D01*
X119763095Y-115235952D01*
X119642142Y-115296428D01*
X119400238Y-115356904D01*
X119218809Y-115356904D01*
X118976904Y-115296428D01*
X118855952Y-115235952D01*
X118735000Y-115115000D01*
X118674523Y-114933571D01*
X118674523Y-114812619D01*
X118735000Y-114631190D01*
X118795476Y-114570714D01*
X118674523Y-113784523D02*
X118674523Y-113542619D01*
X118735000Y-113421666D01*
X118855952Y-113300714D01*
X119097857Y-113240238D01*
X119521190Y-113240238D01*
X119763095Y-113300714D01*
X119884047Y-113421666D01*
X119944523Y-113542619D01*
X119944523Y-113784523D01*
X119884047Y-113905476D01*
X119763095Y-114026428D01*
X119521190Y-114086904D01*
X119097857Y-114086904D01*
X118855952Y-114026428D01*
X118735000Y-113905476D01*
X118674523Y-113784523D01*
X119944523Y-112695952D02*
X118674523Y-112695952D01*
X119944523Y-111970238D01*
X118674523Y-111970238D01*
X119097857Y-110821190D02*
X119944523Y-110821190D01*
X118614047Y-111123571D02*
X119521190Y-111425952D01*
X119521190Y-110639761D01*
X120065476Y-110458333D02*
X120065476Y-109490714D01*
X119944523Y-108523095D02*
X119944523Y-109248809D01*
X119944523Y-108885952D02*
X118674523Y-108885952D01*
X118855952Y-109006904D01*
X118976904Y-109127857D01*
X119037380Y-109248809D01*
%TO.C,CON3_6*%
X134773285Y-53719571D02*
X134712809Y-53780047D01*
X134531380Y-53840523D01*
X134410428Y-53840523D01*
X134229000Y-53780047D01*
X134108047Y-53659095D01*
X134047571Y-53538142D01*
X133987095Y-53296238D01*
X133987095Y-53114809D01*
X134047571Y-52872904D01*
X134108047Y-52751952D01*
X134229000Y-52631000D01*
X134410428Y-52570523D01*
X134531380Y-52570523D01*
X134712809Y-52631000D01*
X134773285Y-52691476D01*
X135559476Y-52570523D02*
X135801380Y-52570523D01*
X135922333Y-52631000D01*
X136043285Y-52751952D01*
X136103761Y-52993857D01*
X136103761Y-53417190D01*
X136043285Y-53659095D01*
X135922333Y-53780047D01*
X135801380Y-53840523D01*
X135559476Y-53840523D01*
X135438523Y-53780047D01*
X135317571Y-53659095D01*
X135257095Y-53417190D01*
X135257095Y-52993857D01*
X135317571Y-52751952D01*
X135438523Y-52631000D01*
X135559476Y-52570523D01*
X136648047Y-53840523D02*
X136648047Y-52570523D01*
X137373761Y-53840523D01*
X137373761Y-52570523D01*
X137857571Y-52570523D02*
X138643761Y-52570523D01*
X138220428Y-53054333D01*
X138401857Y-53054333D01*
X138522809Y-53114809D01*
X138583285Y-53175285D01*
X138643761Y-53296238D01*
X138643761Y-53598619D01*
X138583285Y-53719571D01*
X138522809Y-53780047D01*
X138401857Y-53840523D01*
X138039000Y-53840523D01*
X137918047Y-53780047D01*
X137857571Y-53719571D01*
X138885666Y-53961476D02*
X139853285Y-53961476D01*
X140699952Y-52570523D02*
X140458047Y-52570523D01*
X140337095Y-52631000D01*
X140276619Y-52691476D01*
X140155666Y-52872904D01*
X140095190Y-53114809D01*
X140095190Y-53598619D01*
X140155666Y-53719571D01*
X140216142Y-53780047D01*
X140337095Y-53840523D01*
X140579000Y-53840523D01*
X140699952Y-53780047D01*
X140760428Y-53719571D01*
X140820904Y-53598619D01*
X140820904Y-53296238D01*
X140760428Y-53175285D01*
X140699952Y-53114809D01*
X140579000Y-53054333D01*
X140337095Y-53054333D01*
X140216142Y-53114809D01*
X140155666Y-53175285D01*
X140095190Y-53296238D01*
%TO.C,CON3_5*%
X134773285Y-57529571D02*
X134712809Y-57590047D01*
X134531380Y-57650523D01*
X134410428Y-57650523D01*
X134229000Y-57590047D01*
X134108047Y-57469095D01*
X134047571Y-57348142D01*
X133987095Y-57106238D01*
X133987095Y-56924809D01*
X134047571Y-56682904D01*
X134108047Y-56561952D01*
X134229000Y-56441000D01*
X134410428Y-56380523D01*
X134531380Y-56380523D01*
X134712809Y-56441000D01*
X134773285Y-56501476D01*
X135559476Y-56380523D02*
X135801380Y-56380523D01*
X135922333Y-56441000D01*
X136043285Y-56561952D01*
X136103761Y-56803857D01*
X136103761Y-57227190D01*
X136043285Y-57469095D01*
X135922333Y-57590047D01*
X135801380Y-57650523D01*
X135559476Y-57650523D01*
X135438523Y-57590047D01*
X135317571Y-57469095D01*
X135257095Y-57227190D01*
X135257095Y-56803857D01*
X135317571Y-56561952D01*
X135438523Y-56441000D01*
X135559476Y-56380523D01*
X136648047Y-57650523D02*
X136648047Y-56380523D01*
X137373761Y-57650523D01*
X137373761Y-56380523D01*
X137857571Y-56380523D02*
X138643761Y-56380523D01*
X138220428Y-56864333D01*
X138401857Y-56864333D01*
X138522809Y-56924809D01*
X138583285Y-56985285D01*
X138643761Y-57106238D01*
X138643761Y-57408619D01*
X138583285Y-57529571D01*
X138522809Y-57590047D01*
X138401857Y-57650523D01*
X138039000Y-57650523D01*
X137918047Y-57590047D01*
X137857571Y-57529571D01*
X138885666Y-57771476D02*
X139853285Y-57771476D01*
X140760428Y-56380523D02*
X140155666Y-56380523D01*
X140095190Y-56985285D01*
X140155666Y-56924809D01*
X140276619Y-56864333D01*
X140579000Y-56864333D01*
X140699952Y-56924809D01*
X140760428Y-56985285D01*
X140820904Y-57106238D01*
X140820904Y-57408619D01*
X140760428Y-57529571D01*
X140699952Y-57590047D01*
X140579000Y-57650523D01*
X140276619Y-57650523D01*
X140155666Y-57590047D01*
X140095190Y-57529571D01*
%TO.C,CON3_4*%
X134773285Y-61339571D02*
X134712809Y-61400047D01*
X134531380Y-61460523D01*
X134410428Y-61460523D01*
X134229000Y-61400047D01*
X134108047Y-61279095D01*
X134047571Y-61158142D01*
X133987095Y-60916238D01*
X133987095Y-60734809D01*
X134047571Y-60492904D01*
X134108047Y-60371952D01*
X134229000Y-60251000D01*
X134410428Y-60190523D01*
X134531380Y-60190523D01*
X134712809Y-60251000D01*
X134773285Y-60311476D01*
X135559476Y-60190523D02*
X135801380Y-60190523D01*
X135922333Y-60251000D01*
X136043285Y-60371952D01*
X136103761Y-60613857D01*
X136103761Y-61037190D01*
X136043285Y-61279095D01*
X135922333Y-61400047D01*
X135801380Y-61460523D01*
X135559476Y-61460523D01*
X135438523Y-61400047D01*
X135317571Y-61279095D01*
X135257095Y-61037190D01*
X135257095Y-60613857D01*
X135317571Y-60371952D01*
X135438523Y-60251000D01*
X135559476Y-60190523D01*
X136648047Y-61460523D02*
X136648047Y-60190523D01*
X137373761Y-61460523D01*
X137373761Y-60190523D01*
X137857571Y-60190523D02*
X138643761Y-60190523D01*
X138220428Y-60674333D01*
X138401857Y-60674333D01*
X138522809Y-60734809D01*
X138583285Y-60795285D01*
X138643761Y-60916238D01*
X138643761Y-61218619D01*
X138583285Y-61339571D01*
X138522809Y-61400047D01*
X138401857Y-61460523D01*
X138039000Y-61460523D01*
X137918047Y-61400047D01*
X137857571Y-61339571D01*
X138885666Y-61581476D02*
X139853285Y-61581476D01*
X140699952Y-60613857D02*
X140699952Y-61460523D01*
X140397571Y-60130047D02*
X140095190Y-61037190D01*
X140881380Y-61037190D01*
%TO.C,CON3_3*%
X134773285Y-65403571D02*
X134712809Y-65464047D01*
X134531380Y-65524523D01*
X134410428Y-65524523D01*
X134229000Y-65464047D01*
X134108047Y-65343095D01*
X134047571Y-65222142D01*
X133987095Y-64980238D01*
X133987095Y-64798809D01*
X134047571Y-64556904D01*
X134108047Y-64435952D01*
X134229000Y-64315000D01*
X134410428Y-64254523D01*
X134531380Y-64254523D01*
X134712809Y-64315000D01*
X134773285Y-64375476D01*
X135559476Y-64254523D02*
X135801380Y-64254523D01*
X135922333Y-64315000D01*
X136043285Y-64435952D01*
X136103761Y-64677857D01*
X136103761Y-65101190D01*
X136043285Y-65343095D01*
X135922333Y-65464047D01*
X135801380Y-65524523D01*
X135559476Y-65524523D01*
X135438523Y-65464047D01*
X135317571Y-65343095D01*
X135257095Y-65101190D01*
X135257095Y-64677857D01*
X135317571Y-64435952D01*
X135438523Y-64315000D01*
X135559476Y-64254523D01*
X136648047Y-65524523D02*
X136648047Y-64254523D01*
X137373761Y-65524523D01*
X137373761Y-64254523D01*
X137857571Y-64254523D02*
X138643761Y-64254523D01*
X138220428Y-64738333D01*
X138401857Y-64738333D01*
X138522809Y-64798809D01*
X138583285Y-64859285D01*
X138643761Y-64980238D01*
X138643761Y-65282619D01*
X138583285Y-65403571D01*
X138522809Y-65464047D01*
X138401857Y-65524523D01*
X138039000Y-65524523D01*
X137918047Y-65464047D01*
X137857571Y-65403571D01*
X138885666Y-65645476D02*
X139853285Y-65645476D01*
X140034714Y-64254523D02*
X140820904Y-64254523D01*
X140397571Y-64738333D01*
X140579000Y-64738333D01*
X140699952Y-64798809D01*
X140760428Y-64859285D01*
X140820904Y-64980238D01*
X140820904Y-65282619D01*
X140760428Y-65403571D01*
X140699952Y-65464047D01*
X140579000Y-65524523D01*
X140216142Y-65524523D01*
X140095190Y-65464047D01*
X140034714Y-65403571D01*
%TO.C,CON3_2*%
X134773285Y-68959571D02*
X134712809Y-69020047D01*
X134531380Y-69080523D01*
X134410428Y-69080523D01*
X134229000Y-69020047D01*
X134108047Y-68899095D01*
X134047571Y-68778142D01*
X133987095Y-68536238D01*
X133987095Y-68354809D01*
X134047571Y-68112904D01*
X134108047Y-67991952D01*
X134229000Y-67871000D01*
X134410428Y-67810523D01*
X134531380Y-67810523D01*
X134712809Y-67871000D01*
X134773285Y-67931476D01*
X135559476Y-67810523D02*
X135801380Y-67810523D01*
X135922333Y-67871000D01*
X136043285Y-67991952D01*
X136103761Y-68233857D01*
X136103761Y-68657190D01*
X136043285Y-68899095D01*
X135922333Y-69020047D01*
X135801380Y-69080523D01*
X135559476Y-69080523D01*
X135438523Y-69020047D01*
X135317571Y-68899095D01*
X135257095Y-68657190D01*
X135257095Y-68233857D01*
X135317571Y-67991952D01*
X135438523Y-67871000D01*
X135559476Y-67810523D01*
X136648047Y-69080523D02*
X136648047Y-67810523D01*
X137373761Y-69080523D01*
X137373761Y-67810523D01*
X137857571Y-67810523D02*
X138643761Y-67810523D01*
X138220428Y-68294333D01*
X138401857Y-68294333D01*
X138522809Y-68354809D01*
X138583285Y-68415285D01*
X138643761Y-68536238D01*
X138643761Y-68838619D01*
X138583285Y-68959571D01*
X138522809Y-69020047D01*
X138401857Y-69080523D01*
X138039000Y-69080523D01*
X137918047Y-69020047D01*
X137857571Y-68959571D01*
X138885666Y-69201476D02*
X139853285Y-69201476D01*
X140095190Y-67931476D02*
X140155666Y-67871000D01*
X140276619Y-67810523D01*
X140579000Y-67810523D01*
X140699952Y-67871000D01*
X140760428Y-67931476D01*
X140820904Y-68052428D01*
X140820904Y-68173380D01*
X140760428Y-68354809D01*
X140034714Y-69080523D01*
X140820904Y-69080523D01*
%TO.C,CON3_1*%
X134773285Y-73023571D02*
X134712809Y-73084047D01*
X134531380Y-73144523D01*
X134410428Y-73144523D01*
X134229000Y-73084047D01*
X134108047Y-72963095D01*
X134047571Y-72842142D01*
X133987095Y-72600238D01*
X133987095Y-72418809D01*
X134047571Y-72176904D01*
X134108047Y-72055952D01*
X134229000Y-71935000D01*
X134410428Y-71874523D01*
X134531380Y-71874523D01*
X134712809Y-71935000D01*
X134773285Y-71995476D01*
X135559476Y-71874523D02*
X135801380Y-71874523D01*
X135922333Y-71935000D01*
X136043285Y-72055952D01*
X136103761Y-72297857D01*
X136103761Y-72721190D01*
X136043285Y-72963095D01*
X135922333Y-73084047D01*
X135801380Y-73144523D01*
X135559476Y-73144523D01*
X135438523Y-73084047D01*
X135317571Y-72963095D01*
X135257095Y-72721190D01*
X135257095Y-72297857D01*
X135317571Y-72055952D01*
X135438523Y-71935000D01*
X135559476Y-71874523D01*
X136648047Y-73144523D02*
X136648047Y-71874523D01*
X137373761Y-73144523D01*
X137373761Y-71874523D01*
X137857571Y-71874523D02*
X138643761Y-71874523D01*
X138220428Y-72358333D01*
X138401857Y-72358333D01*
X138522809Y-72418809D01*
X138583285Y-72479285D01*
X138643761Y-72600238D01*
X138643761Y-72902619D01*
X138583285Y-73023571D01*
X138522809Y-73084047D01*
X138401857Y-73144523D01*
X138039000Y-73144523D01*
X137918047Y-73084047D01*
X137857571Y-73023571D01*
X138885666Y-73265476D02*
X139853285Y-73265476D01*
X140820904Y-73144523D02*
X140095190Y-73144523D01*
X140458047Y-73144523D02*
X140458047Y-71874523D01*
X140337095Y-72055952D01*
X140216142Y-72176904D01*
X140095190Y-72237380D01*
%TO.C,CON2_6*%
X134773285Y-79119571D02*
X134712809Y-79180047D01*
X134531380Y-79240523D01*
X134410428Y-79240523D01*
X134229000Y-79180047D01*
X134108047Y-79059095D01*
X134047571Y-78938142D01*
X133987095Y-78696238D01*
X133987095Y-78514809D01*
X134047571Y-78272904D01*
X134108047Y-78151952D01*
X134229000Y-78031000D01*
X134410428Y-77970523D01*
X134531380Y-77970523D01*
X134712809Y-78031000D01*
X134773285Y-78091476D01*
X135559476Y-77970523D02*
X135801380Y-77970523D01*
X135922333Y-78031000D01*
X136043285Y-78151952D01*
X136103761Y-78393857D01*
X136103761Y-78817190D01*
X136043285Y-79059095D01*
X135922333Y-79180047D01*
X135801380Y-79240523D01*
X135559476Y-79240523D01*
X135438523Y-79180047D01*
X135317571Y-79059095D01*
X135257095Y-78817190D01*
X135257095Y-78393857D01*
X135317571Y-78151952D01*
X135438523Y-78031000D01*
X135559476Y-77970523D01*
X136648047Y-79240523D02*
X136648047Y-77970523D01*
X137373761Y-79240523D01*
X137373761Y-77970523D01*
X137918047Y-78091476D02*
X137978523Y-78031000D01*
X138099476Y-77970523D01*
X138401857Y-77970523D01*
X138522809Y-78031000D01*
X138583285Y-78091476D01*
X138643761Y-78212428D01*
X138643761Y-78333380D01*
X138583285Y-78514809D01*
X137857571Y-79240523D01*
X138643761Y-79240523D01*
X138885666Y-79361476D02*
X139853285Y-79361476D01*
X140699952Y-77970523D02*
X140458047Y-77970523D01*
X140337095Y-78031000D01*
X140276619Y-78091476D01*
X140155666Y-78272904D01*
X140095190Y-78514809D01*
X140095190Y-78998619D01*
X140155666Y-79119571D01*
X140216142Y-79180047D01*
X140337095Y-79240523D01*
X140579000Y-79240523D01*
X140699952Y-79180047D01*
X140760428Y-79119571D01*
X140820904Y-78998619D01*
X140820904Y-78696238D01*
X140760428Y-78575285D01*
X140699952Y-78514809D01*
X140579000Y-78454333D01*
X140337095Y-78454333D01*
X140216142Y-78514809D01*
X140155666Y-78575285D01*
X140095190Y-78696238D01*
%TO.C,CON2_5*%
X134773285Y-82929571D02*
X134712809Y-82990047D01*
X134531380Y-83050523D01*
X134410428Y-83050523D01*
X134229000Y-82990047D01*
X134108047Y-82869095D01*
X134047571Y-82748142D01*
X133987095Y-82506238D01*
X133987095Y-82324809D01*
X134047571Y-82082904D01*
X134108047Y-81961952D01*
X134229000Y-81841000D01*
X134410428Y-81780523D01*
X134531380Y-81780523D01*
X134712809Y-81841000D01*
X134773285Y-81901476D01*
X135559476Y-81780523D02*
X135801380Y-81780523D01*
X135922333Y-81841000D01*
X136043285Y-81961952D01*
X136103761Y-82203857D01*
X136103761Y-82627190D01*
X136043285Y-82869095D01*
X135922333Y-82990047D01*
X135801380Y-83050523D01*
X135559476Y-83050523D01*
X135438523Y-82990047D01*
X135317571Y-82869095D01*
X135257095Y-82627190D01*
X135257095Y-82203857D01*
X135317571Y-81961952D01*
X135438523Y-81841000D01*
X135559476Y-81780523D01*
X136648047Y-83050523D02*
X136648047Y-81780523D01*
X137373761Y-83050523D01*
X137373761Y-81780523D01*
X137918047Y-81901476D02*
X137978523Y-81841000D01*
X138099476Y-81780523D01*
X138401857Y-81780523D01*
X138522809Y-81841000D01*
X138583285Y-81901476D01*
X138643761Y-82022428D01*
X138643761Y-82143380D01*
X138583285Y-82324809D01*
X137857571Y-83050523D01*
X138643761Y-83050523D01*
X138885666Y-83171476D02*
X139853285Y-83171476D01*
X140760428Y-81780523D02*
X140155666Y-81780523D01*
X140095190Y-82385285D01*
X140155666Y-82324809D01*
X140276619Y-82264333D01*
X140579000Y-82264333D01*
X140699952Y-82324809D01*
X140760428Y-82385285D01*
X140820904Y-82506238D01*
X140820904Y-82808619D01*
X140760428Y-82929571D01*
X140699952Y-82990047D01*
X140579000Y-83050523D01*
X140276619Y-83050523D01*
X140155666Y-82990047D01*
X140095190Y-82929571D01*
%TO.C,CON2_4*%
X134773285Y-86739571D02*
X134712809Y-86800047D01*
X134531380Y-86860523D01*
X134410428Y-86860523D01*
X134229000Y-86800047D01*
X134108047Y-86679095D01*
X134047571Y-86558142D01*
X133987095Y-86316238D01*
X133987095Y-86134809D01*
X134047571Y-85892904D01*
X134108047Y-85771952D01*
X134229000Y-85651000D01*
X134410428Y-85590523D01*
X134531380Y-85590523D01*
X134712809Y-85651000D01*
X134773285Y-85711476D01*
X135559476Y-85590523D02*
X135801380Y-85590523D01*
X135922333Y-85651000D01*
X136043285Y-85771952D01*
X136103761Y-86013857D01*
X136103761Y-86437190D01*
X136043285Y-86679095D01*
X135922333Y-86800047D01*
X135801380Y-86860523D01*
X135559476Y-86860523D01*
X135438523Y-86800047D01*
X135317571Y-86679095D01*
X135257095Y-86437190D01*
X135257095Y-86013857D01*
X135317571Y-85771952D01*
X135438523Y-85651000D01*
X135559476Y-85590523D01*
X136648047Y-86860523D02*
X136648047Y-85590523D01*
X137373761Y-86860523D01*
X137373761Y-85590523D01*
X137918047Y-85711476D02*
X137978523Y-85651000D01*
X138099476Y-85590523D01*
X138401857Y-85590523D01*
X138522809Y-85651000D01*
X138583285Y-85711476D01*
X138643761Y-85832428D01*
X138643761Y-85953380D01*
X138583285Y-86134809D01*
X137857571Y-86860523D01*
X138643761Y-86860523D01*
X138885666Y-86981476D02*
X139853285Y-86981476D01*
X140699952Y-86013857D02*
X140699952Y-86860523D01*
X140397571Y-85530047D02*
X140095190Y-86437190D01*
X140881380Y-86437190D01*
%TO.C,CON2_3*%
X134773285Y-90549571D02*
X134712809Y-90610047D01*
X134531380Y-90670523D01*
X134410428Y-90670523D01*
X134229000Y-90610047D01*
X134108047Y-90489095D01*
X134047571Y-90368142D01*
X133987095Y-90126238D01*
X133987095Y-89944809D01*
X134047571Y-89702904D01*
X134108047Y-89581952D01*
X134229000Y-89461000D01*
X134410428Y-89400523D01*
X134531380Y-89400523D01*
X134712809Y-89461000D01*
X134773285Y-89521476D01*
X135559476Y-89400523D02*
X135801380Y-89400523D01*
X135922333Y-89461000D01*
X136043285Y-89581952D01*
X136103761Y-89823857D01*
X136103761Y-90247190D01*
X136043285Y-90489095D01*
X135922333Y-90610047D01*
X135801380Y-90670523D01*
X135559476Y-90670523D01*
X135438523Y-90610047D01*
X135317571Y-90489095D01*
X135257095Y-90247190D01*
X135257095Y-89823857D01*
X135317571Y-89581952D01*
X135438523Y-89461000D01*
X135559476Y-89400523D01*
X136648047Y-90670523D02*
X136648047Y-89400523D01*
X137373761Y-90670523D01*
X137373761Y-89400523D01*
X137918047Y-89521476D02*
X137978523Y-89461000D01*
X138099476Y-89400523D01*
X138401857Y-89400523D01*
X138522809Y-89461000D01*
X138583285Y-89521476D01*
X138643761Y-89642428D01*
X138643761Y-89763380D01*
X138583285Y-89944809D01*
X137857571Y-90670523D01*
X138643761Y-90670523D01*
X138885666Y-90791476D02*
X139853285Y-90791476D01*
X140034714Y-89400523D02*
X140820904Y-89400523D01*
X140397571Y-89884333D01*
X140579000Y-89884333D01*
X140699952Y-89944809D01*
X140760428Y-90005285D01*
X140820904Y-90126238D01*
X140820904Y-90428619D01*
X140760428Y-90549571D01*
X140699952Y-90610047D01*
X140579000Y-90670523D01*
X140216142Y-90670523D01*
X140095190Y-90610047D01*
X140034714Y-90549571D01*
%TO.C,CON2_2*%
X134773285Y-94359571D02*
X134712809Y-94420047D01*
X134531380Y-94480523D01*
X134410428Y-94480523D01*
X134229000Y-94420047D01*
X134108047Y-94299095D01*
X134047571Y-94178142D01*
X133987095Y-93936238D01*
X133987095Y-93754809D01*
X134047571Y-93512904D01*
X134108047Y-93391952D01*
X134229000Y-93271000D01*
X134410428Y-93210523D01*
X134531380Y-93210523D01*
X134712809Y-93271000D01*
X134773285Y-93331476D01*
X135559476Y-93210523D02*
X135801380Y-93210523D01*
X135922333Y-93271000D01*
X136043285Y-93391952D01*
X136103761Y-93633857D01*
X136103761Y-94057190D01*
X136043285Y-94299095D01*
X135922333Y-94420047D01*
X135801380Y-94480523D01*
X135559476Y-94480523D01*
X135438523Y-94420047D01*
X135317571Y-94299095D01*
X135257095Y-94057190D01*
X135257095Y-93633857D01*
X135317571Y-93391952D01*
X135438523Y-93271000D01*
X135559476Y-93210523D01*
X136648047Y-94480523D02*
X136648047Y-93210523D01*
X137373761Y-94480523D01*
X137373761Y-93210523D01*
X137918047Y-93331476D02*
X137978523Y-93271000D01*
X138099476Y-93210523D01*
X138401857Y-93210523D01*
X138522809Y-93271000D01*
X138583285Y-93331476D01*
X138643761Y-93452428D01*
X138643761Y-93573380D01*
X138583285Y-93754809D01*
X137857571Y-94480523D01*
X138643761Y-94480523D01*
X138885666Y-94601476D02*
X139853285Y-94601476D01*
X140095190Y-93331476D02*
X140155666Y-93271000D01*
X140276619Y-93210523D01*
X140579000Y-93210523D01*
X140699952Y-93271000D01*
X140760428Y-93331476D01*
X140820904Y-93452428D01*
X140820904Y-93573380D01*
X140760428Y-93754809D01*
X140034714Y-94480523D01*
X140820904Y-94480523D01*
%TO.C,CON2_1*%
X134773285Y-98423571D02*
X134712809Y-98484047D01*
X134531380Y-98544523D01*
X134410428Y-98544523D01*
X134229000Y-98484047D01*
X134108047Y-98363095D01*
X134047571Y-98242142D01*
X133987095Y-98000238D01*
X133987095Y-97818809D01*
X134047571Y-97576904D01*
X134108047Y-97455952D01*
X134229000Y-97335000D01*
X134410428Y-97274523D01*
X134531380Y-97274523D01*
X134712809Y-97335000D01*
X134773285Y-97395476D01*
X135559476Y-97274523D02*
X135801380Y-97274523D01*
X135922333Y-97335000D01*
X136043285Y-97455952D01*
X136103761Y-97697857D01*
X136103761Y-98121190D01*
X136043285Y-98363095D01*
X135922333Y-98484047D01*
X135801380Y-98544523D01*
X135559476Y-98544523D01*
X135438523Y-98484047D01*
X135317571Y-98363095D01*
X135257095Y-98121190D01*
X135257095Y-97697857D01*
X135317571Y-97455952D01*
X135438523Y-97335000D01*
X135559476Y-97274523D01*
X136648047Y-98544523D02*
X136648047Y-97274523D01*
X137373761Y-98544523D01*
X137373761Y-97274523D01*
X137918047Y-97395476D02*
X137978523Y-97335000D01*
X138099476Y-97274523D01*
X138401857Y-97274523D01*
X138522809Y-97335000D01*
X138583285Y-97395476D01*
X138643761Y-97516428D01*
X138643761Y-97637380D01*
X138583285Y-97818809D01*
X137857571Y-98544523D01*
X138643761Y-98544523D01*
X138885666Y-98665476D02*
X139853285Y-98665476D01*
X140820904Y-98544523D02*
X140095190Y-98544523D01*
X140458047Y-98544523D02*
X140458047Y-97274523D01*
X140337095Y-97455952D01*
X140216142Y-97576904D01*
X140095190Y-97637380D01*
%TO.C,CON1_2*%
X79183571Y-68342714D02*
X79244047Y-68403190D01*
X79304523Y-68584619D01*
X79304523Y-68705571D01*
X79244047Y-68887000D01*
X79123095Y-69007952D01*
X79002142Y-69068428D01*
X78760238Y-69128904D01*
X78578809Y-69128904D01*
X78336904Y-69068428D01*
X78215952Y-69007952D01*
X78095000Y-68887000D01*
X78034523Y-68705571D01*
X78034523Y-68584619D01*
X78095000Y-68403190D01*
X78155476Y-68342714D01*
X78034523Y-67556523D02*
X78034523Y-67314619D01*
X78095000Y-67193666D01*
X78215952Y-67072714D01*
X78457857Y-67012238D01*
X78881190Y-67012238D01*
X79123095Y-67072714D01*
X79244047Y-67193666D01*
X79304523Y-67314619D01*
X79304523Y-67556523D01*
X79244047Y-67677476D01*
X79123095Y-67798428D01*
X78881190Y-67858904D01*
X78457857Y-67858904D01*
X78215952Y-67798428D01*
X78095000Y-67677476D01*
X78034523Y-67556523D01*
X79304523Y-66467952D02*
X78034523Y-66467952D01*
X79304523Y-65742238D01*
X78034523Y-65742238D01*
X79304523Y-64472238D02*
X79304523Y-65197952D01*
X79304523Y-64835095D02*
X78034523Y-64835095D01*
X78215952Y-64956047D01*
X78336904Y-65077000D01*
X78397380Y-65197952D01*
X79425476Y-64230333D02*
X79425476Y-63262714D01*
X78155476Y-63020809D02*
X78095000Y-62960333D01*
X78034523Y-62839380D01*
X78034523Y-62537000D01*
X78095000Y-62416047D01*
X78155476Y-62355571D01*
X78276428Y-62295095D01*
X78397380Y-62295095D01*
X78578809Y-62355571D01*
X79304523Y-63081285D01*
X79304523Y-62295095D01*
%TO.C,CON1_1*%
X82993571Y-68342714D02*
X83054047Y-68403190D01*
X83114523Y-68584619D01*
X83114523Y-68705571D01*
X83054047Y-68887000D01*
X82933095Y-69007952D01*
X82812142Y-69068428D01*
X82570238Y-69128904D01*
X82388809Y-69128904D01*
X82146904Y-69068428D01*
X82025952Y-69007952D01*
X81905000Y-68887000D01*
X81844523Y-68705571D01*
X81844523Y-68584619D01*
X81905000Y-68403190D01*
X81965476Y-68342714D01*
X81844523Y-67556523D02*
X81844523Y-67314619D01*
X81905000Y-67193666D01*
X82025952Y-67072714D01*
X82267857Y-67012238D01*
X82691190Y-67012238D01*
X82933095Y-67072714D01*
X83054047Y-67193666D01*
X83114523Y-67314619D01*
X83114523Y-67556523D01*
X83054047Y-67677476D01*
X82933095Y-67798428D01*
X82691190Y-67858904D01*
X82267857Y-67858904D01*
X82025952Y-67798428D01*
X81905000Y-67677476D01*
X81844523Y-67556523D01*
X83114523Y-66467952D02*
X81844523Y-66467952D01*
X83114523Y-65742238D01*
X81844523Y-65742238D01*
X83114523Y-64472238D02*
X83114523Y-65197952D01*
X83114523Y-64835095D02*
X81844523Y-64835095D01*
X82025952Y-64956047D01*
X82146904Y-65077000D01*
X82207380Y-65197952D01*
X83235476Y-64230333D02*
X83235476Y-63262714D01*
X83114523Y-62295095D02*
X83114523Y-63020809D01*
X83114523Y-62657952D02*
X81844523Y-62657952D01*
X82025952Y-62778904D01*
X82146904Y-62899857D01*
X82207380Y-63020809D01*
%TO.C,C2*%
D11*
X118407142Y-54030666D02*
X118454761Y-54078285D01*
X118502380Y-54221142D01*
X118502380Y-54316380D01*
X118454761Y-54459238D01*
X118359523Y-54554476D01*
X118264285Y-54602095D01*
X118073809Y-54649714D01*
X117930952Y-54649714D01*
X117740476Y-54602095D01*
X117645238Y-54554476D01*
X117550000Y-54459238D01*
X117502380Y-54316380D01*
X117502380Y-54221142D01*
X117550000Y-54078285D01*
X117597619Y-54030666D01*
X117597619Y-53649714D02*
X117550000Y-53602095D01*
X117502380Y-53506857D01*
X117502380Y-53268761D01*
X117550000Y-53173523D01*
X117597619Y-53125904D01*
X117692857Y-53078285D01*
X117788095Y-53078285D01*
X117930952Y-53125904D01*
X118502380Y-53697333D01*
X118502380Y-53078285D01*
%TO.C,C1*%
X94297142Y-55498666D02*
X94344761Y-55546285D01*
X94392380Y-55689142D01*
X94392380Y-55784380D01*
X94344761Y-55927238D01*
X94249523Y-56022476D01*
X94154285Y-56070095D01*
X93963809Y-56117714D01*
X93820952Y-56117714D01*
X93630476Y-56070095D01*
X93535238Y-56022476D01*
X93440000Y-55927238D01*
X93392380Y-55784380D01*
X93392380Y-55689142D01*
X93440000Y-55546285D01*
X93487619Y-55498666D01*
X94392380Y-54546285D02*
X94392380Y-55117714D01*
X94392380Y-54832000D02*
X93392380Y-54832000D01*
X93535238Y-54927238D01*
X93630476Y-55022476D01*
X93678095Y-55117714D01*
%TD*%
%LPC*%
D15*
%TO.C,REF\u002A\u002A*%
X157470000Y-45646000D03*
D16*
X157470000Y-45646000D03*
%TD*%
%TO.C,REF\u002A\u002A*%
X157470000Y-132006000D03*
D15*
X157470000Y-132006000D03*
%TD*%
%TO.C,REF\u002A\u002A*%
X71110000Y-132006000D03*
D16*
X71110000Y-132006000D03*
%TD*%
%TO.C,REF\u002A\u002A*%
X71110000Y-45646000D03*
D15*
X71110000Y-45646000D03*
%TD*%
D17*
%TO.C,IC2*%
X91440000Y-70802000D03*
X93980000Y-70802000D03*
X96520000Y-70802000D03*
X99060000Y-70802000D03*
X101600000Y-70802000D03*
X104140000Y-70802000D03*
X106680000Y-70802000D03*
X109220000Y-70802000D03*
X111760000Y-70802000D03*
X114300000Y-70802000D03*
X116840000Y-70802000D03*
X119380000Y-70802000D03*
X121920000Y-70802000D03*
X124460000Y-70802000D03*
X124460000Y-78740000D03*
X121920000Y-78740000D03*
X119380000Y-78740000D03*
X116840000Y-78740000D03*
X114300000Y-78740000D03*
X111760000Y-78740000D03*
X109220000Y-78740000D03*
X106680000Y-78740000D03*
X104140000Y-78740000D03*
X101600000Y-78740000D03*
X99060000Y-78740000D03*
X96520000Y-78740000D03*
X93980000Y-78740000D03*
D18*
X91440000Y-78740000D03*
%TD*%
D19*
%TO.C,CON8*%
X95758000Y-66040000D03*
X98298000Y-66040000D03*
X100838000Y-66040000D03*
X100838000Y-63500000D03*
X98298000Y-63500000D03*
D20*
X95758000Y-63500000D03*
%TD*%
D21*
%TO.C,T4*%
X109220000Y-99060000D03*
X111820000Y-99060000D03*
X114420000Y-99060000D03*
%TD*%
D22*
%TO.C,T3*%
X120650000Y-96520000D03*
X120650000Y-93980000D03*
D23*
X120650000Y-91440000D03*
%TD*%
D21*
%TO.C,T2*%
X86300000Y-99060000D03*
X88900000Y-99060000D03*
X91500000Y-99060000D03*
%TD*%
D22*
%TO.C,T1*%
X97790000Y-96520000D03*
X97790000Y-93980000D03*
D23*
X97790000Y-91440000D03*
%TD*%
D24*
%TO.C,R7*%
X87874000Y-70866000D03*
D25*
X87874000Y-78486000D03*
%TD*%
D24*
%TO.C,R6*%
X107950000Y-104140000D03*
D25*
X115570000Y-104140000D03*
%TD*%
D24*
%TO.C,R5*%
X111750000Y-90096000D03*
D25*
X111750000Y-82476000D03*
%TD*%
D24*
%TO.C,R4*%
X85090000Y-104140000D03*
D25*
X92710000Y-104140000D03*
%TD*%
D24*
%TO.C,R3*%
X88890000Y-90096000D03*
D25*
X88890000Y-82476000D03*
%TD*%
D26*
%TO.C,R2*%
X116840000Y-63500000D03*
X114340000Y-58500000D03*
X111840000Y-63500000D03*
%TD*%
D24*
%TO.C,R1*%
X122682000Y-52832000D03*
D25*
X122682000Y-60452000D03*
%TD*%
D27*
%TO.C,KK3*%
X101600000Y-56134000D03*
%TD*%
%TO.C,KK2*%
X123952000Y-93980000D03*
%TD*%
%TO.C,KK1*%
X101092000Y-93980000D03*
%TD*%
D28*
%TO.C,IC1*%
X99060000Y-52832000D03*
X101600000Y-52832000D03*
D29*
X104140000Y-52832000D03*
%TD*%
D24*
%TO.C,D2*%
X107950000Y-93980000D03*
D25*
X115570000Y-93980000D03*
%TD*%
D24*
%TO.C,D1*%
X85090000Y-93980000D03*
D25*
X92710000Y-93980000D03*
%TD*%
D30*
%TO.C,CON7_2*%
X111760000Y-116840000D03*
D31*
X111760000Y-121920000D03*
%TD*%
D30*
%TO.C,CON7_1*%
X107950000Y-116840000D03*
D31*
X107950000Y-121920000D03*
%TD*%
D30*
%TO.C,CON6_2*%
X88900000Y-116840000D03*
D31*
X88900000Y-121920000D03*
%TD*%
D30*
%TO.C,CON6_1*%
X85090000Y-116840000D03*
D31*
X85090000Y-121920000D03*
%TD*%
D30*
%TO.C,CON5_4*%
X148590000Y-116840000D03*
D31*
X148590000Y-121920000D03*
%TD*%
D30*
%TO.C,CON5_3*%
X144780000Y-116840000D03*
D31*
X144780000Y-121920000D03*
%TD*%
D30*
%TO.C,CON5_2*%
X140970000Y-116840000D03*
D31*
X140970000Y-121920000D03*
%TD*%
D30*
%TO.C,CON5_1*%
X137160000Y-116840000D03*
D31*
X137160000Y-121920000D03*
%TD*%
D30*
%TO.C,CON4_4*%
X130810000Y-116840000D03*
D31*
X130810000Y-121920000D03*
%TD*%
D30*
%TO.C,CON4_3*%
X127000000Y-116840000D03*
D31*
X127000000Y-121920000D03*
%TD*%
D30*
%TO.C,CON4_2*%
X123190000Y-116840000D03*
D31*
X123190000Y-121920000D03*
%TD*%
D30*
%TO.C,CON4_1*%
X119380000Y-116840000D03*
D31*
X119380000Y-121920000D03*
%TD*%
D30*
%TO.C,CON3_6*%
X142494000Y-53340000D03*
D31*
X147574000Y-53340000D03*
%TD*%
D30*
%TO.C,CON3_5*%
X142494000Y-57150000D03*
D31*
X147574000Y-57150000D03*
%TD*%
D30*
%TO.C,CON3_4*%
X142494000Y-60960000D03*
D31*
X147574000Y-60960000D03*
%TD*%
D30*
%TO.C,CON3_3*%
X142494000Y-64770000D03*
D31*
X147574000Y-64770000D03*
%TD*%
D30*
%TO.C,CON3_2*%
X142494000Y-68580000D03*
D31*
X147574000Y-68580000D03*
%TD*%
D30*
%TO.C,CON3_1*%
X142494000Y-72390000D03*
D31*
X147574000Y-72390000D03*
%TD*%
D30*
%TO.C,CON2_6*%
X142494000Y-78740000D03*
D31*
X147574000Y-78740000D03*
%TD*%
D30*
%TO.C,CON2_5*%
X142494000Y-82550000D03*
D31*
X147574000Y-82550000D03*
%TD*%
D30*
%TO.C,CON2_4*%
X142494000Y-86360000D03*
D31*
X147574000Y-86360000D03*
%TD*%
D30*
%TO.C,CON2_3*%
X142494000Y-90170000D03*
D31*
X147574000Y-90170000D03*
%TD*%
D30*
%TO.C,CON2_2*%
X142494000Y-93980000D03*
D31*
X147574000Y-93980000D03*
%TD*%
D30*
%TO.C,CON2_1*%
X142494000Y-97790000D03*
D31*
X147574000Y-97790000D03*
%TD*%
D30*
%TO.C,CON1_2*%
X78740000Y-60706000D03*
D31*
X78740000Y-55626000D03*
%TD*%
D30*
%TO.C,CON1_1*%
X82550000Y-60706000D03*
D31*
X82550000Y-55626000D03*
%TD*%
D25*
%TO.C,C2*%
X114300000Y-54864000D03*
X114300000Y-52864000D03*
%TD*%
%TO.C,C1*%
X91440000Y-57832000D03*
X91440000Y-52832000D03*
%TD*%
M02*
